%TF.GenerationSoftware,KiCad,Pcbnew,8.0.8*%
%TF.CreationDate,2025-02-15T21:21:14+01:00*%
%TF.ProjectId,stepperpcb,73746570-7065-4727-9063-622e6b696361,rev?*%
%TF.SameCoordinates,Original*%
%TF.FileFunction,Drillmap*%
%TF.FilePolarity,Positive*%
%FSLAX45Y45*%
G04 Gerber Fmt 4.5, Leading zero omitted, Abs format (unit mm)*
G04 Created by KiCad (PCBNEW 8.0.8) date 2025-02-15 21:21:14*
%MOMM*%
%LPD*%
G01*
G04 APERTURE LIST*
%ADD10C,0.050000*%
%ADD11C,0.200000*%
G04 APERTURE END LIST*
D10*
X7608840Y-2789710D02*
X21314680Y-2789710D01*
X21314680Y-11786390D01*
X7608840Y-11786390D01*
X7608840Y-2789710D01*
D11*
X7867117Y-12100374D02*
X7867117Y-11900374D01*
X7867117Y-11900374D02*
X7914736Y-11900374D01*
X7914736Y-11900374D02*
X7943307Y-11909898D01*
X7943307Y-11909898D02*
X7962355Y-11928945D01*
X7962355Y-11928945D02*
X7971879Y-11947993D01*
X7971879Y-11947993D02*
X7981402Y-11986088D01*
X7981402Y-11986088D02*
X7981402Y-12014659D01*
X7981402Y-12014659D02*
X7971879Y-12052755D01*
X7971879Y-12052755D02*
X7962355Y-12071802D01*
X7962355Y-12071802D02*
X7943307Y-12090850D01*
X7943307Y-12090850D02*
X7914736Y-12100374D01*
X7914736Y-12100374D02*
X7867117Y-12100374D01*
X8067117Y-12100374D02*
X8067117Y-11967040D01*
X8067117Y-12005136D02*
X8076641Y-11986088D01*
X8076641Y-11986088D02*
X8086164Y-11976564D01*
X8086164Y-11976564D02*
X8105212Y-11967040D01*
X8105212Y-11967040D02*
X8124260Y-11967040D01*
X8190926Y-12100374D02*
X8190926Y-11967040D01*
X8190926Y-11900374D02*
X8181402Y-11909898D01*
X8181402Y-11909898D02*
X8190926Y-11919421D01*
X8190926Y-11919421D02*
X8200450Y-11909898D01*
X8200450Y-11909898D02*
X8190926Y-11900374D01*
X8190926Y-11900374D02*
X8190926Y-11919421D01*
X8314736Y-12100374D02*
X8295688Y-12090850D01*
X8295688Y-12090850D02*
X8286164Y-12071802D01*
X8286164Y-12071802D02*
X8286164Y-11900374D01*
X8419498Y-12100374D02*
X8400450Y-12090850D01*
X8400450Y-12090850D02*
X8390926Y-12071802D01*
X8390926Y-12071802D02*
X8390926Y-11900374D01*
X8648069Y-12100374D02*
X8648069Y-11900374D01*
X8648069Y-11900374D02*
X8714736Y-12043231D01*
X8714736Y-12043231D02*
X8781403Y-11900374D01*
X8781403Y-11900374D02*
X8781403Y-12100374D01*
X8962355Y-12100374D02*
X8962355Y-11995612D01*
X8962355Y-11995612D02*
X8952831Y-11976564D01*
X8952831Y-11976564D02*
X8933784Y-11967040D01*
X8933784Y-11967040D02*
X8895688Y-11967040D01*
X8895688Y-11967040D02*
X8876641Y-11976564D01*
X8962355Y-12090850D02*
X8943307Y-12100374D01*
X8943307Y-12100374D02*
X8895688Y-12100374D01*
X8895688Y-12100374D02*
X8876641Y-12090850D01*
X8876641Y-12090850D02*
X8867117Y-12071802D01*
X8867117Y-12071802D02*
X8867117Y-12052755D01*
X8867117Y-12052755D02*
X8876641Y-12033707D01*
X8876641Y-12033707D02*
X8895688Y-12024183D01*
X8895688Y-12024183D02*
X8943307Y-12024183D01*
X8943307Y-12024183D02*
X8962355Y-12014659D01*
X9057593Y-11967040D02*
X9057593Y-12167040D01*
X9057593Y-11976564D02*
X9076641Y-11967040D01*
X9076641Y-11967040D02*
X9114736Y-11967040D01*
X9114736Y-11967040D02*
X9133784Y-11976564D01*
X9133784Y-11976564D02*
X9143307Y-11986088D01*
X9143307Y-11986088D02*
X9152831Y-12005136D01*
X9152831Y-12005136D02*
X9152831Y-12062278D01*
X9152831Y-12062278D02*
X9143307Y-12081326D01*
X9143307Y-12081326D02*
X9133784Y-12090850D01*
X9133784Y-12090850D02*
X9114736Y-12100374D01*
X9114736Y-12100374D02*
X9076641Y-12100374D01*
X9076641Y-12100374D02*
X9057593Y-12090850D01*
X9238545Y-12081326D02*
X9248069Y-12090850D01*
X9248069Y-12090850D02*
X9238545Y-12100374D01*
X9238545Y-12100374D02*
X9229022Y-12090850D01*
X9229022Y-12090850D02*
X9238545Y-12081326D01*
X9238545Y-12081326D02*
X9238545Y-12100374D01*
X9238545Y-11976564D02*
X9248069Y-11986088D01*
X9248069Y-11986088D02*
X9238545Y-11995612D01*
X9238545Y-11995612D02*
X9229022Y-11986088D01*
X9229022Y-11986088D02*
X9238545Y-11976564D01*
X9238545Y-11976564D02*
X9238545Y-11995612D01*
M02*
