G04 #@! TF.GenerationSoftware,KiCad,Pcbnew,8.0.8*
G04 #@! TF.CreationDate,2025-02-15T21:21:22+01:00*
G04 #@! TF.ProjectId,stepperpcb,73746570-7065-4727-9063-622e6b696361,rev?*
G04 #@! TF.SameCoordinates,Original*
G04 #@! TF.FileFunction,Paste,Bot*
G04 #@! TF.FilePolarity,Positive*
%FSLAX46Y46*%
G04 Gerber Fmt 4.6, Leading zero omitted, Abs format (unit mm)*
G04 Created by KiCad (PCBNEW 8.0.8) date 2025-02-15 21:21:22*
%MOMM*%
%LPD*%
G01*
G04 APERTURE LIST*
G04 Aperture macros list*
%AMRoundRect*
0 Rectangle with rounded corners*
0 $1 Rounding radius*
0 $2 $3 $4 $5 $6 $7 $8 $9 X,Y pos of 4 corners*
0 Add a 4 corners polygon primitive as box body*
4,1,4,$2,$3,$4,$5,$6,$7,$8,$9,$2,$3,0*
0 Add four circle primitives for the rounded corners*
1,1,$1+$1,$2,$3*
1,1,$1+$1,$4,$5*
1,1,$1+$1,$6,$7*
1,1,$1+$1,$8,$9*
0 Add four rect primitives between the rounded corners*
20,1,$1+$1,$2,$3,$4,$5,0*
20,1,$1+$1,$4,$5,$6,$7,0*
20,1,$1+$1,$6,$7,$8,$9,0*
20,1,$1+$1,$8,$9,$2,$3,0*%
G04 Aperture macros list end*
%ADD10RoundRect,0.250000X-0.412500X-0.650000X0.412500X-0.650000X0.412500X0.650000X-0.412500X0.650000X0*%
%ADD11RoundRect,0.250000X-0.625000X0.400000X-0.625000X-0.400000X0.625000X-0.400000X0.625000X0.400000X0*%
%ADD12RoundRect,0.250000X-0.650000X0.412500X-0.650000X-0.412500X0.650000X-0.412500X0.650000X0.412500X0*%
%ADD13RoundRect,0.250000X0.650000X-0.412500X0.650000X0.412500X-0.650000X0.412500X-0.650000X-0.412500X0*%
%ADD14RoundRect,0.250000X0.412500X0.650000X-0.412500X0.650000X-0.412500X-0.650000X0.412500X-0.650000X0*%
G04 APERTURE END LIST*
D10*
X172112500Y-107356000D03*
X168987500Y-107356000D03*
D11*
X169025400Y-104665600D03*
X169025400Y-101565600D03*
D12*
X186882400Y-107712400D03*
X186882400Y-104587400D03*
D11*
X184342400Y-107712400D03*
X184342400Y-104612400D03*
X181770400Y-107712400D03*
X181770400Y-104612400D03*
X190508000Y-107712400D03*
X190508000Y-104612400D03*
D10*
X187250200Y-47152000D03*
X184125200Y-47152000D03*
D13*
X202125200Y-64902000D03*
X202125200Y-68027000D03*
D10*
X155703400Y-47152000D03*
X152578400Y-47152000D03*
D13*
X170578400Y-64902000D03*
X170578400Y-68027000D03*
D10*
X124156600Y-47152000D03*
X121031600Y-47152000D03*
D13*
X139031600Y-64902000D03*
X139031600Y-68027000D03*
D10*
X155107600Y-109475000D03*
X151982600Y-109475000D03*
X144615600Y-109422400D03*
X141490600Y-109422400D03*
D14*
X197931200Y-91862000D03*
X194806200Y-91862000D03*
D12*
X200979200Y-93386000D03*
X200979200Y-90261000D03*
D11*
X193080000Y-107712400D03*
X193080000Y-104612400D03*
D13*
X107427200Y-64857200D03*
X107427200Y-67982200D03*
D10*
X134108400Y-109398800D03*
X130983400Y-109398800D03*
D11*
X175223000Y-104716400D03*
X175223000Y-101616400D03*
D12*
X195620000Y-107712400D03*
X195620000Y-104587400D03*
D13*
X123509200Y-93081200D03*
X123509200Y-89956200D03*
D10*
X92552200Y-47107200D03*
X89427200Y-47107200D03*
X178348000Y-107585400D03*
X175223000Y-107585400D03*
D14*
X112180800Y-80584400D03*
X115305800Y-80584400D03*
D10*
X112105400Y-74996400D03*
X108980400Y-74996400D03*
D13*
X118429200Y-93081200D03*
X118429200Y-89956200D03*
M02*
