%TF.GenerationSoftware,KiCad,Pcbnew,8.0.8*%
%TF.CreationDate,2025-02-15T21:21:14+01:00*%
%TF.ProjectId,stepperpcb,73746570-7065-4727-9063-622e6b696361,rev?*%
%TF.SameCoordinates,Original*%
%TF.FileFunction,Drillmap*%
%TF.FilePolarity,Positive*%
%FSLAX45Y45*%
G04 Gerber Fmt 4.5, Leading zero omitted, Abs format (unit mm)*
G04 Created by KiCad (PCBNEW 8.0.8) date 2025-02-15 21:21:14*
%MOMM*%
%LPD*%
G01*
G04 APERTURE LIST*
%ADD10C,0.050000*%
%ADD11C,0.200000*%
%ADD12C,0.100000*%
%ADD13C,0.110000*%
%ADD14C,0.120000*%
%ADD15C,0.130000*%
%ADD16C,0.320000*%
G04 APERTURE END LIST*
D10*
X7608840Y-2789710D02*
X21314680Y-2789710D01*
X21314680Y-11786390D01*
X7608840Y-11786390D01*
X7608840Y-2789710D01*
D11*
D12*
X10344560Y-4771920D02*
X10374560Y-4801920D01*
X10374560Y-4771920D02*
X10344560Y-4801920D01*
X10349640Y-5386600D02*
X10379640Y-5416600D01*
X10379640Y-5386600D02*
X10349640Y-5416600D01*
X11076080Y-8038360D02*
X11106080Y-8068360D01*
X11106080Y-8038360D02*
X11076080Y-8068360D01*
X11314840Y-7484640D02*
X11344840Y-7514640D01*
X11344840Y-7484640D02*
X11314840Y-7514640D01*
X11772040Y-8861320D02*
X11802040Y-8891320D01*
X11802040Y-8861320D02*
X11772040Y-8891320D01*
X11833000Y-8861320D02*
X11863000Y-8891320D01*
X11863000Y-8861320D02*
X11833000Y-8891320D01*
X11893960Y-8861320D02*
X11923960Y-8891320D01*
X11923960Y-8861320D02*
X11893960Y-8891320D01*
X12274960Y-8861320D02*
X12304960Y-8891320D01*
X12304960Y-8861320D02*
X12274960Y-8891320D01*
X12335920Y-8861320D02*
X12365920Y-8891320D01*
X12365920Y-8861320D02*
X12335920Y-8891320D01*
X12396880Y-8861320D02*
X12426880Y-8891320D01*
X12426880Y-8861320D02*
X12396880Y-8891320D01*
X13372240Y-7328700D02*
X13402240Y-7358700D01*
X13402240Y-7328700D02*
X13372240Y-7358700D01*
X13528160Y-4771920D02*
X13558160Y-4801920D01*
X13558160Y-4771920D02*
X13528160Y-4801920D01*
X13528160Y-5446440D02*
X13558160Y-5476440D01*
X13558160Y-5446440D02*
X13528160Y-5476440D01*
X13621160Y-7266200D02*
X13651160Y-7296200D01*
X13651160Y-7266200D02*
X13621160Y-7296200D01*
X16526920Y-7328700D02*
X16556920Y-7358700D01*
X16556920Y-7328700D02*
X16526920Y-7358700D01*
X16669160Y-5539000D02*
X16699160Y-5569000D01*
X16699160Y-5539000D02*
X16669160Y-5569000D01*
X16682840Y-4756680D02*
X16712840Y-4786680D01*
X16712840Y-4756680D02*
X16682840Y-4786680D01*
X16775840Y-7266200D02*
X16805840Y-7296200D01*
X16805840Y-7266200D02*
X16775840Y-7296200D01*
X17060300Y-10453900D02*
X17090300Y-10483900D01*
X17090300Y-10453900D02*
X17060300Y-10483900D01*
X17314300Y-10456640D02*
X17344300Y-10486640D01*
X17344300Y-10456640D02*
X17314300Y-10486640D01*
X17700400Y-7052840D02*
X17730400Y-7082840D01*
X17730400Y-7052840D02*
X17700400Y-7082840D01*
X17708020Y-7410980D02*
X17738020Y-7440980D01*
X17738020Y-7410980D02*
X17708020Y-7440980D01*
X17862960Y-7057920D02*
X17892960Y-7087920D01*
X17892960Y-7057920D02*
X17862960Y-7087920D01*
X17865500Y-7410980D02*
X17895500Y-7440980D01*
X17895500Y-7410980D02*
X17865500Y-7440980D01*
X17995020Y-10433580D02*
X18025020Y-10463580D01*
X18025020Y-10433580D02*
X17995020Y-10463580D01*
X18020440Y-7052840D02*
X18050440Y-7082840D01*
X18050440Y-7052840D02*
X18020440Y-7082840D01*
X18020440Y-7408440D02*
X18050440Y-7438440D01*
X18050440Y-7408440D02*
X18020440Y-7438440D01*
X18177920Y-7052840D02*
X18207920Y-7082840D01*
X18207920Y-7052840D02*
X18177920Y-7082840D01*
X18177920Y-7413520D02*
X18207920Y-7443520D01*
X18207920Y-7413520D02*
X18177920Y-7443520D01*
X18858620Y-10433580D02*
X18888620Y-10463580D01*
X18888620Y-10433580D02*
X18858620Y-10463580D01*
X19676520Y-7328700D02*
X19706520Y-7358700D01*
X19706520Y-7328700D02*
X19676520Y-7358700D01*
X19722240Y-5483120D02*
X19752240Y-5513120D01*
X19752240Y-5483120D02*
X19722240Y-5513120D01*
X19930520Y-7266200D02*
X19960520Y-7296200D01*
X19960520Y-7266200D02*
X19930520Y-7296200D01*
X19950840Y-5472960D02*
X19980840Y-5502960D01*
X19980840Y-5472960D02*
X19950840Y-5502960D01*
X20042280Y-6448320D02*
X20072280Y-6478320D01*
X20072280Y-6448320D02*
X20042280Y-6478320D01*
X20042280Y-6509280D02*
X20072280Y-6539280D01*
X20072280Y-6509280D02*
X20042280Y-6539280D01*
X8082720Y-4460720D02*
G75*
G02*
X8002720Y-4460720I-40000J0D01*
G01*
X8002720Y-4460720D02*
G75*
G02*
X8082720Y-4460720I40000J0D01*
G01*
X8582720Y-4460720D02*
G75*
G02*
X8502720Y-4460720I-40000J0D01*
G01*
X8502720Y-4460720D02*
G75*
G02*
X8582720Y-4460720I40000J0D01*
G01*
X8779040Y-8824440D02*
G75*
G02*
X8699040Y-8824440I-40000J0D01*
G01*
X8699040Y-8824440D02*
G75*
G02*
X8779040Y-8824440I40000J0D01*
G01*
X8779040Y-9324440D02*
G75*
G02*
X8699040Y-9324440I-40000J0D01*
G01*
X8699040Y-9324440D02*
G75*
G02*
X8779040Y-9324440I40000J0D01*
G01*
X8991720Y-6260720D02*
G75*
G02*
X8911720Y-6260720I-40000J0D01*
G01*
X8911720Y-6260720D02*
G75*
G02*
X8991720Y-6260720I40000J0D01*
G01*
X8991720Y-7022720D02*
G75*
G02*
X8911720Y-7022720I-40000J0D01*
G01*
X8911720Y-7022720D02*
G75*
G02*
X8991720Y-7022720I40000J0D01*
G01*
X9008720Y-4460720D02*
G75*
G02*
X8928720Y-4460720I-40000J0D01*
G01*
X8928720Y-4460720D02*
G75*
G02*
X9008720Y-4460720I40000J0D01*
G01*
X9008720Y-5730720D02*
G75*
G02*
X8928720Y-5730720I-40000J0D01*
G01*
X8928720Y-5730720D02*
G75*
G02*
X9008720Y-5730720I40000J0D01*
G01*
X9245720Y-6260720D02*
G75*
G02*
X9165720Y-6260720I-40000J0D01*
G01*
X9165720Y-6260720D02*
G75*
G02*
X9245720Y-6260720I40000J0D01*
G01*
X9245720Y-7022720D02*
G75*
G02*
X9165720Y-7022720I-40000J0D01*
G01*
X9165720Y-7022720D02*
G75*
G02*
X9245720Y-7022720I40000J0D01*
G01*
X9262720Y-4460720D02*
G75*
G02*
X9182720Y-4460720I-40000J0D01*
G01*
X9182720Y-4460720D02*
G75*
G02*
X9262720Y-4460720I40000J0D01*
G01*
X9262720Y-5730720D02*
G75*
G02*
X9182720Y-5730720I-40000J0D01*
G01*
X9182720Y-5730720D02*
G75*
G02*
X9262720Y-5730720I40000J0D01*
G01*
X9499720Y-6260720D02*
G75*
G02*
X9419720Y-6260720I-40000J0D01*
G01*
X9419720Y-6260720D02*
G75*
G02*
X9499720Y-6260720I40000J0D01*
G01*
X9499720Y-7022720D02*
G75*
G02*
X9419720Y-7022720I-40000J0D01*
G01*
X9419720Y-7022720D02*
G75*
G02*
X9499720Y-7022720I40000J0D01*
G01*
X9516720Y-4460720D02*
G75*
G02*
X9436720Y-4460720I-40000J0D01*
G01*
X9436720Y-4460720D02*
G75*
G02*
X9516720Y-4460720I40000J0D01*
G01*
X9516720Y-5730720D02*
G75*
G02*
X9436720Y-5730720I-40000J0D01*
G01*
X9436720Y-5730720D02*
G75*
G02*
X9516720Y-5730720I40000J0D01*
G01*
X9753720Y-6260720D02*
G75*
G02*
X9673720Y-6260720I-40000J0D01*
G01*
X9673720Y-6260720D02*
G75*
G02*
X9753720Y-6260720I40000J0D01*
G01*
X9753720Y-7022720D02*
G75*
G02*
X9673720Y-7022720I-40000J0D01*
G01*
X9673720Y-7022720D02*
G75*
G02*
X9753720Y-7022720I40000J0D01*
G01*
X9770720Y-4460720D02*
G75*
G02*
X9690720Y-4460720I-40000J0D01*
G01*
X9690720Y-4460720D02*
G75*
G02*
X9770720Y-4460720I40000J0D01*
G01*
X9770720Y-5730720D02*
G75*
G02*
X9690720Y-5730720I-40000J0D01*
G01*
X9690720Y-5730720D02*
G75*
G02*
X9770720Y-5730720I40000J0D01*
G01*
X10007720Y-6260720D02*
G75*
G02*
X9927720Y-6260720I-40000J0D01*
G01*
X9927720Y-6260720D02*
G75*
G02*
X10007720Y-6260720I40000J0D01*
G01*
X10007720Y-7022720D02*
G75*
G02*
X9927720Y-7022720I-40000J0D01*
G01*
X9927720Y-7022720D02*
G75*
G02*
X10007720Y-7022720I40000J0D01*
G01*
X10024720Y-4460720D02*
G75*
G02*
X9944720Y-4460720I-40000J0D01*
G01*
X9944720Y-4460720D02*
G75*
G02*
X10024720Y-4460720I40000J0D01*
G01*
X10024720Y-5730720D02*
G75*
G02*
X9944720Y-5730720I-40000J0D01*
G01*
X9944720Y-5730720D02*
G75*
G02*
X10024720Y-5730720I40000J0D01*
G01*
X10261720Y-6260720D02*
G75*
G02*
X10181720Y-6260720I-40000J0D01*
G01*
X10181720Y-6260720D02*
G75*
G02*
X10261720Y-6260720I40000J0D01*
G01*
X10261720Y-7022720D02*
G75*
G02*
X10181720Y-7022720I-40000J0D01*
G01*
X10181720Y-7022720D02*
G75*
G02*
X10261720Y-7022720I40000J0D01*
G01*
X10278720Y-4460720D02*
G75*
G02*
X10198720Y-4460720I-40000J0D01*
G01*
X10198720Y-4460720D02*
G75*
G02*
X10278720Y-4460720I40000J0D01*
G01*
X10278720Y-5730720D02*
G75*
G02*
X10198720Y-5730720I-40000J0D01*
G01*
X10198720Y-5730720D02*
G75*
G02*
X10278720Y-5730720I40000J0D01*
G01*
X10515720Y-6260720D02*
G75*
G02*
X10435720Y-6260720I-40000J0D01*
G01*
X10435720Y-6260720D02*
G75*
G02*
X10515720Y-6260720I40000J0D01*
G01*
X10515720Y-7022720D02*
G75*
G02*
X10435720Y-7022720I-40000J0D01*
G01*
X10435720Y-7022720D02*
G75*
G02*
X10515720Y-7022720I40000J0D01*
G01*
X10532720Y-4460720D02*
G75*
G02*
X10452720Y-4460720I-40000J0D01*
G01*
X10452720Y-4460720D02*
G75*
G02*
X10532720Y-4460720I40000J0D01*
G01*
X10532720Y-5730720D02*
G75*
G02*
X10452720Y-5730720I-40000J0D01*
G01*
X10452720Y-5730720D02*
G75*
G02*
X10532720Y-5730720I40000J0D01*
G01*
X10769720Y-6260720D02*
G75*
G02*
X10689720Y-6260720I-40000J0D01*
G01*
X10689720Y-6260720D02*
G75*
G02*
X10769720Y-6260720I40000J0D01*
G01*
X10769720Y-7022720D02*
G75*
G02*
X10689720Y-7022720I-40000J0D01*
G01*
X10689720Y-7022720D02*
G75*
G02*
X10769720Y-7022720I40000J0D01*
G01*
X10786720Y-4460720D02*
G75*
G02*
X10706720Y-4460720I-40000J0D01*
G01*
X10706720Y-4460720D02*
G75*
G02*
X10786720Y-4460720I40000J0D01*
G01*
X10786720Y-5730720D02*
G75*
G02*
X10706720Y-5730720I-40000J0D01*
G01*
X10706720Y-5730720D02*
G75*
G02*
X10786720Y-5730720I40000J0D01*
G01*
X11243160Y-4465200D02*
G75*
G02*
X11163160Y-4465200I-40000J0D01*
G01*
X11163160Y-4465200D02*
G75*
G02*
X11243160Y-4465200I40000J0D01*
G01*
X11743160Y-4465200D02*
G75*
G02*
X11663160Y-4465200I-40000J0D01*
G01*
X11663160Y-4465200D02*
G75*
G02*
X11743160Y-4465200I40000J0D01*
G01*
X12152160Y-6265200D02*
G75*
G02*
X12072160Y-6265200I-40000J0D01*
G01*
X12072160Y-6265200D02*
G75*
G02*
X12152160Y-6265200I40000J0D01*
G01*
X12152160Y-7027200D02*
G75*
G02*
X12072160Y-7027200I-40000J0D01*
G01*
X12072160Y-7027200D02*
G75*
G02*
X12152160Y-7027200I40000J0D01*
G01*
X12169160Y-4465200D02*
G75*
G02*
X12089160Y-4465200I-40000J0D01*
G01*
X12089160Y-4465200D02*
G75*
G02*
X12169160Y-4465200I40000J0D01*
G01*
X12169160Y-5735200D02*
G75*
G02*
X12089160Y-5735200I-40000J0D01*
G01*
X12089160Y-5735200D02*
G75*
G02*
X12169160Y-5735200I40000J0D01*
G01*
X12406160Y-6265200D02*
G75*
G02*
X12326160Y-6265200I-40000J0D01*
G01*
X12326160Y-6265200D02*
G75*
G02*
X12406160Y-6265200I40000J0D01*
G01*
X12406160Y-7027200D02*
G75*
G02*
X12326160Y-7027200I-40000J0D01*
G01*
X12326160Y-7027200D02*
G75*
G02*
X12406160Y-7027200I40000J0D01*
G01*
X12423160Y-4465200D02*
G75*
G02*
X12343160Y-4465200I-40000J0D01*
G01*
X12343160Y-4465200D02*
G75*
G02*
X12423160Y-4465200I40000J0D01*
G01*
X12423160Y-5735200D02*
G75*
G02*
X12343160Y-5735200I-40000J0D01*
G01*
X12343160Y-5735200D02*
G75*
G02*
X12423160Y-5735200I40000J0D01*
G01*
X12660160Y-6265200D02*
G75*
G02*
X12580160Y-6265200I-40000J0D01*
G01*
X12580160Y-6265200D02*
G75*
G02*
X12660160Y-6265200I40000J0D01*
G01*
X12660160Y-7027200D02*
G75*
G02*
X12580160Y-7027200I-40000J0D01*
G01*
X12580160Y-7027200D02*
G75*
G02*
X12660160Y-7027200I40000J0D01*
G01*
X12677160Y-4465200D02*
G75*
G02*
X12597160Y-4465200I-40000J0D01*
G01*
X12597160Y-4465200D02*
G75*
G02*
X12677160Y-4465200I40000J0D01*
G01*
X12677160Y-5735200D02*
G75*
G02*
X12597160Y-5735200I-40000J0D01*
G01*
X12597160Y-5735200D02*
G75*
G02*
X12677160Y-5735200I40000J0D01*
G01*
X12914160Y-6265200D02*
G75*
G02*
X12834160Y-6265200I-40000J0D01*
G01*
X12834160Y-6265200D02*
G75*
G02*
X12914160Y-6265200I40000J0D01*
G01*
X12914160Y-7027200D02*
G75*
G02*
X12834160Y-7027200I-40000J0D01*
G01*
X12834160Y-7027200D02*
G75*
G02*
X12914160Y-7027200I40000J0D01*
G01*
X12931160Y-4465200D02*
G75*
G02*
X12851160Y-4465200I-40000J0D01*
G01*
X12851160Y-4465200D02*
G75*
G02*
X12931160Y-4465200I40000J0D01*
G01*
X12931160Y-5735200D02*
G75*
G02*
X12851160Y-5735200I-40000J0D01*
G01*
X12851160Y-5735200D02*
G75*
G02*
X12931160Y-5735200I40000J0D01*
G01*
X12947840Y-10254080D02*
G75*
G02*
X12867840Y-10254080I-40000J0D01*
G01*
X12867840Y-10254080D02*
G75*
G02*
X12947840Y-10254080I40000J0D01*
G01*
X13168160Y-6265200D02*
G75*
G02*
X13088160Y-6265200I-40000J0D01*
G01*
X13088160Y-6265200D02*
G75*
G02*
X13168160Y-6265200I40000J0D01*
G01*
X13168160Y-7027200D02*
G75*
G02*
X13088160Y-7027200I-40000J0D01*
G01*
X13088160Y-7027200D02*
G75*
G02*
X13168160Y-7027200I40000J0D01*
G01*
X13185160Y-4465200D02*
G75*
G02*
X13105160Y-4465200I-40000J0D01*
G01*
X13105160Y-4465200D02*
G75*
G02*
X13185160Y-4465200I40000J0D01*
G01*
X13185160Y-5735200D02*
G75*
G02*
X13105160Y-5735200I-40000J0D01*
G01*
X13105160Y-5735200D02*
G75*
G02*
X13185160Y-5735200I40000J0D01*
G01*
X13422160Y-6265200D02*
G75*
G02*
X13342160Y-6265200I-40000J0D01*
G01*
X13342160Y-6265200D02*
G75*
G02*
X13422160Y-6265200I40000J0D01*
G01*
X13422160Y-7027200D02*
G75*
G02*
X13342160Y-7027200I-40000J0D01*
G01*
X13342160Y-7027200D02*
G75*
G02*
X13422160Y-7027200I40000J0D01*
G01*
X13439160Y-4465200D02*
G75*
G02*
X13359160Y-4465200I-40000J0D01*
G01*
X13359160Y-4465200D02*
G75*
G02*
X13439160Y-4465200I40000J0D01*
G01*
X13439160Y-5735200D02*
G75*
G02*
X13359160Y-5735200I-40000J0D01*
G01*
X13359160Y-5735200D02*
G75*
G02*
X13439160Y-5735200I40000J0D01*
G01*
X13447840Y-10254080D02*
G75*
G02*
X13367840Y-10254080I-40000J0D01*
G01*
X13367840Y-10254080D02*
G75*
G02*
X13447840Y-10254080I40000J0D01*
G01*
X13676160Y-6265200D02*
G75*
G02*
X13596160Y-6265200I-40000J0D01*
G01*
X13596160Y-6265200D02*
G75*
G02*
X13676160Y-6265200I40000J0D01*
G01*
X13676160Y-7027200D02*
G75*
G02*
X13596160Y-7027200I-40000J0D01*
G01*
X13596160Y-7027200D02*
G75*
G02*
X13676160Y-7027200I40000J0D01*
G01*
X13693160Y-4465200D02*
G75*
G02*
X13613160Y-4465200I-40000J0D01*
G01*
X13613160Y-4465200D02*
G75*
G02*
X13693160Y-4465200I40000J0D01*
G01*
X13693160Y-5735200D02*
G75*
G02*
X13613160Y-5735200I-40000J0D01*
G01*
X13613160Y-5735200D02*
G75*
G02*
X13693160Y-5735200I40000J0D01*
G01*
X13930160Y-6265200D02*
G75*
G02*
X13850160Y-6265200I-40000J0D01*
G01*
X13850160Y-6265200D02*
G75*
G02*
X13930160Y-6265200I40000J0D01*
G01*
X13930160Y-7027200D02*
G75*
G02*
X13850160Y-7027200I-40000J0D01*
G01*
X13850160Y-7027200D02*
G75*
G02*
X13930160Y-7027200I40000J0D01*
G01*
X13947160Y-4465200D02*
G75*
G02*
X13867160Y-4465200I-40000J0D01*
G01*
X13867160Y-4465200D02*
G75*
G02*
X13947160Y-4465200I40000J0D01*
G01*
X13947160Y-5735200D02*
G75*
G02*
X13867160Y-5735200I-40000J0D01*
G01*
X13867160Y-5735200D02*
G75*
G02*
X13947160Y-5735200I40000J0D01*
G01*
X13998560Y-10256440D02*
G75*
G02*
X13918560Y-10256440I-40000J0D01*
G01*
X13918560Y-10256440D02*
G75*
G02*
X13998560Y-10256440I40000J0D01*
G01*
X14397840Y-4465200D02*
G75*
G02*
X14317840Y-4465200I-40000J0D01*
G01*
X14317840Y-4465200D02*
G75*
G02*
X14397840Y-4465200I40000J0D01*
G01*
X14498560Y-10256440D02*
G75*
G02*
X14418560Y-10256440I-40000J0D01*
G01*
X14418560Y-10256440D02*
G75*
G02*
X14498560Y-10256440I40000J0D01*
G01*
X14897840Y-4465200D02*
G75*
G02*
X14817840Y-4465200I-40000J0D01*
G01*
X14817840Y-4465200D02*
G75*
G02*
X14897840Y-4465200I40000J0D01*
G01*
X15047760Y-10261700D02*
G75*
G02*
X14967760Y-10261700I-40000J0D01*
G01*
X14967760Y-10261700D02*
G75*
G02*
X15047760Y-10261700I40000J0D01*
G01*
X15306840Y-6265200D02*
G75*
G02*
X15226840Y-6265200I-40000J0D01*
G01*
X15226840Y-6265200D02*
G75*
G02*
X15306840Y-6265200I40000J0D01*
G01*
X15306840Y-7027200D02*
G75*
G02*
X15226840Y-7027200I-40000J0D01*
G01*
X15226840Y-7027200D02*
G75*
G02*
X15306840Y-7027200I40000J0D01*
G01*
X15323840Y-4465200D02*
G75*
G02*
X15243840Y-4465200I-40000J0D01*
G01*
X15243840Y-4465200D02*
G75*
G02*
X15323840Y-4465200I40000J0D01*
G01*
X15323840Y-5735200D02*
G75*
G02*
X15243840Y-5735200I-40000J0D01*
G01*
X15243840Y-5735200D02*
G75*
G02*
X15323840Y-5735200I40000J0D01*
G01*
X15547760Y-10261700D02*
G75*
G02*
X15467760Y-10261700I-40000J0D01*
G01*
X15467760Y-10261700D02*
G75*
G02*
X15547760Y-10261700I40000J0D01*
G01*
X15560840Y-6265200D02*
G75*
G02*
X15480840Y-6265200I-40000J0D01*
G01*
X15480840Y-6265200D02*
G75*
G02*
X15560840Y-6265200I40000J0D01*
G01*
X15560840Y-7027200D02*
G75*
G02*
X15480840Y-7027200I-40000J0D01*
G01*
X15480840Y-7027200D02*
G75*
G02*
X15560840Y-7027200I40000J0D01*
G01*
X15577840Y-4465200D02*
G75*
G02*
X15497840Y-4465200I-40000J0D01*
G01*
X15497840Y-4465200D02*
G75*
G02*
X15577840Y-4465200I40000J0D01*
G01*
X15577840Y-5735200D02*
G75*
G02*
X15497840Y-5735200I-40000J0D01*
G01*
X15497840Y-5735200D02*
G75*
G02*
X15577840Y-5735200I40000J0D01*
G01*
X15814840Y-6265200D02*
G75*
G02*
X15734840Y-6265200I-40000J0D01*
G01*
X15734840Y-6265200D02*
G75*
G02*
X15814840Y-6265200I40000J0D01*
G01*
X15814840Y-7027200D02*
G75*
G02*
X15734840Y-7027200I-40000J0D01*
G01*
X15734840Y-7027200D02*
G75*
G02*
X15814840Y-7027200I40000J0D01*
G01*
X15831840Y-4465200D02*
G75*
G02*
X15751840Y-4465200I-40000J0D01*
G01*
X15751840Y-4465200D02*
G75*
G02*
X15831840Y-4465200I40000J0D01*
G01*
X15831840Y-5735200D02*
G75*
G02*
X15751840Y-5735200I-40000J0D01*
G01*
X15751840Y-5735200D02*
G75*
G02*
X15831840Y-5735200I40000J0D01*
G01*
X16068840Y-6265200D02*
G75*
G02*
X15988840Y-6265200I-40000J0D01*
G01*
X15988840Y-6265200D02*
G75*
G02*
X16068840Y-6265200I40000J0D01*
G01*
X16068840Y-7027200D02*
G75*
G02*
X15988840Y-7027200I-40000J0D01*
G01*
X15988840Y-7027200D02*
G75*
G02*
X16068840Y-7027200I40000J0D01*
G01*
X16085840Y-4465200D02*
G75*
G02*
X16005840Y-4465200I-40000J0D01*
G01*
X16005840Y-4465200D02*
G75*
G02*
X16085840Y-4465200I40000J0D01*
G01*
X16085840Y-5735200D02*
G75*
G02*
X16005840Y-5735200I-40000J0D01*
G01*
X16005840Y-5735200D02*
G75*
G02*
X16085840Y-5735200I40000J0D01*
G01*
X16322840Y-6265200D02*
G75*
G02*
X16242840Y-6265200I-40000J0D01*
G01*
X16242840Y-6265200D02*
G75*
G02*
X16322840Y-6265200I40000J0D01*
G01*
X16322840Y-7027200D02*
G75*
G02*
X16242840Y-7027200I-40000J0D01*
G01*
X16242840Y-7027200D02*
G75*
G02*
X16322840Y-7027200I40000J0D01*
G01*
X16339840Y-4465200D02*
G75*
G02*
X16259840Y-4465200I-40000J0D01*
G01*
X16259840Y-4465200D02*
G75*
G02*
X16339840Y-4465200I40000J0D01*
G01*
X16339840Y-5735200D02*
G75*
G02*
X16259840Y-5735200I-40000J0D01*
G01*
X16259840Y-5735200D02*
G75*
G02*
X16339840Y-5735200I40000J0D01*
G01*
X16576840Y-6265200D02*
G75*
G02*
X16496840Y-6265200I-40000J0D01*
G01*
X16496840Y-6265200D02*
G75*
G02*
X16576840Y-6265200I40000J0D01*
G01*
X16576840Y-7027200D02*
G75*
G02*
X16496840Y-7027200I-40000J0D01*
G01*
X16496840Y-7027200D02*
G75*
G02*
X16576840Y-7027200I40000J0D01*
G01*
X16593840Y-4465200D02*
G75*
G02*
X16513840Y-4465200I-40000J0D01*
G01*
X16513840Y-4465200D02*
G75*
G02*
X16593840Y-4465200I40000J0D01*
G01*
X16593840Y-5735200D02*
G75*
G02*
X16513840Y-5735200I-40000J0D01*
G01*
X16513840Y-5735200D02*
G75*
G02*
X16593840Y-5735200I40000J0D01*
G01*
X16830840Y-6265200D02*
G75*
G02*
X16750840Y-6265200I-40000J0D01*
G01*
X16750840Y-6265200D02*
G75*
G02*
X16830840Y-6265200I40000J0D01*
G01*
X16830840Y-7027200D02*
G75*
G02*
X16750840Y-7027200I-40000J0D01*
G01*
X16750840Y-7027200D02*
G75*
G02*
X16830840Y-7027200I40000J0D01*
G01*
X16847840Y-4465200D02*
G75*
G02*
X16767840Y-4465200I-40000J0D01*
G01*
X16767840Y-4465200D02*
G75*
G02*
X16847840Y-4465200I40000J0D01*
G01*
X16847840Y-5735200D02*
G75*
G02*
X16767840Y-5735200I-40000J0D01*
G01*
X16767840Y-5735200D02*
G75*
G02*
X16847840Y-5735200I40000J0D01*
G01*
X17084840Y-6265200D02*
G75*
G02*
X17004840Y-6265200I-40000J0D01*
G01*
X17004840Y-6265200D02*
G75*
G02*
X17084840Y-6265200I40000J0D01*
G01*
X17084840Y-7027200D02*
G75*
G02*
X17004840Y-7027200I-40000J0D01*
G01*
X17004840Y-7027200D02*
G75*
G02*
X17084840Y-7027200I40000J0D01*
G01*
X17101840Y-4465200D02*
G75*
G02*
X17021840Y-4465200I-40000J0D01*
G01*
X17021840Y-4465200D02*
G75*
G02*
X17101840Y-4465200I40000J0D01*
G01*
X17101840Y-5735200D02*
G75*
G02*
X17021840Y-5735200I-40000J0D01*
G01*
X17021840Y-5735200D02*
G75*
G02*
X17101840Y-5735200I40000J0D01*
G01*
X17552520Y-4465200D02*
G75*
G02*
X17472520Y-4465200I-40000J0D01*
G01*
X17472520Y-4465200D02*
G75*
G02*
X17552520Y-4465200I40000J0D01*
G01*
X18052520Y-4465200D02*
G75*
G02*
X17972520Y-4465200I-40000J0D01*
G01*
X17972520Y-4465200D02*
G75*
G02*
X18052520Y-4465200I40000J0D01*
G01*
X18212580Y-10082820D02*
G75*
G02*
X18132580Y-10082820I-40000J0D01*
G01*
X18132580Y-10082820D02*
G75*
G02*
X18212580Y-10082820I40000J0D01*
G01*
X18461520Y-6265200D02*
G75*
G02*
X18381520Y-6265200I-40000J0D01*
G01*
X18381520Y-6265200D02*
G75*
G02*
X18461520Y-6265200I40000J0D01*
G01*
X18461520Y-7027200D02*
G75*
G02*
X18381520Y-7027200I-40000J0D01*
G01*
X18381520Y-7027200D02*
G75*
G02*
X18461520Y-7027200I40000J0D01*
G01*
X18466580Y-10082820D02*
G75*
G02*
X18386580Y-10082820I-40000J0D01*
G01*
X18386580Y-10082820D02*
G75*
G02*
X18466580Y-10082820I40000J0D01*
G01*
X18478520Y-4465200D02*
G75*
G02*
X18398520Y-4465200I-40000J0D01*
G01*
X18398520Y-4465200D02*
G75*
G02*
X18478520Y-4465200I40000J0D01*
G01*
X18478520Y-5735200D02*
G75*
G02*
X18398520Y-5735200I-40000J0D01*
G01*
X18398520Y-5735200D02*
G75*
G02*
X18478520Y-5735200I40000J0D01*
G01*
X18715520Y-6265200D02*
G75*
G02*
X18635520Y-6265200I-40000J0D01*
G01*
X18635520Y-6265200D02*
G75*
G02*
X18715520Y-6265200I40000J0D01*
G01*
X18715520Y-7027200D02*
G75*
G02*
X18635520Y-7027200I-40000J0D01*
G01*
X18635520Y-7027200D02*
G75*
G02*
X18715520Y-7027200I40000J0D01*
G01*
X18720580Y-10082820D02*
G75*
G02*
X18640580Y-10082820I-40000J0D01*
G01*
X18640580Y-10082820D02*
G75*
G02*
X18720580Y-10082820I40000J0D01*
G01*
X18732520Y-4465200D02*
G75*
G02*
X18652520Y-4465200I-40000J0D01*
G01*
X18652520Y-4465200D02*
G75*
G02*
X18732520Y-4465200I40000J0D01*
G01*
X18732520Y-5735200D02*
G75*
G02*
X18652520Y-5735200I-40000J0D01*
G01*
X18652520Y-5735200D02*
G75*
G02*
X18732520Y-5735200I40000J0D01*
G01*
X18969520Y-6265200D02*
G75*
G02*
X18889520Y-6265200I-40000J0D01*
G01*
X18889520Y-6265200D02*
G75*
G02*
X18969520Y-6265200I40000J0D01*
G01*
X18969520Y-7027200D02*
G75*
G02*
X18889520Y-7027200I-40000J0D01*
G01*
X18889520Y-7027200D02*
G75*
G02*
X18969520Y-7027200I40000J0D01*
G01*
X18986520Y-4465200D02*
G75*
G02*
X18906520Y-4465200I-40000J0D01*
G01*
X18906520Y-4465200D02*
G75*
G02*
X18986520Y-4465200I40000J0D01*
G01*
X18986520Y-5735200D02*
G75*
G02*
X18906520Y-5735200I-40000J0D01*
G01*
X18906520Y-5735200D02*
G75*
G02*
X18986520Y-5735200I40000J0D01*
G01*
X19223520Y-6265200D02*
G75*
G02*
X19143520Y-6265200I-40000J0D01*
G01*
X19143520Y-6265200D02*
G75*
G02*
X19223520Y-6265200I40000J0D01*
G01*
X19223520Y-7027200D02*
G75*
G02*
X19143520Y-7027200I-40000J0D01*
G01*
X19143520Y-7027200D02*
G75*
G02*
X19223520Y-7027200I40000J0D01*
G01*
X19233660Y-10082820D02*
G75*
G02*
X19153660Y-10082820I-40000J0D01*
G01*
X19153660Y-10082820D02*
G75*
G02*
X19233660Y-10082820I40000J0D01*
G01*
X19240520Y-4465200D02*
G75*
G02*
X19160520Y-4465200I-40000J0D01*
G01*
X19160520Y-4465200D02*
G75*
G02*
X19240520Y-4465200I40000J0D01*
G01*
X19240520Y-5735200D02*
G75*
G02*
X19160520Y-5735200I-40000J0D01*
G01*
X19160520Y-5735200D02*
G75*
G02*
X19240520Y-5735200I40000J0D01*
G01*
X19477520Y-6265200D02*
G75*
G02*
X19397520Y-6265200I-40000J0D01*
G01*
X19397520Y-6265200D02*
G75*
G02*
X19477520Y-6265200I40000J0D01*
G01*
X19477520Y-7027200D02*
G75*
G02*
X19397520Y-7027200I-40000J0D01*
G01*
X19397520Y-7027200D02*
G75*
G02*
X19477520Y-7027200I40000J0D01*
G01*
X19487660Y-10082820D02*
G75*
G02*
X19407660Y-10082820I-40000J0D01*
G01*
X19407660Y-10082820D02*
G75*
G02*
X19487660Y-10082820I40000J0D01*
G01*
X19494520Y-4465200D02*
G75*
G02*
X19414520Y-4465200I-40000J0D01*
G01*
X19414520Y-4465200D02*
G75*
G02*
X19494520Y-4465200I40000J0D01*
G01*
X19494520Y-5735200D02*
G75*
G02*
X19414520Y-5735200I-40000J0D01*
G01*
X19414520Y-5735200D02*
G75*
G02*
X19494520Y-5735200I40000J0D01*
G01*
X19731520Y-6265200D02*
G75*
G02*
X19651520Y-6265200I-40000J0D01*
G01*
X19651520Y-6265200D02*
G75*
G02*
X19731520Y-6265200I40000J0D01*
G01*
X19731520Y-7027200D02*
G75*
G02*
X19651520Y-7027200I-40000J0D01*
G01*
X19651520Y-7027200D02*
G75*
G02*
X19731520Y-7027200I40000J0D01*
G01*
X19741660Y-10082820D02*
G75*
G02*
X19661660Y-10082820I-40000J0D01*
G01*
X19661660Y-10082820D02*
G75*
G02*
X19741660Y-10082820I40000J0D01*
G01*
X19748520Y-4465200D02*
G75*
G02*
X19668520Y-4465200I-40000J0D01*
G01*
X19668520Y-4465200D02*
G75*
G02*
X19748520Y-4465200I40000J0D01*
G01*
X19748520Y-5735200D02*
G75*
G02*
X19668520Y-5735200I-40000J0D01*
G01*
X19668520Y-5735200D02*
G75*
G02*
X19748520Y-5735200I40000J0D01*
G01*
X19985520Y-6265200D02*
G75*
G02*
X19905520Y-6265200I-40000J0D01*
G01*
X19905520Y-6265200D02*
G75*
G02*
X19985520Y-6265200I40000J0D01*
G01*
X19985520Y-7027200D02*
G75*
G02*
X19905520Y-7027200I-40000J0D01*
G01*
X19905520Y-7027200D02*
G75*
G02*
X19985520Y-7027200I40000J0D01*
G01*
X20002520Y-4465200D02*
G75*
G02*
X19922520Y-4465200I-40000J0D01*
G01*
X19922520Y-4465200D02*
G75*
G02*
X20002520Y-4465200I40000J0D01*
G01*
X20002520Y-5735200D02*
G75*
G02*
X19922520Y-5735200I-40000J0D01*
G01*
X19922520Y-5735200D02*
G75*
G02*
X20002520Y-5735200I40000J0D01*
G01*
X20239520Y-6265200D02*
G75*
G02*
X20159520Y-6265200I-40000J0D01*
G01*
X20159520Y-6265200D02*
G75*
G02*
X20239520Y-6265200I40000J0D01*
G01*
X20239520Y-7027200D02*
G75*
G02*
X20159520Y-7027200I-40000J0D01*
G01*
X20159520Y-7027200D02*
G75*
G02*
X20239520Y-7027200I40000J0D01*
G01*
X20256520Y-4465200D02*
G75*
G02*
X20176520Y-4465200I-40000J0D01*
G01*
X20176520Y-4465200D02*
G75*
G02*
X20256520Y-4465200I40000J0D01*
G01*
X20256520Y-5735200D02*
G75*
G02*
X20176520Y-5735200I-40000J0D01*
G01*
X20176520Y-5735200D02*
G75*
G02*
X20256520Y-5735200I40000J0D01*
G01*
X10760880Y-9471480D02*
X10760880Y-9571480D01*
X10710880Y-9521480D02*
X10810880Y-9521480D01*
X11273960Y-9476560D02*
X11273960Y-9576560D01*
X11223960Y-9526560D02*
X11323960Y-9526560D01*
X8789636Y-10157356D02*
X8789636Y-10086644D01*
X8718924Y-10086644D01*
X8718924Y-10157356D01*
X8789636Y-10157356D01*
X9043636Y-10157356D02*
X9043636Y-10086644D01*
X8972924Y-10086644D01*
X8972924Y-10157356D01*
X9043636Y-10157356D01*
X11106116Y-10146116D02*
X11106116Y-10075404D01*
X11035404Y-10075404D01*
X11035404Y-10146116D01*
X11106116Y-10146116D01*
X11360116Y-10146116D02*
X11360116Y-10075404D01*
X11289404Y-10075404D01*
X11289404Y-10146116D01*
X11360116Y-10146116D01*
X11898596Y-10166436D02*
X11898596Y-10095724D01*
X11827884Y-10095724D01*
X11827884Y-10166436D01*
X11898596Y-10166436D01*
X12152596Y-10166436D02*
X12152596Y-10095724D01*
X12081884Y-10095724D01*
X12081884Y-10166436D01*
X12152596Y-10166436D01*
X12900196Y-11273936D02*
X12900196Y-11203224D01*
X12829484Y-11203224D01*
X12829484Y-11273936D01*
X12900196Y-11273936D01*
X13154196Y-11273936D02*
X13154196Y-11203224D01*
X13083484Y-11203224D01*
X13083484Y-11273936D01*
X13154196Y-11273936D01*
X13408196Y-11273936D02*
X13408196Y-11203224D01*
X13337484Y-11203224D01*
X13337484Y-11273936D01*
X13408196Y-11273936D01*
X13950916Y-11276296D02*
X13950916Y-11205584D01*
X13880204Y-11205584D01*
X13880204Y-11276296D01*
X13950916Y-11276296D01*
X14204916Y-11276296D02*
X14204916Y-11205584D01*
X14134204Y-11205584D01*
X14134204Y-11276296D01*
X14204916Y-11276296D01*
X14458916Y-11276296D02*
X14458916Y-11205584D01*
X14388204Y-11205584D01*
X14388204Y-11276296D01*
X14458916Y-11276296D01*
X15000116Y-11281556D02*
X15000116Y-11210844D01*
X14929404Y-11210844D01*
X14929404Y-11281556D01*
X15000116Y-11281556D01*
X15254116Y-11281556D02*
X15254116Y-11210844D01*
X15183404Y-11210844D01*
X15183404Y-11281556D01*
X15254116Y-11281556D01*
X15508116Y-11281556D02*
X15508116Y-11210844D01*
X15437404Y-11210844D01*
X15437404Y-11281556D01*
X15508116Y-11281556D01*
X15764476Y-7611196D02*
X15764476Y-7540484D01*
X15693764Y-7540484D01*
X15693764Y-7611196D01*
X15764476Y-7611196D01*
X16018476Y-7611196D02*
X16018476Y-7540484D01*
X15947764Y-7540484D01*
X15947764Y-7611196D01*
X16018476Y-7611196D01*
X16272476Y-7611196D02*
X16272476Y-7540484D01*
X16201764Y-7540484D01*
X16201764Y-7611196D01*
X16272476Y-7611196D01*
X16272476Y-7951556D02*
X16272476Y-7880844D01*
X16201764Y-7880844D01*
X16201764Y-7951556D01*
X16272476Y-7951556D01*
X16272476Y-9475556D02*
X16272476Y-9404844D01*
X16201764Y-9404844D01*
X16201764Y-9475556D01*
X16272476Y-9475556D01*
X16526476Y-7611196D02*
X16526476Y-7540484D01*
X16455764Y-7540484D01*
X16455764Y-7611196D01*
X16526476Y-7611196D01*
X16526476Y-7951556D02*
X16526476Y-7880844D01*
X16455764Y-7880844D01*
X16455764Y-7951556D01*
X16526476Y-7951556D01*
X16526476Y-9475556D02*
X16526476Y-9404844D01*
X16455764Y-9404844D01*
X16455764Y-9475556D01*
X16526476Y-9475556D01*
X16780476Y-7951556D02*
X16780476Y-7880844D01*
X16709764Y-7880844D01*
X16709764Y-7951556D01*
X16780476Y-7951556D01*
X16780476Y-9475556D02*
X16780476Y-9404844D01*
X16709764Y-9404844D01*
X16709764Y-9475556D01*
X16780476Y-9475556D01*
X16986276Y-11094296D02*
X16986276Y-11023584D01*
X16915564Y-11023584D01*
X16915564Y-11094296D01*
X16986276Y-11094296D01*
X16998916Y-7590876D02*
X16998916Y-7520164D01*
X16928204Y-7520164D01*
X16928204Y-7590876D01*
X16998916Y-7590876D01*
X17034476Y-7951556D02*
X17034476Y-7880844D01*
X16963764Y-7880844D01*
X16963764Y-7951556D01*
X17034476Y-7951556D01*
X17034476Y-9475556D02*
X17034476Y-9404844D01*
X16963764Y-9404844D01*
X16963764Y-9475556D01*
X17034476Y-9475556D01*
X17240276Y-11094296D02*
X17240276Y-11023584D01*
X17169564Y-11023584D01*
X17169564Y-11094296D01*
X17240276Y-11094296D01*
X17252916Y-7590876D02*
X17252916Y-7520164D01*
X17182204Y-7520164D01*
X17182204Y-7590876D01*
X17252916Y-7590876D01*
X17288476Y-7951556D02*
X17288476Y-7880844D01*
X17217764Y-7880844D01*
X17217764Y-7951556D01*
X17288476Y-7951556D01*
X17288476Y-9475556D02*
X17288476Y-9404844D01*
X17217764Y-9404844D01*
X17217764Y-9475556D01*
X17288476Y-9475556D01*
X17491676Y-11096076D02*
X17491676Y-11025364D01*
X17420964Y-11025364D01*
X17420964Y-11096076D01*
X17491676Y-11096076D01*
X17506916Y-7590876D02*
X17506916Y-7520164D01*
X17436204Y-7520164D01*
X17436204Y-7590876D01*
X17506916Y-7590876D01*
X17542476Y-7951556D02*
X17542476Y-7880844D01*
X17471764Y-7880844D01*
X17471764Y-7951556D01*
X17542476Y-7951556D01*
X17542476Y-9475556D02*
X17542476Y-9404844D01*
X17471764Y-9404844D01*
X17471764Y-9475556D01*
X17542476Y-9475556D01*
X17745676Y-11096076D02*
X17745676Y-11025364D01*
X17674964Y-11025364D01*
X17674964Y-11096076D01*
X17745676Y-11096076D01*
X17796476Y-7951556D02*
X17796476Y-7880844D01*
X17725764Y-7880844D01*
X17725764Y-7951556D01*
X17796476Y-7951556D01*
X17796476Y-9475556D02*
X17796476Y-9404844D01*
X17725764Y-9404844D01*
X17725764Y-9475556D01*
X17796476Y-9475556D01*
X18050476Y-7951556D02*
X18050476Y-7880844D01*
X17979764Y-7880844D01*
X17979764Y-7951556D01*
X18050476Y-7951556D01*
X18050476Y-9475556D02*
X18050476Y-9404844D01*
X17979764Y-9404844D01*
X17979764Y-9475556D01*
X18050476Y-9475556D01*
X18215596Y-11098696D02*
X18215596Y-11027984D01*
X18144884Y-11027984D01*
X18144884Y-11098696D01*
X18215596Y-11098696D01*
X18304476Y-7951556D02*
X18304476Y-7880844D01*
X18233764Y-7880844D01*
X18233764Y-7951556D01*
X18304476Y-7951556D01*
X18304476Y-9475556D02*
X18304476Y-9404844D01*
X18233764Y-9404844D01*
X18233764Y-9475556D01*
X18304476Y-9475556D01*
X18469596Y-11098696D02*
X18469596Y-11027984D01*
X18398884Y-11027984D01*
X18398884Y-11098696D01*
X18469596Y-11098696D01*
X18558476Y-7951556D02*
X18558476Y-7880844D01*
X18487764Y-7880844D01*
X18487764Y-7951556D01*
X18558476Y-7951556D01*
X18558476Y-9475556D02*
X18558476Y-9404844D01*
X18487764Y-9404844D01*
X18487764Y-9475556D01*
X18558476Y-9475556D01*
X18723596Y-11098696D02*
X18723596Y-11027984D01*
X18652884Y-11027984D01*
X18652884Y-11098696D01*
X18723596Y-11098696D01*
X18812476Y-7951556D02*
X18812476Y-7880844D01*
X18741764Y-7880844D01*
X18741764Y-7951556D01*
X18812476Y-7951556D01*
X18812476Y-9475556D02*
X18812476Y-9404844D01*
X18741764Y-9404844D01*
X18741764Y-9475556D01*
X18812476Y-9475556D01*
X18980116Y-11101156D02*
X18980116Y-11030444D01*
X18909404Y-11030444D01*
X18909404Y-11101156D01*
X18980116Y-11101156D01*
X19066476Y-7951556D02*
X19066476Y-7880844D01*
X18995764Y-7880844D01*
X18995764Y-7951556D01*
X19066476Y-7951556D01*
X19066476Y-9475556D02*
X19066476Y-9404844D01*
X18995764Y-9404844D01*
X18995764Y-9475556D01*
X19066476Y-9475556D01*
X19234116Y-11101156D02*
X19234116Y-11030444D01*
X19163404Y-11030444D01*
X19163404Y-11101156D01*
X19234116Y-11101156D01*
X19320476Y-7601036D02*
X19320476Y-7530324D01*
X19249764Y-7530324D01*
X19249764Y-7601036D01*
X19320476Y-7601036D01*
X19320476Y-7951556D02*
X19320476Y-7880844D01*
X19249764Y-7880844D01*
X19249764Y-7951556D01*
X19320476Y-7951556D01*
X19320476Y-9475556D02*
X19320476Y-9404844D01*
X19249764Y-9404844D01*
X19249764Y-9475556D01*
X19320476Y-9475556D01*
X19488116Y-11101156D02*
X19488116Y-11030444D01*
X19417404Y-11030444D01*
X19417404Y-11101156D01*
X19488116Y-11101156D01*
X19574476Y-7601036D02*
X19574476Y-7530324D01*
X19503764Y-7530324D01*
X19503764Y-7601036D01*
X19574476Y-7601036D01*
X19574476Y-7951556D02*
X19574476Y-7880844D01*
X19503764Y-7880844D01*
X19503764Y-7951556D01*
X19574476Y-7951556D01*
X19574476Y-9475556D02*
X19574476Y-9404844D01*
X19503764Y-9404844D01*
X19503764Y-9475556D01*
X19574476Y-9475556D01*
X19828476Y-7601036D02*
X19828476Y-7530324D01*
X19757764Y-7530324D01*
X19757764Y-7601036D01*
X19828476Y-7601036D01*
X19828476Y-7951556D02*
X19828476Y-7880844D01*
X19757764Y-7880844D01*
X19757764Y-7951556D01*
X19828476Y-7951556D01*
X19828476Y-9475556D02*
X19828476Y-9404844D01*
X19757764Y-9404844D01*
X19757764Y-9475556D01*
X19828476Y-9475556D01*
X20432996Y-8040376D02*
X20432996Y-7969664D01*
X20362284Y-7969664D01*
X20362284Y-8040376D01*
X20432996Y-8040376D01*
X20432996Y-8294376D02*
X20432996Y-8223664D01*
X20362284Y-8223664D01*
X20362284Y-8294376D01*
X20432996Y-8294376D01*
X20432996Y-8548376D02*
X20432996Y-8477664D01*
X20362284Y-8477664D01*
X20362284Y-8548376D01*
X20432996Y-8548376D01*
X20432996Y-8802376D02*
X20432996Y-8731664D01*
X20362284Y-8731664D01*
X20362284Y-8802376D01*
X20432996Y-8802376D01*
X20432996Y-9056376D02*
X20432996Y-8985664D01*
X20362284Y-8985664D01*
X20362284Y-9056376D01*
X20432996Y-9056376D01*
X20432996Y-9310376D02*
X20432996Y-9239664D01*
X20362284Y-9239664D01*
X20362284Y-9310376D01*
X20432996Y-9310376D01*
D13*
X10956540Y-7828960D02*
X11011540Y-7773960D01*
X10956540Y-7718960D01*
X10901540Y-7773960D01*
X10956540Y-7828960D01*
X11210540Y-7828960D02*
X11265540Y-7773960D01*
X11210540Y-7718960D01*
X11155540Y-7773960D01*
X11210540Y-7828960D01*
X11464540Y-7828960D02*
X11519540Y-7773960D01*
X11464540Y-7718960D01*
X11409540Y-7773960D01*
X11464540Y-7828960D01*
X11842920Y-9581560D02*
X11897920Y-9526560D01*
X11842920Y-9471560D01*
X11787920Y-9526560D01*
X11842920Y-9581560D01*
X12096920Y-9581560D02*
X12151920Y-9526560D01*
X12096920Y-9471560D01*
X12041920Y-9526560D01*
X12096920Y-9581560D01*
X12350920Y-9581560D02*
X12405920Y-9526560D01*
X12350920Y-9471560D01*
X12295920Y-9526560D01*
X12350920Y-9581560D01*
D14*
X12847840Y-7946180D02*
X12967840Y-8066180D01*
X12967840Y-7946180D02*
X12847840Y-8066180D01*
X12967840Y-8006180D02*
G75*
G02*
X12847840Y-8006180I-60000J0D01*
G01*
X12847840Y-8006180D02*
G75*
G02*
X12967840Y-8006180I60000J0D01*
G01*
X12847840Y-9470180D02*
X12967840Y-9590180D01*
X12967840Y-9470180D02*
X12847840Y-9590180D01*
X12967840Y-9530180D02*
G75*
G02*
X12847840Y-9530180I-60000J0D01*
G01*
X12847840Y-9530180D02*
G75*
G02*
X12967840Y-9530180I60000J0D01*
G01*
X13898560Y-7948540D02*
X14018560Y-8068540D01*
X14018560Y-7948540D02*
X13898560Y-8068540D01*
X14018560Y-8008540D02*
G75*
G02*
X13898560Y-8008540I-60000J0D01*
G01*
X13898560Y-8008540D02*
G75*
G02*
X14018560Y-8008540I60000J0D01*
G01*
X13898560Y-9472540D02*
X14018560Y-9592540D01*
X14018560Y-9472540D02*
X13898560Y-9592540D01*
X14018560Y-9532540D02*
G75*
G02*
X13898560Y-9532540I-60000J0D01*
G01*
X13898560Y-9532540D02*
G75*
G02*
X14018560Y-9532540I60000J0D01*
G01*
X14947760Y-7953800D02*
X15067760Y-8073800D01*
X15067760Y-7953800D02*
X14947760Y-8073800D01*
X15067760Y-8013800D02*
G75*
G02*
X14947760Y-8013800I-60000J0D01*
G01*
X14947760Y-8013800D02*
G75*
G02*
X15067760Y-8013800I60000J0D01*
G01*
X14947760Y-9477800D02*
X15067760Y-9597800D01*
X15067760Y-9477800D02*
X14947760Y-9597800D01*
X15067760Y-9537800D02*
G75*
G02*
X14947760Y-9537800I-60000J0D01*
G01*
X14947760Y-9537800D02*
G75*
G02*
X15067760Y-9537800I60000J0D01*
G01*
D15*
X8689280Y-10824080D02*
X8819280Y-10954080D01*
X8819280Y-10824080D02*
X8689280Y-10954080D01*
X8754280Y-10824080D02*
X8754280Y-10954080D01*
X8689280Y-10889080D02*
X8819280Y-10889080D01*
X9019720Y-3545720D02*
X9149720Y-3675720D01*
X9149720Y-3545720D02*
X9019720Y-3675720D01*
X9084720Y-3545720D02*
X9084720Y-3675720D01*
X9019720Y-3610720D02*
X9149720Y-3610720D01*
X9197280Y-10824080D02*
X9327280Y-10954080D01*
X9327280Y-10824080D02*
X9197280Y-10954080D01*
X9262280Y-10824080D02*
X9262280Y-10954080D01*
X9197280Y-10889080D02*
X9327280Y-10889080D01*
X9527720Y-3545720D02*
X9657720Y-3675720D01*
X9657720Y-3545720D02*
X9527720Y-3675720D01*
X9592720Y-3545720D02*
X9592720Y-3675720D01*
X9527720Y-3610720D02*
X9657720Y-3610720D01*
X9705280Y-10824080D02*
X9835280Y-10954080D01*
X9835280Y-10824080D02*
X9705280Y-10954080D01*
X9770280Y-10824080D02*
X9770280Y-10954080D01*
X9705280Y-10889080D02*
X9835280Y-10889080D01*
X10028220Y-8758020D02*
X10158220Y-8888020D01*
X10158220Y-8758020D02*
X10028220Y-8888020D01*
X10093220Y-8758020D02*
X10093220Y-8888020D01*
X10028220Y-8823020D02*
X10158220Y-8823020D01*
X10028220Y-9758020D02*
X10158220Y-9888020D01*
X10158220Y-9758020D02*
X10028220Y-9888020D01*
X10093220Y-9758020D02*
X10093220Y-9888020D01*
X10028220Y-9823020D02*
X10158220Y-9823020D01*
X10035720Y-3545720D02*
X10165720Y-3675720D01*
X10165720Y-3545720D02*
X10035720Y-3675720D01*
X10100720Y-3545720D02*
X10100720Y-3675720D01*
X10035720Y-3610720D02*
X10165720Y-3610720D01*
X10213280Y-10824080D02*
X10343280Y-10954080D01*
X10343280Y-10824080D02*
X10213280Y-10954080D01*
X10278280Y-10824080D02*
X10278280Y-10954080D01*
X10213280Y-10889080D02*
X10343280Y-10889080D01*
X10543720Y-3545720D02*
X10673720Y-3675720D01*
X10673720Y-3545720D02*
X10543720Y-3675720D01*
X10608720Y-3545720D02*
X10608720Y-3675720D01*
X10543720Y-3610720D02*
X10673720Y-3610720D01*
X10731440Y-10824080D02*
X10861440Y-10954080D01*
X10861440Y-10824080D02*
X10731440Y-10954080D01*
X10796440Y-10824080D02*
X10796440Y-10954080D01*
X10731440Y-10889080D02*
X10861440Y-10889080D01*
X11239440Y-10824080D02*
X11369440Y-10954080D01*
X11369440Y-10824080D02*
X11239440Y-10954080D01*
X11304440Y-10824080D02*
X11304440Y-10954080D01*
X11239440Y-10889080D02*
X11369440Y-10889080D01*
X11757600Y-10823000D02*
X11887600Y-10953000D01*
X11887600Y-10823000D02*
X11757600Y-10953000D01*
X11822600Y-10823000D02*
X11822600Y-10953000D01*
X11757600Y-10888000D02*
X11887600Y-10888000D01*
X12180160Y-3550200D02*
X12310160Y-3680200D01*
X12310160Y-3550200D02*
X12180160Y-3680200D01*
X12245160Y-3550200D02*
X12245160Y-3680200D01*
X12180160Y-3615200D02*
X12310160Y-3615200D01*
X12265600Y-10823000D02*
X12395600Y-10953000D01*
X12395600Y-10823000D02*
X12265600Y-10953000D01*
X12330600Y-10823000D02*
X12330600Y-10953000D01*
X12265600Y-10888000D02*
X12395600Y-10888000D01*
X12688160Y-3550200D02*
X12818160Y-3680200D01*
X12818160Y-3550200D02*
X12688160Y-3680200D01*
X12753160Y-3550200D02*
X12753160Y-3680200D01*
X12688160Y-3615200D02*
X12818160Y-3615200D01*
X13196160Y-3550200D02*
X13326160Y-3680200D01*
X13326160Y-3550200D02*
X13196160Y-3680200D01*
X13261160Y-3550200D02*
X13261160Y-3680200D01*
X13196160Y-3615200D02*
X13326160Y-3615200D01*
X13704160Y-3550200D02*
X13834160Y-3680200D01*
X13834160Y-3550200D02*
X13704160Y-3680200D01*
X13769160Y-3550200D02*
X13769160Y-3680200D01*
X13704160Y-3615200D02*
X13834160Y-3615200D01*
X15334840Y-3550200D02*
X15464840Y-3680200D01*
X15464840Y-3550200D02*
X15334840Y-3680200D01*
X15399840Y-3550200D02*
X15399840Y-3680200D01*
X15334840Y-3615200D02*
X15464840Y-3615200D01*
X15842840Y-3550200D02*
X15972840Y-3680200D01*
X15972840Y-3550200D02*
X15842840Y-3680200D01*
X15907840Y-3550200D02*
X15907840Y-3680200D01*
X15842840Y-3615200D02*
X15972840Y-3615200D01*
X16350840Y-3550200D02*
X16480840Y-3680200D01*
X16480840Y-3550200D02*
X16350840Y-3680200D01*
X16415840Y-3550200D02*
X16415840Y-3680200D01*
X16350840Y-3615200D02*
X16480840Y-3615200D01*
X16858840Y-3550200D02*
X16988840Y-3680200D01*
X16988840Y-3550200D02*
X16858840Y-3680200D01*
X16923840Y-3550200D02*
X16923840Y-3680200D01*
X16858840Y-3615200D02*
X16988840Y-3615200D01*
X18489520Y-3550200D02*
X18619520Y-3680200D01*
X18619520Y-3550200D02*
X18489520Y-3680200D01*
X18554520Y-3550200D02*
X18554520Y-3680200D01*
X18489520Y-3615200D02*
X18619520Y-3615200D01*
X18997520Y-3550200D02*
X19127520Y-3680200D01*
X19127520Y-3550200D02*
X18997520Y-3680200D01*
X19062520Y-3550200D02*
X19062520Y-3680200D01*
X18997520Y-3615200D02*
X19127520Y-3615200D01*
X19505520Y-3550200D02*
X19635520Y-3680200D01*
X19635520Y-3550200D02*
X19505520Y-3680200D01*
X19570520Y-3550200D02*
X19570520Y-3680200D01*
X19505520Y-3615200D02*
X19635520Y-3615200D01*
X20013520Y-3550200D02*
X20143520Y-3680200D01*
X20143520Y-3550200D02*
X20013520Y-3680200D01*
X20078520Y-3550200D02*
X20078520Y-3680200D01*
X20013520Y-3615200D02*
X20143520Y-3615200D01*
D16*
X7954200Y-3138480D02*
X8274200Y-3458480D01*
X8274200Y-3138480D02*
X7954200Y-3458480D01*
X8227338Y-3411618D02*
X8227338Y-3185342D01*
X8001062Y-3185342D01*
X8001062Y-3411618D01*
X8227338Y-3411618D01*
X7959280Y-11119160D02*
X8279280Y-11439160D01*
X8279280Y-11119160D02*
X7959280Y-11439160D01*
X8232418Y-11392298D02*
X8232418Y-11166022D01*
X8006142Y-11166022D01*
X8006142Y-11392298D01*
X8232418Y-11392298D01*
X9945560Y-7654600D02*
X10265560Y-7974600D01*
X10265560Y-7654600D02*
X9945560Y-7974600D01*
X10218698Y-7927738D02*
X10218698Y-7701462D01*
X9992422Y-7701462D01*
X9992422Y-7927738D01*
X10218698Y-7927738D01*
X14446440Y-3163880D02*
X14766440Y-3483880D01*
X14766440Y-3163880D02*
X14446440Y-3483880D01*
X14719578Y-3437018D02*
X14719578Y-3210742D01*
X14493302Y-3210742D01*
X14493302Y-3437018D01*
X14719578Y-3437018D01*
X14461680Y-6150920D02*
X14781680Y-6470920D01*
X14781680Y-6150920D02*
X14461680Y-6470920D01*
X14734818Y-6424058D02*
X14734818Y-6197782D01*
X14508542Y-6197782D01*
X14508542Y-6424058D01*
X14734818Y-6424058D01*
X16133000Y-11109000D02*
X16453000Y-11429000D01*
X16453000Y-11109000D02*
X16133000Y-11429000D01*
X16406138Y-11382138D02*
X16406138Y-11155862D01*
X16179862Y-11155862D01*
X16179862Y-11382138D01*
X16406138Y-11382138D01*
X20644040Y-3138480D02*
X20964040Y-3458480D01*
X20964040Y-3138480D02*
X20644040Y-3458480D01*
X20917178Y-3411618D02*
X20917178Y-3185342D01*
X20690902Y-3185342D01*
X20690902Y-3411618D01*
X20917178Y-3411618D01*
X20644040Y-11119160D02*
X20964040Y-11439160D01*
X20964040Y-11119160D02*
X20644040Y-11439160D01*
X20917178Y-11392298D02*
X20917178Y-11166022D01*
X20690902Y-11166022D01*
X20690902Y-11392298D01*
X20917178Y-11392298D01*
D11*
X7867117Y-12100374D02*
X7867117Y-11900374D01*
X7867117Y-11900374D02*
X7914736Y-11900374D01*
X7914736Y-11900374D02*
X7943307Y-11909898D01*
X7943307Y-11909898D02*
X7962355Y-11928945D01*
X7962355Y-11928945D02*
X7971879Y-11947993D01*
X7971879Y-11947993D02*
X7981402Y-11986088D01*
X7981402Y-11986088D02*
X7981402Y-12014659D01*
X7981402Y-12014659D02*
X7971879Y-12052755D01*
X7971879Y-12052755D02*
X7962355Y-12071802D01*
X7962355Y-12071802D02*
X7943307Y-12090850D01*
X7943307Y-12090850D02*
X7914736Y-12100374D01*
X7914736Y-12100374D02*
X7867117Y-12100374D01*
X8067117Y-12100374D02*
X8067117Y-11967040D01*
X8067117Y-12005136D02*
X8076641Y-11986088D01*
X8076641Y-11986088D02*
X8086164Y-11976564D01*
X8086164Y-11976564D02*
X8105212Y-11967040D01*
X8105212Y-11967040D02*
X8124260Y-11967040D01*
X8190926Y-12100374D02*
X8190926Y-11967040D01*
X8190926Y-11900374D02*
X8181402Y-11909898D01*
X8181402Y-11909898D02*
X8190926Y-11919421D01*
X8190926Y-11919421D02*
X8200450Y-11909898D01*
X8200450Y-11909898D02*
X8190926Y-11900374D01*
X8190926Y-11900374D02*
X8190926Y-11919421D01*
X8314736Y-12100374D02*
X8295688Y-12090850D01*
X8295688Y-12090850D02*
X8286164Y-12071802D01*
X8286164Y-12071802D02*
X8286164Y-11900374D01*
X8419498Y-12100374D02*
X8400450Y-12090850D01*
X8400450Y-12090850D02*
X8390926Y-12071802D01*
X8390926Y-12071802D02*
X8390926Y-11900374D01*
X8648069Y-12100374D02*
X8648069Y-11900374D01*
X8648069Y-11900374D02*
X8714736Y-12043231D01*
X8714736Y-12043231D02*
X8781403Y-11900374D01*
X8781403Y-11900374D02*
X8781403Y-12100374D01*
X8962355Y-12100374D02*
X8962355Y-11995612D01*
X8962355Y-11995612D02*
X8952831Y-11976564D01*
X8952831Y-11976564D02*
X8933784Y-11967040D01*
X8933784Y-11967040D02*
X8895688Y-11967040D01*
X8895688Y-11967040D02*
X8876641Y-11976564D01*
X8962355Y-12090850D02*
X8943307Y-12100374D01*
X8943307Y-12100374D02*
X8895688Y-12100374D01*
X8895688Y-12100374D02*
X8876641Y-12090850D01*
X8876641Y-12090850D02*
X8867117Y-12071802D01*
X8867117Y-12071802D02*
X8867117Y-12052755D01*
X8867117Y-12052755D02*
X8876641Y-12033707D01*
X8876641Y-12033707D02*
X8895688Y-12024183D01*
X8895688Y-12024183D02*
X8943307Y-12024183D01*
X8943307Y-12024183D02*
X8962355Y-12014659D01*
X9057593Y-11967040D02*
X9057593Y-12167040D01*
X9057593Y-11976564D02*
X9076641Y-11967040D01*
X9076641Y-11967040D02*
X9114736Y-11967040D01*
X9114736Y-11967040D02*
X9133784Y-11976564D01*
X9133784Y-11976564D02*
X9143307Y-11986088D01*
X9143307Y-11986088D02*
X9152831Y-12005136D01*
X9152831Y-12005136D02*
X9152831Y-12062278D01*
X9152831Y-12062278D02*
X9143307Y-12081326D01*
X9143307Y-12081326D02*
X9133784Y-12090850D01*
X9133784Y-12090850D02*
X9114736Y-12100374D01*
X9114736Y-12100374D02*
X9076641Y-12100374D01*
X9076641Y-12100374D02*
X9057593Y-12090850D01*
X9238545Y-12081326D02*
X9248069Y-12090850D01*
X9248069Y-12090850D02*
X9238545Y-12100374D01*
X9238545Y-12100374D02*
X9229022Y-12090850D01*
X9229022Y-12090850D02*
X9238545Y-12081326D01*
X9238545Y-12081326D02*
X9238545Y-12100374D01*
X9238545Y-11976564D02*
X9248069Y-11986088D01*
X9248069Y-11986088D02*
X9238545Y-11995612D01*
X9238545Y-11995612D02*
X9229022Y-11986088D01*
X9229022Y-11986088D02*
X9238545Y-11976564D01*
X9238545Y-11976564D02*
X9238545Y-11995612D01*
D12*
X7576340Y-12413890D02*
X7606340Y-12443890D01*
X7606340Y-12413890D02*
X7576340Y-12443890D01*
D11*
X7905212Y-12320374D02*
X7924260Y-12320374D01*
X7924260Y-12320374D02*
X7943307Y-12329898D01*
X7943307Y-12329898D02*
X7952831Y-12339421D01*
X7952831Y-12339421D02*
X7962355Y-12358469D01*
X7962355Y-12358469D02*
X7971879Y-12396564D01*
X7971879Y-12396564D02*
X7971879Y-12444183D01*
X7971879Y-12444183D02*
X7962355Y-12482278D01*
X7962355Y-12482278D02*
X7952831Y-12501326D01*
X7952831Y-12501326D02*
X7943307Y-12510850D01*
X7943307Y-12510850D02*
X7924260Y-12520374D01*
X7924260Y-12520374D02*
X7905212Y-12520374D01*
X7905212Y-12520374D02*
X7886164Y-12510850D01*
X7886164Y-12510850D02*
X7876641Y-12501326D01*
X7876641Y-12501326D02*
X7867117Y-12482278D01*
X7867117Y-12482278D02*
X7857593Y-12444183D01*
X7857593Y-12444183D02*
X7857593Y-12396564D01*
X7857593Y-12396564D02*
X7867117Y-12358469D01*
X7867117Y-12358469D02*
X7876641Y-12339421D01*
X7876641Y-12339421D02*
X7886164Y-12329898D01*
X7886164Y-12329898D02*
X7905212Y-12320374D01*
X8057593Y-12501326D02*
X8067117Y-12510850D01*
X8067117Y-12510850D02*
X8057593Y-12520374D01*
X8057593Y-12520374D02*
X8048069Y-12510850D01*
X8048069Y-12510850D02*
X8057593Y-12501326D01*
X8057593Y-12501326D02*
X8057593Y-12520374D01*
X8133783Y-12320374D02*
X8257593Y-12320374D01*
X8257593Y-12320374D02*
X8190926Y-12396564D01*
X8190926Y-12396564D02*
X8219498Y-12396564D01*
X8219498Y-12396564D02*
X8238545Y-12406088D01*
X8238545Y-12406088D02*
X8248069Y-12415612D01*
X8248069Y-12415612D02*
X8257593Y-12434659D01*
X8257593Y-12434659D02*
X8257593Y-12482278D01*
X8257593Y-12482278D02*
X8248069Y-12501326D01*
X8248069Y-12501326D02*
X8238545Y-12510850D01*
X8238545Y-12510850D02*
X8219498Y-12520374D01*
X8219498Y-12520374D02*
X8162355Y-12520374D01*
X8162355Y-12520374D02*
X8143307Y-12510850D01*
X8143307Y-12510850D02*
X8133783Y-12501326D01*
X8381402Y-12320374D02*
X8400450Y-12320374D01*
X8400450Y-12320374D02*
X8419498Y-12329898D01*
X8419498Y-12329898D02*
X8429022Y-12339421D01*
X8429022Y-12339421D02*
X8438545Y-12358469D01*
X8438545Y-12358469D02*
X8448069Y-12396564D01*
X8448069Y-12396564D02*
X8448069Y-12444183D01*
X8448069Y-12444183D02*
X8438545Y-12482278D01*
X8438545Y-12482278D02*
X8429022Y-12501326D01*
X8429022Y-12501326D02*
X8419498Y-12510850D01*
X8419498Y-12510850D02*
X8400450Y-12520374D01*
X8400450Y-12520374D02*
X8381402Y-12520374D01*
X8381402Y-12520374D02*
X8362355Y-12510850D01*
X8362355Y-12510850D02*
X8352831Y-12501326D01*
X8352831Y-12501326D02*
X8343307Y-12482278D01*
X8343307Y-12482278D02*
X8333783Y-12444183D01*
X8333783Y-12444183D02*
X8333783Y-12396564D01*
X8333783Y-12396564D02*
X8343307Y-12358469D01*
X8343307Y-12358469D02*
X8352831Y-12339421D01*
X8352831Y-12339421D02*
X8362355Y-12329898D01*
X8362355Y-12329898D02*
X8381402Y-12320374D01*
X8571879Y-12320374D02*
X8590926Y-12320374D01*
X8590926Y-12320374D02*
X8609974Y-12329898D01*
X8609974Y-12329898D02*
X8619498Y-12339421D01*
X8619498Y-12339421D02*
X8629022Y-12358469D01*
X8629022Y-12358469D02*
X8638545Y-12396564D01*
X8638545Y-12396564D02*
X8638545Y-12444183D01*
X8638545Y-12444183D02*
X8629022Y-12482278D01*
X8629022Y-12482278D02*
X8619498Y-12501326D01*
X8619498Y-12501326D02*
X8609974Y-12510850D01*
X8609974Y-12510850D02*
X8590926Y-12520374D01*
X8590926Y-12520374D02*
X8571879Y-12520374D01*
X8571879Y-12520374D02*
X8552831Y-12510850D01*
X8552831Y-12510850D02*
X8543307Y-12501326D01*
X8543307Y-12501326D02*
X8533784Y-12482278D01*
X8533784Y-12482278D02*
X8524260Y-12444183D01*
X8524260Y-12444183D02*
X8524260Y-12396564D01*
X8524260Y-12396564D02*
X8533784Y-12358469D01*
X8533784Y-12358469D02*
X8543307Y-12339421D01*
X8543307Y-12339421D02*
X8552831Y-12329898D01*
X8552831Y-12329898D02*
X8571879Y-12320374D01*
X8724260Y-12520374D02*
X8724260Y-12387040D01*
X8724260Y-12406088D02*
X8733784Y-12396564D01*
X8733784Y-12396564D02*
X8752831Y-12387040D01*
X8752831Y-12387040D02*
X8781403Y-12387040D01*
X8781403Y-12387040D02*
X8800450Y-12396564D01*
X8800450Y-12396564D02*
X8809974Y-12415612D01*
X8809974Y-12415612D02*
X8809974Y-12520374D01*
X8809974Y-12415612D02*
X8819498Y-12396564D01*
X8819498Y-12396564D02*
X8838545Y-12387040D01*
X8838545Y-12387040D02*
X8867117Y-12387040D01*
X8867117Y-12387040D02*
X8886165Y-12396564D01*
X8886165Y-12396564D02*
X8895688Y-12415612D01*
X8895688Y-12415612D02*
X8895688Y-12520374D01*
X8990926Y-12520374D02*
X8990926Y-12387040D01*
X8990926Y-12406088D02*
X9000450Y-12396564D01*
X9000450Y-12396564D02*
X9019498Y-12387040D01*
X9019498Y-12387040D02*
X9048069Y-12387040D01*
X9048069Y-12387040D02*
X9067117Y-12396564D01*
X9067117Y-12396564D02*
X9076641Y-12415612D01*
X9076641Y-12415612D02*
X9076641Y-12520374D01*
X9076641Y-12415612D02*
X9086165Y-12396564D01*
X9086165Y-12396564D02*
X9105212Y-12387040D01*
X9105212Y-12387040D02*
X9133784Y-12387040D01*
X9133784Y-12387040D02*
X9152831Y-12396564D01*
X9152831Y-12396564D02*
X9162355Y-12415612D01*
X9162355Y-12415612D02*
X9162355Y-12520374D01*
X9552831Y-12310850D02*
X9381403Y-12567993D01*
X9809974Y-12320374D02*
X9829022Y-12320374D01*
X9829022Y-12320374D02*
X9848069Y-12329898D01*
X9848069Y-12329898D02*
X9857593Y-12339421D01*
X9857593Y-12339421D02*
X9867117Y-12358469D01*
X9867117Y-12358469D02*
X9876641Y-12396564D01*
X9876641Y-12396564D02*
X9876641Y-12444183D01*
X9876641Y-12444183D02*
X9867117Y-12482278D01*
X9867117Y-12482278D02*
X9857593Y-12501326D01*
X9857593Y-12501326D02*
X9848069Y-12510850D01*
X9848069Y-12510850D02*
X9829022Y-12520374D01*
X9829022Y-12520374D02*
X9809974Y-12520374D01*
X9809974Y-12520374D02*
X9790927Y-12510850D01*
X9790927Y-12510850D02*
X9781403Y-12501326D01*
X9781403Y-12501326D02*
X9771879Y-12482278D01*
X9771879Y-12482278D02*
X9762355Y-12444183D01*
X9762355Y-12444183D02*
X9762355Y-12396564D01*
X9762355Y-12396564D02*
X9771879Y-12358469D01*
X9771879Y-12358469D02*
X9781403Y-12339421D01*
X9781403Y-12339421D02*
X9790927Y-12329898D01*
X9790927Y-12329898D02*
X9809974Y-12320374D01*
X9962355Y-12501326D02*
X9971879Y-12510850D01*
X9971879Y-12510850D02*
X9962355Y-12520374D01*
X9962355Y-12520374D02*
X9952831Y-12510850D01*
X9952831Y-12510850D02*
X9962355Y-12501326D01*
X9962355Y-12501326D02*
X9962355Y-12520374D01*
X10095688Y-12320374D02*
X10114736Y-12320374D01*
X10114736Y-12320374D02*
X10133784Y-12329898D01*
X10133784Y-12329898D02*
X10143308Y-12339421D01*
X10143308Y-12339421D02*
X10152831Y-12358469D01*
X10152831Y-12358469D02*
X10162355Y-12396564D01*
X10162355Y-12396564D02*
X10162355Y-12444183D01*
X10162355Y-12444183D02*
X10152831Y-12482278D01*
X10152831Y-12482278D02*
X10143308Y-12501326D01*
X10143308Y-12501326D02*
X10133784Y-12510850D01*
X10133784Y-12510850D02*
X10114736Y-12520374D01*
X10114736Y-12520374D02*
X10095688Y-12520374D01*
X10095688Y-12520374D02*
X10076641Y-12510850D01*
X10076641Y-12510850D02*
X10067117Y-12501326D01*
X10067117Y-12501326D02*
X10057593Y-12482278D01*
X10057593Y-12482278D02*
X10048069Y-12444183D01*
X10048069Y-12444183D02*
X10048069Y-12396564D01*
X10048069Y-12396564D02*
X10057593Y-12358469D01*
X10057593Y-12358469D02*
X10067117Y-12339421D01*
X10067117Y-12339421D02*
X10076641Y-12329898D01*
X10076641Y-12329898D02*
X10095688Y-12320374D01*
X10352831Y-12520374D02*
X10238546Y-12520374D01*
X10295688Y-12520374D02*
X10295688Y-12320374D01*
X10295688Y-12320374D02*
X10276641Y-12348945D01*
X10276641Y-12348945D02*
X10257593Y-12367993D01*
X10257593Y-12367993D02*
X10238546Y-12377517D01*
X10543308Y-12520374D02*
X10429022Y-12520374D01*
X10486165Y-12520374D02*
X10486165Y-12320374D01*
X10486165Y-12320374D02*
X10467117Y-12348945D01*
X10467117Y-12348945D02*
X10448069Y-12367993D01*
X10448069Y-12367993D02*
X10429022Y-12377517D01*
X10657593Y-12406088D02*
X10638546Y-12396564D01*
X10638546Y-12396564D02*
X10629022Y-12387040D01*
X10629022Y-12387040D02*
X10619498Y-12367993D01*
X10619498Y-12367993D02*
X10619498Y-12358469D01*
X10619498Y-12358469D02*
X10629022Y-12339421D01*
X10629022Y-12339421D02*
X10638546Y-12329898D01*
X10638546Y-12329898D02*
X10657593Y-12320374D01*
X10657593Y-12320374D02*
X10695689Y-12320374D01*
X10695689Y-12320374D02*
X10714736Y-12329898D01*
X10714736Y-12329898D02*
X10724260Y-12339421D01*
X10724260Y-12339421D02*
X10733784Y-12358469D01*
X10733784Y-12358469D02*
X10733784Y-12367993D01*
X10733784Y-12367993D02*
X10724260Y-12387040D01*
X10724260Y-12387040D02*
X10714736Y-12396564D01*
X10714736Y-12396564D02*
X10695689Y-12406088D01*
X10695689Y-12406088D02*
X10657593Y-12406088D01*
X10657593Y-12406088D02*
X10638546Y-12415612D01*
X10638546Y-12415612D02*
X10629022Y-12425136D01*
X10629022Y-12425136D02*
X10619498Y-12444183D01*
X10619498Y-12444183D02*
X10619498Y-12482278D01*
X10619498Y-12482278D02*
X10629022Y-12501326D01*
X10629022Y-12501326D02*
X10638546Y-12510850D01*
X10638546Y-12510850D02*
X10657593Y-12520374D01*
X10657593Y-12520374D02*
X10695689Y-12520374D01*
X10695689Y-12520374D02*
X10714736Y-12510850D01*
X10714736Y-12510850D02*
X10724260Y-12501326D01*
X10724260Y-12501326D02*
X10733784Y-12482278D01*
X10733784Y-12482278D02*
X10733784Y-12444183D01*
X10733784Y-12444183D02*
X10724260Y-12425136D01*
X10724260Y-12425136D02*
X10714736Y-12415612D01*
X10714736Y-12415612D02*
X10695689Y-12406088D01*
X10809974Y-12320374D02*
X10809974Y-12358469D01*
X10886165Y-12320374D02*
X10886165Y-12358469D01*
X11181403Y-12596564D02*
X11171879Y-12587040D01*
X11171879Y-12587040D02*
X11152831Y-12558469D01*
X11152831Y-12558469D02*
X11143308Y-12539421D01*
X11143308Y-12539421D02*
X11133784Y-12510850D01*
X11133784Y-12510850D02*
X11124260Y-12463231D01*
X11124260Y-12463231D02*
X11124260Y-12425136D01*
X11124260Y-12425136D02*
X11133784Y-12377517D01*
X11133784Y-12377517D02*
X11143308Y-12348945D01*
X11143308Y-12348945D02*
X11152831Y-12329898D01*
X11152831Y-12329898D02*
X11171879Y-12301326D01*
X11171879Y-12301326D02*
X11181403Y-12291802D01*
X11238546Y-12320374D02*
X11362355Y-12320374D01*
X11362355Y-12320374D02*
X11295688Y-12396564D01*
X11295688Y-12396564D02*
X11324260Y-12396564D01*
X11324260Y-12396564D02*
X11343308Y-12406088D01*
X11343308Y-12406088D02*
X11352831Y-12415612D01*
X11352831Y-12415612D02*
X11362355Y-12434659D01*
X11362355Y-12434659D02*
X11362355Y-12482278D01*
X11362355Y-12482278D02*
X11352831Y-12501326D01*
X11352831Y-12501326D02*
X11343308Y-12510850D01*
X11343308Y-12510850D02*
X11324260Y-12520374D01*
X11324260Y-12520374D02*
X11267117Y-12520374D01*
X11267117Y-12520374D02*
X11248069Y-12510850D01*
X11248069Y-12510850D02*
X11238546Y-12501326D01*
X11533784Y-12320374D02*
X11495688Y-12320374D01*
X11495688Y-12320374D02*
X11476641Y-12329898D01*
X11476641Y-12329898D02*
X11467117Y-12339421D01*
X11467117Y-12339421D02*
X11448069Y-12367993D01*
X11448069Y-12367993D02*
X11438546Y-12406088D01*
X11438546Y-12406088D02*
X11438546Y-12482278D01*
X11438546Y-12482278D02*
X11448069Y-12501326D01*
X11448069Y-12501326D02*
X11457593Y-12510850D01*
X11457593Y-12510850D02*
X11476641Y-12520374D01*
X11476641Y-12520374D02*
X11514736Y-12520374D01*
X11514736Y-12520374D02*
X11533784Y-12510850D01*
X11533784Y-12510850D02*
X11543308Y-12501326D01*
X11543308Y-12501326D02*
X11552831Y-12482278D01*
X11552831Y-12482278D02*
X11552831Y-12434659D01*
X11552831Y-12434659D02*
X11543308Y-12415612D01*
X11543308Y-12415612D02*
X11533784Y-12406088D01*
X11533784Y-12406088D02*
X11514736Y-12396564D01*
X11514736Y-12396564D02*
X11476641Y-12396564D01*
X11476641Y-12396564D02*
X11457593Y-12406088D01*
X11457593Y-12406088D02*
X11448069Y-12415612D01*
X11448069Y-12415612D02*
X11438546Y-12434659D01*
X11790927Y-12520374D02*
X11790927Y-12320374D01*
X11876641Y-12520374D02*
X11876641Y-12415612D01*
X11876641Y-12415612D02*
X11867117Y-12396564D01*
X11867117Y-12396564D02*
X11848070Y-12387040D01*
X11848070Y-12387040D02*
X11819498Y-12387040D01*
X11819498Y-12387040D02*
X11800450Y-12396564D01*
X11800450Y-12396564D02*
X11790927Y-12406088D01*
X12000450Y-12520374D02*
X11981403Y-12510850D01*
X11981403Y-12510850D02*
X11971879Y-12501326D01*
X11971879Y-12501326D02*
X11962355Y-12482278D01*
X11962355Y-12482278D02*
X11962355Y-12425136D01*
X11962355Y-12425136D02*
X11971879Y-12406088D01*
X11971879Y-12406088D02*
X11981403Y-12396564D01*
X11981403Y-12396564D02*
X12000450Y-12387040D01*
X12000450Y-12387040D02*
X12029022Y-12387040D01*
X12029022Y-12387040D02*
X12048070Y-12396564D01*
X12048070Y-12396564D02*
X12057593Y-12406088D01*
X12057593Y-12406088D02*
X12067117Y-12425136D01*
X12067117Y-12425136D02*
X12067117Y-12482278D01*
X12067117Y-12482278D02*
X12057593Y-12501326D01*
X12057593Y-12501326D02*
X12048070Y-12510850D01*
X12048070Y-12510850D02*
X12029022Y-12520374D01*
X12029022Y-12520374D02*
X12000450Y-12520374D01*
X12181403Y-12520374D02*
X12162355Y-12510850D01*
X12162355Y-12510850D02*
X12152831Y-12491802D01*
X12152831Y-12491802D02*
X12152831Y-12320374D01*
X12333784Y-12510850D02*
X12314736Y-12520374D01*
X12314736Y-12520374D02*
X12276641Y-12520374D01*
X12276641Y-12520374D02*
X12257593Y-12510850D01*
X12257593Y-12510850D02*
X12248070Y-12491802D01*
X12248070Y-12491802D02*
X12248070Y-12415612D01*
X12248070Y-12415612D02*
X12257593Y-12396564D01*
X12257593Y-12396564D02*
X12276641Y-12387040D01*
X12276641Y-12387040D02*
X12314736Y-12387040D01*
X12314736Y-12387040D02*
X12333784Y-12396564D01*
X12333784Y-12396564D02*
X12343308Y-12415612D01*
X12343308Y-12415612D02*
X12343308Y-12434659D01*
X12343308Y-12434659D02*
X12248070Y-12453707D01*
X12419498Y-12510850D02*
X12438546Y-12520374D01*
X12438546Y-12520374D02*
X12476641Y-12520374D01*
X12476641Y-12520374D02*
X12495689Y-12510850D01*
X12495689Y-12510850D02*
X12505212Y-12491802D01*
X12505212Y-12491802D02*
X12505212Y-12482278D01*
X12505212Y-12482278D02*
X12495689Y-12463231D01*
X12495689Y-12463231D02*
X12476641Y-12453707D01*
X12476641Y-12453707D02*
X12448070Y-12453707D01*
X12448070Y-12453707D02*
X12429022Y-12444183D01*
X12429022Y-12444183D02*
X12419498Y-12425136D01*
X12419498Y-12425136D02*
X12419498Y-12415612D01*
X12419498Y-12415612D02*
X12429022Y-12396564D01*
X12429022Y-12396564D02*
X12448070Y-12387040D01*
X12448070Y-12387040D02*
X12476641Y-12387040D01*
X12476641Y-12387040D02*
X12495689Y-12396564D01*
X12571879Y-12596564D02*
X12581403Y-12587040D01*
X12581403Y-12587040D02*
X12600451Y-12558469D01*
X12600451Y-12558469D02*
X12609974Y-12539421D01*
X12609974Y-12539421D02*
X12619498Y-12510850D01*
X12619498Y-12510850D02*
X12629022Y-12463231D01*
X12629022Y-12463231D02*
X12629022Y-12425136D01*
X12629022Y-12425136D02*
X12619498Y-12377517D01*
X12619498Y-12377517D02*
X12609974Y-12348945D01*
X12609974Y-12348945D02*
X12600451Y-12329898D01*
X12600451Y-12329898D02*
X12581403Y-12301326D01*
X12581403Y-12301326D02*
X12571879Y-12291802D01*
D12*
X7606340Y-12692890D02*
G75*
G02*
X7526340Y-12692890I-40000J0D01*
G01*
X7526340Y-12692890D02*
G75*
G02*
X7606340Y-12692890I40000J0D01*
G01*
D11*
X7905212Y-12584374D02*
X7924260Y-12584374D01*
X7924260Y-12584374D02*
X7943307Y-12593898D01*
X7943307Y-12593898D02*
X7952831Y-12603421D01*
X7952831Y-12603421D02*
X7962355Y-12622469D01*
X7962355Y-12622469D02*
X7971879Y-12660564D01*
X7971879Y-12660564D02*
X7971879Y-12708183D01*
X7971879Y-12708183D02*
X7962355Y-12746278D01*
X7962355Y-12746278D02*
X7952831Y-12765326D01*
X7952831Y-12765326D02*
X7943307Y-12774850D01*
X7943307Y-12774850D02*
X7924260Y-12784374D01*
X7924260Y-12784374D02*
X7905212Y-12784374D01*
X7905212Y-12784374D02*
X7886164Y-12774850D01*
X7886164Y-12774850D02*
X7876641Y-12765326D01*
X7876641Y-12765326D02*
X7867117Y-12746278D01*
X7867117Y-12746278D02*
X7857593Y-12708183D01*
X7857593Y-12708183D02*
X7857593Y-12660564D01*
X7857593Y-12660564D02*
X7867117Y-12622469D01*
X7867117Y-12622469D02*
X7876641Y-12603421D01*
X7876641Y-12603421D02*
X7886164Y-12593898D01*
X7886164Y-12593898D02*
X7905212Y-12584374D01*
X8057593Y-12765326D02*
X8067117Y-12774850D01*
X8067117Y-12774850D02*
X8057593Y-12784374D01*
X8057593Y-12784374D02*
X8048069Y-12774850D01*
X8048069Y-12774850D02*
X8057593Y-12765326D01*
X8057593Y-12765326D02*
X8057593Y-12784374D01*
X8181402Y-12670088D02*
X8162355Y-12660564D01*
X8162355Y-12660564D02*
X8152831Y-12651040D01*
X8152831Y-12651040D02*
X8143307Y-12631993D01*
X8143307Y-12631993D02*
X8143307Y-12622469D01*
X8143307Y-12622469D02*
X8152831Y-12603421D01*
X8152831Y-12603421D02*
X8162355Y-12593898D01*
X8162355Y-12593898D02*
X8181402Y-12584374D01*
X8181402Y-12584374D02*
X8219498Y-12584374D01*
X8219498Y-12584374D02*
X8238545Y-12593898D01*
X8238545Y-12593898D02*
X8248069Y-12603421D01*
X8248069Y-12603421D02*
X8257593Y-12622469D01*
X8257593Y-12622469D02*
X8257593Y-12631993D01*
X8257593Y-12631993D02*
X8248069Y-12651040D01*
X8248069Y-12651040D02*
X8238545Y-12660564D01*
X8238545Y-12660564D02*
X8219498Y-12670088D01*
X8219498Y-12670088D02*
X8181402Y-12670088D01*
X8181402Y-12670088D02*
X8162355Y-12679612D01*
X8162355Y-12679612D02*
X8152831Y-12689136D01*
X8152831Y-12689136D02*
X8143307Y-12708183D01*
X8143307Y-12708183D02*
X8143307Y-12746278D01*
X8143307Y-12746278D02*
X8152831Y-12765326D01*
X8152831Y-12765326D02*
X8162355Y-12774850D01*
X8162355Y-12774850D02*
X8181402Y-12784374D01*
X8181402Y-12784374D02*
X8219498Y-12784374D01*
X8219498Y-12784374D02*
X8238545Y-12774850D01*
X8238545Y-12774850D02*
X8248069Y-12765326D01*
X8248069Y-12765326D02*
X8257593Y-12746278D01*
X8257593Y-12746278D02*
X8257593Y-12708183D01*
X8257593Y-12708183D02*
X8248069Y-12689136D01*
X8248069Y-12689136D02*
X8238545Y-12679612D01*
X8238545Y-12679612D02*
X8219498Y-12670088D01*
X8381402Y-12584374D02*
X8400450Y-12584374D01*
X8400450Y-12584374D02*
X8419498Y-12593898D01*
X8419498Y-12593898D02*
X8429022Y-12603421D01*
X8429022Y-12603421D02*
X8438545Y-12622469D01*
X8438545Y-12622469D02*
X8448069Y-12660564D01*
X8448069Y-12660564D02*
X8448069Y-12708183D01*
X8448069Y-12708183D02*
X8438545Y-12746278D01*
X8438545Y-12746278D02*
X8429022Y-12765326D01*
X8429022Y-12765326D02*
X8419498Y-12774850D01*
X8419498Y-12774850D02*
X8400450Y-12784374D01*
X8400450Y-12784374D02*
X8381402Y-12784374D01*
X8381402Y-12784374D02*
X8362355Y-12774850D01*
X8362355Y-12774850D02*
X8352831Y-12765326D01*
X8352831Y-12765326D02*
X8343307Y-12746278D01*
X8343307Y-12746278D02*
X8333783Y-12708183D01*
X8333783Y-12708183D02*
X8333783Y-12660564D01*
X8333783Y-12660564D02*
X8343307Y-12622469D01*
X8343307Y-12622469D02*
X8352831Y-12603421D01*
X8352831Y-12603421D02*
X8362355Y-12593898D01*
X8362355Y-12593898D02*
X8381402Y-12584374D01*
X8571879Y-12584374D02*
X8590926Y-12584374D01*
X8590926Y-12584374D02*
X8609974Y-12593898D01*
X8609974Y-12593898D02*
X8619498Y-12603421D01*
X8619498Y-12603421D02*
X8629022Y-12622469D01*
X8629022Y-12622469D02*
X8638545Y-12660564D01*
X8638545Y-12660564D02*
X8638545Y-12708183D01*
X8638545Y-12708183D02*
X8629022Y-12746278D01*
X8629022Y-12746278D02*
X8619498Y-12765326D01*
X8619498Y-12765326D02*
X8609974Y-12774850D01*
X8609974Y-12774850D02*
X8590926Y-12784374D01*
X8590926Y-12784374D02*
X8571879Y-12784374D01*
X8571879Y-12784374D02*
X8552831Y-12774850D01*
X8552831Y-12774850D02*
X8543307Y-12765326D01*
X8543307Y-12765326D02*
X8533784Y-12746278D01*
X8533784Y-12746278D02*
X8524260Y-12708183D01*
X8524260Y-12708183D02*
X8524260Y-12660564D01*
X8524260Y-12660564D02*
X8533784Y-12622469D01*
X8533784Y-12622469D02*
X8543307Y-12603421D01*
X8543307Y-12603421D02*
X8552831Y-12593898D01*
X8552831Y-12593898D02*
X8571879Y-12584374D01*
X8724260Y-12784374D02*
X8724260Y-12651040D01*
X8724260Y-12670088D02*
X8733784Y-12660564D01*
X8733784Y-12660564D02*
X8752831Y-12651040D01*
X8752831Y-12651040D02*
X8781403Y-12651040D01*
X8781403Y-12651040D02*
X8800450Y-12660564D01*
X8800450Y-12660564D02*
X8809974Y-12679612D01*
X8809974Y-12679612D02*
X8809974Y-12784374D01*
X8809974Y-12679612D02*
X8819498Y-12660564D01*
X8819498Y-12660564D02*
X8838545Y-12651040D01*
X8838545Y-12651040D02*
X8867117Y-12651040D01*
X8867117Y-12651040D02*
X8886165Y-12660564D01*
X8886165Y-12660564D02*
X8895688Y-12679612D01*
X8895688Y-12679612D02*
X8895688Y-12784374D01*
X8990926Y-12784374D02*
X8990926Y-12651040D01*
X8990926Y-12670088D02*
X9000450Y-12660564D01*
X9000450Y-12660564D02*
X9019498Y-12651040D01*
X9019498Y-12651040D02*
X9048069Y-12651040D01*
X9048069Y-12651040D02*
X9067117Y-12660564D01*
X9067117Y-12660564D02*
X9076641Y-12679612D01*
X9076641Y-12679612D02*
X9076641Y-12784374D01*
X9076641Y-12679612D02*
X9086165Y-12660564D01*
X9086165Y-12660564D02*
X9105212Y-12651040D01*
X9105212Y-12651040D02*
X9133784Y-12651040D01*
X9133784Y-12651040D02*
X9152831Y-12660564D01*
X9152831Y-12660564D02*
X9162355Y-12679612D01*
X9162355Y-12679612D02*
X9162355Y-12784374D01*
X9552831Y-12574850D02*
X9381403Y-12831993D01*
X9809974Y-12584374D02*
X9829022Y-12584374D01*
X9829022Y-12584374D02*
X9848069Y-12593898D01*
X9848069Y-12593898D02*
X9857593Y-12603421D01*
X9857593Y-12603421D02*
X9867117Y-12622469D01*
X9867117Y-12622469D02*
X9876641Y-12660564D01*
X9876641Y-12660564D02*
X9876641Y-12708183D01*
X9876641Y-12708183D02*
X9867117Y-12746278D01*
X9867117Y-12746278D02*
X9857593Y-12765326D01*
X9857593Y-12765326D02*
X9848069Y-12774850D01*
X9848069Y-12774850D02*
X9829022Y-12784374D01*
X9829022Y-12784374D02*
X9809974Y-12784374D01*
X9809974Y-12784374D02*
X9790927Y-12774850D01*
X9790927Y-12774850D02*
X9781403Y-12765326D01*
X9781403Y-12765326D02*
X9771879Y-12746278D01*
X9771879Y-12746278D02*
X9762355Y-12708183D01*
X9762355Y-12708183D02*
X9762355Y-12660564D01*
X9762355Y-12660564D02*
X9771879Y-12622469D01*
X9771879Y-12622469D02*
X9781403Y-12603421D01*
X9781403Y-12603421D02*
X9790927Y-12593898D01*
X9790927Y-12593898D02*
X9809974Y-12584374D01*
X9962355Y-12765326D02*
X9971879Y-12774850D01*
X9971879Y-12774850D02*
X9962355Y-12784374D01*
X9962355Y-12784374D02*
X9952831Y-12774850D01*
X9952831Y-12774850D02*
X9962355Y-12765326D01*
X9962355Y-12765326D02*
X9962355Y-12784374D01*
X10095688Y-12584374D02*
X10114736Y-12584374D01*
X10114736Y-12584374D02*
X10133784Y-12593898D01*
X10133784Y-12593898D02*
X10143308Y-12603421D01*
X10143308Y-12603421D02*
X10152831Y-12622469D01*
X10152831Y-12622469D02*
X10162355Y-12660564D01*
X10162355Y-12660564D02*
X10162355Y-12708183D01*
X10162355Y-12708183D02*
X10152831Y-12746278D01*
X10152831Y-12746278D02*
X10143308Y-12765326D01*
X10143308Y-12765326D02*
X10133784Y-12774850D01*
X10133784Y-12774850D02*
X10114736Y-12784374D01*
X10114736Y-12784374D02*
X10095688Y-12784374D01*
X10095688Y-12784374D02*
X10076641Y-12774850D01*
X10076641Y-12774850D02*
X10067117Y-12765326D01*
X10067117Y-12765326D02*
X10057593Y-12746278D01*
X10057593Y-12746278D02*
X10048069Y-12708183D01*
X10048069Y-12708183D02*
X10048069Y-12660564D01*
X10048069Y-12660564D02*
X10057593Y-12622469D01*
X10057593Y-12622469D02*
X10067117Y-12603421D01*
X10067117Y-12603421D02*
X10076641Y-12593898D01*
X10076641Y-12593898D02*
X10095688Y-12584374D01*
X10229022Y-12584374D02*
X10352831Y-12584374D01*
X10352831Y-12584374D02*
X10286165Y-12660564D01*
X10286165Y-12660564D02*
X10314736Y-12660564D01*
X10314736Y-12660564D02*
X10333784Y-12670088D01*
X10333784Y-12670088D02*
X10343308Y-12679612D01*
X10343308Y-12679612D02*
X10352831Y-12698659D01*
X10352831Y-12698659D02*
X10352831Y-12746278D01*
X10352831Y-12746278D02*
X10343308Y-12765326D01*
X10343308Y-12765326D02*
X10333784Y-12774850D01*
X10333784Y-12774850D02*
X10314736Y-12784374D01*
X10314736Y-12784374D02*
X10257593Y-12784374D01*
X10257593Y-12784374D02*
X10238546Y-12774850D01*
X10238546Y-12774850D02*
X10229022Y-12765326D01*
X10543308Y-12784374D02*
X10429022Y-12784374D01*
X10486165Y-12784374D02*
X10486165Y-12584374D01*
X10486165Y-12584374D02*
X10467117Y-12612945D01*
X10467117Y-12612945D02*
X10448069Y-12631993D01*
X10448069Y-12631993D02*
X10429022Y-12641517D01*
X10724260Y-12584374D02*
X10629022Y-12584374D01*
X10629022Y-12584374D02*
X10619498Y-12679612D01*
X10619498Y-12679612D02*
X10629022Y-12670088D01*
X10629022Y-12670088D02*
X10648069Y-12660564D01*
X10648069Y-12660564D02*
X10695689Y-12660564D01*
X10695689Y-12660564D02*
X10714736Y-12670088D01*
X10714736Y-12670088D02*
X10724260Y-12679612D01*
X10724260Y-12679612D02*
X10733784Y-12698659D01*
X10733784Y-12698659D02*
X10733784Y-12746278D01*
X10733784Y-12746278D02*
X10724260Y-12765326D01*
X10724260Y-12765326D02*
X10714736Y-12774850D01*
X10714736Y-12774850D02*
X10695689Y-12784374D01*
X10695689Y-12784374D02*
X10648069Y-12784374D01*
X10648069Y-12784374D02*
X10629022Y-12774850D01*
X10629022Y-12774850D02*
X10619498Y-12765326D01*
X10809974Y-12584374D02*
X10809974Y-12622469D01*
X10886165Y-12584374D02*
X10886165Y-12622469D01*
X11181403Y-12860564D02*
X11171879Y-12851040D01*
X11171879Y-12851040D02*
X11152831Y-12822469D01*
X11152831Y-12822469D02*
X11143308Y-12803421D01*
X11143308Y-12803421D02*
X11133784Y-12774850D01*
X11133784Y-12774850D02*
X11124260Y-12727231D01*
X11124260Y-12727231D02*
X11124260Y-12689136D01*
X11124260Y-12689136D02*
X11133784Y-12641517D01*
X11133784Y-12641517D02*
X11143308Y-12612945D01*
X11143308Y-12612945D02*
X11152831Y-12593898D01*
X11152831Y-12593898D02*
X11171879Y-12565326D01*
X11171879Y-12565326D02*
X11181403Y-12555802D01*
X11362355Y-12784374D02*
X11248069Y-12784374D01*
X11305212Y-12784374D02*
X11305212Y-12584374D01*
X11305212Y-12584374D02*
X11286165Y-12612945D01*
X11286165Y-12612945D02*
X11267117Y-12631993D01*
X11267117Y-12631993D02*
X11248069Y-12641517D01*
X11543308Y-12584374D02*
X11448069Y-12584374D01*
X11448069Y-12584374D02*
X11438546Y-12679612D01*
X11438546Y-12679612D02*
X11448069Y-12670088D01*
X11448069Y-12670088D02*
X11467117Y-12660564D01*
X11467117Y-12660564D02*
X11514736Y-12660564D01*
X11514736Y-12660564D02*
X11533784Y-12670088D01*
X11533784Y-12670088D02*
X11543308Y-12679612D01*
X11543308Y-12679612D02*
X11552831Y-12698659D01*
X11552831Y-12698659D02*
X11552831Y-12746278D01*
X11552831Y-12746278D02*
X11543308Y-12765326D01*
X11543308Y-12765326D02*
X11533784Y-12774850D01*
X11533784Y-12774850D02*
X11514736Y-12784374D01*
X11514736Y-12784374D02*
X11467117Y-12784374D01*
X11467117Y-12784374D02*
X11448069Y-12774850D01*
X11448069Y-12774850D02*
X11438546Y-12765326D01*
X11676641Y-12584374D02*
X11695689Y-12584374D01*
X11695689Y-12584374D02*
X11714736Y-12593898D01*
X11714736Y-12593898D02*
X11724260Y-12603421D01*
X11724260Y-12603421D02*
X11733784Y-12622469D01*
X11733784Y-12622469D02*
X11743308Y-12660564D01*
X11743308Y-12660564D02*
X11743308Y-12708183D01*
X11743308Y-12708183D02*
X11733784Y-12746278D01*
X11733784Y-12746278D02*
X11724260Y-12765326D01*
X11724260Y-12765326D02*
X11714736Y-12774850D01*
X11714736Y-12774850D02*
X11695689Y-12784374D01*
X11695689Y-12784374D02*
X11676641Y-12784374D01*
X11676641Y-12784374D02*
X11657593Y-12774850D01*
X11657593Y-12774850D02*
X11648069Y-12765326D01*
X11648069Y-12765326D02*
X11638546Y-12746278D01*
X11638546Y-12746278D02*
X11629022Y-12708183D01*
X11629022Y-12708183D02*
X11629022Y-12660564D01*
X11629022Y-12660564D02*
X11638546Y-12622469D01*
X11638546Y-12622469D02*
X11648069Y-12603421D01*
X11648069Y-12603421D02*
X11657593Y-12593898D01*
X11657593Y-12593898D02*
X11676641Y-12584374D01*
X11981403Y-12784374D02*
X11981403Y-12584374D01*
X12067117Y-12784374D02*
X12067117Y-12679612D01*
X12067117Y-12679612D02*
X12057593Y-12660564D01*
X12057593Y-12660564D02*
X12038546Y-12651040D01*
X12038546Y-12651040D02*
X12009974Y-12651040D01*
X12009974Y-12651040D02*
X11990927Y-12660564D01*
X11990927Y-12660564D02*
X11981403Y-12670088D01*
X12190927Y-12784374D02*
X12171879Y-12774850D01*
X12171879Y-12774850D02*
X12162355Y-12765326D01*
X12162355Y-12765326D02*
X12152831Y-12746278D01*
X12152831Y-12746278D02*
X12152831Y-12689136D01*
X12152831Y-12689136D02*
X12162355Y-12670088D01*
X12162355Y-12670088D02*
X12171879Y-12660564D01*
X12171879Y-12660564D02*
X12190927Y-12651040D01*
X12190927Y-12651040D02*
X12219498Y-12651040D01*
X12219498Y-12651040D02*
X12238546Y-12660564D01*
X12238546Y-12660564D02*
X12248070Y-12670088D01*
X12248070Y-12670088D02*
X12257593Y-12689136D01*
X12257593Y-12689136D02*
X12257593Y-12746278D01*
X12257593Y-12746278D02*
X12248070Y-12765326D01*
X12248070Y-12765326D02*
X12238546Y-12774850D01*
X12238546Y-12774850D02*
X12219498Y-12784374D01*
X12219498Y-12784374D02*
X12190927Y-12784374D01*
X12371879Y-12784374D02*
X12352831Y-12774850D01*
X12352831Y-12774850D02*
X12343308Y-12755802D01*
X12343308Y-12755802D02*
X12343308Y-12584374D01*
X12524260Y-12774850D02*
X12505212Y-12784374D01*
X12505212Y-12784374D02*
X12467117Y-12784374D01*
X12467117Y-12784374D02*
X12448070Y-12774850D01*
X12448070Y-12774850D02*
X12438546Y-12755802D01*
X12438546Y-12755802D02*
X12438546Y-12679612D01*
X12438546Y-12679612D02*
X12448070Y-12660564D01*
X12448070Y-12660564D02*
X12467117Y-12651040D01*
X12467117Y-12651040D02*
X12505212Y-12651040D01*
X12505212Y-12651040D02*
X12524260Y-12660564D01*
X12524260Y-12660564D02*
X12533784Y-12679612D01*
X12533784Y-12679612D02*
X12533784Y-12698659D01*
X12533784Y-12698659D02*
X12438546Y-12717707D01*
X12609974Y-12774850D02*
X12629022Y-12784374D01*
X12629022Y-12784374D02*
X12667117Y-12784374D01*
X12667117Y-12784374D02*
X12686165Y-12774850D01*
X12686165Y-12774850D02*
X12695689Y-12755802D01*
X12695689Y-12755802D02*
X12695689Y-12746278D01*
X12695689Y-12746278D02*
X12686165Y-12727231D01*
X12686165Y-12727231D02*
X12667117Y-12717707D01*
X12667117Y-12717707D02*
X12638546Y-12717707D01*
X12638546Y-12717707D02*
X12619498Y-12708183D01*
X12619498Y-12708183D02*
X12609974Y-12689136D01*
X12609974Y-12689136D02*
X12609974Y-12679612D01*
X12609974Y-12679612D02*
X12619498Y-12660564D01*
X12619498Y-12660564D02*
X12638546Y-12651040D01*
X12638546Y-12651040D02*
X12667117Y-12651040D01*
X12667117Y-12651040D02*
X12686165Y-12660564D01*
X12762355Y-12860564D02*
X12771879Y-12851040D01*
X12771879Y-12851040D02*
X12790927Y-12822469D01*
X12790927Y-12822469D02*
X12800451Y-12803421D01*
X12800451Y-12803421D02*
X12809974Y-12774850D01*
X12809974Y-12774850D02*
X12819498Y-12727231D01*
X12819498Y-12727231D02*
X12819498Y-12689136D01*
X12819498Y-12689136D02*
X12809974Y-12641517D01*
X12809974Y-12641517D02*
X12800451Y-12612945D01*
X12800451Y-12612945D02*
X12790927Y-12593898D01*
X12790927Y-12593898D02*
X12771879Y-12565326D01*
X12771879Y-12565326D02*
X12762355Y-12555802D01*
D12*
X7556340Y-12906890D02*
X7556340Y-13006890D01*
X7506340Y-12956890D02*
X7606340Y-12956890D01*
D11*
X7971879Y-13048374D02*
X7857593Y-13048374D01*
X7914736Y-13048374D02*
X7914736Y-12848374D01*
X7914736Y-12848374D02*
X7895688Y-12876945D01*
X7895688Y-12876945D02*
X7876641Y-12895993D01*
X7876641Y-12895993D02*
X7857593Y-12905517D01*
X8057593Y-13029326D02*
X8067117Y-13038850D01*
X8067117Y-13038850D02*
X8057593Y-13048374D01*
X8057593Y-13048374D02*
X8048069Y-13038850D01*
X8048069Y-13038850D02*
X8057593Y-13029326D01*
X8057593Y-13029326D02*
X8057593Y-13048374D01*
X8190926Y-12848374D02*
X8209974Y-12848374D01*
X8209974Y-12848374D02*
X8229022Y-12857898D01*
X8229022Y-12857898D02*
X8238545Y-12867421D01*
X8238545Y-12867421D02*
X8248069Y-12886469D01*
X8248069Y-12886469D02*
X8257593Y-12924564D01*
X8257593Y-12924564D02*
X8257593Y-12972183D01*
X8257593Y-12972183D02*
X8248069Y-13010278D01*
X8248069Y-13010278D02*
X8238545Y-13029326D01*
X8238545Y-13029326D02*
X8229022Y-13038850D01*
X8229022Y-13038850D02*
X8209974Y-13048374D01*
X8209974Y-13048374D02*
X8190926Y-13048374D01*
X8190926Y-13048374D02*
X8171879Y-13038850D01*
X8171879Y-13038850D02*
X8162355Y-13029326D01*
X8162355Y-13029326D02*
X8152831Y-13010278D01*
X8152831Y-13010278D02*
X8143307Y-12972183D01*
X8143307Y-12972183D02*
X8143307Y-12924564D01*
X8143307Y-12924564D02*
X8152831Y-12886469D01*
X8152831Y-12886469D02*
X8162355Y-12867421D01*
X8162355Y-12867421D02*
X8171879Y-12857898D01*
X8171879Y-12857898D02*
X8190926Y-12848374D01*
X8381402Y-12848374D02*
X8400450Y-12848374D01*
X8400450Y-12848374D02*
X8419498Y-12857898D01*
X8419498Y-12857898D02*
X8429022Y-12867421D01*
X8429022Y-12867421D02*
X8438545Y-12886469D01*
X8438545Y-12886469D02*
X8448069Y-12924564D01*
X8448069Y-12924564D02*
X8448069Y-12972183D01*
X8448069Y-12972183D02*
X8438545Y-13010278D01*
X8438545Y-13010278D02*
X8429022Y-13029326D01*
X8429022Y-13029326D02*
X8419498Y-13038850D01*
X8419498Y-13038850D02*
X8400450Y-13048374D01*
X8400450Y-13048374D02*
X8381402Y-13048374D01*
X8381402Y-13048374D02*
X8362355Y-13038850D01*
X8362355Y-13038850D02*
X8352831Y-13029326D01*
X8352831Y-13029326D02*
X8343307Y-13010278D01*
X8343307Y-13010278D02*
X8333783Y-12972183D01*
X8333783Y-12972183D02*
X8333783Y-12924564D01*
X8333783Y-12924564D02*
X8343307Y-12886469D01*
X8343307Y-12886469D02*
X8352831Y-12867421D01*
X8352831Y-12867421D02*
X8362355Y-12857898D01*
X8362355Y-12857898D02*
X8381402Y-12848374D01*
X8571879Y-12848374D02*
X8590926Y-12848374D01*
X8590926Y-12848374D02*
X8609974Y-12857898D01*
X8609974Y-12857898D02*
X8619498Y-12867421D01*
X8619498Y-12867421D02*
X8629022Y-12886469D01*
X8629022Y-12886469D02*
X8638545Y-12924564D01*
X8638545Y-12924564D02*
X8638545Y-12972183D01*
X8638545Y-12972183D02*
X8629022Y-13010278D01*
X8629022Y-13010278D02*
X8619498Y-13029326D01*
X8619498Y-13029326D02*
X8609974Y-13038850D01*
X8609974Y-13038850D02*
X8590926Y-13048374D01*
X8590926Y-13048374D02*
X8571879Y-13048374D01*
X8571879Y-13048374D02*
X8552831Y-13038850D01*
X8552831Y-13038850D02*
X8543307Y-13029326D01*
X8543307Y-13029326D02*
X8533784Y-13010278D01*
X8533784Y-13010278D02*
X8524260Y-12972183D01*
X8524260Y-12972183D02*
X8524260Y-12924564D01*
X8524260Y-12924564D02*
X8533784Y-12886469D01*
X8533784Y-12886469D02*
X8543307Y-12867421D01*
X8543307Y-12867421D02*
X8552831Y-12857898D01*
X8552831Y-12857898D02*
X8571879Y-12848374D01*
X8724260Y-13048374D02*
X8724260Y-12915040D01*
X8724260Y-12934088D02*
X8733784Y-12924564D01*
X8733784Y-12924564D02*
X8752831Y-12915040D01*
X8752831Y-12915040D02*
X8781403Y-12915040D01*
X8781403Y-12915040D02*
X8800450Y-12924564D01*
X8800450Y-12924564D02*
X8809974Y-12943612D01*
X8809974Y-12943612D02*
X8809974Y-13048374D01*
X8809974Y-12943612D02*
X8819498Y-12924564D01*
X8819498Y-12924564D02*
X8838545Y-12915040D01*
X8838545Y-12915040D02*
X8867117Y-12915040D01*
X8867117Y-12915040D02*
X8886165Y-12924564D01*
X8886165Y-12924564D02*
X8895688Y-12943612D01*
X8895688Y-12943612D02*
X8895688Y-13048374D01*
X8990926Y-13048374D02*
X8990926Y-12915040D01*
X8990926Y-12934088D02*
X9000450Y-12924564D01*
X9000450Y-12924564D02*
X9019498Y-12915040D01*
X9019498Y-12915040D02*
X9048069Y-12915040D01*
X9048069Y-12915040D02*
X9067117Y-12924564D01*
X9067117Y-12924564D02*
X9076641Y-12943612D01*
X9076641Y-12943612D02*
X9076641Y-13048374D01*
X9076641Y-12943612D02*
X9086165Y-12924564D01*
X9086165Y-12924564D02*
X9105212Y-12915040D01*
X9105212Y-12915040D02*
X9133784Y-12915040D01*
X9133784Y-12915040D02*
X9152831Y-12924564D01*
X9152831Y-12924564D02*
X9162355Y-12943612D01*
X9162355Y-12943612D02*
X9162355Y-13048374D01*
X9552831Y-12838850D02*
X9381403Y-13095993D01*
X9809974Y-12848374D02*
X9829022Y-12848374D01*
X9829022Y-12848374D02*
X9848069Y-12857898D01*
X9848069Y-12857898D02*
X9857593Y-12867421D01*
X9857593Y-12867421D02*
X9867117Y-12886469D01*
X9867117Y-12886469D02*
X9876641Y-12924564D01*
X9876641Y-12924564D02*
X9876641Y-12972183D01*
X9876641Y-12972183D02*
X9867117Y-13010278D01*
X9867117Y-13010278D02*
X9857593Y-13029326D01*
X9857593Y-13029326D02*
X9848069Y-13038850D01*
X9848069Y-13038850D02*
X9829022Y-13048374D01*
X9829022Y-13048374D02*
X9809974Y-13048374D01*
X9809974Y-13048374D02*
X9790927Y-13038850D01*
X9790927Y-13038850D02*
X9781403Y-13029326D01*
X9781403Y-13029326D02*
X9771879Y-13010278D01*
X9771879Y-13010278D02*
X9762355Y-12972183D01*
X9762355Y-12972183D02*
X9762355Y-12924564D01*
X9762355Y-12924564D02*
X9771879Y-12886469D01*
X9771879Y-12886469D02*
X9781403Y-12867421D01*
X9781403Y-12867421D02*
X9790927Y-12857898D01*
X9790927Y-12857898D02*
X9809974Y-12848374D01*
X9962355Y-13029326D02*
X9971879Y-13038850D01*
X9971879Y-13038850D02*
X9962355Y-13048374D01*
X9962355Y-13048374D02*
X9952831Y-13038850D01*
X9952831Y-13038850D02*
X9962355Y-13029326D01*
X9962355Y-13029326D02*
X9962355Y-13048374D01*
X10095688Y-12848374D02*
X10114736Y-12848374D01*
X10114736Y-12848374D02*
X10133784Y-12857898D01*
X10133784Y-12857898D02*
X10143308Y-12867421D01*
X10143308Y-12867421D02*
X10152831Y-12886469D01*
X10152831Y-12886469D02*
X10162355Y-12924564D01*
X10162355Y-12924564D02*
X10162355Y-12972183D01*
X10162355Y-12972183D02*
X10152831Y-13010278D01*
X10152831Y-13010278D02*
X10143308Y-13029326D01*
X10143308Y-13029326D02*
X10133784Y-13038850D01*
X10133784Y-13038850D02*
X10114736Y-13048374D01*
X10114736Y-13048374D02*
X10095688Y-13048374D01*
X10095688Y-13048374D02*
X10076641Y-13038850D01*
X10076641Y-13038850D02*
X10067117Y-13029326D01*
X10067117Y-13029326D02*
X10057593Y-13010278D01*
X10057593Y-13010278D02*
X10048069Y-12972183D01*
X10048069Y-12972183D02*
X10048069Y-12924564D01*
X10048069Y-12924564D02*
X10057593Y-12886469D01*
X10057593Y-12886469D02*
X10067117Y-12867421D01*
X10067117Y-12867421D02*
X10076641Y-12857898D01*
X10076641Y-12857898D02*
X10095688Y-12848374D01*
X10229022Y-12848374D02*
X10352831Y-12848374D01*
X10352831Y-12848374D02*
X10286165Y-12924564D01*
X10286165Y-12924564D02*
X10314736Y-12924564D01*
X10314736Y-12924564D02*
X10333784Y-12934088D01*
X10333784Y-12934088D02*
X10343308Y-12943612D01*
X10343308Y-12943612D02*
X10352831Y-12962659D01*
X10352831Y-12962659D02*
X10352831Y-13010278D01*
X10352831Y-13010278D02*
X10343308Y-13029326D01*
X10343308Y-13029326D02*
X10333784Y-13038850D01*
X10333784Y-13038850D02*
X10314736Y-13048374D01*
X10314736Y-13048374D02*
X10257593Y-13048374D01*
X10257593Y-13048374D02*
X10238546Y-13038850D01*
X10238546Y-13038850D02*
X10229022Y-13029326D01*
X10448069Y-13048374D02*
X10486165Y-13048374D01*
X10486165Y-13048374D02*
X10505212Y-13038850D01*
X10505212Y-13038850D02*
X10514736Y-13029326D01*
X10514736Y-13029326D02*
X10533784Y-13000755D01*
X10533784Y-13000755D02*
X10543308Y-12962659D01*
X10543308Y-12962659D02*
X10543308Y-12886469D01*
X10543308Y-12886469D02*
X10533784Y-12867421D01*
X10533784Y-12867421D02*
X10524260Y-12857898D01*
X10524260Y-12857898D02*
X10505212Y-12848374D01*
X10505212Y-12848374D02*
X10467117Y-12848374D01*
X10467117Y-12848374D02*
X10448069Y-12857898D01*
X10448069Y-12857898D02*
X10438546Y-12867421D01*
X10438546Y-12867421D02*
X10429022Y-12886469D01*
X10429022Y-12886469D02*
X10429022Y-12934088D01*
X10429022Y-12934088D02*
X10438546Y-12953136D01*
X10438546Y-12953136D02*
X10448069Y-12962659D01*
X10448069Y-12962659D02*
X10467117Y-12972183D01*
X10467117Y-12972183D02*
X10505212Y-12972183D01*
X10505212Y-12972183D02*
X10524260Y-12962659D01*
X10524260Y-12962659D02*
X10533784Y-12953136D01*
X10533784Y-12953136D02*
X10543308Y-12934088D01*
X10714736Y-12915040D02*
X10714736Y-13048374D01*
X10667117Y-12838850D02*
X10619498Y-12981707D01*
X10619498Y-12981707D02*
X10743308Y-12981707D01*
X10809974Y-12848374D02*
X10809974Y-12886469D01*
X10886165Y-12848374D02*
X10886165Y-12886469D01*
X11181403Y-13124564D02*
X11171879Y-13115040D01*
X11171879Y-13115040D02*
X11152831Y-13086469D01*
X11152831Y-13086469D02*
X11143308Y-13067421D01*
X11143308Y-13067421D02*
X11133784Y-13038850D01*
X11133784Y-13038850D02*
X11124260Y-12991231D01*
X11124260Y-12991231D02*
X11124260Y-12953136D01*
X11124260Y-12953136D02*
X11133784Y-12905517D01*
X11133784Y-12905517D02*
X11143308Y-12876945D01*
X11143308Y-12876945D02*
X11152831Y-12857898D01*
X11152831Y-12857898D02*
X11171879Y-12829326D01*
X11171879Y-12829326D02*
X11181403Y-12819802D01*
X11248069Y-12867421D02*
X11257593Y-12857898D01*
X11257593Y-12857898D02*
X11276641Y-12848374D01*
X11276641Y-12848374D02*
X11324260Y-12848374D01*
X11324260Y-12848374D02*
X11343308Y-12857898D01*
X11343308Y-12857898D02*
X11352831Y-12867421D01*
X11352831Y-12867421D02*
X11362355Y-12886469D01*
X11362355Y-12886469D02*
X11362355Y-12905517D01*
X11362355Y-12905517D02*
X11352831Y-12934088D01*
X11352831Y-12934088D02*
X11238546Y-13048374D01*
X11238546Y-13048374D02*
X11362355Y-13048374D01*
X11600450Y-13048374D02*
X11600450Y-12848374D01*
X11686165Y-13048374D02*
X11686165Y-12943612D01*
X11686165Y-12943612D02*
X11676641Y-12924564D01*
X11676641Y-12924564D02*
X11657593Y-12915040D01*
X11657593Y-12915040D02*
X11629022Y-12915040D01*
X11629022Y-12915040D02*
X11609974Y-12924564D01*
X11609974Y-12924564D02*
X11600450Y-12934088D01*
X11809974Y-13048374D02*
X11790927Y-13038850D01*
X11790927Y-13038850D02*
X11781403Y-13029326D01*
X11781403Y-13029326D02*
X11771879Y-13010278D01*
X11771879Y-13010278D02*
X11771879Y-12953136D01*
X11771879Y-12953136D02*
X11781403Y-12934088D01*
X11781403Y-12934088D02*
X11790927Y-12924564D01*
X11790927Y-12924564D02*
X11809974Y-12915040D01*
X11809974Y-12915040D02*
X11838546Y-12915040D01*
X11838546Y-12915040D02*
X11857593Y-12924564D01*
X11857593Y-12924564D02*
X11867117Y-12934088D01*
X11867117Y-12934088D02*
X11876641Y-12953136D01*
X11876641Y-12953136D02*
X11876641Y-13010278D01*
X11876641Y-13010278D02*
X11867117Y-13029326D01*
X11867117Y-13029326D02*
X11857593Y-13038850D01*
X11857593Y-13038850D02*
X11838546Y-13048374D01*
X11838546Y-13048374D02*
X11809974Y-13048374D01*
X11990927Y-13048374D02*
X11971879Y-13038850D01*
X11971879Y-13038850D02*
X11962355Y-13019802D01*
X11962355Y-13019802D02*
X11962355Y-12848374D01*
X12143308Y-13038850D02*
X12124260Y-13048374D01*
X12124260Y-13048374D02*
X12086165Y-13048374D01*
X12086165Y-13048374D02*
X12067117Y-13038850D01*
X12067117Y-13038850D02*
X12057593Y-13019802D01*
X12057593Y-13019802D02*
X12057593Y-12943612D01*
X12057593Y-12943612D02*
X12067117Y-12924564D01*
X12067117Y-12924564D02*
X12086165Y-12915040D01*
X12086165Y-12915040D02*
X12124260Y-12915040D01*
X12124260Y-12915040D02*
X12143308Y-12924564D01*
X12143308Y-12924564D02*
X12152831Y-12943612D01*
X12152831Y-12943612D02*
X12152831Y-12962659D01*
X12152831Y-12962659D02*
X12057593Y-12981707D01*
X12229022Y-13038850D02*
X12248070Y-13048374D01*
X12248070Y-13048374D02*
X12286165Y-13048374D01*
X12286165Y-13048374D02*
X12305212Y-13038850D01*
X12305212Y-13038850D02*
X12314736Y-13019802D01*
X12314736Y-13019802D02*
X12314736Y-13010278D01*
X12314736Y-13010278D02*
X12305212Y-12991231D01*
X12305212Y-12991231D02*
X12286165Y-12981707D01*
X12286165Y-12981707D02*
X12257593Y-12981707D01*
X12257593Y-12981707D02*
X12238546Y-12972183D01*
X12238546Y-12972183D02*
X12229022Y-12953136D01*
X12229022Y-12953136D02*
X12229022Y-12943612D01*
X12229022Y-12943612D02*
X12238546Y-12924564D01*
X12238546Y-12924564D02*
X12257593Y-12915040D01*
X12257593Y-12915040D02*
X12286165Y-12915040D01*
X12286165Y-12915040D02*
X12305212Y-12924564D01*
X12381403Y-13124564D02*
X12390927Y-13115040D01*
X12390927Y-13115040D02*
X12409974Y-13086469D01*
X12409974Y-13086469D02*
X12419498Y-13067421D01*
X12419498Y-13067421D02*
X12429022Y-13038850D01*
X12429022Y-13038850D02*
X12438546Y-12991231D01*
X12438546Y-12991231D02*
X12438546Y-12953136D01*
X12438546Y-12953136D02*
X12429022Y-12905517D01*
X12429022Y-12905517D02*
X12419498Y-12876945D01*
X12419498Y-12876945D02*
X12409974Y-12857898D01*
X12409974Y-12857898D02*
X12390927Y-12829326D01*
X12390927Y-12829326D02*
X12381403Y-12819802D01*
D12*
X7591696Y-13256246D02*
X7591696Y-13185534D01*
X7520984Y-13185534D01*
X7520984Y-13256246D01*
X7591696Y-13256246D01*
D11*
X7971879Y-13312374D02*
X7857593Y-13312374D01*
X7914736Y-13312374D02*
X7914736Y-13112374D01*
X7914736Y-13112374D02*
X7895688Y-13140945D01*
X7895688Y-13140945D02*
X7876641Y-13159993D01*
X7876641Y-13159993D02*
X7857593Y-13169517D01*
X8057593Y-13293326D02*
X8067117Y-13302850D01*
X8067117Y-13302850D02*
X8057593Y-13312374D01*
X8057593Y-13312374D02*
X8048069Y-13302850D01*
X8048069Y-13302850D02*
X8057593Y-13293326D01*
X8057593Y-13293326D02*
X8057593Y-13312374D01*
X8190926Y-13112374D02*
X8209974Y-13112374D01*
X8209974Y-13112374D02*
X8229022Y-13121898D01*
X8229022Y-13121898D02*
X8238545Y-13131421D01*
X8238545Y-13131421D02*
X8248069Y-13150469D01*
X8248069Y-13150469D02*
X8257593Y-13188564D01*
X8257593Y-13188564D02*
X8257593Y-13236183D01*
X8257593Y-13236183D02*
X8248069Y-13274278D01*
X8248069Y-13274278D02*
X8238545Y-13293326D01*
X8238545Y-13293326D02*
X8229022Y-13302850D01*
X8229022Y-13302850D02*
X8209974Y-13312374D01*
X8209974Y-13312374D02*
X8190926Y-13312374D01*
X8190926Y-13312374D02*
X8171879Y-13302850D01*
X8171879Y-13302850D02*
X8162355Y-13293326D01*
X8162355Y-13293326D02*
X8152831Y-13274278D01*
X8152831Y-13274278D02*
X8143307Y-13236183D01*
X8143307Y-13236183D02*
X8143307Y-13188564D01*
X8143307Y-13188564D02*
X8152831Y-13150469D01*
X8152831Y-13150469D02*
X8162355Y-13131421D01*
X8162355Y-13131421D02*
X8171879Y-13121898D01*
X8171879Y-13121898D02*
X8190926Y-13112374D01*
X8381402Y-13112374D02*
X8400450Y-13112374D01*
X8400450Y-13112374D02*
X8419498Y-13121898D01*
X8419498Y-13121898D02*
X8429022Y-13131421D01*
X8429022Y-13131421D02*
X8438545Y-13150469D01*
X8438545Y-13150469D02*
X8448069Y-13188564D01*
X8448069Y-13188564D02*
X8448069Y-13236183D01*
X8448069Y-13236183D02*
X8438545Y-13274278D01*
X8438545Y-13274278D02*
X8429022Y-13293326D01*
X8429022Y-13293326D02*
X8419498Y-13302850D01*
X8419498Y-13302850D02*
X8400450Y-13312374D01*
X8400450Y-13312374D02*
X8381402Y-13312374D01*
X8381402Y-13312374D02*
X8362355Y-13302850D01*
X8362355Y-13302850D02*
X8352831Y-13293326D01*
X8352831Y-13293326D02*
X8343307Y-13274278D01*
X8343307Y-13274278D02*
X8333783Y-13236183D01*
X8333783Y-13236183D02*
X8333783Y-13188564D01*
X8333783Y-13188564D02*
X8343307Y-13150469D01*
X8343307Y-13150469D02*
X8352831Y-13131421D01*
X8352831Y-13131421D02*
X8362355Y-13121898D01*
X8362355Y-13121898D02*
X8381402Y-13112374D01*
X8571879Y-13112374D02*
X8590926Y-13112374D01*
X8590926Y-13112374D02*
X8609974Y-13121898D01*
X8609974Y-13121898D02*
X8619498Y-13131421D01*
X8619498Y-13131421D02*
X8629022Y-13150469D01*
X8629022Y-13150469D02*
X8638545Y-13188564D01*
X8638545Y-13188564D02*
X8638545Y-13236183D01*
X8638545Y-13236183D02*
X8629022Y-13274278D01*
X8629022Y-13274278D02*
X8619498Y-13293326D01*
X8619498Y-13293326D02*
X8609974Y-13302850D01*
X8609974Y-13302850D02*
X8590926Y-13312374D01*
X8590926Y-13312374D02*
X8571879Y-13312374D01*
X8571879Y-13312374D02*
X8552831Y-13302850D01*
X8552831Y-13302850D02*
X8543307Y-13293326D01*
X8543307Y-13293326D02*
X8533784Y-13274278D01*
X8533784Y-13274278D02*
X8524260Y-13236183D01*
X8524260Y-13236183D02*
X8524260Y-13188564D01*
X8524260Y-13188564D02*
X8533784Y-13150469D01*
X8533784Y-13150469D02*
X8543307Y-13131421D01*
X8543307Y-13131421D02*
X8552831Y-13121898D01*
X8552831Y-13121898D02*
X8571879Y-13112374D01*
X8724260Y-13312374D02*
X8724260Y-13179040D01*
X8724260Y-13198088D02*
X8733784Y-13188564D01*
X8733784Y-13188564D02*
X8752831Y-13179040D01*
X8752831Y-13179040D02*
X8781403Y-13179040D01*
X8781403Y-13179040D02*
X8800450Y-13188564D01*
X8800450Y-13188564D02*
X8809974Y-13207612D01*
X8809974Y-13207612D02*
X8809974Y-13312374D01*
X8809974Y-13207612D02*
X8819498Y-13188564D01*
X8819498Y-13188564D02*
X8838545Y-13179040D01*
X8838545Y-13179040D02*
X8867117Y-13179040D01*
X8867117Y-13179040D02*
X8886165Y-13188564D01*
X8886165Y-13188564D02*
X8895688Y-13207612D01*
X8895688Y-13207612D02*
X8895688Y-13312374D01*
X8990926Y-13312374D02*
X8990926Y-13179040D01*
X8990926Y-13198088D02*
X9000450Y-13188564D01*
X9000450Y-13188564D02*
X9019498Y-13179040D01*
X9019498Y-13179040D02*
X9048069Y-13179040D01*
X9048069Y-13179040D02*
X9067117Y-13188564D01*
X9067117Y-13188564D02*
X9076641Y-13207612D01*
X9076641Y-13207612D02*
X9076641Y-13312374D01*
X9076641Y-13207612D02*
X9086165Y-13188564D01*
X9086165Y-13188564D02*
X9105212Y-13179040D01*
X9105212Y-13179040D02*
X9133784Y-13179040D01*
X9133784Y-13179040D02*
X9152831Y-13188564D01*
X9152831Y-13188564D02*
X9162355Y-13207612D01*
X9162355Y-13207612D02*
X9162355Y-13312374D01*
X9552831Y-13102850D02*
X9381403Y-13359993D01*
X9809974Y-13112374D02*
X9829022Y-13112374D01*
X9829022Y-13112374D02*
X9848069Y-13121898D01*
X9848069Y-13121898D02*
X9857593Y-13131421D01*
X9857593Y-13131421D02*
X9867117Y-13150469D01*
X9867117Y-13150469D02*
X9876641Y-13188564D01*
X9876641Y-13188564D02*
X9876641Y-13236183D01*
X9876641Y-13236183D02*
X9867117Y-13274278D01*
X9867117Y-13274278D02*
X9857593Y-13293326D01*
X9857593Y-13293326D02*
X9848069Y-13302850D01*
X9848069Y-13302850D02*
X9829022Y-13312374D01*
X9829022Y-13312374D02*
X9809974Y-13312374D01*
X9809974Y-13312374D02*
X9790927Y-13302850D01*
X9790927Y-13302850D02*
X9781403Y-13293326D01*
X9781403Y-13293326D02*
X9771879Y-13274278D01*
X9771879Y-13274278D02*
X9762355Y-13236183D01*
X9762355Y-13236183D02*
X9762355Y-13188564D01*
X9762355Y-13188564D02*
X9771879Y-13150469D01*
X9771879Y-13150469D02*
X9781403Y-13131421D01*
X9781403Y-13131421D02*
X9790927Y-13121898D01*
X9790927Y-13121898D02*
X9809974Y-13112374D01*
X9962355Y-13293326D02*
X9971879Y-13302850D01*
X9971879Y-13302850D02*
X9962355Y-13312374D01*
X9962355Y-13312374D02*
X9952831Y-13302850D01*
X9952831Y-13302850D02*
X9962355Y-13293326D01*
X9962355Y-13293326D02*
X9962355Y-13312374D01*
X10095688Y-13112374D02*
X10114736Y-13112374D01*
X10114736Y-13112374D02*
X10133784Y-13121898D01*
X10133784Y-13121898D02*
X10143308Y-13131421D01*
X10143308Y-13131421D02*
X10152831Y-13150469D01*
X10152831Y-13150469D02*
X10162355Y-13188564D01*
X10162355Y-13188564D02*
X10162355Y-13236183D01*
X10162355Y-13236183D02*
X10152831Y-13274278D01*
X10152831Y-13274278D02*
X10143308Y-13293326D01*
X10143308Y-13293326D02*
X10133784Y-13302850D01*
X10133784Y-13302850D02*
X10114736Y-13312374D01*
X10114736Y-13312374D02*
X10095688Y-13312374D01*
X10095688Y-13312374D02*
X10076641Y-13302850D01*
X10076641Y-13302850D02*
X10067117Y-13293326D01*
X10067117Y-13293326D02*
X10057593Y-13274278D01*
X10057593Y-13274278D02*
X10048069Y-13236183D01*
X10048069Y-13236183D02*
X10048069Y-13188564D01*
X10048069Y-13188564D02*
X10057593Y-13150469D01*
X10057593Y-13150469D02*
X10067117Y-13131421D01*
X10067117Y-13131421D02*
X10076641Y-13121898D01*
X10076641Y-13121898D02*
X10095688Y-13112374D01*
X10229022Y-13112374D02*
X10352831Y-13112374D01*
X10352831Y-13112374D02*
X10286165Y-13188564D01*
X10286165Y-13188564D02*
X10314736Y-13188564D01*
X10314736Y-13188564D02*
X10333784Y-13198088D01*
X10333784Y-13198088D02*
X10343308Y-13207612D01*
X10343308Y-13207612D02*
X10352831Y-13226659D01*
X10352831Y-13226659D02*
X10352831Y-13274278D01*
X10352831Y-13274278D02*
X10343308Y-13293326D01*
X10343308Y-13293326D02*
X10333784Y-13302850D01*
X10333784Y-13302850D02*
X10314736Y-13312374D01*
X10314736Y-13312374D02*
X10257593Y-13312374D01*
X10257593Y-13312374D02*
X10238546Y-13302850D01*
X10238546Y-13302850D02*
X10229022Y-13293326D01*
X10448069Y-13312374D02*
X10486165Y-13312374D01*
X10486165Y-13312374D02*
X10505212Y-13302850D01*
X10505212Y-13302850D02*
X10514736Y-13293326D01*
X10514736Y-13293326D02*
X10533784Y-13264755D01*
X10533784Y-13264755D02*
X10543308Y-13226659D01*
X10543308Y-13226659D02*
X10543308Y-13150469D01*
X10543308Y-13150469D02*
X10533784Y-13131421D01*
X10533784Y-13131421D02*
X10524260Y-13121898D01*
X10524260Y-13121898D02*
X10505212Y-13112374D01*
X10505212Y-13112374D02*
X10467117Y-13112374D01*
X10467117Y-13112374D02*
X10448069Y-13121898D01*
X10448069Y-13121898D02*
X10438546Y-13131421D01*
X10438546Y-13131421D02*
X10429022Y-13150469D01*
X10429022Y-13150469D02*
X10429022Y-13198088D01*
X10429022Y-13198088D02*
X10438546Y-13217136D01*
X10438546Y-13217136D02*
X10448069Y-13226659D01*
X10448069Y-13226659D02*
X10467117Y-13236183D01*
X10467117Y-13236183D02*
X10505212Y-13236183D01*
X10505212Y-13236183D02*
X10524260Y-13226659D01*
X10524260Y-13226659D02*
X10533784Y-13217136D01*
X10533784Y-13217136D02*
X10543308Y-13198088D01*
X10714736Y-13179040D02*
X10714736Y-13312374D01*
X10667117Y-13102850D02*
X10619498Y-13245707D01*
X10619498Y-13245707D02*
X10743308Y-13245707D01*
X10809974Y-13112374D02*
X10809974Y-13150469D01*
X10886165Y-13112374D02*
X10886165Y-13150469D01*
X11181403Y-13388564D02*
X11171879Y-13379040D01*
X11171879Y-13379040D02*
X11152831Y-13350469D01*
X11152831Y-13350469D02*
X11143308Y-13331421D01*
X11143308Y-13331421D02*
X11133784Y-13302850D01*
X11133784Y-13302850D02*
X11124260Y-13255231D01*
X11124260Y-13255231D02*
X11124260Y-13217136D01*
X11124260Y-13217136D02*
X11133784Y-13169517D01*
X11133784Y-13169517D02*
X11143308Y-13140945D01*
X11143308Y-13140945D02*
X11152831Y-13121898D01*
X11152831Y-13121898D02*
X11171879Y-13093326D01*
X11171879Y-13093326D02*
X11181403Y-13083802D01*
X11238546Y-13112374D02*
X11371879Y-13112374D01*
X11371879Y-13112374D02*
X11286165Y-13312374D01*
X11552831Y-13312374D02*
X11438546Y-13312374D01*
X11495688Y-13312374D02*
X11495688Y-13112374D01*
X11495688Y-13112374D02*
X11476641Y-13140945D01*
X11476641Y-13140945D02*
X11457593Y-13159993D01*
X11457593Y-13159993D02*
X11438546Y-13169517D01*
X11790927Y-13312374D02*
X11790927Y-13112374D01*
X11876641Y-13312374D02*
X11876641Y-13207612D01*
X11876641Y-13207612D02*
X11867117Y-13188564D01*
X11867117Y-13188564D02*
X11848070Y-13179040D01*
X11848070Y-13179040D02*
X11819498Y-13179040D01*
X11819498Y-13179040D02*
X11800450Y-13188564D01*
X11800450Y-13188564D02*
X11790927Y-13198088D01*
X12000450Y-13312374D02*
X11981403Y-13302850D01*
X11981403Y-13302850D02*
X11971879Y-13293326D01*
X11971879Y-13293326D02*
X11962355Y-13274278D01*
X11962355Y-13274278D02*
X11962355Y-13217136D01*
X11962355Y-13217136D02*
X11971879Y-13198088D01*
X11971879Y-13198088D02*
X11981403Y-13188564D01*
X11981403Y-13188564D02*
X12000450Y-13179040D01*
X12000450Y-13179040D02*
X12029022Y-13179040D01*
X12029022Y-13179040D02*
X12048070Y-13188564D01*
X12048070Y-13188564D02*
X12057593Y-13198088D01*
X12057593Y-13198088D02*
X12067117Y-13217136D01*
X12067117Y-13217136D02*
X12067117Y-13274278D01*
X12067117Y-13274278D02*
X12057593Y-13293326D01*
X12057593Y-13293326D02*
X12048070Y-13302850D01*
X12048070Y-13302850D02*
X12029022Y-13312374D01*
X12029022Y-13312374D02*
X12000450Y-13312374D01*
X12181403Y-13312374D02*
X12162355Y-13302850D01*
X12162355Y-13302850D02*
X12152831Y-13283802D01*
X12152831Y-13283802D02*
X12152831Y-13112374D01*
X12333784Y-13302850D02*
X12314736Y-13312374D01*
X12314736Y-13312374D02*
X12276641Y-13312374D01*
X12276641Y-13312374D02*
X12257593Y-13302850D01*
X12257593Y-13302850D02*
X12248070Y-13283802D01*
X12248070Y-13283802D02*
X12248070Y-13207612D01*
X12248070Y-13207612D02*
X12257593Y-13188564D01*
X12257593Y-13188564D02*
X12276641Y-13179040D01*
X12276641Y-13179040D02*
X12314736Y-13179040D01*
X12314736Y-13179040D02*
X12333784Y-13188564D01*
X12333784Y-13188564D02*
X12343308Y-13207612D01*
X12343308Y-13207612D02*
X12343308Y-13226659D01*
X12343308Y-13226659D02*
X12248070Y-13245707D01*
X12419498Y-13302850D02*
X12438546Y-13312374D01*
X12438546Y-13312374D02*
X12476641Y-13312374D01*
X12476641Y-13312374D02*
X12495689Y-13302850D01*
X12495689Y-13302850D02*
X12505212Y-13283802D01*
X12505212Y-13283802D02*
X12505212Y-13274278D01*
X12505212Y-13274278D02*
X12495689Y-13255231D01*
X12495689Y-13255231D02*
X12476641Y-13245707D01*
X12476641Y-13245707D02*
X12448070Y-13245707D01*
X12448070Y-13245707D02*
X12429022Y-13236183D01*
X12429022Y-13236183D02*
X12419498Y-13217136D01*
X12419498Y-13217136D02*
X12419498Y-13207612D01*
X12419498Y-13207612D02*
X12429022Y-13188564D01*
X12429022Y-13188564D02*
X12448070Y-13179040D01*
X12448070Y-13179040D02*
X12476641Y-13179040D01*
X12476641Y-13179040D02*
X12495689Y-13188564D01*
X12571879Y-13388564D02*
X12581403Y-13379040D01*
X12581403Y-13379040D02*
X12600451Y-13350469D01*
X12600451Y-13350469D02*
X12609974Y-13331421D01*
X12609974Y-13331421D02*
X12619498Y-13302850D01*
X12619498Y-13302850D02*
X12629022Y-13255231D01*
X12629022Y-13255231D02*
X12629022Y-13217136D01*
X12629022Y-13217136D02*
X12619498Y-13169517D01*
X12619498Y-13169517D02*
X12609974Y-13140945D01*
X12609974Y-13140945D02*
X12600451Y-13121898D01*
X12600451Y-13121898D02*
X12581403Y-13093326D01*
X12581403Y-13093326D02*
X12571879Y-13083802D01*
D13*
X7551340Y-13539890D02*
X7606340Y-13484890D01*
X7551340Y-13429890D01*
X7496340Y-13484890D01*
X7551340Y-13539890D01*
D11*
X7971879Y-13576374D02*
X7857593Y-13576374D01*
X7914736Y-13576374D02*
X7914736Y-13376374D01*
X7914736Y-13376374D02*
X7895688Y-13404945D01*
X7895688Y-13404945D02*
X7876641Y-13423993D01*
X7876641Y-13423993D02*
X7857593Y-13433517D01*
X8057593Y-13557326D02*
X8067117Y-13566850D01*
X8067117Y-13566850D02*
X8057593Y-13576374D01*
X8057593Y-13576374D02*
X8048069Y-13566850D01*
X8048069Y-13566850D02*
X8057593Y-13557326D01*
X8057593Y-13557326D02*
X8057593Y-13576374D01*
X8257593Y-13576374D02*
X8143307Y-13576374D01*
X8200450Y-13576374D02*
X8200450Y-13376374D01*
X8200450Y-13376374D02*
X8181402Y-13404945D01*
X8181402Y-13404945D02*
X8162355Y-13423993D01*
X8162355Y-13423993D02*
X8143307Y-13433517D01*
X8381402Y-13376374D02*
X8400450Y-13376374D01*
X8400450Y-13376374D02*
X8419498Y-13385898D01*
X8419498Y-13385898D02*
X8429022Y-13395421D01*
X8429022Y-13395421D02*
X8438545Y-13414469D01*
X8438545Y-13414469D02*
X8448069Y-13452564D01*
X8448069Y-13452564D02*
X8448069Y-13500183D01*
X8448069Y-13500183D02*
X8438545Y-13538278D01*
X8438545Y-13538278D02*
X8429022Y-13557326D01*
X8429022Y-13557326D02*
X8419498Y-13566850D01*
X8419498Y-13566850D02*
X8400450Y-13576374D01*
X8400450Y-13576374D02*
X8381402Y-13576374D01*
X8381402Y-13576374D02*
X8362355Y-13566850D01*
X8362355Y-13566850D02*
X8352831Y-13557326D01*
X8352831Y-13557326D02*
X8343307Y-13538278D01*
X8343307Y-13538278D02*
X8333783Y-13500183D01*
X8333783Y-13500183D02*
X8333783Y-13452564D01*
X8333783Y-13452564D02*
X8343307Y-13414469D01*
X8343307Y-13414469D02*
X8352831Y-13395421D01*
X8352831Y-13395421D02*
X8362355Y-13385898D01*
X8362355Y-13385898D02*
X8381402Y-13376374D01*
X8571879Y-13376374D02*
X8590926Y-13376374D01*
X8590926Y-13376374D02*
X8609974Y-13385898D01*
X8609974Y-13385898D02*
X8619498Y-13395421D01*
X8619498Y-13395421D02*
X8629022Y-13414469D01*
X8629022Y-13414469D02*
X8638545Y-13452564D01*
X8638545Y-13452564D02*
X8638545Y-13500183D01*
X8638545Y-13500183D02*
X8629022Y-13538278D01*
X8629022Y-13538278D02*
X8619498Y-13557326D01*
X8619498Y-13557326D02*
X8609974Y-13566850D01*
X8609974Y-13566850D02*
X8590926Y-13576374D01*
X8590926Y-13576374D02*
X8571879Y-13576374D01*
X8571879Y-13576374D02*
X8552831Y-13566850D01*
X8552831Y-13566850D02*
X8543307Y-13557326D01*
X8543307Y-13557326D02*
X8533784Y-13538278D01*
X8533784Y-13538278D02*
X8524260Y-13500183D01*
X8524260Y-13500183D02*
X8524260Y-13452564D01*
X8524260Y-13452564D02*
X8533784Y-13414469D01*
X8533784Y-13414469D02*
X8543307Y-13395421D01*
X8543307Y-13395421D02*
X8552831Y-13385898D01*
X8552831Y-13385898D02*
X8571879Y-13376374D01*
X8724260Y-13576374D02*
X8724260Y-13443040D01*
X8724260Y-13462088D02*
X8733784Y-13452564D01*
X8733784Y-13452564D02*
X8752831Y-13443040D01*
X8752831Y-13443040D02*
X8781403Y-13443040D01*
X8781403Y-13443040D02*
X8800450Y-13452564D01*
X8800450Y-13452564D02*
X8809974Y-13471612D01*
X8809974Y-13471612D02*
X8809974Y-13576374D01*
X8809974Y-13471612D02*
X8819498Y-13452564D01*
X8819498Y-13452564D02*
X8838545Y-13443040D01*
X8838545Y-13443040D02*
X8867117Y-13443040D01*
X8867117Y-13443040D02*
X8886165Y-13452564D01*
X8886165Y-13452564D02*
X8895688Y-13471612D01*
X8895688Y-13471612D02*
X8895688Y-13576374D01*
X8990926Y-13576374D02*
X8990926Y-13443040D01*
X8990926Y-13462088D02*
X9000450Y-13452564D01*
X9000450Y-13452564D02*
X9019498Y-13443040D01*
X9019498Y-13443040D02*
X9048069Y-13443040D01*
X9048069Y-13443040D02*
X9067117Y-13452564D01*
X9067117Y-13452564D02*
X9076641Y-13471612D01*
X9076641Y-13471612D02*
X9076641Y-13576374D01*
X9076641Y-13471612D02*
X9086165Y-13452564D01*
X9086165Y-13452564D02*
X9105212Y-13443040D01*
X9105212Y-13443040D02*
X9133784Y-13443040D01*
X9133784Y-13443040D02*
X9152831Y-13452564D01*
X9152831Y-13452564D02*
X9162355Y-13471612D01*
X9162355Y-13471612D02*
X9162355Y-13576374D01*
X9552831Y-13366850D02*
X9381403Y-13623993D01*
X9809974Y-13376374D02*
X9829022Y-13376374D01*
X9829022Y-13376374D02*
X9848069Y-13385898D01*
X9848069Y-13385898D02*
X9857593Y-13395421D01*
X9857593Y-13395421D02*
X9867117Y-13414469D01*
X9867117Y-13414469D02*
X9876641Y-13452564D01*
X9876641Y-13452564D02*
X9876641Y-13500183D01*
X9876641Y-13500183D02*
X9867117Y-13538278D01*
X9867117Y-13538278D02*
X9857593Y-13557326D01*
X9857593Y-13557326D02*
X9848069Y-13566850D01*
X9848069Y-13566850D02*
X9829022Y-13576374D01*
X9829022Y-13576374D02*
X9809974Y-13576374D01*
X9809974Y-13576374D02*
X9790927Y-13566850D01*
X9790927Y-13566850D02*
X9781403Y-13557326D01*
X9781403Y-13557326D02*
X9771879Y-13538278D01*
X9771879Y-13538278D02*
X9762355Y-13500183D01*
X9762355Y-13500183D02*
X9762355Y-13452564D01*
X9762355Y-13452564D02*
X9771879Y-13414469D01*
X9771879Y-13414469D02*
X9781403Y-13395421D01*
X9781403Y-13395421D02*
X9790927Y-13385898D01*
X9790927Y-13385898D02*
X9809974Y-13376374D01*
X9962355Y-13557326D02*
X9971879Y-13566850D01*
X9971879Y-13566850D02*
X9962355Y-13576374D01*
X9962355Y-13576374D02*
X9952831Y-13566850D01*
X9952831Y-13566850D02*
X9962355Y-13557326D01*
X9962355Y-13557326D02*
X9962355Y-13576374D01*
X10095688Y-13376374D02*
X10114736Y-13376374D01*
X10114736Y-13376374D02*
X10133784Y-13385898D01*
X10133784Y-13385898D02*
X10143308Y-13395421D01*
X10143308Y-13395421D02*
X10152831Y-13414469D01*
X10152831Y-13414469D02*
X10162355Y-13452564D01*
X10162355Y-13452564D02*
X10162355Y-13500183D01*
X10162355Y-13500183D02*
X10152831Y-13538278D01*
X10152831Y-13538278D02*
X10143308Y-13557326D01*
X10143308Y-13557326D02*
X10133784Y-13566850D01*
X10133784Y-13566850D02*
X10114736Y-13576374D01*
X10114736Y-13576374D02*
X10095688Y-13576374D01*
X10095688Y-13576374D02*
X10076641Y-13566850D01*
X10076641Y-13566850D02*
X10067117Y-13557326D01*
X10067117Y-13557326D02*
X10057593Y-13538278D01*
X10057593Y-13538278D02*
X10048069Y-13500183D01*
X10048069Y-13500183D02*
X10048069Y-13452564D01*
X10048069Y-13452564D02*
X10057593Y-13414469D01*
X10057593Y-13414469D02*
X10067117Y-13395421D01*
X10067117Y-13395421D02*
X10076641Y-13385898D01*
X10076641Y-13385898D02*
X10095688Y-13376374D01*
X10333784Y-13443040D02*
X10333784Y-13576374D01*
X10286165Y-13366850D02*
X10238546Y-13509707D01*
X10238546Y-13509707D02*
X10362355Y-13509707D01*
X10419498Y-13376374D02*
X10543308Y-13376374D01*
X10543308Y-13376374D02*
X10476641Y-13452564D01*
X10476641Y-13452564D02*
X10505212Y-13452564D01*
X10505212Y-13452564D02*
X10524260Y-13462088D01*
X10524260Y-13462088D02*
X10533784Y-13471612D01*
X10533784Y-13471612D02*
X10543308Y-13490659D01*
X10543308Y-13490659D02*
X10543308Y-13538278D01*
X10543308Y-13538278D02*
X10533784Y-13557326D01*
X10533784Y-13557326D02*
X10524260Y-13566850D01*
X10524260Y-13566850D02*
X10505212Y-13576374D01*
X10505212Y-13576374D02*
X10448069Y-13576374D01*
X10448069Y-13576374D02*
X10429022Y-13566850D01*
X10429022Y-13566850D02*
X10419498Y-13557326D01*
X10609974Y-13376374D02*
X10733784Y-13376374D01*
X10733784Y-13376374D02*
X10667117Y-13452564D01*
X10667117Y-13452564D02*
X10695689Y-13452564D01*
X10695689Y-13452564D02*
X10714736Y-13462088D01*
X10714736Y-13462088D02*
X10724260Y-13471612D01*
X10724260Y-13471612D02*
X10733784Y-13490659D01*
X10733784Y-13490659D02*
X10733784Y-13538278D01*
X10733784Y-13538278D02*
X10724260Y-13557326D01*
X10724260Y-13557326D02*
X10714736Y-13566850D01*
X10714736Y-13566850D02*
X10695689Y-13576374D01*
X10695689Y-13576374D02*
X10638546Y-13576374D01*
X10638546Y-13576374D02*
X10619498Y-13566850D01*
X10619498Y-13566850D02*
X10609974Y-13557326D01*
X10809974Y-13376374D02*
X10809974Y-13414469D01*
X10886165Y-13376374D02*
X10886165Y-13414469D01*
X11181403Y-13652564D02*
X11171879Y-13643040D01*
X11171879Y-13643040D02*
X11152831Y-13614469D01*
X11152831Y-13614469D02*
X11143308Y-13595421D01*
X11143308Y-13595421D02*
X11133784Y-13566850D01*
X11133784Y-13566850D02*
X11124260Y-13519231D01*
X11124260Y-13519231D02*
X11124260Y-13481136D01*
X11124260Y-13481136D02*
X11133784Y-13433517D01*
X11133784Y-13433517D02*
X11143308Y-13404945D01*
X11143308Y-13404945D02*
X11152831Y-13385898D01*
X11152831Y-13385898D02*
X11171879Y-13357326D01*
X11171879Y-13357326D02*
X11181403Y-13347802D01*
X11343308Y-13376374D02*
X11305212Y-13376374D01*
X11305212Y-13376374D02*
X11286165Y-13385898D01*
X11286165Y-13385898D02*
X11276641Y-13395421D01*
X11276641Y-13395421D02*
X11257593Y-13423993D01*
X11257593Y-13423993D02*
X11248069Y-13462088D01*
X11248069Y-13462088D02*
X11248069Y-13538278D01*
X11248069Y-13538278D02*
X11257593Y-13557326D01*
X11257593Y-13557326D02*
X11267117Y-13566850D01*
X11267117Y-13566850D02*
X11286165Y-13576374D01*
X11286165Y-13576374D02*
X11324260Y-13576374D01*
X11324260Y-13576374D02*
X11343308Y-13566850D01*
X11343308Y-13566850D02*
X11352831Y-13557326D01*
X11352831Y-13557326D02*
X11362355Y-13538278D01*
X11362355Y-13538278D02*
X11362355Y-13490659D01*
X11362355Y-13490659D02*
X11352831Y-13471612D01*
X11352831Y-13471612D02*
X11343308Y-13462088D01*
X11343308Y-13462088D02*
X11324260Y-13452564D01*
X11324260Y-13452564D02*
X11286165Y-13452564D01*
X11286165Y-13452564D02*
X11267117Y-13462088D01*
X11267117Y-13462088D02*
X11257593Y-13471612D01*
X11257593Y-13471612D02*
X11248069Y-13490659D01*
X11600450Y-13576374D02*
X11600450Y-13376374D01*
X11686165Y-13576374D02*
X11686165Y-13471612D01*
X11686165Y-13471612D02*
X11676641Y-13452564D01*
X11676641Y-13452564D02*
X11657593Y-13443040D01*
X11657593Y-13443040D02*
X11629022Y-13443040D01*
X11629022Y-13443040D02*
X11609974Y-13452564D01*
X11609974Y-13452564D02*
X11600450Y-13462088D01*
X11809974Y-13576374D02*
X11790927Y-13566850D01*
X11790927Y-13566850D02*
X11781403Y-13557326D01*
X11781403Y-13557326D02*
X11771879Y-13538278D01*
X11771879Y-13538278D02*
X11771879Y-13481136D01*
X11771879Y-13481136D02*
X11781403Y-13462088D01*
X11781403Y-13462088D02*
X11790927Y-13452564D01*
X11790927Y-13452564D02*
X11809974Y-13443040D01*
X11809974Y-13443040D02*
X11838546Y-13443040D01*
X11838546Y-13443040D02*
X11857593Y-13452564D01*
X11857593Y-13452564D02*
X11867117Y-13462088D01*
X11867117Y-13462088D02*
X11876641Y-13481136D01*
X11876641Y-13481136D02*
X11876641Y-13538278D01*
X11876641Y-13538278D02*
X11867117Y-13557326D01*
X11867117Y-13557326D02*
X11857593Y-13566850D01*
X11857593Y-13566850D02*
X11838546Y-13576374D01*
X11838546Y-13576374D02*
X11809974Y-13576374D01*
X11990927Y-13576374D02*
X11971879Y-13566850D01*
X11971879Y-13566850D02*
X11962355Y-13547802D01*
X11962355Y-13547802D02*
X11962355Y-13376374D01*
X12143308Y-13566850D02*
X12124260Y-13576374D01*
X12124260Y-13576374D02*
X12086165Y-13576374D01*
X12086165Y-13576374D02*
X12067117Y-13566850D01*
X12067117Y-13566850D02*
X12057593Y-13547802D01*
X12057593Y-13547802D02*
X12057593Y-13471612D01*
X12057593Y-13471612D02*
X12067117Y-13452564D01*
X12067117Y-13452564D02*
X12086165Y-13443040D01*
X12086165Y-13443040D02*
X12124260Y-13443040D01*
X12124260Y-13443040D02*
X12143308Y-13452564D01*
X12143308Y-13452564D02*
X12152831Y-13471612D01*
X12152831Y-13471612D02*
X12152831Y-13490659D01*
X12152831Y-13490659D02*
X12057593Y-13509707D01*
X12229022Y-13566850D02*
X12248070Y-13576374D01*
X12248070Y-13576374D02*
X12286165Y-13576374D01*
X12286165Y-13576374D02*
X12305212Y-13566850D01*
X12305212Y-13566850D02*
X12314736Y-13547802D01*
X12314736Y-13547802D02*
X12314736Y-13538278D01*
X12314736Y-13538278D02*
X12305212Y-13519231D01*
X12305212Y-13519231D02*
X12286165Y-13509707D01*
X12286165Y-13509707D02*
X12257593Y-13509707D01*
X12257593Y-13509707D02*
X12238546Y-13500183D01*
X12238546Y-13500183D02*
X12229022Y-13481136D01*
X12229022Y-13481136D02*
X12229022Y-13471612D01*
X12229022Y-13471612D02*
X12238546Y-13452564D01*
X12238546Y-13452564D02*
X12257593Y-13443040D01*
X12257593Y-13443040D02*
X12286165Y-13443040D01*
X12286165Y-13443040D02*
X12305212Y-13452564D01*
X12381403Y-13652564D02*
X12390927Y-13643040D01*
X12390927Y-13643040D02*
X12409974Y-13614469D01*
X12409974Y-13614469D02*
X12419498Y-13595421D01*
X12419498Y-13595421D02*
X12429022Y-13566850D01*
X12429022Y-13566850D02*
X12438546Y-13519231D01*
X12438546Y-13519231D02*
X12438546Y-13481136D01*
X12438546Y-13481136D02*
X12429022Y-13433517D01*
X12429022Y-13433517D02*
X12419498Y-13404945D01*
X12419498Y-13404945D02*
X12409974Y-13385898D01*
X12409974Y-13385898D02*
X12390927Y-13357326D01*
X12390927Y-13357326D02*
X12381403Y-13347802D01*
D14*
X7486340Y-13688890D02*
X7606340Y-13808890D01*
X7606340Y-13688890D02*
X7486340Y-13808890D01*
X7606340Y-13748890D02*
G75*
G02*
X7486340Y-13748890I-60000J0D01*
G01*
X7486340Y-13748890D02*
G75*
G02*
X7606340Y-13748890I60000J0D01*
G01*
D11*
X7971879Y-13840374D02*
X7857593Y-13840374D01*
X7914736Y-13840374D02*
X7914736Y-13640374D01*
X7914736Y-13640374D02*
X7895688Y-13668945D01*
X7895688Y-13668945D02*
X7876641Y-13687993D01*
X7876641Y-13687993D02*
X7857593Y-13697517D01*
X8057593Y-13821326D02*
X8067117Y-13830850D01*
X8067117Y-13830850D02*
X8057593Y-13840374D01*
X8057593Y-13840374D02*
X8048069Y-13830850D01*
X8048069Y-13830850D02*
X8057593Y-13821326D01*
X8057593Y-13821326D02*
X8057593Y-13840374D01*
X8143307Y-13659421D02*
X8152831Y-13649898D01*
X8152831Y-13649898D02*
X8171879Y-13640374D01*
X8171879Y-13640374D02*
X8219498Y-13640374D01*
X8219498Y-13640374D02*
X8238545Y-13649898D01*
X8238545Y-13649898D02*
X8248069Y-13659421D01*
X8248069Y-13659421D02*
X8257593Y-13678469D01*
X8257593Y-13678469D02*
X8257593Y-13697517D01*
X8257593Y-13697517D02*
X8248069Y-13726088D01*
X8248069Y-13726088D02*
X8133783Y-13840374D01*
X8133783Y-13840374D02*
X8257593Y-13840374D01*
X8381402Y-13640374D02*
X8400450Y-13640374D01*
X8400450Y-13640374D02*
X8419498Y-13649898D01*
X8419498Y-13649898D02*
X8429022Y-13659421D01*
X8429022Y-13659421D02*
X8438545Y-13678469D01*
X8438545Y-13678469D02*
X8448069Y-13716564D01*
X8448069Y-13716564D02*
X8448069Y-13764183D01*
X8448069Y-13764183D02*
X8438545Y-13802278D01*
X8438545Y-13802278D02*
X8429022Y-13821326D01*
X8429022Y-13821326D02*
X8419498Y-13830850D01*
X8419498Y-13830850D02*
X8400450Y-13840374D01*
X8400450Y-13840374D02*
X8381402Y-13840374D01*
X8381402Y-13840374D02*
X8362355Y-13830850D01*
X8362355Y-13830850D02*
X8352831Y-13821326D01*
X8352831Y-13821326D02*
X8343307Y-13802278D01*
X8343307Y-13802278D02*
X8333783Y-13764183D01*
X8333783Y-13764183D02*
X8333783Y-13716564D01*
X8333783Y-13716564D02*
X8343307Y-13678469D01*
X8343307Y-13678469D02*
X8352831Y-13659421D01*
X8352831Y-13659421D02*
X8362355Y-13649898D01*
X8362355Y-13649898D02*
X8381402Y-13640374D01*
X8571879Y-13640374D02*
X8590926Y-13640374D01*
X8590926Y-13640374D02*
X8609974Y-13649898D01*
X8609974Y-13649898D02*
X8619498Y-13659421D01*
X8619498Y-13659421D02*
X8629022Y-13678469D01*
X8629022Y-13678469D02*
X8638545Y-13716564D01*
X8638545Y-13716564D02*
X8638545Y-13764183D01*
X8638545Y-13764183D02*
X8629022Y-13802278D01*
X8629022Y-13802278D02*
X8619498Y-13821326D01*
X8619498Y-13821326D02*
X8609974Y-13830850D01*
X8609974Y-13830850D02*
X8590926Y-13840374D01*
X8590926Y-13840374D02*
X8571879Y-13840374D01*
X8571879Y-13840374D02*
X8552831Y-13830850D01*
X8552831Y-13830850D02*
X8543307Y-13821326D01*
X8543307Y-13821326D02*
X8533784Y-13802278D01*
X8533784Y-13802278D02*
X8524260Y-13764183D01*
X8524260Y-13764183D02*
X8524260Y-13716564D01*
X8524260Y-13716564D02*
X8533784Y-13678469D01*
X8533784Y-13678469D02*
X8543307Y-13659421D01*
X8543307Y-13659421D02*
X8552831Y-13649898D01*
X8552831Y-13649898D02*
X8571879Y-13640374D01*
X8724260Y-13840374D02*
X8724260Y-13707040D01*
X8724260Y-13726088D02*
X8733784Y-13716564D01*
X8733784Y-13716564D02*
X8752831Y-13707040D01*
X8752831Y-13707040D02*
X8781403Y-13707040D01*
X8781403Y-13707040D02*
X8800450Y-13716564D01*
X8800450Y-13716564D02*
X8809974Y-13735612D01*
X8809974Y-13735612D02*
X8809974Y-13840374D01*
X8809974Y-13735612D02*
X8819498Y-13716564D01*
X8819498Y-13716564D02*
X8838545Y-13707040D01*
X8838545Y-13707040D02*
X8867117Y-13707040D01*
X8867117Y-13707040D02*
X8886165Y-13716564D01*
X8886165Y-13716564D02*
X8895688Y-13735612D01*
X8895688Y-13735612D02*
X8895688Y-13840374D01*
X8990926Y-13840374D02*
X8990926Y-13707040D01*
X8990926Y-13726088D02*
X9000450Y-13716564D01*
X9000450Y-13716564D02*
X9019498Y-13707040D01*
X9019498Y-13707040D02*
X9048069Y-13707040D01*
X9048069Y-13707040D02*
X9067117Y-13716564D01*
X9067117Y-13716564D02*
X9076641Y-13735612D01*
X9076641Y-13735612D02*
X9076641Y-13840374D01*
X9076641Y-13735612D02*
X9086165Y-13716564D01*
X9086165Y-13716564D02*
X9105212Y-13707040D01*
X9105212Y-13707040D02*
X9133784Y-13707040D01*
X9133784Y-13707040D02*
X9152831Y-13716564D01*
X9152831Y-13716564D02*
X9162355Y-13735612D01*
X9162355Y-13735612D02*
X9162355Y-13840374D01*
X9552831Y-13630850D02*
X9381403Y-13887993D01*
X9809974Y-13640374D02*
X9829022Y-13640374D01*
X9829022Y-13640374D02*
X9848069Y-13649898D01*
X9848069Y-13649898D02*
X9857593Y-13659421D01*
X9857593Y-13659421D02*
X9867117Y-13678469D01*
X9867117Y-13678469D02*
X9876641Y-13716564D01*
X9876641Y-13716564D02*
X9876641Y-13764183D01*
X9876641Y-13764183D02*
X9867117Y-13802278D01*
X9867117Y-13802278D02*
X9857593Y-13821326D01*
X9857593Y-13821326D02*
X9848069Y-13830850D01*
X9848069Y-13830850D02*
X9829022Y-13840374D01*
X9829022Y-13840374D02*
X9809974Y-13840374D01*
X9809974Y-13840374D02*
X9790927Y-13830850D01*
X9790927Y-13830850D02*
X9781403Y-13821326D01*
X9781403Y-13821326D02*
X9771879Y-13802278D01*
X9771879Y-13802278D02*
X9762355Y-13764183D01*
X9762355Y-13764183D02*
X9762355Y-13716564D01*
X9762355Y-13716564D02*
X9771879Y-13678469D01*
X9771879Y-13678469D02*
X9781403Y-13659421D01*
X9781403Y-13659421D02*
X9790927Y-13649898D01*
X9790927Y-13649898D02*
X9809974Y-13640374D01*
X9962355Y-13821326D02*
X9971879Y-13830850D01*
X9971879Y-13830850D02*
X9962355Y-13840374D01*
X9962355Y-13840374D02*
X9952831Y-13830850D01*
X9952831Y-13830850D02*
X9962355Y-13821326D01*
X9962355Y-13821326D02*
X9962355Y-13840374D01*
X10095688Y-13640374D02*
X10114736Y-13640374D01*
X10114736Y-13640374D02*
X10133784Y-13649898D01*
X10133784Y-13649898D02*
X10143308Y-13659421D01*
X10143308Y-13659421D02*
X10152831Y-13678469D01*
X10152831Y-13678469D02*
X10162355Y-13716564D01*
X10162355Y-13716564D02*
X10162355Y-13764183D01*
X10162355Y-13764183D02*
X10152831Y-13802278D01*
X10152831Y-13802278D02*
X10143308Y-13821326D01*
X10143308Y-13821326D02*
X10133784Y-13830850D01*
X10133784Y-13830850D02*
X10114736Y-13840374D01*
X10114736Y-13840374D02*
X10095688Y-13840374D01*
X10095688Y-13840374D02*
X10076641Y-13830850D01*
X10076641Y-13830850D02*
X10067117Y-13821326D01*
X10067117Y-13821326D02*
X10057593Y-13802278D01*
X10057593Y-13802278D02*
X10048069Y-13764183D01*
X10048069Y-13764183D02*
X10048069Y-13716564D01*
X10048069Y-13716564D02*
X10057593Y-13678469D01*
X10057593Y-13678469D02*
X10067117Y-13659421D01*
X10067117Y-13659421D02*
X10076641Y-13649898D01*
X10076641Y-13649898D02*
X10095688Y-13640374D01*
X10333784Y-13707040D02*
X10333784Y-13840374D01*
X10286165Y-13630850D02*
X10238546Y-13773707D01*
X10238546Y-13773707D02*
X10362355Y-13773707D01*
X10419498Y-13640374D02*
X10552831Y-13640374D01*
X10552831Y-13640374D02*
X10467117Y-13840374D01*
X10619498Y-13659421D02*
X10629022Y-13649898D01*
X10629022Y-13649898D02*
X10648069Y-13640374D01*
X10648069Y-13640374D02*
X10695689Y-13640374D01*
X10695689Y-13640374D02*
X10714736Y-13649898D01*
X10714736Y-13649898D02*
X10724260Y-13659421D01*
X10724260Y-13659421D02*
X10733784Y-13678469D01*
X10733784Y-13678469D02*
X10733784Y-13697517D01*
X10733784Y-13697517D02*
X10724260Y-13726088D01*
X10724260Y-13726088D02*
X10609974Y-13840374D01*
X10609974Y-13840374D02*
X10733784Y-13840374D01*
X10809974Y-13640374D02*
X10809974Y-13678469D01*
X10886165Y-13640374D02*
X10886165Y-13678469D01*
X11181403Y-13916564D02*
X11171879Y-13907040D01*
X11171879Y-13907040D02*
X11152831Y-13878469D01*
X11152831Y-13878469D02*
X11143308Y-13859421D01*
X11143308Y-13859421D02*
X11133784Y-13830850D01*
X11133784Y-13830850D02*
X11124260Y-13783231D01*
X11124260Y-13783231D02*
X11124260Y-13745136D01*
X11124260Y-13745136D02*
X11133784Y-13697517D01*
X11133784Y-13697517D02*
X11143308Y-13668945D01*
X11143308Y-13668945D02*
X11152831Y-13649898D01*
X11152831Y-13649898D02*
X11171879Y-13621326D01*
X11171879Y-13621326D02*
X11181403Y-13611802D01*
X11343308Y-13640374D02*
X11305212Y-13640374D01*
X11305212Y-13640374D02*
X11286165Y-13649898D01*
X11286165Y-13649898D02*
X11276641Y-13659421D01*
X11276641Y-13659421D02*
X11257593Y-13687993D01*
X11257593Y-13687993D02*
X11248069Y-13726088D01*
X11248069Y-13726088D02*
X11248069Y-13802278D01*
X11248069Y-13802278D02*
X11257593Y-13821326D01*
X11257593Y-13821326D02*
X11267117Y-13830850D01*
X11267117Y-13830850D02*
X11286165Y-13840374D01*
X11286165Y-13840374D02*
X11324260Y-13840374D01*
X11324260Y-13840374D02*
X11343308Y-13830850D01*
X11343308Y-13830850D02*
X11352831Y-13821326D01*
X11352831Y-13821326D02*
X11362355Y-13802278D01*
X11362355Y-13802278D02*
X11362355Y-13754659D01*
X11362355Y-13754659D02*
X11352831Y-13735612D01*
X11352831Y-13735612D02*
X11343308Y-13726088D01*
X11343308Y-13726088D02*
X11324260Y-13716564D01*
X11324260Y-13716564D02*
X11286165Y-13716564D01*
X11286165Y-13716564D02*
X11267117Y-13726088D01*
X11267117Y-13726088D02*
X11257593Y-13735612D01*
X11257593Y-13735612D02*
X11248069Y-13754659D01*
X11600450Y-13840374D02*
X11600450Y-13640374D01*
X11686165Y-13840374D02*
X11686165Y-13735612D01*
X11686165Y-13735612D02*
X11676641Y-13716564D01*
X11676641Y-13716564D02*
X11657593Y-13707040D01*
X11657593Y-13707040D02*
X11629022Y-13707040D01*
X11629022Y-13707040D02*
X11609974Y-13716564D01*
X11609974Y-13716564D02*
X11600450Y-13726088D01*
X11809974Y-13840374D02*
X11790927Y-13830850D01*
X11790927Y-13830850D02*
X11781403Y-13821326D01*
X11781403Y-13821326D02*
X11771879Y-13802278D01*
X11771879Y-13802278D02*
X11771879Y-13745136D01*
X11771879Y-13745136D02*
X11781403Y-13726088D01*
X11781403Y-13726088D02*
X11790927Y-13716564D01*
X11790927Y-13716564D02*
X11809974Y-13707040D01*
X11809974Y-13707040D02*
X11838546Y-13707040D01*
X11838546Y-13707040D02*
X11857593Y-13716564D01*
X11857593Y-13716564D02*
X11867117Y-13726088D01*
X11867117Y-13726088D02*
X11876641Y-13745136D01*
X11876641Y-13745136D02*
X11876641Y-13802278D01*
X11876641Y-13802278D02*
X11867117Y-13821326D01*
X11867117Y-13821326D02*
X11857593Y-13830850D01*
X11857593Y-13830850D02*
X11838546Y-13840374D01*
X11838546Y-13840374D02*
X11809974Y-13840374D01*
X11990927Y-13840374D02*
X11971879Y-13830850D01*
X11971879Y-13830850D02*
X11962355Y-13811802D01*
X11962355Y-13811802D02*
X11962355Y-13640374D01*
X12143308Y-13830850D02*
X12124260Y-13840374D01*
X12124260Y-13840374D02*
X12086165Y-13840374D01*
X12086165Y-13840374D02*
X12067117Y-13830850D01*
X12067117Y-13830850D02*
X12057593Y-13811802D01*
X12057593Y-13811802D02*
X12057593Y-13735612D01*
X12057593Y-13735612D02*
X12067117Y-13716564D01*
X12067117Y-13716564D02*
X12086165Y-13707040D01*
X12086165Y-13707040D02*
X12124260Y-13707040D01*
X12124260Y-13707040D02*
X12143308Y-13716564D01*
X12143308Y-13716564D02*
X12152831Y-13735612D01*
X12152831Y-13735612D02*
X12152831Y-13754659D01*
X12152831Y-13754659D02*
X12057593Y-13773707D01*
X12229022Y-13830850D02*
X12248070Y-13840374D01*
X12248070Y-13840374D02*
X12286165Y-13840374D01*
X12286165Y-13840374D02*
X12305212Y-13830850D01*
X12305212Y-13830850D02*
X12314736Y-13811802D01*
X12314736Y-13811802D02*
X12314736Y-13802278D01*
X12314736Y-13802278D02*
X12305212Y-13783231D01*
X12305212Y-13783231D02*
X12286165Y-13773707D01*
X12286165Y-13773707D02*
X12257593Y-13773707D01*
X12257593Y-13773707D02*
X12238546Y-13764183D01*
X12238546Y-13764183D02*
X12229022Y-13745136D01*
X12229022Y-13745136D02*
X12229022Y-13735612D01*
X12229022Y-13735612D02*
X12238546Y-13716564D01*
X12238546Y-13716564D02*
X12257593Y-13707040D01*
X12257593Y-13707040D02*
X12286165Y-13707040D01*
X12286165Y-13707040D02*
X12305212Y-13716564D01*
X12381403Y-13916564D02*
X12390927Y-13907040D01*
X12390927Y-13907040D02*
X12409974Y-13878469D01*
X12409974Y-13878469D02*
X12419498Y-13859421D01*
X12419498Y-13859421D02*
X12429022Y-13830850D01*
X12429022Y-13830850D02*
X12438546Y-13783231D01*
X12438546Y-13783231D02*
X12438546Y-13745136D01*
X12438546Y-13745136D02*
X12429022Y-13697517D01*
X12429022Y-13697517D02*
X12419498Y-13668945D01*
X12419498Y-13668945D02*
X12409974Y-13649898D01*
X12409974Y-13649898D02*
X12390927Y-13621326D01*
X12390927Y-13621326D02*
X12381403Y-13611802D01*
D15*
X7476340Y-13947890D02*
X7606340Y-14077890D01*
X7606340Y-13947890D02*
X7476340Y-14077890D01*
X7541340Y-13947890D02*
X7541340Y-14077890D01*
X7476340Y-14012890D02*
X7606340Y-14012890D01*
D11*
X7971879Y-14104374D02*
X7857593Y-14104374D01*
X7914736Y-14104374D02*
X7914736Y-13904374D01*
X7914736Y-13904374D02*
X7895688Y-13932945D01*
X7895688Y-13932945D02*
X7876641Y-13951993D01*
X7876641Y-13951993D02*
X7857593Y-13961517D01*
X8057593Y-14085326D02*
X8067117Y-14094850D01*
X8067117Y-14094850D02*
X8057593Y-14104374D01*
X8057593Y-14104374D02*
X8048069Y-14094850D01*
X8048069Y-14094850D02*
X8057593Y-14085326D01*
X8057593Y-14085326D02*
X8057593Y-14104374D01*
X8133783Y-13904374D02*
X8257593Y-13904374D01*
X8257593Y-13904374D02*
X8190926Y-13980564D01*
X8190926Y-13980564D02*
X8219498Y-13980564D01*
X8219498Y-13980564D02*
X8238545Y-13990088D01*
X8238545Y-13990088D02*
X8248069Y-13999612D01*
X8248069Y-13999612D02*
X8257593Y-14018659D01*
X8257593Y-14018659D02*
X8257593Y-14066278D01*
X8257593Y-14066278D02*
X8248069Y-14085326D01*
X8248069Y-14085326D02*
X8238545Y-14094850D01*
X8238545Y-14094850D02*
X8219498Y-14104374D01*
X8219498Y-14104374D02*
X8162355Y-14104374D01*
X8162355Y-14104374D02*
X8143307Y-14094850D01*
X8143307Y-14094850D02*
X8133783Y-14085326D01*
X8381402Y-13904374D02*
X8400450Y-13904374D01*
X8400450Y-13904374D02*
X8419498Y-13913898D01*
X8419498Y-13913898D02*
X8429022Y-13923421D01*
X8429022Y-13923421D02*
X8438545Y-13942469D01*
X8438545Y-13942469D02*
X8448069Y-13980564D01*
X8448069Y-13980564D02*
X8448069Y-14028183D01*
X8448069Y-14028183D02*
X8438545Y-14066278D01*
X8438545Y-14066278D02*
X8429022Y-14085326D01*
X8429022Y-14085326D02*
X8419498Y-14094850D01*
X8419498Y-14094850D02*
X8400450Y-14104374D01*
X8400450Y-14104374D02*
X8381402Y-14104374D01*
X8381402Y-14104374D02*
X8362355Y-14094850D01*
X8362355Y-14094850D02*
X8352831Y-14085326D01*
X8352831Y-14085326D02*
X8343307Y-14066278D01*
X8343307Y-14066278D02*
X8333783Y-14028183D01*
X8333783Y-14028183D02*
X8333783Y-13980564D01*
X8333783Y-13980564D02*
X8343307Y-13942469D01*
X8343307Y-13942469D02*
X8352831Y-13923421D01*
X8352831Y-13923421D02*
X8362355Y-13913898D01*
X8362355Y-13913898D02*
X8381402Y-13904374D01*
X8571879Y-13904374D02*
X8590926Y-13904374D01*
X8590926Y-13904374D02*
X8609974Y-13913898D01*
X8609974Y-13913898D02*
X8619498Y-13923421D01*
X8619498Y-13923421D02*
X8629022Y-13942469D01*
X8629022Y-13942469D02*
X8638545Y-13980564D01*
X8638545Y-13980564D02*
X8638545Y-14028183D01*
X8638545Y-14028183D02*
X8629022Y-14066278D01*
X8629022Y-14066278D02*
X8619498Y-14085326D01*
X8619498Y-14085326D02*
X8609974Y-14094850D01*
X8609974Y-14094850D02*
X8590926Y-14104374D01*
X8590926Y-14104374D02*
X8571879Y-14104374D01*
X8571879Y-14104374D02*
X8552831Y-14094850D01*
X8552831Y-14094850D02*
X8543307Y-14085326D01*
X8543307Y-14085326D02*
X8533784Y-14066278D01*
X8533784Y-14066278D02*
X8524260Y-14028183D01*
X8524260Y-14028183D02*
X8524260Y-13980564D01*
X8524260Y-13980564D02*
X8533784Y-13942469D01*
X8533784Y-13942469D02*
X8543307Y-13923421D01*
X8543307Y-13923421D02*
X8552831Y-13913898D01*
X8552831Y-13913898D02*
X8571879Y-13904374D01*
X8724260Y-14104374D02*
X8724260Y-13971040D01*
X8724260Y-13990088D02*
X8733784Y-13980564D01*
X8733784Y-13980564D02*
X8752831Y-13971040D01*
X8752831Y-13971040D02*
X8781403Y-13971040D01*
X8781403Y-13971040D02*
X8800450Y-13980564D01*
X8800450Y-13980564D02*
X8809974Y-13999612D01*
X8809974Y-13999612D02*
X8809974Y-14104374D01*
X8809974Y-13999612D02*
X8819498Y-13980564D01*
X8819498Y-13980564D02*
X8838545Y-13971040D01*
X8838545Y-13971040D02*
X8867117Y-13971040D01*
X8867117Y-13971040D02*
X8886165Y-13980564D01*
X8886165Y-13980564D02*
X8895688Y-13999612D01*
X8895688Y-13999612D02*
X8895688Y-14104374D01*
X8990926Y-14104374D02*
X8990926Y-13971040D01*
X8990926Y-13990088D02*
X9000450Y-13980564D01*
X9000450Y-13980564D02*
X9019498Y-13971040D01*
X9019498Y-13971040D02*
X9048069Y-13971040D01*
X9048069Y-13971040D02*
X9067117Y-13980564D01*
X9067117Y-13980564D02*
X9076641Y-13999612D01*
X9076641Y-13999612D02*
X9076641Y-14104374D01*
X9076641Y-13999612D02*
X9086165Y-13980564D01*
X9086165Y-13980564D02*
X9105212Y-13971040D01*
X9105212Y-13971040D02*
X9133784Y-13971040D01*
X9133784Y-13971040D02*
X9152831Y-13980564D01*
X9152831Y-13980564D02*
X9162355Y-13999612D01*
X9162355Y-13999612D02*
X9162355Y-14104374D01*
X9552831Y-13894850D02*
X9381403Y-14151993D01*
X9809974Y-13904374D02*
X9829022Y-13904374D01*
X9829022Y-13904374D02*
X9848069Y-13913898D01*
X9848069Y-13913898D02*
X9857593Y-13923421D01*
X9857593Y-13923421D02*
X9867117Y-13942469D01*
X9867117Y-13942469D02*
X9876641Y-13980564D01*
X9876641Y-13980564D02*
X9876641Y-14028183D01*
X9876641Y-14028183D02*
X9867117Y-14066278D01*
X9867117Y-14066278D02*
X9857593Y-14085326D01*
X9857593Y-14085326D02*
X9848069Y-14094850D01*
X9848069Y-14094850D02*
X9829022Y-14104374D01*
X9829022Y-14104374D02*
X9809974Y-14104374D01*
X9809974Y-14104374D02*
X9790927Y-14094850D01*
X9790927Y-14094850D02*
X9781403Y-14085326D01*
X9781403Y-14085326D02*
X9771879Y-14066278D01*
X9771879Y-14066278D02*
X9762355Y-14028183D01*
X9762355Y-14028183D02*
X9762355Y-13980564D01*
X9762355Y-13980564D02*
X9771879Y-13942469D01*
X9771879Y-13942469D02*
X9781403Y-13923421D01*
X9781403Y-13923421D02*
X9790927Y-13913898D01*
X9790927Y-13913898D02*
X9809974Y-13904374D01*
X9962355Y-14085326D02*
X9971879Y-14094850D01*
X9971879Y-14094850D02*
X9962355Y-14104374D01*
X9962355Y-14104374D02*
X9952831Y-14094850D01*
X9952831Y-14094850D02*
X9962355Y-14085326D01*
X9962355Y-14085326D02*
X9962355Y-14104374D01*
X10095688Y-13904374D02*
X10114736Y-13904374D01*
X10114736Y-13904374D02*
X10133784Y-13913898D01*
X10133784Y-13913898D02*
X10143308Y-13923421D01*
X10143308Y-13923421D02*
X10152831Y-13942469D01*
X10152831Y-13942469D02*
X10162355Y-13980564D01*
X10162355Y-13980564D02*
X10162355Y-14028183D01*
X10162355Y-14028183D02*
X10152831Y-14066278D01*
X10152831Y-14066278D02*
X10143308Y-14085326D01*
X10143308Y-14085326D02*
X10133784Y-14094850D01*
X10133784Y-14094850D02*
X10114736Y-14104374D01*
X10114736Y-14104374D02*
X10095688Y-14104374D01*
X10095688Y-14104374D02*
X10076641Y-14094850D01*
X10076641Y-14094850D02*
X10067117Y-14085326D01*
X10067117Y-14085326D02*
X10057593Y-14066278D01*
X10057593Y-14066278D02*
X10048069Y-14028183D01*
X10048069Y-14028183D02*
X10048069Y-13980564D01*
X10048069Y-13980564D02*
X10057593Y-13942469D01*
X10057593Y-13942469D02*
X10067117Y-13923421D01*
X10067117Y-13923421D02*
X10076641Y-13913898D01*
X10076641Y-13913898D02*
X10095688Y-13904374D01*
X10343308Y-13904374D02*
X10248069Y-13904374D01*
X10248069Y-13904374D02*
X10238546Y-13999612D01*
X10238546Y-13999612D02*
X10248069Y-13990088D01*
X10248069Y-13990088D02*
X10267117Y-13980564D01*
X10267117Y-13980564D02*
X10314736Y-13980564D01*
X10314736Y-13980564D02*
X10333784Y-13990088D01*
X10333784Y-13990088D02*
X10343308Y-13999612D01*
X10343308Y-13999612D02*
X10352831Y-14018659D01*
X10352831Y-14018659D02*
X10352831Y-14066278D01*
X10352831Y-14066278D02*
X10343308Y-14085326D01*
X10343308Y-14085326D02*
X10333784Y-14094850D01*
X10333784Y-14094850D02*
X10314736Y-14104374D01*
X10314736Y-14104374D02*
X10267117Y-14104374D01*
X10267117Y-14104374D02*
X10248069Y-14094850D01*
X10248069Y-14094850D02*
X10238546Y-14085326D01*
X10543308Y-14104374D02*
X10429022Y-14104374D01*
X10486165Y-14104374D02*
X10486165Y-13904374D01*
X10486165Y-13904374D02*
X10467117Y-13932945D01*
X10467117Y-13932945D02*
X10448069Y-13951993D01*
X10448069Y-13951993D02*
X10429022Y-13961517D01*
X10619498Y-13923421D02*
X10629022Y-13913898D01*
X10629022Y-13913898D02*
X10648069Y-13904374D01*
X10648069Y-13904374D02*
X10695689Y-13904374D01*
X10695689Y-13904374D02*
X10714736Y-13913898D01*
X10714736Y-13913898D02*
X10724260Y-13923421D01*
X10724260Y-13923421D02*
X10733784Y-13942469D01*
X10733784Y-13942469D02*
X10733784Y-13961517D01*
X10733784Y-13961517D02*
X10724260Y-13990088D01*
X10724260Y-13990088D02*
X10609974Y-14104374D01*
X10609974Y-14104374D02*
X10733784Y-14104374D01*
X10809974Y-13904374D02*
X10809974Y-13942469D01*
X10886165Y-13904374D02*
X10886165Y-13942469D01*
X11181403Y-14180564D02*
X11171879Y-14171040D01*
X11171879Y-14171040D02*
X11152831Y-14142469D01*
X11152831Y-14142469D02*
X11143308Y-14123421D01*
X11143308Y-14123421D02*
X11133784Y-14094850D01*
X11133784Y-14094850D02*
X11124260Y-14047231D01*
X11124260Y-14047231D02*
X11124260Y-14009136D01*
X11124260Y-14009136D02*
X11133784Y-13961517D01*
X11133784Y-13961517D02*
X11143308Y-13932945D01*
X11143308Y-13932945D02*
X11152831Y-13913898D01*
X11152831Y-13913898D02*
X11171879Y-13885326D01*
X11171879Y-13885326D02*
X11181403Y-13875802D01*
X11248069Y-13923421D02*
X11257593Y-13913898D01*
X11257593Y-13913898D02*
X11276641Y-13904374D01*
X11276641Y-13904374D02*
X11324260Y-13904374D01*
X11324260Y-13904374D02*
X11343308Y-13913898D01*
X11343308Y-13913898D02*
X11352831Y-13923421D01*
X11352831Y-13923421D02*
X11362355Y-13942469D01*
X11362355Y-13942469D02*
X11362355Y-13961517D01*
X11362355Y-13961517D02*
X11352831Y-13990088D01*
X11352831Y-13990088D02*
X11238546Y-14104374D01*
X11238546Y-14104374D02*
X11362355Y-14104374D01*
X11533784Y-13904374D02*
X11495688Y-13904374D01*
X11495688Y-13904374D02*
X11476641Y-13913898D01*
X11476641Y-13913898D02*
X11467117Y-13923421D01*
X11467117Y-13923421D02*
X11448069Y-13951993D01*
X11448069Y-13951993D02*
X11438546Y-13990088D01*
X11438546Y-13990088D02*
X11438546Y-14066278D01*
X11438546Y-14066278D02*
X11448069Y-14085326D01*
X11448069Y-14085326D02*
X11457593Y-14094850D01*
X11457593Y-14094850D02*
X11476641Y-14104374D01*
X11476641Y-14104374D02*
X11514736Y-14104374D01*
X11514736Y-14104374D02*
X11533784Y-14094850D01*
X11533784Y-14094850D02*
X11543308Y-14085326D01*
X11543308Y-14085326D02*
X11552831Y-14066278D01*
X11552831Y-14066278D02*
X11552831Y-14018659D01*
X11552831Y-14018659D02*
X11543308Y-13999612D01*
X11543308Y-13999612D02*
X11533784Y-13990088D01*
X11533784Y-13990088D02*
X11514736Y-13980564D01*
X11514736Y-13980564D02*
X11476641Y-13980564D01*
X11476641Y-13980564D02*
X11457593Y-13990088D01*
X11457593Y-13990088D02*
X11448069Y-13999612D01*
X11448069Y-13999612D02*
X11438546Y-14018659D01*
X11790927Y-14104374D02*
X11790927Y-13904374D01*
X11876641Y-14104374D02*
X11876641Y-13999612D01*
X11876641Y-13999612D02*
X11867117Y-13980564D01*
X11867117Y-13980564D02*
X11848070Y-13971040D01*
X11848070Y-13971040D02*
X11819498Y-13971040D01*
X11819498Y-13971040D02*
X11800450Y-13980564D01*
X11800450Y-13980564D02*
X11790927Y-13990088D01*
X12000450Y-14104374D02*
X11981403Y-14094850D01*
X11981403Y-14094850D02*
X11971879Y-14085326D01*
X11971879Y-14085326D02*
X11962355Y-14066278D01*
X11962355Y-14066278D02*
X11962355Y-14009136D01*
X11962355Y-14009136D02*
X11971879Y-13990088D01*
X11971879Y-13990088D02*
X11981403Y-13980564D01*
X11981403Y-13980564D02*
X12000450Y-13971040D01*
X12000450Y-13971040D02*
X12029022Y-13971040D01*
X12029022Y-13971040D02*
X12048070Y-13980564D01*
X12048070Y-13980564D02*
X12057593Y-13990088D01*
X12057593Y-13990088D02*
X12067117Y-14009136D01*
X12067117Y-14009136D02*
X12067117Y-14066278D01*
X12067117Y-14066278D02*
X12057593Y-14085326D01*
X12057593Y-14085326D02*
X12048070Y-14094850D01*
X12048070Y-14094850D02*
X12029022Y-14104374D01*
X12029022Y-14104374D02*
X12000450Y-14104374D01*
X12181403Y-14104374D02*
X12162355Y-14094850D01*
X12162355Y-14094850D02*
X12152831Y-14075802D01*
X12152831Y-14075802D02*
X12152831Y-13904374D01*
X12333784Y-14094850D02*
X12314736Y-14104374D01*
X12314736Y-14104374D02*
X12276641Y-14104374D01*
X12276641Y-14104374D02*
X12257593Y-14094850D01*
X12257593Y-14094850D02*
X12248070Y-14075802D01*
X12248070Y-14075802D02*
X12248070Y-13999612D01*
X12248070Y-13999612D02*
X12257593Y-13980564D01*
X12257593Y-13980564D02*
X12276641Y-13971040D01*
X12276641Y-13971040D02*
X12314736Y-13971040D01*
X12314736Y-13971040D02*
X12333784Y-13980564D01*
X12333784Y-13980564D02*
X12343308Y-13999612D01*
X12343308Y-13999612D02*
X12343308Y-14018659D01*
X12343308Y-14018659D02*
X12248070Y-14037707D01*
X12419498Y-14094850D02*
X12438546Y-14104374D01*
X12438546Y-14104374D02*
X12476641Y-14104374D01*
X12476641Y-14104374D02*
X12495689Y-14094850D01*
X12495689Y-14094850D02*
X12505212Y-14075802D01*
X12505212Y-14075802D02*
X12505212Y-14066278D01*
X12505212Y-14066278D02*
X12495689Y-14047231D01*
X12495689Y-14047231D02*
X12476641Y-14037707D01*
X12476641Y-14037707D02*
X12448070Y-14037707D01*
X12448070Y-14037707D02*
X12429022Y-14028183D01*
X12429022Y-14028183D02*
X12419498Y-14009136D01*
X12419498Y-14009136D02*
X12419498Y-13999612D01*
X12419498Y-13999612D02*
X12429022Y-13980564D01*
X12429022Y-13980564D02*
X12448070Y-13971040D01*
X12448070Y-13971040D02*
X12476641Y-13971040D01*
X12476641Y-13971040D02*
X12495689Y-13980564D01*
X12571879Y-14180564D02*
X12581403Y-14171040D01*
X12581403Y-14171040D02*
X12600451Y-14142469D01*
X12600451Y-14142469D02*
X12609974Y-14123421D01*
X12609974Y-14123421D02*
X12619498Y-14094850D01*
X12619498Y-14094850D02*
X12629022Y-14047231D01*
X12629022Y-14047231D02*
X12629022Y-14009136D01*
X12629022Y-14009136D02*
X12619498Y-13961517D01*
X12619498Y-13961517D02*
X12609974Y-13932945D01*
X12609974Y-13932945D02*
X12600451Y-13913898D01*
X12600451Y-13913898D02*
X12581403Y-13885326D01*
X12581403Y-13885326D02*
X12571879Y-13875802D01*
X7406340Y-14176890D02*
X7606340Y-14376890D01*
X7606340Y-14176890D02*
X7406340Y-14376890D01*
X7577051Y-14347601D02*
X7577051Y-14206179D01*
X7435629Y-14206179D01*
X7435629Y-14347601D01*
X7577051Y-14347601D01*
X7848069Y-14168374D02*
X7971879Y-14168374D01*
X7971879Y-14168374D02*
X7905212Y-14244564D01*
X7905212Y-14244564D02*
X7933783Y-14244564D01*
X7933783Y-14244564D02*
X7952831Y-14254088D01*
X7952831Y-14254088D02*
X7962355Y-14263612D01*
X7962355Y-14263612D02*
X7971879Y-14282659D01*
X7971879Y-14282659D02*
X7971879Y-14330278D01*
X7971879Y-14330278D02*
X7962355Y-14349326D01*
X7962355Y-14349326D02*
X7952831Y-14358850D01*
X7952831Y-14358850D02*
X7933783Y-14368374D01*
X7933783Y-14368374D02*
X7876641Y-14368374D01*
X7876641Y-14368374D02*
X7857593Y-14358850D01*
X7857593Y-14358850D02*
X7848069Y-14349326D01*
X8057593Y-14349326D02*
X8067117Y-14358850D01*
X8067117Y-14358850D02*
X8057593Y-14368374D01*
X8057593Y-14368374D02*
X8048069Y-14358850D01*
X8048069Y-14358850D02*
X8057593Y-14349326D01*
X8057593Y-14349326D02*
X8057593Y-14368374D01*
X8143307Y-14187421D02*
X8152831Y-14177898D01*
X8152831Y-14177898D02*
X8171879Y-14168374D01*
X8171879Y-14168374D02*
X8219498Y-14168374D01*
X8219498Y-14168374D02*
X8238545Y-14177898D01*
X8238545Y-14177898D02*
X8248069Y-14187421D01*
X8248069Y-14187421D02*
X8257593Y-14206469D01*
X8257593Y-14206469D02*
X8257593Y-14225517D01*
X8257593Y-14225517D02*
X8248069Y-14254088D01*
X8248069Y-14254088D02*
X8133783Y-14368374D01*
X8133783Y-14368374D02*
X8257593Y-14368374D01*
X8381402Y-14168374D02*
X8400450Y-14168374D01*
X8400450Y-14168374D02*
X8419498Y-14177898D01*
X8419498Y-14177898D02*
X8429022Y-14187421D01*
X8429022Y-14187421D02*
X8438545Y-14206469D01*
X8438545Y-14206469D02*
X8448069Y-14244564D01*
X8448069Y-14244564D02*
X8448069Y-14292183D01*
X8448069Y-14292183D02*
X8438545Y-14330278D01*
X8438545Y-14330278D02*
X8429022Y-14349326D01*
X8429022Y-14349326D02*
X8419498Y-14358850D01*
X8419498Y-14358850D02*
X8400450Y-14368374D01*
X8400450Y-14368374D02*
X8381402Y-14368374D01*
X8381402Y-14368374D02*
X8362355Y-14358850D01*
X8362355Y-14358850D02*
X8352831Y-14349326D01*
X8352831Y-14349326D02*
X8343307Y-14330278D01*
X8343307Y-14330278D02*
X8333783Y-14292183D01*
X8333783Y-14292183D02*
X8333783Y-14244564D01*
X8333783Y-14244564D02*
X8343307Y-14206469D01*
X8343307Y-14206469D02*
X8352831Y-14187421D01*
X8352831Y-14187421D02*
X8362355Y-14177898D01*
X8362355Y-14177898D02*
X8381402Y-14168374D01*
X8571879Y-14168374D02*
X8590926Y-14168374D01*
X8590926Y-14168374D02*
X8609974Y-14177898D01*
X8609974Y-14177898D02*
X8619498Y-14187421D01*
X8619498Y-14187421D02*
X8629022Y-14206469D01*
X8629022Y-14206469D02*
X8638545Y-14244564D01*
X8638545Y-14244564D02*
X8638545Y-14292183D01*
X8638545Y-14292183D02*
X8629022Y-14330278D01*
X8629022Y-14330278D02*
X8619498Y-14349326D01*
X8619498Y-14349326D02*
X8609974Y-14358850D01*
X8609974Y-14358850D02*
X8590926Y-14368374D01*
X8590926Y-14368374D02*
X8571879Y-14368374D01*
X8571879Y-14368374D02*
X8552831Y-14358850D01*
X8552831Y-14358850D02*
X8543307Y-14349326D01*
X8543307Y-14349326D02*
X8533784Y-14330278D01*
X8533784Y-14330278D02*
X8524260Y-14292183D01*
X8524260Y-14292183D02*
X8524260Y-14244564D01*
X8524260Y-14244564D02*
X8533784Y-14206469D01*
X8533784Y-14206469D02*
X8543307Y-14187421D01*
X8543307Y-14187421D02*
X8552831Y-14177898D01*
X8552831Y-14177898D02*
X8571879Y-14168374D01*
X8724260Y-14368374D02*
X8724260Y-14235040D01*
X8724260Y-14254088D02*
X8733784Y-14244564D01*
X8733784Y-14244564D02*
X8752831Y-14235040D01*
X8752831Y-14235040D02*
X8781403Y-14235040D01*
X8781403Y-14235040D02*
X8800450Y-14244564D01*
X8800450Y-14244564D02*
X8809974Y-14263612D01*
X8809974Y-14263612D02*
X8809974Y-14368374D01*
X8809974Y-14263612D02*
X8819498Y-14244564D01*
X8819498Y-14244564D02*
X8838545Y-14235040D01*
X8838545Y-14235040D02*
X8867117Y-14235040D01*
X8867117Y-14235040D02*
X8886165Y-14244564D01*
X8886165Y-14244564D02*
X8895688Y-14263612D01*
X8895688Y-14263612D02*
X8895688Y-14368374D01*
X8990926Y-14368374D02*
X8990926Y-14235040D01*
X8990926Y-14254088D02*
X9000450Y-14244564D01*
X9000450Y-14244564D02*
X9019498Y-14235040D01*
X9019498Y-14235040D02*
X9048069Y-14235040D01*
X9048069Y-14235040D02*
X9067117Y-14244564D01*
X9067117Y-14244564D02*
X9076641Y-14263612D01*
X9076641Y-14263612D02*
X9076641Y-14368374D01*
X9076641Y-14263612D02*
X9086165Y-14244564D01*
X9086165Y-14244564D02*
X9105212Y-14235040D01*
X9105212Y-14235040D02*
X9133784Y-14235040D01*
X9133784Y-14235040D02*
X9152831Y-14244564D01*
X9152831Y-14244564D02*
X9162355Y-14263612D01*
X9162355Y-14263612D02*
X9162355Y-14368374D01*
X9552831Y-14158850D02*
X9381403Y-14415993D01*
X9809974Y-14168374D02*
X9829022Y-14168374D01*
X9829022Y-14168374D02*
X9848069Y-14177898D01*
X9848069Y-14177898D02*
X9857593Y-14187421D01*
X9857593Y-14187421D02*
X9867117Y-14206469D01*
X9867117Y-14206469D02*
X9876641Y-14244564D01*
X9876641Y-14244564D02*
X9876641Y-14292183D01*
X9876641Y-14292183D02*
X9867117Y-14330278D01*
X9867117Y-14330278D02*
X9857593Y-14349326D01*
X9857593Y-14349326D02*
X9848069Y-14358850D01*
X9848069Y-14358850D02*
X9829022Y-14368374D01*
X9829022Y-14368374D02*
X9809974Y-14368374D01*
X9809974Y-14368374D02*
X9790927Y-14358850D01*
X9790927Y-14358850D02*
X9781403Y-14349326D01*
X9781403Y-14349326D02*
X9771879Y-14330278D01*
X9771879Y-14330278D02*
X9762355Y-14292183D01*
X9762355Y-14292183D02*
X9762355Y-14244564D01*
X9762355Y-14244564D02*
X9771879Y-14206469D01*
X9771879Y-14206469D02*
X9781403Y-14187421D01*
X9781403Y-14187421D02*
X9790927Y-14177898D01*
X9790927Y-14177898D02*
X9809974Y-14168374D01*
X9962355Y-14349326D02*
X9971879Y-14358850D01*
X9971879Y-14358850D02*
X9962355Y-14368374D01*
X9962355Y-14368374D02*
X9952831Y-14358850D01*
X9952831Y-14358850D02*
X9962355Y-14349326D01*
X9962355Y-14349326D02*
X9962355Y-14368374D01*
X10162355Y-14368374D02*
X10048069Y-14368374D01*
X10105212Y-14368374D02*
X10105212Y-14168374D01*
X10105212Y-14168374D02*
X10086165Y-14196945D01*
X10086165Y-14196945D02*
X10067117Y-14215993D01*
X10067117Y-14215993D02*
X10048069Y-14225517D01*
X10238546Y-14187421D02*
X10248069Y-14177898D01*
X10248069Y-14177898D02*
X10267117Y-14168374D01*
X10267117Y-14168374D02*
X10314736Y-14168374D01*
X10314736Y-14168374D02*
X10333784Y-14177898D01*
X10333784Y-14177898D02*
X10343308Y-14187421D01*
X10343308Y-14187421D02*
X10352831Y-14206469D01*
X10352831Y-14206469D02*
X10352831Y-14225517D01*
X10352831Y-14225517D02*
X10343308Y-14254088D01*
X10343308Y-14254088D02*
X10229022Y-14368374D01*
X10229022Y-14368374D02*
X10352831Y-14368374D01*
X10524260Y-14168374D02*
X10486165Y-14168374D01*
X10486165Y-14168374D02*
X10467117Y-14177898D01*
X10467117Y-14177898D02*
X10457593Y-14187421D01*
X10457593Y-14187421D02*
X10438546Y-14215993D01*
X10438546Y-14215993D02*
X10429022Y-14254088D01*
X10429022Y-14254088D02*
X10429022Y-14330278D01*
X10429022Y-14330278D02*
X10438546Y-14349326D01*
X10438546Y-14349326D02*
X10448069Y-14358850D01*
X10448069Y-14358850D02*
X10467117Y-14368374D01*
X10467117Y-14368374D02*
X10505212Y-14368374D01*
X10505212Y-14368374D02*
X10524260Y-14358850D01*
X10524260Y-14358850D02*
X10533784Y-14349326D01*
X10533784Y-14349326D02*
X10543308Y-14330278D01*
X10543308Y-14330278D02*
X10543308Y-14282659D01*
X10543308Y-14282659D02*
X10533784Y-14263612D01*
X10533784Y-14263612D02*
X10524260Y-14254088D01*
X10524260Y-14254088D02*
X10505212Y-14244564D01*
X10505212Y-14244564D02*
X10467117Y-14244564D01*
X10467117Y-14244564D02*
X10448069Y-14254088D01*
X10448069Y-14254088D02*
X10438546Y-14263612D01*
X10438546Y-14263612D02*
X10429022Y-14282659D01*
X10667117Y-14168374D02*
X10686165Y-14168374D01*
X10686165Y-14168374D02*
X10705212Y-14177898D01*
X10705212Y-14177898D02*
X10714736Y-14187421D01*
X10714736Y-14187421D02*
X10724260Y-14206469D01*
X10724260Y-14206469D02*
X10733784Y-14244564D01*
X10733784Y-14244564D02*
X10733784Y-14292183D01*
X10733784Y-14292183D02*
X10724260Y-14330278D01*
X10724260Y-14330278D02*
X10714736Y-14349326D01*
X10714736Y-14349326D02*
X10705212Y-14358850D01*
X10705212Y-14358850D02*
X10686165Y-14368374D01*
X10686165Y-14368374D02*
X10667117Y-14368374D01*
X10667117Y-14368374D02*
X10648069Y-14358850D01*
X10648069Y-14358850D02*
X10638546Y-14349326D01*
X10638546Y-14349326D02*
X10629022Y-14330278D01*
X10629022Y-14330278D02*
X10619498Y-14292183D01*
X10619498Y-14292183D02*
X10619498Y-14244564D01*
X10619498Y-14244564D02*
X10629022Y-14206469D01*
X10629022Y-14206469D02*
X10638546Y-14187421D01*
X10638546Y-14187421D02*
X10648069Y-14177898D01*
X10648069Y-14177898D02*
X10667117Y-14168374D01*
X10809974Y-14168374D02*
X10809974Y-14206469D01*
X10886165Y-14168374D02*
X10886165Y-14206469D01*
X11181403Y-14444564D02*
X11171879Y-14435040D01*
X11171879Y-14435040D02*
X11152831Y-14406469D01*
X11152831Y-14406469D02*
X11143308Y-14387421D01*
X11143308Y-14387421D02*
X11133784Y-14358850D01*
X11133784Y-14358850D02*
X11124260Y-14311231D01*
X11124260Y-14311231D02*
X11124260Y-14273136D01*
X11124260Y-14273136D02*
X11133784Y-14225517D01*
X11133784Y-14225517D02*
X11143308Y-14196945D01*
X11143308Y-14196945D02*
X11152831Y-14177898D01*
X11152831Y-14177898D02*
X11171879Y-14149326D01*
X11171879Y-14149326D02*
X11181403Y-14139802D01*
X11286165Y-14254088D02*
X11267117Y-14244564D01*
X11267117Y-14244564D02*
X11257593Y-14235040D01*
X11257593Y-14235040D02*
X11248069Y-14215993D01*
X11248069Y-14215993D02*
X11248069Y-14206469D01*
X11248069Y-14206469D02*
X11257593Y-14187421D01*
X11257593Y-14187421D02*
X11267117Y-14177898D01*
X11267117Y-14177898D02*
X11286165Y-14168374D01*
X11286165Y-14168374D02*
X11324260Y-14168374D01*
X11324260Y-14168374D02*
X11343308Y-14177898D01*
X11343308Y-14177898D02*
X11352831Y-14187421D01*
X11352831Y-14187421D02*
X11362355Y-14206469D01*
X11362355Y-14206469D02*
X11362355Y-14215993D01*
X11362355Y-14215993D02*
X11352831Y-14235040D01*
X11352831Y-14235040D02*
X11343308Y-14244564D01*
X11343308Y-14244564D02*
X11324260Y-14254088D01*
X11324260Y-14254088D02*
X11286165Y-14254088D01*
X11286165Y-14254088D02*
X11267117Y-14263612D01*
X11267117Y-14263612D02*
X11257593Y-14273136D01*
X11257593Y-14273136D02*
X11248069Y-14292183D01*
X11248069Y-14292183D02*
X11248069Y-14330278D01*
X11248069Y-14330278D02*
X11257593Y-14349326D01*
X11257593Y-14349326D02*
X11267117Y-14358850D01*
X11267117Y-14358850D02*
X11286165Y-14368374D01*
X11286165Y-14368374D02*
X11324260Y-14368374D01*
X11324260Y-14368374D02*
X11343308Y-14358850D01*
X11343308Y-14358850D02*
X11352831Y-14349326D01*
X11352831Y-14349326D02*
X11362355Y-14330278D01*
X11362355Y-14330278D02*
X11362355Y-14292183D01*
X11362355Y-14292183D02*
X11352831Y-14273136D01*
X11352831Y-14273136D02*
X11343308Y-14263612D01*
X11343308Y-14263612D02*
X11324260Y-14254088D01*
X11600450Y-14368374D02*
X11600450Y-14168374D01*
X11686165Y-14368374D02*
X11686165Y-14263612D01*
X11686165Y-14263612D02*
X11676641Y-14244564D01*
X11676641Y-14244564D02*
X11657593Y-14235040D01*
X11657593Y-14235040D02*
X11629022Y-14235040D01*
X11629022Y-14235040D02*
X11609974Y-14244564D01*
X11609974Y-14244564D02*
X11600450Y-14254088D01*
X11809974Y-14368374D02*
X11790927Y-14358850D01*
X11790927Y-14358850D02*
X11781403Y-14349326D01*
X11781403Y-14349326D02*
X11771879Y-14330278D01*
X11771879Y-14330278D02*
X11771879Y-14273136D01*
X11771879Y-14273136D02*
X11781403Y-14254088D01*
X11781403Y-14254088D02*
X11790927Y-14244564D01*
X11790927Y-14244564D02*
X11809974Y-14235040D01*
X11809974Y-14235040D02*
X11838546Y-14235040D01*
X11838546Y-14235040D02*
X11857593Y-14244564D01*
X11857593Y-14244564D02*
X11867117Y-14254088D01*
X11867117Y-14254088D02*
X11876641Y-14273136D01*
X11876641Y-14273136D02*
X11876641Y-14330278D01*
X11876641Y-14330278D02*
X11867117Y-14349326D01*
X11867117Y-14349326D02*
X11857593Y-14358850D01*
X11857593Y-14358850D02*
X11838546Y-14368374D01*
X11838546Y-14368374D02*
X11809974Y-14368374D01*
X11990927Y-14368374D02*
X11971879Y-14358850D01*
X11971879Y-14358850D02*
X11962355Y-14339802D01*
X11962355Y-14339802D02*
X11962355Y-14168374D01*
X12143308Y-14358850D02*
X12124260Y-14368374D01*
X12124260Y-14368374D02*
X12086165Y-14368374D01*
X12086165Y-14368374D02*
X12067117Y-14358850D01*
X12067117Y-14358850D02*
X12057593Y-14339802D01*
X12057593Y-14339802D02*
X12057593Y-14263612D01*
X12057593Y-14263612D02*
X12067117Y-14244564D01*
X12067117Y-14244564D02*
X12086165Y-14235040D01*
X12086165Y-14235040D02*
X12124260Y-14235040D01*
X12124260Y-14235040D02*
X12143308Y-14244564D01*
X12143308Y-14244564D02*
X12152831Y-14263612D01*
X12152831Y-14263612D02*
X12152831Y-14282659D01*
X12152831Y-14282659D02*
X12057593Y-14301707D01*
X12229022Y-14358850D02*
X12248070Y-14368374D01*
X12248070Y-14368374D02*
X12286165Y-14368374D01*
X12286165Y-14368374D02*
X12305212Y-14358850D01*
X12305212Y-14358850D02*
X12314736Y-14339802D01*
X12314736Y-14339802D02*
X12314736Y-14330278D01*
X12314736Y-14330278D02*
X12305212Y-14311231D01*
X12305212Y-14311231D02*
X12286165Y-14301707D01*
X12286165Y-14301707D02*
X12257593Y-14301707D01*
X12257593Y-14301707D02*
X12238546Y-14292183D01*
X12238546Y-14292183D02*
X12229022Y-14273136D01*
X12229022Y-14273136D02*
X12229022Y-14263612D01*
X12229022Y-14263612D02*
X12238546Y-14244564D01*
X12238546Y-14244564D02*
X12257593Y-14235040D01*
X12257593Y-14235040D02*
X12286165Y-14235040D01*
X12286165Y-14235040D02*
X12305212Y-14244564D01*
X12381403Y-14444564D02*
X12390927Y-14435040D01*
X12390927Y-14435040D02*
X12409974Y-14406469D01*
X12409974Y-14406469D02*
X12419498Y-14387421D01*
X12419498Y-14387421D02*
X12429022Y-14358850D01*
X12429022Y-14358850D02*
X12438546Y-14311231D01*
X12438546Y-14311231D02*
X12438546Y-14273136D01*
X12438546Y-14273136D02*
X12429022Y-14225517D01*
X12429022Y-14225517D02*
X12419498Y-14196945D01*
X12419498Y-14196945D02*
X12409974Y-14177898D01*
X12409974Y-14177898D02*
X12390927Y-14149326D01*
X12390927Y-14149326D02*
X12381403Y-14139802D01*
M02*
