M48
; DRILL file {KiCad 8.0.8} date 2025-02-15T21:21:08+0100
; FORMAT={-:-/ absolute / metric / decimal}
; #@! TF.CreationDate,2025-02-15T21:21:08+01:00
; #@! TF.GenerationSoftware,Kicad,Pcbnew,8.0.8
; #@! TF.FileFunction,Plated,1,2,PTH
FMAT,2
METRIC
; #@! TA.AperFunction,Plated,PTH,ViaDrill
T1C0.300
; #@! TA.AperFunction,Plated,PTH,ComponentDrill
T2C0.800
; #@! TA.AperFunction,Plated,PTH,ViaDrill
T3C1.000
; #@! TA.AperFunction,Plated,PTH,ComponentDrill
T4C1.000
; #@! TA.AperFunction,Plated,PTH,ComponentDrill
T5C1.100
; #@! TA.AperFunction,Plated,PTH,ComponentDrill
T6C1.200
; #@! TA.AperFunction,Plated,PTH,ComponentDrill
T7C1.300
; #@! TA.AperFunction,Plated,PTH,ComponentDrill
T8C3.200
%
G90
G05
T1
X103.596Y-47.869
X103.646Y-54.016
X110.911Y-80.534
X113.298Y-74.996
X117.87Y-88.763
X118.48Y-88.763
X119.09Y-88.763
X122.9Y-88.763
X123.509Y-88.763
X124.119Y-88.763
X133.872Y-73.437
X135.432Y-47.869
X135.432Y-54.614
X136.362Y-72.812
X165.419Y-73.437
X166.842Y-55.54
X166.978Y-47.717
X167.908Y-72.812
X170.753Y-104.689
X173.293Y-104.716
X177.154Y-70.678
X177.23Y-74.26
X178.78Y-70.729
X178.805Y-74.26
X180.1Y-104.486
X180.354Y-70.678
X180.354Y-74.234
X181.929Y-70.678
X181.929Y-74.285
X188.736Y-104.486
X196.915Y-73.437
X197.372Y-54.981
X199.455Y-72.812
X199.658Y-54.88
X200.573Y-64.633
X200.573Y-65.243
T2
X80.427Y-44.607
X85.427Y-44.607
X87.39Y-88.244
X87.39Y-93.244
X89.517Y-62.607
X89.517Y-70.227
X89.687Y-44.607
X89.687Y-57.307
X92.057Y-62.607
X92.057Y-70.227
X92.227Y-44.607
X92.227Y-57.307
X94.597Y-62.607
X94.597Y-70.227
X94.767Y-44.607
X94.767Y-57.307
X97.137Y-62.607
X97.137Y-70.227
X97.307Y-44.607
X97.307Y-57.307
X99.677Y-62.607
X99.677Y-70.227
X99.847Y-44.607
X99.847Y-57.307
X102.217Y-62.607
X102.217Y-70.227
X102.387Y-44.607
X102.387Y-57.307
X104.757Y-62.607
X104.757Y-70.227
X104.927Y-44.607
X104.927Y-57.307
X107.297Y-62.607
X107.297Y-70.227
X107.467Y-44.607
X107.467Y-57.307
X112.032Y-44.652
X117.032Y-44.652
X121.122Y-62.652
X121.122Y-70.272
X121.292Y-44.652
X121.292Y-57.352
X123.662Y-62.652
X123.662Y-70.272
X123.832Y-44.652
X123.832Y-57.352
X126.202Y-62.652
X126.202Y-70.272
X126.372Y-44.652
X126.372Y-57.352
X128.742Y-62.652
X128.742Y-70.272
X128.912Y-44.652
X128.912Y-57.352
X129.078Y-102.541
X131.282Y-62.652
X131.282Y-70.272
X131.452Y-44.652
X131.452Y-57.352
X133.822Y-62.652
X133.822Y-70.272
X133.992Y-44.652
X133.992Y-57.352
X134.078Y-102.541
X136.362Y-62.652
X136.362Y-70.272
X136.532Y-44.652
X136.532Y-57.352
X138.902Y-62.652
X138.902Y-70.272
X139.072Y-44.652
X139.072Y-57.352
X139.586Y-102.564
X143.578Y-44.652
X144.586Y-102.564
X148.578Y-44.652
X150.078Y-102.617
X152.668Y-62.652
X152.668Y-70.272
X152.838Y-44.652
X152.838Y-57.352
X155.078Y-102.617
X155.208Y-62.652
X155.208Y-70.272
X155.378Y-44.652
X155.378Y-57.352
X157.748Y-62.652
X157.748Y-70.272
X157.918Y-44.652
X157.918Y-57.352
X160.288Y-62.652
X160.288Y-70.272
X160.458Y-44.652
X160.458Y-57.352
X162.828Y-62.652
X162.828Y-70.272
X162.998Y-44.652
X162.998Y-57.352
X165.368Y-62.652
X165.368Y-70.272
X165.538Y-44.652
X165.538Y-57.352
X167.908Y-62.652
X167.908Y-70.272
X168.078Y-44.652
X168.078Y-57.352
X170.448Y-62.652
X170.448Y-70.272
X170.618Y-44.652
X170.618Y-57.352
X175.125Y-44.652
X180.125Y-44.652
X181.726Y-100.828
X184.215Y-62.652
X184.215Y-70.272
X184.266Y-100.828
X184.385Y-44.652
X184.385Y-57.352
X186.755Y-62.652
X186.755Y-70.272
X186.806Y-100.828
X186.925Y-44.652
X186.925Y-57.352
X189.295Y-62.652
X189.295Y-70.272
X189.465Y-44.652
X189.465Y-57.352
X191.835Y-62.652
X191.835Y-70.272
X191.937Y-100.828
X192.005Y-44.652
X192.005Y-57.352
X194.375Y-62.652
X194.375Y-70.272
X194.477Y-100.828
X194.545Y-44.652
X194.545Y-57.352
X196.915Y-62.652
X196.915Y-70.272
X197.017Y-100.828
X197.085Y-44.652
X197.085Y-57.352
X199.455Y-62.652
X199.455Y-70.272
X199.625Y-44.652
X199.625Y-57.352
X201.995Y-62.652
X201.995Y-70.272
X202.165Y-44.652
X202.165Y-57.352
T3
X107.609Y-95.215
X112.74Y-95.266
T4
X87.543Y-101.22
X90.083Y-101.22
X110.708Y-101.108
X113.248Y-101.108
X118.632Y-101.311
X121.172Y-101.311
X128.648Y-112.386
X131.188Y-112.386
X133.728Y-112.386
X139.156Y-112.409
X141.696Y-112.409
X144.236Y-112.409
X149.648Y-112.462
X152.188Y-112.462
X154.728Y-112.462
X157.291Y-75.758
X159.831Y-75.758
X162.371Y-75.758
X162.371Y-79.162
X162.371Y-94.402
X164.911Y-75.758
X164.911Y-79.162
X164.911Y-94.402
X167.451Y-79.162
X167.451Y-94.402
X169.509Y-110.589
X169.636Y-75.555
X169.991Y-79.162
X169.991Y-94.402
X172.049Y-110.589
X172.176Y-75.555
X172.531Y-79.162
X172.531Y-94.402
X174.563Y-110.607
X174.716Y-75.555
X175.071Y-79.162
X175.071Y-94.402
X177.103Y-110.607
X177.611Y-79.162
X177.611Y-94.402
X180.151Y-79.162
X180.151Y-94.402
X181.802Y-110.633
X182.691Y-79.162
X182.691Y-94.402
X184.342Y-110.633
X185.231Y-79.162
X185.231Y-94.402
X186.882Y-110.633
X187.771Y-79.162
X187.771Y-94.402
X189.448Y-110.658
X190.311Y-79.162
X190.311Y-94.402
X191.988Y-110.658
X192.851Y-75.657
X192.851Y-79.162
X192.851Y-94.402
X194.528Y-110.658
X195.391Y-75.657
X195.391Y-79.162
X195.391Y-94.402
X197.931Y-75.657
X197.931Y-79.162
X197.931Y-94.402
X203.976Y-80.05
X203.976Y-82.59
X203.976Y-85.13
X203.976Y-87.67
X203.976Y-90.21
X203.976Y-92.75
T5
X109.565Y-77.74
X112.105Y-77.74
X114.645Y-77.74
X118.429Y-95.266
X120.969Y-95.266
X123.509Y-95.266
T6
X129.078Y-80.062
X129.078Y-95.302
X139.586Y-80.085
X139.586Y-95.325
X150.078Y-80.138
X150.078Y-95.378
T7
X87.543Y-108.891
X90.847Y-36.107
X92.623Y-108.891
X95.927Y-36.107
X97.703Y-108.891
X100.932Y-88.23
X100.932Y-98.23
X101.007Y-36.107
X102.783Y-108.891
X106.087Y-36.107
X107.964Y-108.891
X113.044Y-108.891
X118.226Y-108.88
X122.452Y-36.152
X123.306Y-108.88
X127.532Y-36.152
X132.612Y-36.152
X137.692Y-36.152
X153.998Y-36.152
X159.078Y-36.152
X164.158Y-36.152
X169.238Y-36.152
X185.545Y-36.152
X190.625Y-36.152
X195.705Y-36.152
X200.785Y-36.152
T8
X81.142Y-32.985
X81.193Y-112.792
X101.056Y-78.146
X146.064Y-33.239
X146.217Y-63.109
X162.93Y-112.69
X208.04Y-32.985
X208.04Y-112.792
M30
