G04 #@! TF.GenerationSoftware,KiCad,Pcbnew,8.0.8*
G04 #@! TF.CreationDate,2025-02-15T21:21:22+01:00*
G04 #@! TF.ProjectId,stepperpcb,73746570-7065-4727-9063-622e6b696361,rev?*
G04 #@! TF.SameCoordinates,Original*
G04 #@! TF.FileFunction,Soldermask,Top*
G04 #@! TF.FilePolarity,Negative*
%FSLAX46Y46*%
G04 Gerber Fmt 4.6, Leading zero omitted, Abs format (unit mm)*
G04 Created by KiCad (PCBNEW 8.0.8) date 2025-02-15 21:21:22*
%MOMM*%
%LPD*%
G01*
G04 APERTURE LIST*
%ADD10C,5.600000*%
%ADD11C,3.600000*%
%ADD12R,1.700000X1.700000*%
%ADD13O,1.700000X1.700000*%
%ADD14C,1.440000*%
%ADD15O,1.600000X1.600000*%
%ADD16R,1.600000X1.600000*%
%ADD17C,2.600000*%
%ADD18R,2.600000X2.600000*%
%ADD19C,1.600000*%
%ADD20C,2.400000*%
%ADD21O,2.400000X2.400000*%
%ADD22O,1.905000X2.000000*%
%ADD23R,1.905000X2.000000*%
%ADD24C,2.300000*%
G04 APERTURE END LIST*
D10*
X146216800Y-63109200D03*
D11*
X146216800Y-63109200D03*
X146064400Y-33238800D03*
D10*
X146064400Y-33238800D03*
D11*
X101055600Y-78146000D03*
D10*
X101055600Y-78146000D03*
D11*
X162930000Y-112690000D03*
D10*
X162930000Y-112690000D03*
D12*
X172049200Y-110589400D03*
D13*
X169509200Y-110589400D03*
D12*
X203976400Y-80050200D03*
D13*
X203976400Y-82590200D03*
X203976400Y-85130200D03*
X203976400Y-87670200D03*
X203976400Y-90210200D03*
X203976400Y-92750200D03*
D12*
X177103200Y-110607200D03*
D13*
X174563200Y-110607200D03*
X181802400Y-110633400D03*
X184342400Y-110633400D03*
D12*
X186882400Y-110633400D03*
X194527600Y-110658000D03*
D13*
X191987600Y-110658000D03*
X189447600Y-110658000D03*
D12*
X169635600Y-75555200D03*
D13*
X172175600Y-75555200D03*
X174715600Y-75555200D03*
D12*
X157291200Y-75758400D03*
D13*
X159831200Y-75758400D03*
X162371200Y-75758400D03*
X164911200Y-75758400D03*
D12*
X90082800Y-101220000D03*
D13*
X87542800Y-101220000D03*
D12*
X110707600Y-101107600D03*
D13*
X113247600Y-101107600D03*
D12*
X118632400Y-101310800D03*
D13*
X121172400Y-101310800D03*
D12*
X192851200Y-75656800D03*
D13*
X195391200Y-75656800D03*
X197931200Y-75656800D03*
X149647600Y-112462000D03*
X152187600Y-112462000D03*
D12*
X154727600Y-112462000D03*
D13*
X139155600Y-112409400D03*
X141695600Y-112409400D03*
D12*
X144235600Y-112409400D03*
D13*
X128648400Y-112385800D03*
X131188400Y-112385800D03*
D12*
X133728400Y-112385800D03*
D14*
X181725800Y-100828200D03*
X184265800Y-100828200D03*
X186805800Y-100828200D03*
X191936600Y-100828200D03*
X194476600Y-100828200D03*
X197016600Y-100828200D03*
D10*
X81192800Y-112791600D03*
D11*
X81192800Y-112791600D03*
X208040400Y-32984800D03*
D10*
X208040400Y-32984800D03*
X208040400Y-112791600D03*
D11*
X208040400Y-112791600D03*
D10*
X81142000Y-32984800D03*
D11*
X81142000Y-32984800D03*
D15*
X201995200Y-70272000D03*
X199455200Y-70272000D03*
X196915200Y-70272000D03*
X194375200Y-70272000D03*
X191835200Y-70272000D03*
X189295200Y-70272000D03*
X186755200Y-70272000D03*
X184215200Y-70272000D03*
X184215200Y-62652000D03*
X186755200Y-62652000D03*
X189295200Y-62652000D03*
X191835200Y-62652000D03*
X194375200Y-62652000D03*
X196915200Y-62652000D03*
X199455200Y-62652000D03*
D16*
X201995200Y-62652000D03*
D17*
X185545200Y-36152000D03*
X190625200Y-36152000D03*
X195705200Y-36152000D03*
D18*
X200785200Y-36152000D03*
D15*
X202165200Y-57352000D03*
X199625200Y-57352000D03*
X197085200Y-57352000D03*
X194545200Y-57352000D03*
X192005200Y-57352000D03*
X189465200Y-57352000D03*
X186925200Y-57352000D03*
X184385200Y-57352000D03*
X184385200Y-44652000D03*
X186925200Y-44652000D03*
X189465200Y-44652000D03*
X192005200Y-44652000D03*
X194545200Y-44652000D03*
X197085200Y-44652000D03*
X199625200Y-44652000D03*
D16*
X202165200Y-44652000D03*
D19*
X175125200Y-44652000D03*
X180125200Y-44652000D03*
D15*
X170448400Y-70272000D03*
X167908400Y-70272000D03*
X165368400Y-70272000D03*
X162828400Y-70272000D03*
X160288400Y-70272000D03*
X157748400Y-70272000D03*
X155208400Y-70272000D03*
X152668400Y-70272000D03*
X152668400Y-62652000D03*
X155208400Y-62652000D03*
X157748400Y-62652000D03*
X160288400Y-62652000D03*
X162828400Y-62652000D03*
X165368400Y-62652000D03*
X167908400Y-62652000D03*
D16*
X170448400Y-62652000D03*
D17*
X153998400Y-36152000D03*
X159078400Y-36152000D03*
X164158400Y-36152000D03*
D18*
X169238400Y-36152000D03*
D15*
X170618400Y-57352000D03*
X168078400Y-57352000D03*
X165538400Y-57352000D03*
X162998400Y-57352000D03*
X160458400Y-57352000D03*
X157918400Y-57352000D03*
X155378400Y-57352000D03*
X152838400Y-57352000D03*
X152838400Y-44652000D03*
X155378400Y-44652000D03*
X157918400Y-44652000D03*
X160458400Y-44652000D03*
X162998400Y-44652000D03*
X165538400Y-44652000D03*
X168078400Y-44652000D03*
D16*
X170618400Y-44652000D03*
D19*
X143578400Y-44652000D03*
X148578400Y-44652000D03*
D15*
X138901600Y-70272000D03*
X136361600Y-70272000D03*
X133821600Y-70272000D03*
X131281600Y-70272000D03*
X128741600Y-70272000D03*
X126201600Y-70272000D03*
X123661600Y-70272000D03*
X121121600Y-70272000D03*
X121121600Y-62652000D03*
X123661600Y-62652000D03*
X126201600Y-62652000D03*
X128741600Y-62652000D03*
X131281600Y-62652000D03*
X133821600Y-62652000D03*
X136361600Y-62652000D03*
D16*
X138901600Y-62652000D03*
D17*
X122451600Y-36152000D03*
X127531600Y-36152000D03*
X132611600Y-36152000D03*
D18*
X137691600Y-36152000D03*
D15*
X139071600Y-57352000D03*
X136531600Y-57352000D03*
X133991600Y-57352000D03*
X131451600Y-57352000D03*
X128911600Y-57352000D03*
X126371600Y-57352000D03*
X123831600Y-57352000D03*
X121291600Y-57352000D03*
X121291600Y-44652000D03*
X123831600Y-44652000D03*
X126371600Y-44652000D03*
X128911600Y-44652000D03*
X131451600Y-44652000D03*
X133991600Y-44652000D03*
X136531600Y-44652000D03*
D16*
X139071600Y-44652000D03*
D19*
X112031600Y-44652000D03*
X117031600Y-44652000D03*
X155077600Y-102617000D03*
X150077600Y-102617000D03*
D20*
X150077600Y-80138000D03*
D21*
X150077600Y-95378000D03*
D19*
X144585600Y-102564400D03*
X139585600Y-102564400D03*
D21*
X139585600Y-95325400D03*
D20*
X139585600Y-80085400D03*
D18*
X97702800Y-108890800D03*
D17*
X102782800Y-108890800D03*
D18*
X107964400Y-108890800D03*
D17*
X113044400Y-108890800D03*
D15*
X107467200Y-57307200D03*
X104927200Y-57307200D03*
X102387200Y-57307200D03*
X99847200Y-57307200D03*
X97307200Y-57307200D03*
X94767200Y-57307200D03*
X92227200Y-57307200D03*
X89687200Y-57307200D03*
X89687200Y-44607200D03*
X92227200Y-44607200D03*
X94767200Y-44607200D03*
X97307200Y-44607200D03*
X99847200Y-44607200D03*
X102387200Y-44607200D03*
X104927200Y-44607200D03*
D16*
X107467200Y-44607200D03*
D18*
X87542800Y-108890800D03*
D17*
X92622800Y-108890800D03*
D22*
X114645400Y-77739600D03*
X112105400Y-77739600D03*
D23*
X109565400Y-77739600D03*
D19*
X87390400Y-88244400D03*
X87390400Y-93244400D03*
D22*
X123509200Y-95265600D03*
X120969200Y-95265600D03*
D23*
X118429200Y-95265600D03*
D17*
X90847200Y-36107200D03*
X95927200Y-36107200D03*
X101007200Y-36107200D03*
D18*
X106087200Y-36107200D03*
D15*
X107297200Y-70227200D03*
X104757200Y-70227200D03*
X102217200Y-70227200D03*
X99677200Y-70227200D03*
X97137200Y-70227200D03*
X94597200Y-70227200D03*
X92057200Y-70227200D03*
X89517200Y-70227200D03*
X89517200Y-62607200D03*
X92057200Y-62607200D03*
X94597200Y-62607200D03*
X97137200Y-62607200D03*
X99677200Y-62607200D03*
X102217200Y-62607200D03*
X104757200Y-62607200D03*
D16*
X107297200Y-62607200D03*
D19*
X134078400Y-102540800D03*
X129078400Y-102540800D03*
D16*
X197931200Y-79162000D03*
D15*
X195391200Y-79162000D03*
X192851200Y-79162000D03*
X190311200Y-79162000D03*
X187771200Y-79162000D03*
X185231200Y-79162000D03*
X182691200Y-79162000D03*
X180151200Y-79162000D03*
X177611200Y-79162000D03*
X175071200Y-79162000D03*
X172531200Y-79162000D03*
X169991200Y-79162000D03*
X167451200Y-79162000D03*
X164911200Y-79162000D03*
X162371200Y-79162000D03*
X162371200Y-94402000D03*
X164911200Y-94402000D03*
X167451200Y-94402000D03*
X169991200Y-94402000D03*
X172531200Y-94402000D03*
X175071200Y-94402000D03*
X177611200Y-94402000D03*
X180151200Y-94402000D03*
X182691200Y-94402000D03*
X185231200Y-94402000D03*
X187771200Y-94402000D03*
X190311200Y-94402000D03*
X192851200Y-94402000D03*
X195391200Y-94402000D03*
X197931200Y-94402000D03*
D19*
X80427200Y-44607200D03*
X85427200Y-44607200D03*
D21*
X129078400Y-95301800D03*
D20*
X129078400Y-80061800D03*
D18*
X118226000Y-108880000D03*
D17*
X123306000Y-108880000D03*
D24*
X100932200Y-88230200D03*
X100932200Y-98230200D03*
M02*
