ISO-10303-21;
HEADER;
FILE_DESCRIPTION (( 'STEP AP214' ),
    '1' );
FILE_NAME ('limitlebrackettop.STEP',
    '2025-03-18T09:23:22',
    ( '' ),
    ( '' ),
    'SwSTEP 2.0',
    'SolidWorks 2025',
    '' );
FILE_SCHEMA (( 'AUTOMOTIVE_DESIGN' ));
ENDSEC;

DATA;
#1 = FACE_OUTER_BOUND ( 'NONE', #793, .T. ) ;
#2 = ORIENTED_EDGE ( 'NONE', *, *, #632, .F. ) ;
#3 = CARTESIAN_POINT ( 'NONE',  ( 0.000000000000000000, 15.00000000000000000, 6.999999999999999112 ) ) ;
#4 = CARTESIAN_POINT ( 'NONE',  ( 17.00000000000000000, -3.000000000000000000, 1.749999999999999556 ) ) ;
#5 = VERTEX_POINT ( 'NONE', #579 ) ;
#6 = PLANE ( 'NONE',  #16 ) ;
#7 = ORIENTED_EDGE ( 'NONE', *, *, #549, .T. ) ;
#8 = LINE ( 'NONE', #633, #260 ) ;
#9 = FACE_OUTER_BOUND ( 'NONE', #254, .T. ) ;
#10 = VERTEX_POINT ( 'NONE', #335 ) ;
#11 = FACE_OUTER_BOUND ( 'NONE', #353, .T. ) ;
#12 = ORIENTED_EDGE ( 'NONE', *, *, #256, .T. ) ;
#13 = EDGE_CURVE ( 'NONE', #806, #774, #884, .T. ) ;
#14 = ORIENTED_EDGE ( 'NONE', *, *, #97, .T. ) ;
#15 = CARTESIAN_POINT ( 'NONE',  ( 17.00000000000000000, -3.000000000000000000, 18.50000000000000000 ) ) ;
#16 = AXIS2_PLACEMENT_3D ( 'NONE', #836, #180, #485 ) ;
#17 = AXIS2_PLACEMENT_3D ( 'NONE', #920, #996, #528 ) ;
#18 = AXIS2_PLACEMENT_3D ( 'NONE', #294, #593, #600 ) ;
#19 = ORIENTED_EDGE ( 'NONE', *, *, #326, .T. ) ;
#20 = CARTESIAN_POINT ( 'NONE',  ( 22.00000000000000000, -3.000000000000000000, 1.749999999999999778 ) ) ;
#21 = EDGE_CURVE ( 'NONE', #501, #516, #8, .T. ) ;
#22 = ORIENTED_EDGE ( 'NONE', *, *, #473, .F. ) ;
#23 = VERTEX_POINT ( 'NONE', #867 ) ;
#24 = DIRECTION ( 'NONE',  ( 1.000000000000000000, -0.000000000000000000, -0.000000000000000000 ) ) ;
#25 = AXIS2_PLACEMENT_3D ( 'NONE', #1004, #471, #634 ) ;
#26 = ORIENTED_EDGE ( 'NONE', *, *, #122, .T. ) ;
#27 = EDGE_LOOP ( 'NONE', ( #652, #2, #648, #887 ) ) ;
#28 = CARTESIAN_POINT ( 'NONE',  ( 22.00000000000000000, 0.000000000000000000, 1.749999999999999778 ) ) ;
#29 = ORIENTED_EDGE ( 'NONE', *, *, #676, .T. ) ;
#30 = ORIENTED_EDGE ( 'NONE', *, *, #51, .F. ) ;
#31 = LINE ( 'NONE', #337, #669 ) ;
#32 = ADVANCED_FACE ( 'NONE', ( #182, #771, #79 ), #545, .F. ) ;
#33 = EDGE_LOOP ( 'NONE', ( #811, #490, #871, #668 ) ) ;
#34 = DIRECTION ( 'NONE',  ( 0.000000000000000000, 0.000000000000000000, -1.000000000000000000 ) ) ;
#35 = ORIENTED_EDGE ( 'NONE', *, *, #382, .T. ) ;
#36 = DIRECTION ( 'NONE',  ( -0.000000000000000000, 1.000000000000000000, -0.000000000000000000 ) ) ;
#37 = EDGE_CURVE ( 'NONE', #588, #432, #306, .T. ) ;
#38 = ORIENTED_EDGE ( 'NONE', *, *, #508, .T. ) ;
#39 = ADVANCED_FACE ( 'NONE', ( #169 ), #916, .F. ) ;
#40 = AXIS2_PLACEMENT_3D ( 'NONE', #531, #146, #1000 ) ;
#41 = CIRCLE ( 'NONE', #213, 1.750000000000001554 ) ;
#42 = VERTEX_POINT ( 'NONE', #384 ) ;
#43 = CARTESIAN_POINT ( 'NONE',  ( 0.000000000000000000, 12.00000000000000000, 2.999999999999999112 ) ) ;
#44 = ORIENTED_EDGE ( 'NONE', *, *, #656, .F. ) ;
#45 = VERTEX_POINT ( 'NONE', #234 ) ;
#46 = CARTESIAN_POINT ( 'NONE',  ( 0.000000000000000000, 0.000000000000000000, 0.000000000000000000 ) ) ;
#47 = AXIS2_PLACEMENT_3D ( 'NONE', #46, #52, #823 ) ;
#48 = CARTESIAN_POINT ( 'NONE',  ( -3.000000000000000000, 8.750000000000000000, 1.999999999999998224 ) ) ;
#49 = VERTEX_POINT ( 'NONE', #614 ) ;
#50 = CARTESIAN_POINT ( 'NONE',  ( 22.00000000000000000, -3.000000000000000000, 1.749999999999999778 ) ) ;
#51 = EDGE_CURVE ( 'NONE', #930, #721, #610, .T. ) ;
#52 = DIRECTION ( 'NONE',  ( 0.000000000000000000, 0.000000000000000000, 1.000000000000000000 ) ) ;
#53 = DIRECTION ( 'NONE',  ( 0.000000000000000000, 0.000000000000000000, -1.000000000000000000 ) ) ;
#54 = PRODUCT_RELATED_PRODUCT_CATEGORY ( 'part', '', ( #541 ) ) ;
#55 = LINE ( 'NONE', #992, #543 ) ;
#56 = VECTOR ( 'NONE', #890, 1000.000000000000000 ) ;
#57 = CARTESIAN_POINT ( 'NONE',  ( 0.000000000000000000, 11.25000000000000000, 9.999999999999998224 ) ) ;
#58 = LINE ( 'NONE', #757, #686 ) ;
#59 = CARTESIAN_POINT ( 'NONE',  ( 22.00000000000000000, -3.000000000000000000, 2.999999999999999112 ) ) ;
#60 = AXIS2_PLACEMENT_3D ( 'NONE', #84, #239, #618 ) ;
#61 = CARTESIAN_POINT ( 'NONE',  ( -3.000000000000000000, 11.25000000000000000, 9.999999999999998224 ) ) ;
#62 = CARTESIAN_POINT ( 'NONE',  ( -3.000000000000000000, 5.249999999999999112, 9.999999999999998224 ) ) ;
#63 = EDGE_CURVE ( 'NONE', #279, #270, #41, .T. ) ;
#64 = CARTESIAN_POINT ( 'NONE',  ( -3.000000000000000000, 2.750000000000000888, 9.999999999999998224 ) ) ;
#65 = CYLINDRICAL_SURFACE ( 'NONE', #636, 1.249999999999999334 ) ;
#66 = DIRECTION ( 'NONE',  ( 1.000000000000000000, 0.000000000000000000, 0.000000000000000000 ) ) ;
#67 = CIRCLE ( 'NONE', #816, 3.000000000000000000 ) ;
#68 = EDGE_CURVE ( 'NONE', #774, #878, #1007, .T. ) ;
#69 = FACE_OUTER_BOUND ( 'NONE', #115, .T. ) ;
#70 = VECTOR ( 'NONE', #678, 1000.000000000000000 ) ;
#71 = AXIS2_PLACEMENT_3D ( 'NONE', #519, #378, #908 ) ;
#72 = LINE ( 'NONE', #293, #157 ) ;
#73 = DIRECTION ( 'NONE',  ( 0.000000000000000000, 1.000000000000000000, 0.000000000000000000 ) ) ;
#74 = CLOSED_SHELL ( 'NONE', ( #358, #106, #32, #370, #740, #311, #510, #453, #953, #520, #854, #296, #199, #225, #972, #784, #766, #177, #666, #680, #643, #982, #271, #459, #39, #777, #935, #295, #874, #802 ) ) ;
#75 = MANIFOLD_SOLID_BREP ( 'Fillet2', #74 ) ;
#76 = DIRECTION ( 'NONE',  ( 0.000000000000000000, 0.000000000000000000, 1.000000000000000000 ) ) ;
#77 = DIRECTION ( 'NONE',  ( -0.000000000000000000, -1.000000000000000000, -0.000000000000000000 ) ) ;
#78 = CARTESIAN_POINT ( 'NONE',  ( 17.00000000000000000, -3.000000000000000000, 16.74999999999999645 ) ) ;
#79 = FACE_OUTER_BOUND ( 'NONE', #187, .T. ) ;
#80 = FACE_OUTER_BOUND ( 'NONE', #731, .T. ) ;
#81 = DIRECTION ( 'NONE',  ( 0.000000000000000000, 0.000000000000000000, -1.000000000000000000 ) ) ;
#82 = CYLINDRICAL_SURFACE ( 'NONE', #377, 1.249999999999999334 ) ;
#83 = EDGE_CURVE ( 'NONE', #493, #806, #67, .T. ) ;
#84 = CARTESIAN_POINT ( 'NONE',  ( 0.000000000000000000, 12.00000000000000000, 2.999999999999999112 ) ) ;
#85 = PRODUCT_DEFINITION ( 'UNKNOWN', '', #324, #512 ) ;
#86 = CARTESIAN_POINT ( 'NONE',  ( 21.99999999999999645, -3.000000000000000000, 18.50000000000000000 ) ) ;
#87 = ORIENTED_EDGE ( 'NONE', *, *, #893, .T. ) ;
#88 = DIRECTION ( 'NONE',  ( 1.000000000000000000, 0.000000000000000000, 0.000000000000000000 ) ) ;
#89 = VECTOR ( 'NONE', #228, 1000.000000000000000 ) ;
#90 = DIRECTION ( 'NONE',  ( -1.156482317317871331E-15, -1.000000000000000000, 0.000000000000000000 ) ) ;
#91 = ORIENTED_EDGE ( 'NONE', *, *, #256, .F. ) ;
#92 = DIRECTION ( 'NONE',  ( 0.000000000000000000, 0.000000000000000000, -1.000000000000000000 ) ) ;
#93 = APPLICATION_CONTEXT ( 'automotive_design' ) ;
#94 = EDGE_LOOP ( 'NONE', ( #317, #789, #892, #875 ) ) ;
#95 = DIRECTION ( 'NONE',  ( 1.000000000000000000, -0.000000000000000000, -0.000000000000000000 ) ) ;
#96 = PLANE ( 'NONE',  #851 ) ;
#97 = EDGE_CURVE ( 'NONE', #42, #272, #898, .T. ) ;
#98 = VERTEX_POINT ( 'NONE', #855 ) ;
#99 = DIRECTION ( 'NONE',  ( -1.000000000000000000, 0.000000000000000000, -0.000000000000000000 ) ) ;
#100 = ORIENTED_EDGE ( 'NONE', *, *, #122, .F. ) ;
#101 = ORIENTED_EDGE ( 'NONE', *, *, #208, .F. ) ;
#102 = CARTESIAN_POINT ( 'NONE',  ( -3.000000000000000000, 2.750000000000000888, 2.000000000000001776 ) ) ;
#103 = EDGE_CURVE ( 'NONE', #355, #735, #165, .T. ) ;
#104 = UNCERTAINTY_MEASURE_WITH_UNIT (LENGTH_MEASURE( 1.000000000000000082E-05 ), #265, 'distance_accuracy_value', 'NONE');
#105 = ORIENTED_EDGE ( 'NONE', *, *, #282, .F. ) ;
#106 = ADVANCED_FACE ( 'NONE', ( #470 ), #82, .F. ) ;
#107 = DIRECTION ( 'NONE',  ( -1.000000000000000000, -0.000000000000000000, -0.000000000000000000 ) ) ;
#108 = ORIENTED_EDGE ( 'NONE', *, *, #462, .F. ) ;
#109 = AXIS2_PLACEMENT_3D ( 'NONE', #868, #509, #813 ) ;
#110 = ORIENTED_EDGE ( 'NONE', *, *, #847, .T. ) ;
#111 = CIRCLE ( 'NONE', #238, 1.249999999999999334 ) ;
#112 = EDGE_LOOP ( 'NONE', ( #571, #280, #422, #118 ) ) ;
#113 = LINE ( 'NONE', #20, #287 ) ;
#114 = ORIENTED_EDGE ( 'NONE', *, *, #354, .F. ) ;
#115 = EDGE_LOOP ( 'NONE', ( #743, #35, #655, #950, #346, #325 ) ) ;
#116 = DIRECTION ( 'NONE',  ( -1.000000000000000000, 0.000000000000000000, 0.000000000000000000 ) ) ;
#117 = CIRCLE ( 'NONE', #242, 15.00000000000000000 ) ;
#118 = ORIENTED_EDGE ( 'NONE', *, *, #21, .T. ) ;
#119 = ORIENTED_EDGE ( 'NONE', *, *, #184, .T. ) ;
#120 = FACE_BOUND ( 'NONE', #506, .T. ) ;
#121 = VERTEX_POINT ( 'NONE', #555 ) ;
#122 = EDGE_CURVE ( 'NONE', #396, #501, #635, .T. ) ;
#123 = CYLINDRICAL_SURFACE ( 'NONE', #748, 1.749999999999999778 ) ;
#124 = EDGE_CURVE ( 'NONE', #344, #573, #997, .T. ) ;
#125 = ORIENTED_EDGE ( 'NONE', *, *, #247, .F. ) ;
#126 = ORIENTED_EDGE ( 'NONE', *, *, #694, .T. ) ;
#127 = CIRCLE ( 'NONE', #513, 1.249999999999999334 ) ;
#128 = DIRECTION ( 'NONE',  ( 0.000000000000000000, 0.000000000000000000, 1.000000000000000000 ) ) ;
#129 = ORIENTED_EDGE ( 'NONE', *, *, #709, .F. ) ;
#130 = AXIS2_PLACEMENT_3D ( 'NONE', #525, #749, #218 ) ;
#131 = AXIS2_PLACEMENT_3D ( 'NONE', #521, #673, #292 ) ;
#132 = ORIENTED_EDGE ( 'NONE', *, *, #584, .F. ) ;
#133 = SHAPE_DEFINITION_REPRESENTATION ( #1005, #987 ) ;
#134 = DIRECTION ( 'NONE',  ( 0.000000000000000000, -1.000000000000000000, 0.000000000000000000 ) ) ;
#135 = ORIENTED_EDGE ( 'NONE', *, *, #63, .T. ) ;
#136 = EDGE_CURVE ( 'NONE', #739, #279, #388, .T. ) ;
#137 = LINE ( 'NONE', #219, #980 ) ;
#138 = APPLICATION_PROTOCOL_DEFINITION ( 'draft international standard', 'automotive_design', 1998, #888 ) ;
#139 = DIRECTION ( 'NONE',  ( 0.000000000000000000, 1.000000000000000000, 0.000000000000000000 ) ) ;
#140 = CARTESIAN_POINT ( 'NONE',  ( 0.000000000000000000, 11.25000000000000000, 1.999999999999998224 ) ) ;
#141 = CYLINDRICAL_SURFACE ( 'NONE', #900, 1.249999999999999334 ) ;
#142 = CARTESIAN_POINT ( 'NONE',  ( 17.00000000000000000, -3.000000000000000000, 20.25000000000000000 ) ) ;
#143 = DIRECTION ( 'NONE',  ( 1.000000000000000000, -0.000000000000000000, -0.000000000000000000 ) ) ;
#144 = EDGE_CURVE ( 'NONE', #338, #975, #705, .T. ) ;
#145 = CARTESIAN_POINT ( 'NONE',  ( 0.000000000000000000, 5.249999999999999112, 1.999999999999998224 ) ) ;
#146 = DIRECTION ( 'NONE',  ( 1.000000000000000000, 0.000000000000000000, 0.000000000000000000 ) ) ;
#147 = EDGE_CURVE ( 'NONE', #516, #49, #630, .T. ) ;
#148 = DIRECTION ( 'NONE',  ( 0.000000000000000000, 0.000000000000000000, -1.000000000000000000 ) ) ;
#149 = CYLINDRICAL_SURFACE ( 'NONE', #763, 1.249999999999999334 ) ;
#150 = EDGE_CURVE ( 'NONE', #642, #5, #373, .T. ) ;
#151 = DIRECTION ( 'NONE',  ( -0.000000000000000000, -0.000000000000000000, 1.000000000000000000 ) ) ;
#152 = CARTESIAN_POINT ( 'NONE',  ( 0.000000000000000000, 5.249999999999999112, 9.999999999999998224 ) ) ;
#153 = CARTESIAN_POINT ( 'NONE',  ( -3.000000000000000000, 10.00000000000000000, 1.999999999999998224 ) ) ;
#154 = CARTESIAN_POINT ( 'NONE',  ( 22.00000000000000000, -3.000000000000000000, 3.499999999999999556 ) ) ;
#155 = AXIS2_PLACEMENT_3D ( 'NONE', #15, #205, #729 ) ;
#156 = CARTESIAN_POINT ( 'NONE',  ( 0.000000000000000000, 10.00000000000000000, 1.999999999999998224 ) ) ;
#157 = VECTOR ( 'NONE', #233, 1000.000000000000000 ) ;
#158 = AXIS2_PLACEMENT_3D ( 'NONE', #62, #139, #374 ) ;
#159 = CARTESIAN_POINT ( 'NONE',  ( -3.000000000000000000, 10.00000000000000000, 9.999999999999998224 ) ) ;
#160 = DIRECTION ( 'NONE',  ( -0.000000000000000000, 1.000000000000000000, -0.000000000000000000 ) ) ;
#161 = DIRECTION ( 'NONE',  ( 0.000000000000000000, 0.000000000000000000, -1.000000000000000000 ) ) ;
#162 = FACE_BOUND ( 'NONE', #812, .T. ) ;
#163 = EDGE_CURVE ( 'NONE', #817, #484, #127, .T. ) ;
#164 = CIRCLE ( 'NONE', #423, 3.000000000000000000 ) ;
#165 = LINE ( 'NONE', #248, #211 ) ;
#166 = LINE ( 'NONE', #546, #624 ) ;
#167 = DIRECTION ( 'NONE',  ( 0.000000000000000000, 1.000000000000000000, 0.000000000000000000 ) ) ;
#168 = ORIENTED_EDGE ( 'NONE', *, *, #414, .T. ) ;
#169 = FACE_OUTER_BOUND ( 'NONE', #780, .T. ) ;
#170 = DIRECTION ( 'NONE',  ( -0.000000000000000000, 1.000000000000000000, -0.000000000000000000 ) ) ;
#171 = ORIENTED_EDGE ( 'NONE', *, *, #967, .F. ) ;
#172 = CARTESIAN_POINT ( 'NONE',  ( 22.00000000000000000, -3.000000000000000000, 19.00000000000000000 ) ) ;
#173 = VERTEX_POINT ( 'NONE', #613 ) ;
#174 = SURFACE_SIDE_STYLE ('',( #310 ) ) ;
#175 = VECTOR ( 'NONE', #914, 1000.000000000000000 ) ;
#176 = CARTESIAN_POINT ( 'NONE',  ( -3.000000000000000000, 5.249999999999999112, 1.999999999999998224 ) ) ;
#177 = ADVANCED_FACE ( 'NONE', ( #684 ), #830, .F. ) ;
#178 = AXIS2_PLACEMENT_3D ( 'NONE', #153, #314, #768 ) ;
#179 = EDGE_LOOP ( 'NONE', ( #135, #897, #255, #741 ) ) ;
#180 = DIRECTION ( 'NONE',  ( -0.000000000000000000, 0.000000000000000000, 1.000000000000000000 ) ) ;
#181 = EDGE_LOOP ( 'NONE', ( #631, #19, #411, #971, #168 ) ) ;
#182 = FACE_BOUND ( 'NONE', #723, .T. ) ;
#183 = DIRECTION ( 'NONE',  ( 0.000000000000000000, 0.000000000000000000, 1.000000000000000000 ) ) ;
#184 = EDGE_CURVE ( 'NONE', #645, #49, #368, .T. ) ;
#185 = ORIENTED_EDGE ( 'NONE', *, *, #124, .T. ) ;
#186 = FACE_BOUND ( 'NONE', #853, .T. ) ;
#187 = EDGE_LOOP ( 'NONE', ( #241, #478, #661, #341, #650, #562 ) ) ;
#188 = ORIENTED_EDGE ( 'NONE', *, *, #535, .T. ) ;
#189 = CARTESIAN_POINT ( 'NONE',  ( -3.000000000000000000, 2.750000000000000888, 1.999999999999998668 ) ) ;
#190 = ORIENTED_EDGE ( 'NONE', *, *, #103, .F. ) ;
#191 = CYLINDRICAL_SURFACE ( 'NONE', #715, 2.999999999999999112 ) ;
#192 = ORIENTED_EDGE ( 'NONE', *, *, #504, .F. ) ;
#193 = EDGE_LOOP ( 'NONE', ( #100, #570, #416, #195 ) ) ;
#194 = AXIS2_PLACEMENT_3D ( 'NONE', #43, #24, #433 ) ;
#195 = ORIENTED_EDGE ( 'NONE', *, *, #21, .F. ) ;
#196 = VERTEX_POINT ( 'NONE', #524 ) ;
#197 = CARTESIAN_POINT ( 'NONE',  ( 0.000000000000000000, 2.750000000000000888, 9.999999999999998224 ) ) ;
#198 = ORIENTED_EDGE ( 'NONE', *, *, #382, .F. ) ;
#199 = ADVANCED_FACE ( 'NONE', ( #907 ), #865, .F. ) ;
#200 = CARTESIAN_POINT ( 'NONE',  ( 0.000000000000000000, 0.000000000000000000, 0.000000000000000000 ) ) ;
#201 = DIRECTION ( 'NONE',  ( 0.000000000000000000, 0.000000000000000000, -1.000000000000000000 ) ) ;
#202 = VECTOR ( 'NONE', #769, 1000.000000000000000 ) ;
#203 = EDGE_LOOP ( 'NONE', ( #641, #962, #12, #647 ) ) ;
#204 = ORIENTED_EDGE ( 'NONE', *, *, #923, .F. ) ;
#205 = DIRECTION ( 'NONE',  ( 0.000000000000000000, 1.000000000000000000, 0.000000000000000000 ) ) ;
#206 = VERTEX_POINT ( 'NONE', #751 ) ;
#207 = ORIENTED_EDGE ( 'NONE', *, *, #386, .F. ) ;
#208 = EDGE_CURVE ( 'NONE', #173, #206, #638, .T. ) ;
#209 = ORIENTED_EDGE ( 'NONE', *, *, #839, .F. ) ;
#210 = VECTOR ( 'NONE', #278, 1000.000000000000000 ) ;
#211 = VECTOR ( 'NONE', #475, 1000.000000000000000 ) ;
#212 = VECTOR ( 'NONE', #217, 1000.000000000000000 ) ;
#213 = AXIS2_PLACEMENT_3D ( 'NONE', #230, #456, #617 ) ;
#214 = ORIENTED_EDGE ( 'NONE', *, *, #97, .F. ) ;
#215 = CARTESIAN_POINT ( 'NONE',  ( -3.000000000000000000, -3.000000000000000000, 22.00000000000000000 ) ) ;
#216 = CARTESIAN_POINT ( 'NONE',  ( -3.000000000000000000, -3.000000000000000000, 22.00000000000000000 ) ) ;
#217 = DIRECTION ( 'NONE',  ( 1.000000000000000000, 0.000000000000000000, 0.000000000000000000 ) ) ;
#218 = DIRECTION ( 'NONE',  ( 0.000000000000000000, 0.000000000000000000, 1.000000000000000000 ) ) ;
#219 = CARTESIAN_POINT ( 'NONE',  ( 17.00000000000000000, -3.000000000000000000, 20.25000000000000000 ) ) ;
#220 = CARTESIAN_POINT ( 'NONE',  ( 0.000000000000000000, 8.750000000000000000, 9.999999999999998224 ) ) ;
#221 = DIRECTION ( 'NONE',  ( 0.000000000000000000, 0.000000000000000000, -1.000000000000000000 ) ) ;
#222 = AXIS2_PLACEMENT_3D ( 'NONE', #696, #700, #320 ) ;
#223 = EDGE_CURVE ( 'NONE', #49, #798, #300, .T. ) ;
#224 = DIRECTION ( 'NONE',  ( -1.000000000000000000, 0.000000000000000000, 0.000000000000000000 ) ) ;
#225 = ADVANCED_FACE ( 'NONE', ( #989 ), #6, .F. ) ;
#226 = DIRECTION ( 'NONE',  ( -0.000000000000000000, -0.000000000000000000, 1.000000000000000000 ) ) ;
#227 = DIRECTION ( 'NONE',  ( -0.000000000000000000, -0.000000000000000000, -1.000000000000000000 ) ) ;
#228 = DIRECTION ( 'NONE',  ( -1.156482317317871331E-15, -1.000000000000000000, -0.000000000000000000 ) ) ;
#229 = DIRECTION ( 'NONE',  ( 0.000000000000000000, 0.000000000000000000, -1.000000000000000000 ) ) ;
#230 = CARTESIAN_POINT ( 'NONE',  ( 21.99999999999999645, 0.000000000000000000, 18.50000000000000000 ) ) ;
#231 = CARTESIAN_POINT ( 'NONE',  ( 0.000000000000000000, 15.00000000000000000, 22.00000000000000000 ) ) ;
#232 = FACE_OUTER_BOUND ( 'NONE', #662, .T. ) ;
#233 = DIRECTION ( 'NONE',  ( 1.000000000000000000, -0.000000000000000000, -0.000000000000000000 ) ) ;
#234 = CARTESIAN_POINT ( 'NONE',  ( 0.000000000000000000, 10.00000000000000000, 0.7499999999999988898 ) ) ;
#235 = CARTESIAN_POINT ( 'NONE',  ( -3.000000000000000000, 12.00000000000000000, 2.999999999999999112 ) ) ;
#236 = EDGE_CURVE ( 'NONE', #501, #645, #674, .T. ) ;
#237 = CARTESIAN_POINT ( 'NONE',  ( 25.00000000000000000, 0.000000000000000000, 22.00000000000000000 ) ) ;
#238 = AXIS2_PLACEMENT_3D ( 'NONE', #732, #966, #728 ) ;
#239 = DIRECTION ( 'NONE',  ( 1.000000000000000000, 0.000000000000000000, 0.000000000000000000 ) ) ;
#240 = FACE_OUTER_BOUND ( 'NONE', #112, .T. ) ;
#241 = ORIENTED_EDGE ( 'NONE', *, *, #606, .F. ) ;
#242 = AXIS2_PLACEMENT_3D ( 'NONE', #385, #615, #699 ) ;
#243 = DIRECTION ( 'NONE',  ( 0.000000000000000000, -1.000000000000000000, 0.000000000000000000 ) ) ;
#244 = CYLINDRICAL_SURFACE ( 'NONE', #60, 3.000000000000000000 ) ;
#245 = DIRECTION ( 'NONE',  ( 8.095376221225101878E-15, 0.000000000000000000, 1.000000000000000000 ) ) ;
#246 = ORIENTED_EDGE ( 'NONE', *, *, #489, .F. ) ;
#247 = EDGE_CURVE ( 'NONE', #569, #5, #72, .T. ) ;
#248 = CARTESIAN_POINT ( 'NONE',  ( 0.000000000000000000, 2.750000000000000888, 9.999999999999998224 ) ) ;
#249 = DIRECTION ( 'NONE',  ( 1.000000000000000000, -0.000000000000000000, -0.000000000000000000 ) ) ;
#250 = AXIS2_PLACEMENT_3D ( 'NONE', #689, #298, #560 ) ;
#251 = EDGE_LOOP ( 'NONE', ( #794, #883, #869, #284 ) ) ;
#252 = DIRECTION ( 'NONE',  ( 0.000000000000000000, 0.000000000000000000, -1.000000000000000000 ) ) ;
#253 = EDGE_CURVE ( 'NONE', #798, #637, #599, .T. ) ;
#254 = EDGE_LOOP ( 'NONE', ( #503, #960, #576, #629 ) ) ;
#255 = ORIENTED_EDGE ( 'NONE', *, *, #399, .F. ) ;
#256 = EDGE_CURVE ( 'NONE', #474, #642, #926, .T. ) ;
#257 = CIRCLE ( 'NONE', #71, 1.249999999999999334 ) ;
#258 = CIRCLE ( 'NONE', #40, 1.249999999999999334 ) ;
#259 = LINE ( 'NONE', #176, #547 ) ;
#260 = VECTOR ( 'NONE', #943, 1000.000000000000000 ) ;
#261 = ORIENTED_EDGE ( 'NONE', *, *, #905, .T. ) ;
#262 = CARTESIAN_POINT ( 'NONE',  ( 17.00000000000000000, -3.000000000000000000, 16.74999999999999645 ) ) ;
#263 = ORIENTED_EDGE ( 'NONE', *, *, #711, .T. ) ;
#264 = ORIENTED_EDGE ( 'NONE', *, *, #730, .T. ) ;
#265 =( LENGTH_UNIT ( ) NAMED_UNIT ( * ) SI_UNIT ( .MILLI., .METRE. ) );
#266 = ORIENTED_EDGE ( 'NONE', *, *, #326, .F. ) ;
#267 = DIRECTION ( 'NONE',  ( 0.000000000000000000, 0.000000000000000000, -1.000000000000000000 ) ) ;
#268 = EDGE_LOOP ( 'NONE', ( #877, #941, #1010, #185 ) ) ;
#269 = ORIENTED_EDGE ( 'NONE', *, *, #923, .T. ) ;
#270 = VERTEX_POINT ( 'NONE', #451 ) ;
#271 = ADVANCED_FACE ( 'NONE', ( #756 ), #65, .F. ) ;
#272 = VERTEX_POINT ( 'NONE', #915 ) ;
#273 = DIRECTION ( 'NONE',  ( -0.000000000000000000, 1.000000000000000000, -0.000000000000000000 ) ) ;
#274 = VERTEX_POINT ( 'NONE', #533 ) ;
#275 = ORIENTED_EDGE ( 'NONE', *, *, #1013, .F. ) ;
#276 = FACE_OUTER_BOUND ( 'NONE', #936, .T. ) ;
#277 = VERTEX_POINT ( 'NONE', #420 ) ;
#278 = DIRECTION ( 'NONE',  ( -0.000000000000000000, -0.000000000000000000, -1.000000000000000000 ) ) ;
#279 = VERTEX_POINT ( 'NONE', #719 ) ;
#280 = ORIENTED_EDGE ( 'NONE', *, *, #184, .F. ) ;
#281 = ORIENTED_EDGE ( 'NONE', *, *, #709, .T. ) ;
#282 = EDGE_CURVE ( 'NONE', #121, #344, #787, .T. ) ;
#283 = ORIENTED_EDGE ( 'NONE', *, *, #13, .F. ) ;
#284 = ORIENTED_EDGE ( 'NONE', *, *, #247, .T. ) ;
#285 = EDGE_CURVE ( 'NONE', #498, #328, #113, .T. ) ;
#286 = LINE ( 'NONE', #216, #725 ) ;
#287 = VECTOR ( 'NONE', #273, 1000.000000000000000 ) ;
#288 = CIRCLE ( 'NONE', #130, 1.749999999999999778 ) ;
#289 = CARTESIAN_POINT ( 'NONE',  ( -3.000000000000000000, 5.249999999999999112, 9.999999999999998224 ) ) ;
#290 = LINE ( 'NONE', #522, #592 ) ;
#291 = AXIS2_PLACEMENT_3D ( 'NONE', #231, #134, #361 ) ;
#292 = DIRECTION ( 'NONE',  ( -1.000000000000000000, 0.000000000000000000, -0.000000000000000000 ) ) ;
#293 = CARTESIAN_POINT ( 'NONE',  ( -3.000000000000000000, 5.249999999999999112, 9.999999999999998224 ) ) ;
#294 = CARTESIAN_POINT ( 'NONE',  ( 22.00000000000000000, 0.000000000000000000, 3.499999999999999556 ) ) ;
#295 = ADVANCED_FACE ( 'NONE', ( #11 ), #191, .T. ) ;
#296 = ADVANCED_FACE ( 'NONE', ( #646 ), #955, .F. ) ;
#297 = DIRECTION ( 'NONE',  ( -0.000000000000000000, -1.000000000000000000, -0.000000000000000000 ) ) ;
#298 = DIRECTION ( 'NONE',  ( -0.000000000000000000, 1.000000000000000000, -0.000000000000000000 ) ) ;
#299 = UNCERTAINTY_MEASURE_WITH_UNIT (LENGTH_MEASURE( 1.000000000000000082E-05 ), #837, 'distance_accuracy_value', 'NONE');
#300 = CIRCLE ( 'NONE', #859, 1.249999999999999334 ) ;
#301 = CARTESIAN_POINT ( 'NONE',  ( -3.000000000000000000, -3.000000000000000000, 0.000000000000000000 ) ) ;
#302 = VECTOR ( 'NONE', #979, 1000.000000000000000 ) ;
#303 = DIRECTION ( 'NONE',  ( 0.000000000000000000, 1.000000000000000000, 0.000000000000000000 ) ) ;
#304 = VECTOR ( 'NONE', #698, 1000.000000000000000 ) ;
#305 = CARTESIAN_POINT ( 'NONE',  ( 21.99999999999999645, -3.000000000000000000, 18.50000000000000000 ) ) ;
#306 = LINE ( 'NONE', #538, #948 ) ;
#307 = CARTESIAN_POINT ( 'NONE',  ( 0.000000000000000000, 0.000000000000000000, 22.00000000000000000 ) ) ;
#308 = DIRECTION ( 'NONE',  ( -0.000000000000000000, -0.000000000000000000, -1.000000000000000000 ) ) ;
#309 = DIRECTION ( 'NONE',  ( -0.000000000000000000, -0.000000000000000000, 1.000000000000000000 ) ) ;
#310 = SURFACE_STYLE_FILL_AREA ( #921 ) ;
#311 = ADVANCED_FACE ( 'NONE', ( #186, #120, #800 ), #568, .F. ) ;
#312 = CYLINDRICAL_SURFACE ( 'NONE', #449, 1.750000000000001554 ) ;
#313 = CARTESIAN_POINT ( 'NONE',  ( -3.000000000000000000, 8.750000000000000000, 9.999999999999998224 ) ) ;
#314 = DIRECTION ( 'NONE',  ( 1.000000000000000000, -0.000000000000000000, -0.000000000000000000 ) ) ;
#315 = FACE_OUTER_BOUND ( 'NONE', #27, .T. ) ;
#316 = LINE ( 'NONE', #625, #434 ) ;
#317 = ORIENTED_EDGE ( 'NONE', *, *, #1001, .F. ) ;
#318 = DIRECTION ( 'NONE',  ( 0.000000000000000000, 0.000000000000000000, -1.000000000000000000 ) ) ;
#319 = EDGE_CURVE ( 'NONE', #721, #403, #502, .T. ) ;
#320 = DIRECTION ( 'NONE',  ( 0.000000000000000000, -0.000000000000000000, 1.000000000000000000 ) ) ;
#321 = EDGE_LOOP ( 'NONE', ( #507, #30, #209, #554 ) ) ;
#322 = AXIS2_PLACEMENT_3D ( 'NONE', #154, #783, #556 ) ;
#323 = CARTESIAN_POINT ( 'NONE',  ( 0.000000000000000000, 0.000000000000000000, 0.000000000000000000 ) ) ;
#324 = PRODUCT_DEFINITION_FORMATION_WITH_SPECIFIED_SOURCE ( 'ANY', '', #541, .NOT_KNOWN. ) ;
#325 = ORIENTED_EDGE ( 'NONE', *, *, #602, .T. ) ;
#326 = EDGE_CURVE ( 'NONE', #407, #173, #961, .T. ) ;
#327 = DIRECTION ( 'NONE',  ( -0.000000000000000000, 1.000000000000000000, -0.000000000000000000 ) ) ;
#328 = VERTEX_POINT ( 'NONE', #28 ) ;
#329 = EDGE_LOOP ( 'NONE', ( #701, #809, #351, #29 ) ) ;
#330 = DIRECTION ( 'NONE',  ( 0.000000000000000000, 1.000000000000000000, 0.000000000000000000 ) ) ;
#331 = CIRCLE ( 'NONE', #194, 3.000000000000000000 ) ;
#332 = ORIENTED_EDGE ( 'NONE', *, *, #785, .T. ) ;
#333 = CARTESIAN_POINT ( 'NONE',  ( 24.99999999999999645, -3.000000000000000000, 19.00000000000000000 ) ) ;
#334 = ORIENTED_EDGE ( 'NONE', *, *, #785, .F. ) ;
#335 = CARTESIAN_POINT ( 'NONE',  ( 17.00000000000000000, -3.000000000000000000, 5.249999999999999112 ) ) ;
#336 = AXIS2_PLACEMENT_3D ( 'NONE', #937, #73, #690 ) ;
#337 = CARTESIAN_POINT ( 'NONE',  ( 17.00000000000000000, -3.000000000000000000, 1.749999999999999556 ) ) ;
#338 = VERTEX_POINT ( 'NONE', #333 ) ;
#339 = DIRECTION ( 'NONE',  ( 0.000000000000000000, 0.000000000000000000, -1.000000000000000000 ) ) ;
#340 = ORIENTED_EDGE ( 'NONE', *, *, #83, .F. ) ;
#341 = ORIENTED_EDGE ( 'NONE', *, *, #83, .T. ) ;
#342 = DIRECTION ( 'NONE',  ( -0.000000000000000000, 1.000000000000000000, -0.000000000000000000 ) ) ;
#343 = EDGE_CURVE ( 'NONE', #272, #714, #640, .T. ) ;
#344 = VERTEX_POINT ( 'NONE', #345 ) ;
#345 = CARTESIAN_POINT ( 'NONE',  ( 17.00000000000000000, -3.000000000000000000, 16.74999999999999645 ) ) ;
#346 = ORIENTED_EDGE ( 'NONE', *, *, #584, .T. ) ;
#347 = ORIENTED_EDGE ( 'NONE', *, *, #602, .F. ) ;
#348 = DIRECTION ( 'NONE',  ( 0.000000000000000000, 0.000000000000000000, 1.000000000000000000 ) ) ;
#349 = ORIENTED_EDGE ( 'NONE', *, *, #444, .F. ) ;
#350 = DIRECTION ( 'NONE',  ( -1.000000000000000000, 1.156482317317871725E-15, 0.000000000000000000 ) ) ;
#351 = ORIENTED_EDGE ( 'NONE', *, *, #905, .F. ) ;
#352 = AXIS2_PLACEMENT_3D ( 'NONE', #924, #464, #81 ) ;
#353 = EDGE_LOOP ( 'NONE', ( #198, #192, #101, #266 ) ) ;
#354 = EDGE_CURVE ( 'NONE', #645, #196, #415, .T. ) ;
#355 = VERTEX_POINT ( 'NONE', #197 ) ;
#356 = CARTESIAN_POINT ( 'NONE',  ( 0.000000000000000000, 0.000000000000000000, 6.999999999999999112 ) ) ;
#357 = VERTEX_POINT ( 'NONE', #491 ) ;
#358 = ADVANCED_FACE ( 'NONE', ( #572 ), #792, .F. ) ;
#359 = ORIENTED_EDGE ( 'NONE', *, *, #829, .F. ) ;
#360 = EDGE_CURVE ( 'NONE', #735, #474, #111, .T. ) ;
#361 = DIRECTION ( 'NONE',  ( 0.000000000000000000, -0.000000000000000000, -1.000000000000000000 ) ) ;
#362 = ORIENTED_EDGE ( 'NONE', *, *, #462, .T. ) ;
#363 = DIRECTION ( 'NONE',  ( 1.000000000000000000, 0.000000000000000000, 0.000000000000000000 ) ) ;
#364 = CARTESIAN_POINT ( 'NONE',  ( -3.000000000000000000, 15.00000000000000000, 22.00000000000000000 ) ) ;
#365 = CIRCLE ( 'NONE', #526, 2.999999999999999112 ) ;
#366 = AXIS2_PLACEMENT_3D ( 'NONE', #695, #90, #1008 ) ;
#367 = LINE ( 'NONE', #446, #818 ) ;
#368 = LINE ( 'NONE', #376, #591 ) ;
#369 = CARTESIAN_POINT ( 'NONE',  ( -3.000000000000000000, 4.000000000000000000, 9.999999999999998224 ) ) ;
#370 = ADVANCED_FACE ( 'NONE', ( #162, #934, #232 ), #852, .F. ) ;
#371 = CIRCLE ( 'NONE', #933, 1.750000000000001554 ) ;
#372 = FACE_BOUND ( 'NONE', #881, .T. ) ;
#373 = LINE ( 'NONE', #152, #991 ) ;
#374 = DIRECTION ( 'NONE',  ( 0.000000000000000000, -0.000000000000000000, 1.000000000000000000 ) ) ;
#375 = DIRECTION ( 'NONE',  ( 1.000000000000000000, -0.000000000000000000, -0.000000000000000000 ) ) ;
#376 = CARTESIAN_POINT ( 'NONE',  ( -3.000000000000000000, 11.25000000000000000, 9.999999999999998224 ) ) ;
#377 = AXIS2_PLACEMENT_3D ( 'NONE', #392, #95, #775 ) ;
#378 = DIRECTION ( 'NONE',  ( 1.000000000000000000, 0.000000000000000000, 0.000000000000000000 ) ) ;
#379 = CIRCLE ( 'NONE', #559, 3.000000000000000000 ) ;
#380 = CIRCLE ( 'NONE', #947, 1.249999999999999334 ) ;
#381 = CARTESIAN_POINT ( 'NONE',  ( 25.00000000000000000, 0.000000000000000000, 2.999999999999999112 ) ) ;
#382 = EDGE_CURVE ( 'NONE', #338, #407, #365, .T. ) ;
#383 = DIRECTION ( 'NONE',  ( 1.000000000000000000, 0.000000000000000000, 0.000000000000000000 ) ) ;
#384 = CARTESIAN_POINT ( 'NONE',  ( 17.00000000000000000, 0.000000000000000000, 1.749999999999999556 ) ) ;
#385 = CARTESIAN_POINT ( 'NONE',  ( -3.000000000000000000, 0.000000000000000000, 6.999999999999999112 ) ) ;
#386 = EDGE_CURVE ( 'NONE', #45, #516, #561, .T. ) ;
#387 = DIRECTION ( 'NONE',  ( -1.000000000000000000, 0.000000000000000000, 0.000000000000000000 ) ) ;
#388 = LINE ( 'NONE', #842, #762 ) ;
#389 = SURFACE_STYLE_USAGE ( .BOTH. , #174 ) ;
#390 = CYLINDRICAL_SURFACE ( 'NONE', #366, 2.999999999999999112 ) ;
#391 = DIRECTION ( 'NONE',  ( 1.000000000000000000, 0.000000000000000000, 0.000000000000000000 ) ) ;
#392 = CARTESIAN_POINT ( 'NONE',  ( -3.000000000000000000, 4.000000000000000000, 1.999999999999998224 ) ) ;
#393 = CARTESIAN_POINT ( 'NONE',  ( 17.00000000000000000, 0.000000000000000000, 18.50000000000000000 ) ) ;
#394 = DIRECTION ( 'NONE',  ( -1.156482317317871331E-15, -1.000000000000000000, 0.000000000000000000 ) ) ;
#395 = AXIS2_PLACEMENT_3D ( 'NONE', #86, #167, #472 ) ;
#396 = VERTEX_POINT ( 'NONE', #929 ) ;
#397 =( NAMED_UNIT ( * ) PLANE_ANGLE_UNIT ( ) SI_UNIT ( $, .RADIAN. ) );
#398 = CARTESIAN_POINT ( 'NONE',  ( 0.000000000000000000, 12.00000000000000000, 0.000000000000000000 ) ) ;
#399 = EDGE_CURVE ( 'NONE', #739, #121, #778, .T. ) ;
#400 = ORIENTED_EDGE ( 'NONE', *, *, #319, .T. ) ;
#401 = CARTESIAN_POINT ( 'NONE',  ( -3.000000000000000000, -3.000000000000000000, 22.00000000000000000 ) ) ;
#402 = ORIENTED_EDGE ( 'NONE', *, *, #429, .T. ) ;
#403 = VERTEX_POINT ( 'NONE', #544 ) ;
#404 = DIRECTION ( 'NONE',  ( 1.000000000000000000, 0.000000000000000000, 0.000000000000000000 ) ) ;
#405 = ORIENTED_EDGE ( 'NONE', *, *, #594, .T. ) ;
#406 = DIRECTION ( 'NONE',  ( 1.000000000000000000, 0.000000000000000000, 0.000000000000000000 ) ) ;
#407 = VERTEX_POINT ( 'NONE', #1006 ) ;
#408 = ORIENTED_EDGE ( 'NONE', *, *, #444, .T. ) ;
#409 = CYLINDRICAL_SURFACE ( 'NONE', #796, 15.00000000000000000 ) ;
#410 = VECTOR ( 'NONE', #952, 1000.000000000000000 ) ;
#411 = ORIENTED_EDGE ( 'NONE', *, *, #606, .T. ) ;
#412 = CARTESIAN_POINT ( 'NONE',  ( 22.00000000000000355, -2.544261098099317282E-14, 19.00000000000000000 ) ) ;
#413 = ORIENTED_EDGE ( 'NONE', *, *, #529, .F. ) ;
#414 = EDGE_CURVE ( 'NONE', #550, #274, #479, .T. ) ;
#415 = CIRCLE ( 'NONE', #797, 1.249999999999999334 ) ;
#416 = ORIENTED_EDGE ( 'NONE', *, *, #386, .T. ) ;
#417 = VECTOR ( 'NONE', #746, 1000.000000000000000 ) ;
#418 = LINE ( 'NONE', #663, #56 ) ;
#419 = ORIENTED_EDGE ( 'NONE', *, *, #136, .F. ) ;
#420 = CARTESIAN_POINT ( 'NONE',  ( 22.00000000000000000, -3.000000000000000000, 5.249999999999997335 ) ) ;
#421 = ORIENTED_EDGE ( 'NONE', *, *, #594, .F. ) ;
#422 = ORIENTED_EDGE ( 'NONE', *, *, #236, .F. ) ;
#423 = AXIS2_PLACEMENT_3D ( 'NONE', #235, #838, #318 ) ;
#424 = DIRECTION ( 'NONE',  ( 1.000000000000000000, -0.000000000000000000, -0.000000000000000000 ) ) ;
#425 = ORIENTED_EDGE ( 'NONE', *, *, #532, .T. ) ;
#426 = DIRECTION ( 'NONE',  ( 1.000000000000000000, -0.000000000000000000, -0.000000000000000000 ) ) ;
#427 = EDGE_LOOP ( 'NONE', ( #283, #970, #132, #435, #408, #733 ) ) ;
#428 = FACE_OUTER_BOUND ( 'NONE', #33, .T. ) ;
#429 = EDGE_CURVE ( 'NONE', #196, #626, #536, .T. ) ;
#430 = VERTEX_POINT ( 'NONE', #469 ) ;
#431 =( GEOMETRIC_REPRESENTATION_CONTEXT ( 3 ) GLOBAL_UNCERTAINTY_ASSIGNED_CONTEXT ( ( #299 ) ) GLOBAL_UNIT_ASSIGNED_CONTEXT ( ( #837, #397, #627 ) ) REPRESENTATION_CONTEXT ( 'NONE', 'WORKASPACE' ) );
#432 = VERTEX_POINT ( 'NONE', #840 ) ;
#433 = DIRECTION ( 'NONE',  ( 0.000000000000000000, 0.000000000000000000, 1.000000000000000000 ) ) ;
#434 = VECTOR ( 'NONE', #857, 1000.000000000000000 ) ;
#435 = ORIENTED_EDGE ( 'NONE', *, *, #694, .F. ) ;
#436 = EDGE_CURVE ( 'NONE', #5, #355, #965, .T. ) ;
#437 = ORIENTED_EDGE ( 'NONE', *, *, #967, .T. ) ;
#438 = LINE ( 'NONE', #742, #752 ) ;
#439 = ORIENTED_EDGE ( 'NONE', *, *, #399, .T. ) ;
#440 = DIRECTION ( 'NONE',  ( 1.000000000000000000, 0.000000000000000000, 0.000000000000000000 ) ) ;
#441 = PRODUCT_CONTEXT ( 'NONE', #888, 'mechanical' ) ;
#442 = PLANE ( 'NONE',  #158 ) ;
#443 = LINE ( 'NONE', #517, #175 ) ;
#444 = EDGE_CURVE ( 'NONE', #23, #878, #765, .T. ) ;
#445 = DIRECTION ( 'NONE',  ( 1.000000000000000000, -0.000000000000000000, -0.000000000000000000 ) ) ;
#446 = CARTESIAN_POINT ( 'NONE',  ( -3.000000000000000000, 15.00000000000000000, 2.999999999999999112 ) ) ;
#447 = DIRECTION ( 'NONE',  ( -0.000000000000000000, 1.000000000000000000, -0.000000000000000000 ) ) ;
#448 = FACE_OUTER_BOUND ( 'NONE', #94, .T. ) ;
#449 = AXIS2_PLACEMENT_3D ( 'NONE', #922, #170, #540 ) ;
#450 = DIRECTION ( 'NONE',  ( -1.000000000000000000, -0.000000000000000000, -0.000000000000000000 ) ) ;
#451 = CARTESIAN_POINT ( 'NONE',  ( 21.99999999999999645, 0.000000000000000000, 16.74999999999999645 ) ) ;
#452 = DIRECTION ( 'NONE',  ( -0.000000000000000000, -0.000000000000000000, -1.000000000000000000 ) ) ;
#453 = ADVANCED_FACE ( 'NONE', ( #1 ), #621, .F. ) ;
#454 = CARTESIAN_POINT ( 'NONE',  ( -3.000000000000000000, 11.25000000000000000, 1.999999999999998224 ) ) ;
#455 = DIRECTION ( 'NONE',  ( 0.000000000000000000, 0.000000000000000000, 1.000000000000000000 ) ) ;
#456 = DIRECTION ( 'NONE',  ( 0.000000000000000000, 1.000000000000000000, 0.000000000000000000 ) ) ;
#457 = AXIS2_PLACEMENT_3D ( 'NONE', #356, #734, #183 ) ;
#458 = FACE_OUTER_BOUND ( 'NONE', #720, .T. ) ;
#459 = ADVANCED_FACE ( 'NONE', ( #240 ), #548, .F. ) ;
#460 = AXIS2_PLACEMENT_3D ( 'NONE', #577, #726, #339 ) ;
#461 = VECTOR ( 'NONE', #309, 1000.000000000000000 ) ;
#462 = EDGE_CURVE ( 'NONE', #328, #42, #770, .T. ) ;
#463 = CIRCLE ( 'NONE', #18, 1.749999999999999778 ) ;
#464 = DIRECTION ( 'NONE',  ( 1.000000000000000000, 0.000000000000000000, 0.000000000000000000 ) ) ;
#465 = DIRECTION ( 'NONE',  ( -0.000000000000000000, -0.000000000000000000, -1.000000000000000000 ) ) ;
#466 = CARTESIAN_POINT ( 'NONE',  ( -3.000000000000000000, 10.00000000000000000, 1.999999999999998224 ) ) ;
#467 = DIRECTION ( 'NONE',  ( -1.000000000000000000, 0.000000000000000000, -0.000000000000000000 ) ) ;
#468 = AXIS2_PLACEMENT_3D ( 'NONE', #691, #330, #772 ) ;
#469 = CARTESIAN_POINT ( 'NONE',  ( 17.00000000000000000, -3.000000000000000000, 1.749999999999999556 ) ) ;
#470 = FACE_OUTER_BOUND ( 'NONE', #203, .T. ) ;
#471 = DIRECTION ( 'NONE',  ( 0.000000000000000000, -1.000000000000000000, -0.000000000000000000 ) ) ;
#472 = DIRECTION ( 'NONE',  ( 0.000000000000000000, 0.000000000000000000, 1.000000000000000000 ) ) ;
#473 = EDGE_CURVE ( 'NONE', #806, #820, #316, .T. ) ;
#474 = VERTEX_POINT ( 'NONE', #758 ) ;
#475 = DIRECTION ( 'NONE',  ( 0.000000000000000000, 0.000000000000000000, -1.000000000000000000 ) ) ;
#476 = EDGE_CURVE ( 'NONE', #956, #817, #258, .T. ) ;
#477 = LINE ( 'NONE', #776, #202 ) ;
#478 = ORIENTED_EDGE ( 'NONE', *, *, #208, .T. ) ;
#479 = LINE ( 'NONE', #401, #910 ) ;
#480 = AXIS2_PLACEMENT_3D ( 'NONE', #215, #303, #607 ) ;
#481 = ORIENTED_EDGE ( 'NONE', *, *, #319, .F. ) ;
#482 = AXIS2_PLACEMENT_3D ( 'NONE', #1003, #243, #702 ) ;
#483 = PLANE ( 'NONE',  #25 ) ;
#484 = VERTEX_POINT ( 'NONE', #744 ) ;
#485 = DIRECTION ( 'NONE',  ( 1.000000000000000000, 0.000000000000000000, 0.000000000000000000 ) ) ;
#486 = EDGE_LOOP ( 'NONE', ( #511, #125, #880, #866 ) ) ;
#487 = ORIENTED_EDGE ( 'NONE', *, *, #704, .F. ) ;
#488 = CARTESIAN_POINT ( 'NONE',  ( -3.000000000000000000, 8.750000000000000000, 9.999999999999998224 ) ) ;
#489 = EDGE_CURVE ( 'NONE', #274, #727, #835, .T. ) ;
#490 = ORIENTED_EDGE ( 'NONE', *, *, #1014, .F. ) ;
#491 = CARTESIAN_POINT ( 'NONE',  ( -3.000000000000000000, 15.00000000000000000, 2.999999999999999112 ) ) ;
#492 = ORIENTED_EDGE ( 'NONE', *, *, #51, .T. ) ;
#493 = VERTEX_POINT ( 'NONE', #381 ) ;
#494 = FACE_OUTER_BOUND ( 'NONE', #321, .T. ) ;
#495 = ORIENTED_EDGE ( 'NONE', *, *, #144, .T. ) ;
#496 = DIRECTION ( 'NONE',  ( 1.156482317317871331E-15, 1.000000000000000000, 0.000000000000000000 ) ) ;
#497 = ORIENTED_EDGE ( 'NONE', *, *, #827, .F. ) ;
#498 = VERTEX_POINT ( 'NONE', #50 ) ;
#499 = VECTOR ( 'NONE', #938, 1000.000000000000000 ) ;
#500 = ORIENTED_EDGE ( 'NONE', *, *, #993, .F. ) ;
#501 = VERTEX_POINT ( 'NONE', #454 ) ;
#502 = LINE ( 'NONE', #712, #210 ) ;
#503 = ORIENTED_EDGE ( 'NONE', *, *, #681, .T. ) ;
#504 = EDGE_CURVE ( 'NONE', #206, #338, #677, .T. ) ;
#505 = CARTESIAN_POINT ( 'NONE',  ( -3.000000000000000000, 4.000000000000000000, 0.7499999999999988898 ) ) ;
#506 = EDGE_LOOP ( 'NONE', ( #38, #188, #664, #713, #788 ) ) ;
#507 = ORIENTED_EDGE ( 'NONE', *, *, #917, .F. ) ;
#508 = EDGE_CURVE ( 'NONE', #484, #569, #670, .T. ) ;
#509 = DIRECTION ( 'NONE',  ( 0.000000000000000000, 0.000000000000000000, -1.000000000000000000 ) ) ;
#510 = ADVANCED_FACE ( 'NONE', ( #523, #372, #69 ), #899, .F. ) ;
#511 = ORIENTED_EDGE ( 'NONE', *, *, #150, .T. ) ;
#512 = PRODUCT_DEFINITION_CONTEXT ( 'detailed design', #93, 'design' ) ;
#513 = AXIS2_PLACEMENT_3D ( 'NONE', #911, #767, #148 ) ;
#514 = EDGE_LOOP ( 'NONE', ( #362, #204, #581, #622 ) ) ;
#515 = VECTOR ( 'NONE', #693, 1000.000000000000000 ) ;
#516 = VERTEX_POINT ( 'NONE', #140 ) ;
#517 = CARTESIAN_POINT ( 'NONE',  ( 17.00000000000000000, 0.000000000000000000, 16.74999999999999645 ) ) ;
#518 = APPLICATION_PROTOCOL_DEFINITION ( 'draft international standard', 'automotive_design', 1998, #93 ) ;
#519 = CARTESIAN_POINT ( 'NONE',  ( -3.000000000000000000, 10.00000000000000000, 1.999999999999998224 ) ) ;
#520 = ADVANCED_FACE ( 'NONE', ( #682 ), #988, .T. ) ;
#521 = CARTESIAN_POINT ( 'NONE',  ( 0.000000000000000000, 0.000000000000000000, 0.000000000000000000 ) ) ;
#522 = CARTESIAN_POINT ( 'NONE',  ( -3.000000000000000000, 8.750000000000000000, 1.999999999999998224 ) ) ;
#523 = FACE_BOUND ( 'NONE', #578, .T. ) ;
#524 = CARTESIAN_POINT ( 'NONE',  ( -3.000000000000000000, 8.750000000000000000, 9.999999999999998224 ) ) ;
#525 = CARTESIAN_POINT ( 'NONE',  ( 22.00000000000000000, -3.000000000000000000, 3.499999999999999556 ) ) ;
#526 = AXIS2_PLACEMENT_3D ( 'NONE', #172, #692, #245 ) ;
#527 = LINE ( 'NONE', #832, #718 ) ;
#528 = DIRECTION ( 'NONE',  ( 1.000000000000000000, 0.000000000000000000, 0.000000000000000000 ) ) ;
#529 = EDGE_CURVE ( 'NONE', #270, #573, #443, .T. ) ;
#530 = CARTESIAN_POINT ( 'NONE',  ( -3.000000000000000000, -3.000000000000000000, 0.000000000000000000 ) ) ;
#531 = CARTESIAN_POINT ( 'NONE',  ( -3.000000000000000000, 4.000000000000000000, 1.999999999999998224 ) ) ;
#532 = EDGE_CURVE ( 'NONE', #975, #493, #825, .T. ) ;
#533 = CARTESIAN_POINT ( 'NONE',  ( -3.000000000000000000, -3.000000000000000000, 22.00000000000000000 ) ) ;
#534 = CARTESIAN_POINT ( 'NONE',  ( 21.99999999999999645, -3.000000000000000000, 20.25000000000000000 ) ) ;
#535 = EDGE_CURVE ( 'NONE', #569, #98, #380, .T. ) ;
#536 = LINE ( 'NONE', #313, #687 ) ;
#537 = DIRECTION ( 'NONE',  ( 1.000000000000000000, 0.000000000000000000, 0.000000000000000000 ) ) ;
#538 = CARTESIAN_POINT ( 'NONE',  ( 17.00000000000000000, -3.000000000000000000, 20.25000000000000000 ) ) ;
#539 = AXIS2_PLACEMENT_3D ( 'NONE', #790, #580, #201 ) ;
#540 = DIRECTION ( 'NONE',  ( 0.000000000000000000, 0.000000000000000000, 1.000000000000000000 ) ) ;
#541 = PRODUCT ( 'limitlebrackettop', 'limitlebrackettop', '', ( #441 ) ) ;
#542 = VECTOR ( 'NONE', #406, 1000.000000000000000 ) ;
#543 = VECTOR ( 'NONE', #224, 1000.000000000000000 ) ;
#544 = CARTESIAN_POINT ( 'NONE',  ( 0.000000000000000000, 15.00000000000000000, 2.999999999999999112 ) ) ;
#545 = PLANE ( 'NONE',  #482 ) ;
#546 = CARTESIAN_POINT ( 'NONE',  ( 25.00000000000000000, 0.000000000000000000, 22.00000000000000000 ) ) ;
#547 = VECTOR ( 'NONE', #249, 1000.000000000000000 ) ;
#548 = PLANE ( 'NONE',  #222 ) ;
#549 = EDGE_CURVE ( 'NONE', #588, #739, #137, .T. ) ;
#550 = VERTEX_POINT ( 'NONE', #909 ) ;
#551 = CARTESIAN_POINT ( 'NONE',  ( 22.00000000000000355, 0.000000000000000000, 2.999999999999999112 ) ) ;
#552 = CARTESIAN_POINT ( 'NONE',  ( 0.000000000000000000, 8.750000000000000000, 9.999999999999998224 ) ) ;
#553 = CARTESIAN_POINT ( 'NONE',  ( 0.000000000000000000, 12.00000000000000000, 0.000000000000000000 ) ) ;
#554 = ORIENTED_EDGE ( 'NONE', *, *, #566, .F. ) ;
#555 = CARTESIAN_POINT ( 'NONE',  ( 21.99999999999999645, -3.000000000000000000, 16.74999999999999645 ) ) ;
#556 = DIRECTION ( 'NONE',  ( 0.000000000000000000, 0.000000000000000000, 1.000000000000000000 ) ) ;
#557 = AXIS2_PLACEMENT_3D ( 'NONE', #305, #447, #455 ) ;
#558 = EDGE_LOOP ( 'NONE', ( #400, #405, #44, #492 ) ) ;
#559 = AXIS2_PLACEMENT_3D ( 'NONE', #59, #297, #601 ) ;
#560 = DIRECTION ( 'NONE',  ( 0.000000000000000000, 0.000000000000000000, -1.000000000000000000 ) ) ;
#561 = CIRCLE ( 'NONE', #737, 1.249999999999999334 ) ;
#562 = ORIENTED_EDGE ( 'NONE', *, *, #730, .F. ) ;
#563 = VECTOR ( 'NONE', #707, 1000.000000000000000 ) ;
#564 = ORIENTED_EDGE ( 'NONE', *, *, #414, .F. ) ;
#565 = CARTESIAN_POINT ( 'NONE',  ( -3.000000000000000000, 15.00000000000000000, 6.999999999999999112 ) ) ;
#566 = EDGE_CURVE ( 'NONE', #891, #550, #55, .T. ) ;
#567 = ORIENTED_EDGE ( 'NONE', *, *, #124, .F. ) ;
#568 = PLANE ( 'NONE',  #460 ) ;
#569 = VERTEX_POINT ( 'NONE', #289 ) ;
#570 = ORIENTED_EDGE ( 'NONE', *, *, #1013, .T. ) ;
#571 = ORIENTED_EDGE ( 'NONE', *, *, #147, .T. ) ;
#572 = FACE_OUTER_BOUND ( 'NONE', #193, .T. ) ;
#573 = VERTEX_POINT ( 'NONE', #828 ) ;
#574 = ORIENTED_EDGE ( 'NONE', *, *, #632, .T. ) ;
#575 = EDGE_LOOP ( 'NONE', ( #190, #653, #803, #91, #939 ) ) ;
#576 = ORIENTED_EDGE ( 'NONE', *, *, #619, .F. ) ;
#577 = CARTESIAN_POINT ( 'NONE',  ( -3.000000000000000000, -3.000000000000000000, 22.00000000000000000 ) ) ;
#578 = EDGE_LOOP ( 'NONE', ( #706, #332, #261, #959 ) ) ;
#579 = CARTESIAN_POINT ( 'NONE',  ( 0.000000000000000000, 5.249999999999999112, 9.999999999999998224 ) ) ;
#580 = DIRECTION ( 'NONE',  ( 0.000000000000000000, -1.000000000000000000, -0.000000000000000000 ) ) ;
#581 = ORIENTED_EDGE ( 'NONE', *, *, #889, .F. ) ;
#582 = CARTESIAN_POINT ( 'NONE',  ( 17.00000000000000000, -3.000000000000000000, 16.74999999999999645 ) ) ;
#583 = ORIENTED_EDGE ( 'NONE', *, *, #253, .F. ) ;
#584 = EDGE_CURVE ( 'NONE', #727, #820, #902, .T. ) ;
#585 = LINE ( 'NONE', #644, #410 ) ;
#586 = EDGE_LOOP ( 'NONE', ( #951, #872, #126, #246, #564, #791 ) ) ;
#587 = ORIENTED_EDGE ( 'NONE', *, *, #529, .T. ) ;
#588 = VERTEX_POINT ( 'NONE', #142 ) ;
#589 = ORIENTED_EDGE ( 'NONE', *, *, #532, .F. ) ;
#590 = AXIS2_PLACEMENT_3D ( 'NONE', #603, #537, #833 ) ;
#591 = VECTOR ( 'NONE', #143, 1000.000000000000000 ) ;
#592 = VECTOR ( 'NONE', #826, 1000.000000000000000 ) ;
#593 = DIRECTION ( 'NONE',  ( 0.000000000000000000, 1.000000000000000000, 0.000000000000000000 ) ) ;
#594 = EDGE_CURVE ( 'NONE', #403, #357, #367, .T. ) ;
#595 = CARTESIAN_POINT ( 'NONE',  ( -3.000000000000000000, -3.000000000000000000, 0.000000000000000000 ) ) ;
#596 = AXIS2_PLACEMENT_3D ( 'NONE', #679, #824, #221 ) ;
#597 = CARTESIAN_POINT ( 'NONE',  ( -3.000000000000000000, 4.000000000000000000, 1.999999999999998224 ) ) ;
#598 = DIRECTION ( 'NONE',  ( 0.000000000000000000, 0.000000000000000000, -1.000000000000000000 ) ) ;
#599 = LINE ( 'NONE', #220, #70 ) ;
#600 = DIRECTION ( 'NONE',  ( 0.000000000000000000, 0.000000000000000000, 1.000000000000000000 ) ) ;
#601 = DIRECTION ( 'NONE',  ( 0.000000000000000000, 0.000000000000000000, 1.000000000000000000 ) ) ;
#602 = EDGE_CURVE ( 'NONE', #820, #975, #379, .T. ) ;
#603 = CARTESIAN_POINT ( 'NONE',  ( 0.000000000000000000, 4.000000000000000000, 1.999999999999998224 ) ) ;
#604 = CARTESIAN_POINT ( 'NONE',  ( 0.000000000000000000, 15.00000000000000000, 6.999999999999999112 ) ) ;
#605 = VECTOR ( 'NONE', #308, 1000.000000000000000 ) ;
#606 = EDGE_CURVE ( 'NONE', #173, #891, #527, .T. ) ;
#607 = DIRECTION ( 'NONE',  ( 0.000000000000000000, -0.000000000000000000, 1.000000000000000000 ) ) ;
#608 = EDGE_CURVE ( 'NONE', #98, #355, #755, .T. ) ;
#609 = DIRECTION ( 'NONE',  ( 1.000000000000000000, -0.000000000000000000, -0.000000000000000000 ) ) ;
#610 = LINE ( 'NONE', #3, #515 ) ;
#611 = FACE_OUTER_BOUND ( 'NONE', #558, .T. ) ;
#612 = CARTESIAN_POINT ( 'NONE',  ( 0.000000000000000000, 0.000000000000000000, 22.00000000000000000 ) ) ;
#613 = CARTESIAN_POINT ( 'NONE',  ( 22.00000000000000355, 0.000000000000000000, 22.00000000000000000 ) ) ;
#614 = CARTESIAN_POINT ( 'NONE',  ( 0.000000000000000000, 11.25000000000000000, 9.999999999999998224 ) ) ;
#615 = DIRECTION ( 'NONE',  ( -1.000000000000000000, -0.000000000000000000, -0.000000000000000000 ) ) ;
#616 = DIRECTION ( 'NONE',  ( 1.000000000000000000, -0.000000000000000000, -0.000000000000000000 ) ) ;
#617 = DIRECTION ( 'NONE',  ( 0.000000000000000000, 0.000000000000000000, 1.000000000000000000 ) ) ;
#618 = DIRECTION ( 'NONE',  ( 0.000000000000000000, 0.000000000000000000, -1.000000000000000000 ) ) ;
#619 = EDGE_CURVE ( 'NONE', #277, #498, #288, .T. ) ;
#620 = CIRCLE ( 'NONE', #457, 15.00000000000000000 ) ;
#621 = PLANE ( 'NONE',  #995 ) ;
#622 = ORIENTED_EDGE ( 'NONE', *, *, #285, .T. ) ;
#623 = CARTESIAN_POINT ( 'NONE',  ( -3.000000000000000000, 4.000000000000000000, 0.7499999999999988898 ) ) ;
#624 = VECTOR ( 'NONE', #628, 1000.000000000000000 ) ;
#625 = CARTESIAN_POINT ( 'NONE',  ( 22.00000000000000000, -2.999999999999996447, 0.000000000000000000 ) ) ;
#626 = VERTEX_POINT ( 'NONE', #48 ) ;
#627 =( NAMED_UNIT ( * ) SI_UNIT ( $, .STERADIAN. ) SOLID_ANGLE_UNIT ( ) );
#628 = DIRECTION ( 'NONE',  ( -0.000000000000000000, -0.000000000000000000, -1.000000000000000000 ) ) ;
#629 = ORIENTED_EDGE ( 'NONE', *, *, #861, .T. ) ;
#630 = LINE ( 'NONE', #57, #461 ) ;
#631 = ORIENTED_EDGE ( 'NONE', *, *, #754, .T. ) ;
#632 = EDGE_CURVE ( 'NONE', #626, #637, #290, .T. ) ;
#633 = CARTESIAN_POINT ( 'NONE',  ( -3.000000000000000000, 11.25000000000000000, 1.999999999999998224 ) ) ;
#634 = DIRECTION ( 'NONE',  ( 0.000000000000000000, 0.000000000000000000, -1.000000000000000000 ) ) ;
#635 = CIRCLE ( 'NONE', #717, 1.249999999999999334 ) ;
#636 = AXIS2_PLACEMENT_3D ( 'NONE', #159, #609, #229 ) ;
#637 = VERTEX_POINT ( 'NONE', #831 ) ;
#638 = CIRCLE ( 'NONE', #250, 2.999999999999999112 ) ;
#639 = CIRCLE ( 'NONE', #596, 1.249999999999999334 ) ;
#640 = LINE ( 'NONE', #949, #542 ) ;
#641 = ORIENTED_EDGE ( 'NONE', *, *, #163, .F. ) ;
#642 = VERTEX_POINT ( 'NONE', #145 ) ;
#643 = ADVANCED_FACE ( 'NONE', ( #448 ), #149, .F. ) ;
#644 = CARTESIAN_POINT ( 'NONE',  ( -3.000000000000000000, 10.00000000000000000, 0.7499999999999988898 ) ) ;
#645 = VERTEX_POINT ( 'NONE', #999 ) ;
#646 = FACE_OUTER_BOUND ( 'NONE', #974, .T. ) ;
#647 = ORIENTED_EDGE ( 'NONE', *, *, #814, .F. ) ;
#648 = ORIENTED_EDGE ( 'NONE', *, *, #429, .F. ) ;
#649 = PLANE ( 'NONE',  #109 ) ;
#650 = ORIENTED_EDGE ( 'NONE', *, *, #13, .T. ) ;
#651 = DIRECTION ( 'NONE',  ( 1.000000000000000000, 0.000000000000000000, 0.000000000000000000 ) ) ;
#652 = ORIENTED_EDGE ( 'NONE', *, *, #253, .T. ) ;
#653 = ORIENTED_EDGE ( 'NONE', *, *, #436, .F. ) ;
#654 =( NAMED_UNIT ( * ) PLANE_ANGLE_UNIT ( ) SI_UNIT ( $, .RADIAN. ) );
#655 = ORIENTED_EDGE ( 'NONE', *, *, #754, .F. ) ;
#656 = EDGE_CURVE ( 'NONE', #930, #357, #904, .T. ) ;
#657 = DIRECTION ( 'NONE',  ( 0.000000000000000000, 0.000000000000000000, -1.000000000000000000 ) ) ;
#658 = ORIENTED_EDGE ( 'NONE', *, *, #236, .T. ) ;
#659 = VECTOR ( 'NONE', #151, 1000.000000000000000 ) ;
#660 = LINE ( 'NONE', #189, #841 ) ;
#661 = ORIENTED_EDGE ( 'NONE', *, *, #821, .T. ) ;
#662 = EDGE_LOOP ( 'NONE', ( #894, #437, #481, #801, #264 ) ) ;
#663 = CARTESIAN_POINT ( 'NONE',  ( 17.00000000000000000, -3.000000000000000000, 5.249999999999999112 ) ) ;
#664 = ORIENTED_EDGE ( 'NONE', *, *, #745, .T. ) ;
#665 = ORIENTED_EDGE ( 'NONE', *, *, #63, .F. ) ;
#666 = ADVANCED_FACE ( 'NONE', ( #753 ), #141, .F. ) ;
#667 = DIRECTION ( 'NONE',  ( 0.000000000000000000, 0.000000000000000000, -1.000000000000000000 ) ) ;
#668 = ORIENTED_EDGE ( 'NONE', *, *, #608, .T. ) ;
#669 = VECTOR ( 'NONE', #342, 1000.000000000000000 ) ;
#670 = LINE ( 'NONE', #688, #659 ) ;
#671 = AXIS2_PLACEMENT_3D ( 'NONE', #876, #426, #657 ) ;
#672 = DIRECTION ( 'NONE',  ( 1.000000000000000000, -0.000000000000000000, -0.000000000000000000 ) ) ;
#673 = DIRECTION ( 'NONE',  ( 0.000000000000000000, 0.000000000000000000, -1.000000000000000000 ) ) ;
#674 = LINE ( 'NONE', #61, #945 ) ;
#675 = DIRECTION ( 'NONE',  ( -0.000000000000000000, 1.000000000000000000, -0.000000000000000000 ) ) ;
#676 = EDGE_CURVE ( 'NONE', #10, #272, #58, .T. ) ;
#677 = LINE ( 'NONE', #906, #89 ) ;
#678 = DIRECTION ( 'NONE',  ( 0.000000000000000000, 0.000000000000000000, -1.000000000000000000 ) ) ;
#679 = CARTESIAN_POINT ( 'NONE',  ( 0.000000000000000000, 10.00000000000000000, 1.999999999999998224 ) ) ;
#680 = ADVANCED_FACE ( 'NONE', ( #986 ), #442, .F. ) ;
#681 = EDGE_CURVE ( 'NONE', #714, #328, #463, .T. ) ;
#682 = FACE_OUTER_BOUND ( 'NONE', #427, .T. ) ;
#683 = VECTOR ( 'NONE', #759, 1000.000000000000000 ) ;
#684 = FACE_OUTER_BOUND ( 'NONE', #329, .T. ) ;
#685 = DIRECTION ( 'NONE',  ( 0.000000000000000000, 0.000000000000000000, -1.000000000000000000 ) ) ;
#686 = VECTOR ( 'NONE', #675, 1000.000000000000000 ) ;
#687 = VECTOR ( 'NONE', #92, 1000.000000000000000 ) ;
#688 = CARTESIAN_POINT ( 'NONE',  ( -3.000000000000000000, 5.249999999999999112, 9.999999999999998224 ) ) ;
#689 = CARTESIAN_POINT ( 'NONE',  ( 22.00000000000000355, 0.000000000000000000, 19.00000000000000000 ) ) ;
#690 = DIRECTION ( 'NONE',  ( 0.000000000000000000, 0.000000000000000000, 1.000000000000000000 ) ) ;
#691 = CARTESIAN_POINT ( 'NONE',  ( 17.00000000000000000, -3.000000000000000000, 3.499999999999999556 ) ) ;
#692 = DIRECTION ( 'NONE',  ( -0.000000000000000000, -1.000000000000000000, -0.000000000000000000 ) ) ;
#693 = DIRECTION ( 'NONE',  ( 1.000000000000000000, -0.000000000000000000, -0.000000000000000000 ) ) ;
#694 = EDGE_CURVE ( 'NONE', #23, #727, #976, .T. ) ;
#695 = CARTESIAN_POINT ( 'NONE',  ( 22.00000000000000355, 3.469446951953614189E-15, 2.999999999999999112 ) ) ;
#696 = CARTESIAN_POINT ( 'NONE',  ( -3.000000000000000000, 11.25000000000000000, 9.999999999999998224 ) ) ;
#697 = ORIENTED_EDGE ( 'NONE', *, *, #37, .T. ) ;
#698 = DIRECTION ( 'NONE',  ( 0.000000000000000000, 1.000000000000000000, 0.000000000000000000 ) ) ;
#699 = DIRECTION ( 'NONE',  ( 0.000000000000000000, 0.000000000000000000, -1.000000000000000000 ) ) ;
#700 = DIRECTION ( 'NONE',  ( 0.000000000000000000, 1.000000000000000000, 0.000000000000000000 ) ) ;
#701 = ORIENTED_EDGE ( 'NONE', *, *, #343, .T. ) ;
#702 = DIRECTION ( 'NONE',  ( 0.000000000000000000, -0.000000000000000000, -1.000000000000000000 ) ) ;
#703 = LINE ( 'NONE', #4, #499 ) ;
#704 = EDGE_CURVE ( 'NONE', #432, #279, #901, .T. ) ;
#705 = LINE ( 'NONE', #1002, #942 ) ;
#706 = ORIENTED_EDGE ( 'NONE', *, *, #889, .T. ) ;
#707 = DIRECTION ( 'NONE',  ( -1.000000000000000000, -0.000000000000000000, -0.000000000000000000 ) ) ;
#708 = CARTESIAN_POINT ( 'NONE',  ( 17.00000000000000000, -3.000000000000000000, 1.749999999999999556 ) ) ;
#709 = EDGE_CURVE ( 'NONE', #626, #396, #257, .T. ) ;
#710 = ORIENTED_EDGE ( 'NONE', *, *, #711, .F. ) ;
#711 = EDGE_CURVE ( 'NONE', #637, #45, #639, .T. ) ;
#712 = CARTESIAN_POINT ( 'NONE',  ( 0.000000000000000000, 15.00000000000000000, 22.00000000000000000 ) ) ;
#713 = ORIENTED_EDGE ( 'NONE', *, *, #476, .T. ) ;
#714 = VERTEX_POINT ( 'NONE', #990 ) ;
#715 = AXIS2_PLACEMENT_3D ( 'NONE', #412, #496, #350 ) ;
#716 = ORIENTED_EDGE ( 'NONE', *, *, #504, .T. ) ;
#717 = AXIS2_PLACEMENT_3D ( 'NONE', #466, #88, #860 ) ;
#718 = VECTOR ( 'NONE', #450, 1000.000000000000000 ) ;
#719 = CARTESIAN_POINT ( 'NONE',  ( 21.99999999999999645, 0.000000000000000000, 20.25000000000000000 ) ) ;
#720 = EDGE_LOOP ( 'NONE', ( #171, #349, #497, #421 ) ) ;
#721 = VERTEX_POINT ( 'NONE', #604 ) ;
#722 = CARTESIAN_POINT ( 'NONE',  ( 0.000000000000000000, 0.000000000000000000, 6.999999999999999112 ) ) ;
#723 = EDGE_LOOP ( 'NONE', ( #957, #214, #108, #963 ) ) ;
#724 = EDGE_LOOP ( 'NONE', ( #858, #500, #114, #119 ) ) ;
#725 = VECTOR ( 'NONE', #404, 1000.000000000000000 ) ;
#726 = DIRECTION ( 'NONE',  ( 1.000000000000000000, 0.000000000000000000, 0.000000000000000000 ) ) ;
#727 = VERTEX_POINT ( 'NONE', #530 ) ;
#728 = DIRECTION ( 'NONE',  ( 0.000000000000000000, 0.000000000000000000, -1.000000000000000000 ) ) ;
#729 = DIRECTION ( 'NONE',  ( 0.000000000000000000, 0.000000000000000000, 1.000000000000000000 ) ) ;
#730 = EDGE_CURVE ( 'NONE', #891, #774, #913, .T. ) ;
#731 = EDGE_LOOP ( 'NONE', ( #347, #22, #340, #589 ) ) ;
#732 = CARTESIAN_POINT ( 'NONE',  ( 0.000000000000000000, 4.000000000000000000, 1.999999999999998224 ) ) ;
#733 = ORIENTED_EDGE ( 'NONE', *, *, #68, .F. ) ;
#734 = DIRECTION ( 'NONE',  ( 1.000000000000000000, -0.000000000000000000, -0.000000000000000000 ) ) ;
#735 = VERTEX_POINT ( 'NONE', #834 ) ;
#736 = EDGE_LOOP ( 'NONE', ( #487, #359, #413, #665 ) ) ;
#737 = AXIS2_PLACEMENT_3D ( 'NONE', #156, #391, #773 ) ;
#738 = CARTESIAN_POINT ( 'NONE',  ( 17.00000000000000000, -3.000000000000000000, 3.499999999999999556 ) ) ;
#739 = VERTEX_POINT ( 'NONE', #534 ) ;
#740 = ADVANCED_FACE ( 'NONE', ( #611 ), #918, .F. ) ;
#741 = ORIENTED_EDGE ( 'NONE', *, *, #136, .T. ) ;
#742 = CARTESIAN_POINT ( 'NONE',  ( -3.000000000000000000, 2.750000000000000888, 9.999999999999998224 ) ) ;
#743 = ORIENTED_EDGE ( 'NONE', *, *, #144, .F. ) ;
#744 = CARTESIAN_POINT ( 'NONE',  ( -3.000000000000000000, 5.249999999999999112, 1.999999999999998224 ) ) ;
#745 = EDGE_CURVE ( 'NONE', #98, #956, #438, .T. ) ;
#746 = DIRECTION ( 'NONE',  ( -0.000000000000000000, -1.000000000000000000, -0.000000000000000000 ) ) ;
#747 = CARTESIAN_POINT ( 'NONE',  ( 25.00000000000000000, 0.000000000000000000, 2.999999999999999112 ) ) ;
#748 = AXIS2_PLACEMENT_3D ( 'NONE', #738, #36, #348 ) ;
#749 = DIRECTION ( 'NONE',  ( 0.000000000000000000, 1.000000000000000000, 0.000000000000000000 ) ) ;
#750 = DIRECTION ( 'NONE',  ( -1.000000000000000000, 0.000000000000000000, 0.000000000000000000 ) ) ;
#751 = CARTESIAN_POINT ( 'NONE',  ( 25.00000000000000000, 0.000000000000000000, 19.00000000000000000 ) ) ;
#752 = VECTOR ( 'NONE', #667, 1000.000000000000000 ) ;
#753 = FACE_OUTER_BOUND ( 'NONE', #251, .T. ) ;
#754 = EDGE_CURVE ( 'NONE', #274, #407, #286, .T. ) ;
#755 = LINE ( 'NONE', #64, #846 ) ;
#756 = FACE_OUTER_BOUND ( 'NONE', #724, .T. ) ;
#757 = CARTESIAN_POINT ( 'NONE',  ( 17.00000000000000000, -3.000000000000000000, 5.249999999999999112 ) ) ;
#758 = CARTESIAN_POINT ( 'NONE',  ( 0.000000000000000000, 4.000000000000000000, 0.7499999999999988898 ) ) ;
#759 = DIRECTION ( 'NONE',  ( -0.000000000000000000, 1.000000000000000000, -0.000000000000000000 ) ) ;
#760 = AXIS2_PLACEMENT_3D ( 'NONE', #612, #387, #919 ) ;
#761 = DIRECTION ( 'NONE',  ( 0.000000000000000000, 1.000000000000000000, 0.000000000000000000 ) ) ;
#762 = VECTOR ( 'NONE', #327, 1000.000000000000000 ) ;
#763 = AXIS2_PLACEMENT_3D ( 'NONE', #597, #672, #685 ) ;
#764 = STYLED_ITEM ( 'NONE', ( #925 ), #75 ) ;
#765 = LINE ( 'NONE', #553, #863 ) ;
#766 = ADVANCED_FACE ( 'NONE', ( #9 ), #927, .F. ) ;
#767 = DIRECTION ( 'NONE',  ( 1.000000000000000000, 0.000000000000000000, 0.000000000000000000 ) ) ;
#768 = DIRECTION ( 'NONE',  ( 0.000000000000000000, 0.000000000000000000, -1.000000000000000000 ) ) ;
#769 = DIRECTION ( 'NONE',  ( -0.000000000000000000, 1.000000000000000000, -0.000000000000000000 ) ) ;
#770 = LINE ( 'NONE', #1009, #819 ) ;
#771 = FACE_BOUND ( 'NONE', #736, .T. ) ;
#772 = DIRECTION ( 'NONE',  ( 0.000000000000000000, 0.000000000000000000, 1.000000000000000000 ) ) ;
#773 = DIRECTION ( 'NONE',  ( 0.000000000000000000, 0.000000000000000000, -1.000000000000000000 ) ) ;
#774 = VERTEX_POINT ( 'NONE', #323 ) ;
#775 = DIRECTION ( 'NONE',  ( 0.000000000000000000, 0.000000000000000000, -1.000000000000000000 ) ) ;
#776 = CARTESIAN_POINT ( 'NONE',  ( 22.00000000000000000, -3.000000000000000000, 5.249999999999999112 ) ) ;
#777 = ADVANCED_FACE ( 'NONE', ( #315 ), #483, .F. ) ;
#778 = CIRCLE ( 'NONE', #395, 1.750000000000001554 ) ;
#779 = PRESENTATION_LAYER_ASSIGNMENT (  '', '', ( #764 ) ) ;
#780 = EDGE_LOOP ( 'NONE', ( #275, #129, #574, #263 ) ) ;
#781 = DIRECTION ( 'NONE',  ( -1.000000000000000000, -0.000000000000000000, -0.000000000000000000 ) ) ;
#782 = EDGE_LOOP ( 'NONE', ( #864, #419, #815, #697 ) ) ;
#783 = DIRECTION ( 'NONE',  ( -0.000000000000000000, 1.000000000000000000, -0.000000000000000000 ) ) ;
#784 = ADVANCED_FACE ( 'NONE', ( #850 ), #96, .F. ) ;
#785 = EDGE_CURVE ( 'NONE', #430, #10, #984, .T. ) ;
#786 = ORIENTED_EDGE ( 'NONE', *, *, #676, .F. ) ;
#787 = LINE ( 'NONE', #262, #978 ) ;
#788 = ORIENTED_EDGE ( 'NONE', *, *, #163, .T. ) ;
#789 = ORIENTED_EDGE ( 'NONE', *, *, #476, .F. ) ;
#790 = CARTESIAN_POINT ( 'NONE',  ( -3.000000000000000000, 2.750000000000000888, 9.999999999999998224 ) ) ;
#791 = ORIENTED_EDGE ( 'NONE', *, *, #839, .T. ) ;
#792 = CYLINDRICAL_SURFACE ( 'NONE', #671, 1.249999999999999334 ) ;
#793 = EDGE_LOOP ( 'NONE', ( #886, #716, #495, #425 ) ) ;
#794 = ORIENTED_EDGE ( 'NONE', *, *, #436, .T. ) ;
#795 = DIRECTION ( 'NONE',  ( 1.000000000000000000, -0.000000000000000000, -0.000000000000000000 ) ) ;
#796 = AXIS2_PLACEMENT_3D ( 'NONE', #722, #116, #128 ) ;
#797 = AXIS2_PLACEMENT_3D ( 'NONE', #870, #651, #267 ) ;
#798 = VERTEX_POINT ( 'NONE', #552 ) ;
#799 = VECTOR ( 'NONE', #795, 1000.000000000000000 ) ;
#800 = FACE_OUTER_BOUND ( 'NONE', #586, .T. ) ;
#801 = ORIENTED_EDGE ( 'NONE', *, *, #917, .T. ) ;
#802 = ADVANCED_FACE ( 'NONE', ( #458 ), #244, .T. ) ;
#803 = ORIENTED_EDGE ( 'NONE', *, *, #150, .F. ) ;
#804 = LINE ( 'NONE', #505, #895 ) ;
#805 = ORIENTED_EDGE ( 'NONE', *, *, #223, .F. ) ;
#806 = VERTEX_POINT ( 'NONE', #944 ) ;
#807 = VECTOR ( 'NONE', #856, 1000.000000000000000 ) ;
#808 = CARTESIAN_POINT ( 'NONE',  ( 22.00000000000000355, -2.544261098099317282E-14, 22.00000000000000000 ) ) ;
#809 = ORIENTED_EDGE ( 'NONE', *, *, #861, .F. ) ;
#810 = FACE_OUTER_BOUND ( 'NONE', #181, .T. ) ;
#811 = ORIENTED_EDGE ( 'NONE', *, *, #103, .T. ) ;
#812 = EDGE_LOOP ( 'NONE', ( #583, #805, #964, #207, #710 ) ) ;
#813 = DIRECTION ( 'NONE',  ( -1.000000000000000000, 0.000000000000000000, -0.000000000000000000 ) ) ;
#814 = EDGE_CURVE ( 'NONE', #484, #642, #259, .T. ) ;
#815 = ORIENTED_EDGE ( 'NONE', *, *, #549, .F. ) ;
#816 = AXIS2_PLACEMENT_3D ( 'NONE', #551, #160, #849 ) ;
#817 = VERTEX_POINT ( 'NONE', #623 ) ;
#818 = VECTOR ( 'NONE', #750, 1000.000000000000000 ) ;
#819 = VECTOR ( 'NONE', #781, 1000.000000000000000 ) ;
#820 = VERTEX_POINT ( 'NONE', #862 ) ;
#821 = EDGE_CURVE ( 'NONE', #206, #493, #166, .T. ) ;
#822 = CARTESIAN_POINT ( 'NONE',  ( -3.000000000000000000, 4.000000000000000000, 9.999999999999998224 ) ) ;
#823 = DIRECTION ( 'NONE',  ( 1.000000000000000000, 0.000000000000000000, 0.000000000000000000 ) ) ;
#824 = DIRECTION ( 'NONE',  ( 1.000000000000000000, 0.000000000000000000, 0.000000000000000000 ) ) ;
#825 = LINE ( 'NONE', #747, #302 ) ;
#826 = DIRECTION ( 'NONE',  ( 1.000000000000000000, -0.000000000000000000, -0.000000000000000000 ) ) ;
#827 = EDGE_CURVE ( 'NONE', #357, #23, #164, .T. ) ;
#828 = CARTESIAN_POINT ( 'NONE',  ( 17.00000000000000000, 0.000000000000000000, 16.74999999999999645 ) ) ;
#829 = EDGE_CURVE ( 'NONE', #573, #432, #371, .T. ) ;
#830 = PLANE ( 'NONE',  #17 ) ;
#831 = CARTESIAN_POINT ( 'NONE',  ( 0.000000000000000000, 8.750000000000000000, 1.999999999999998224 ) ) ;
#832 = CARTESIAN_POINT ( 'NONE',  ( 0.000000000000000000, 0.000000000000000000, 22.00000000000000000 ) ) ;
#833 = DIRECTION ( 'NONE',  ( 0.000000000000000000, 0.000000000000000000, -1.000000000000000000 ) ) ;
#834 = CARTESIAN_POINT ( 'NONE',  ( 0.000000000000000000, 2.750000000000000888, 1.999999999999998668 ) ) ;
#835 = LINE ( 'NONE', #983, #605 ) ;
#836 = CARTESIAN_POINT ( 'NONE',  ( 17.00000000000000000, -3.000000000000000000, 20.25000000000000000 ) ) ;
#837 =( LENGTH_UNIT ( ) NAMED_UNIT ( * ) SI_UNIT ( .MILLI., .METRE. ) );
#838 = DIRECTION ( 'NONE',  ( -1.000000000000000000, -0.000000000000000000, -0.000000000000000000 ) ) ;
#839 = EDGE_CURVE ( 'NONE', #550, #930, #117, .T. ) ;
#840 = CARTESIAN_POINT ( 'NONE',  ( 17.00000000000000000, 0.000000000000000000, 20.25000000000000000 ) ) ;
#841 = VECTOR ( 'NONE', #424, 1000.000000000000000 ) ;
#842 = CARTESIAN_POINT ( 'NONE',  ( 21.99999999999999645, -3.000000000000000000, 20.25000000000000000 ) ) ;
#843 = CARTESIAN_POINT ( 'NONE',  ( 0.000000000000000000, 0.000000000000000000, 0.000000000000000000 ) ) ;
#844 = VECTOR ( 'NONE', #882, 1000.000000000000000 ) ;
#845 = FACE_OUTER_BOUND ( 'NONE', #268, .T. ) ;
#846 = VECTOR ( 'NONE', #375, 1000.000000000000000 ) ;
#847 = EDGE_CURVE ( 'NONE', #121, #270, #1012, .T. ) ;
#848 = DIRECTION ( 'NONE',  ( -1.000000000000000000, 1.156482317317871331E-15, 0.000000000000000000 ) ) ;
#849 = DIRECTION ( 'NONE',  ( 0.000000000000000000, 0.000000000000000000, -1.000000000000000000 ) ) ;
#850 = FACE_OUTER_BOUND ( 'NONE', #514, .T. ) ;
#851 = AXIS2_PLACEMENT_3D ( 'NONE', #708, #161, #467 ) ;
#852 = PLANE ( 'NONE',  #760 ) ;
#853 = EDGE_LOOP ( 'NONE', ( #658, #954, #402, #281, #26 ) ) ;
#854 = ADVANCED_FACE ( 'NONE', ( #845 ), #312, .F. ) ;
#855 = CARTESIAN_POINT ( 'NONE',  ( -3.000000000000000000, 2.750000000000000888, 9.999999999999998224 ) ) ;
#856 = DIRECTION ( 'NONE',  ( -0.000000000000000000, 1.000000000000000000, -0.000000000000000000 ) ) ;
#857 = DIRECTION ( 'NONE',  ( -1.156482317317871331E-15, -1.000000000000000000, -0.000000000000000000 ) ) ;
#858 = ORIENTED_EDGE ( 'NONE', *, *, #223, .T. ) ;
#859 = AXIS2_PLACEMENT_3D ( 'NONE', #940, #383, #252 ) ;
#860 = DIRECTION ( 'NONE',  ( 0.000000000000000000, 0.000000000000000000, -1.000000000000000000 ) ) ;
#861 = EDGE_CURVE ( 'NONE', #277, #714, #477, .T. ) ;
#862 = CARTESIAN_POINT ( 'NONE',  ( 21.99999999999999289, -3.000000000000000000, 0.000000000000000000 ) ) ;
#863 = VECTOR ( 'NONE', #616, 1000.000000000000000 ) ;
#864 = ORIENTED_EDGE ( 'NONE', *, *, #704, .T. ) ;
#865 = CYLINDRICAL_SURFACE ( 'NONE', #557, 1.750000000000001554 ) ;
#866 = ORIENTED_EDGE ( 'NONE', *, *, #814, .T. ) ;
#867 = CARTESIAN_POINT ( 'NONE',  ( -3.000000000000000000, 12.00000000000000000, 0.000000000000000000 ) ) ;
#868 = CARTESIAN_POINT ( 'NONE',  ( 0.000000000000000000, 0.000000000000000000, 22.00000000000000000 ) ) ;
#869 = ORIENTED_EDGE ( 'NONE', *, *, #535, .F. ) ;
#870 = CARTESIAN_POINT ( 'NONE',  ( -3.000000000000000000, 10.00000000000000000, 9.999999999999998224 ) ) ;
#871 = ORIENTED_EDGE ( 'NONE', *, *, #745, .F. ) ;
#872 = ORIENTED_EDGE ( 'NONE', *, *, #827, .T. ) ;
#873 = PLANE ( 'NONE',  #539 ) ;
#874 = ADVANCED_FACE ( 'NONE', ( #80 ), #390, .T. ) ;
#875 = ORIENTED_EDGE ( 'NONE', *, *, #360, .T. ) ;
#876 = CARTESIAN_POINT ( 'NONE',  ( -3.000000000000000000, 10.00000000000000000, 1.999999999999998224 ) ) ;
#877 = ORIENTED_EDGE ( 'NONE', *, *, #829, .T. ) ;
#878 = VERTEX_POINT ( 'NONE', #398 ) ;
#879 = CARTESIAN_POINT ( 'NONE',  ( 0.000000000000000000, 0.000000000000000000, 22.00000000000000000 ) ) ;
#880 = ORIENTED_EDGE ( 'NONE', *, *, #508, .F. ) ;
#881 = EDGE_LOOP ( 'NONE', ( #968, #87, #7, #439 ) ) ;
#882 = DIRECTION ( 'NONE',  ( 1.156482317317871331E-15, 1.000000000000000000, 0.000000000000000000 ) ) ;
#883 = ORIENTED_EDGE ( 'NONE', *, *, #608, .F. ) ;
#884 = LINE ( 'NONE', #200, #563 ) ;
#885 = CARTESIAN_POINT ( 'NONE',  ( 24.99999999999999645, -3.000000000000000000, 2.999999999999999112 ) ) ;
#886 = ORIENTED_EDGE ( 'NONE', *, *, #821, .F. ) ;
#887 = ORIENTED_EDGE ( 'NONE', *, *, #993, .T. ) ;
#888 = APPLICATION_CONTEXT ( 'automotive_design' ) ;
#889 = EDGE_CURVE ( 'NONE', #498, #430, #703, .T. ) ;
#890 = DIRECTION ( 'NONE',  ( 1.000000000000000000, 0.000000000000000000, 0.000000000000000000 ) ) ;
#891 = VERTEX_POINT ( 'NONE', #879 ) ;
#892 = ORIENTED_EDGE ( 'NONE', *, *, #1014, .T. ) ;
#893 = EDGE_CURVE ( 'NONE', #344, #588, #928, .T. ) ;
#894 = ORIENTED_EDGE ( 'NONE', *, *, #68, .T. ) ;
#895 = VECTOR ( 'NONE', #958, 1000.000000000000000 ) ;
#896 = AXIS2_PLACEMENT_3D ( 'NONE', #582, #34, #99 ) ;
#897 = ORIENTED_EDGE ( 'NONE', *, *, #847, .F. ) ;
#898 = CIRCLE ( 'NONE', #336, 1.749999999999999778 ) ;
#899 = PLANE ( 'NONE',  #480 ) ;
#900 = AXIS2_PLACEMENT_3D ( 'NONE', #369, #445, #53 ) ;
#901 = LINE ( 'NONE', #981, #946 ) ;
#902 = LINE ( 'NONE', #595, #212 ) ;
#903 = VECTOR ( 'NONE', #227, 1000.000000000000000 ) ;
#904 = LINE ( 'NONE', #364, #994 ) ;
#905 = EDGE_CURVE ( 'NONE', #10, #277, #418, .T. ) ;
#906 = CARTESIAN_POINT ( 'NONE',  ( 25.00000000000000000, 0.000000000000000000, 19.00000000000000000 ) ) ;
#907 = FACE_OUTER_BOUND ( 'NONE', #179, .T. ) ;
#908 = DIRECTION ( 'NONE',  ( 0.000000000000000000, 0.000000000000000000, -1.000000000000000000 ) ) ;
#909 = CARTESIAN_POINT ( 'NONE',  ( -3.000000000000000000, 0.000000000000000000, 22.00000000000000000 ) ) ;
#910 = VECTOR ( 'NONE', #77, 1000.000000000000000 ) ;
#911 = CARTESIAN_POINT ( 'NONE',  ( -3.000000000000000000, 4.000000000000000000, 1.999999999999998224 ) ) ;
#912 = MECHANICAL_DESIGN_GEOMETRIC_PRESENTATION_REPRESENTATION (  '', ( #764 ), #431 ) ;
#913 = LINE ( 'NONE', #307, #903 ) ;
#914 = DIRECTION ( 'NONE',  ( -1.000000000000000000, -0.000000000000000000, -0.000000000000000000 ) ) ;
#915 = CARTESIAN_POINT ( 'NONE',  ( 17.00000000000000000, 0.000000000000000000, 5.249999999999997335 ) ) ;
#916 = CYLINDRICAL_SURFACE ( 'NONE', #178, 1.249999999999999334 ) ;
#917 = EDGE_CURVE ( 'NONE', #721, #891, #620, .T. ) ;
#918 = PLANE ( 'NONE',  #291 ) ;
#919 = DIRECTION ( 'NONE',  ( 0.000000000000000000, 0.000000000000000000, 1.000000000000000000 ) ) ;
#920 = CARTESIAN_POINT ( 'NONE',  ( 17.00000000000000000, -3.000000000000000000, 5.249999999999999112 ) ) ;
#921 = FILL_AREA_STYLE ('',( #931 ) ) ;
#922 = CARTESIAN_POINT ( 'NONE',  ( 17.00000000000000000, -3.000000000000000000, 18.50000000000000000 ) ) ;
#923 = EDGE_CURVE ( 'NONE', #430, #42, #31, .T. ) ;
#924 = CARTESIAN_POINT ( 'NONE',  ( 0.000000000000000000, 4.000000000000000000, 9.999999999999998224 ) ) ;
#925 = PRESENTATION_STYLE_ASSIGNMENT (( #389 ) ) ;
#926 = CIRCLE ( 'NONE', #590, 1.249999999999999334 ) ;
#927 = CYLINDRICAL_SURFACE ( 'NONE', #322, 1.749999999999999778 ) ;
#928 = CIRCLE ( 'NONE', #155, 1.750000000000001554 ) ;
#929 = CARTESIAN_POINT ( 'NONE',  ( -3.000000000000000000, 10.00000000000000000, 0.7499999999999988898 ) ) ;
#930 = VERTEX_POINT ( 'NONE', #565 ) ;
#931 = FILL_AREA_STYLE_COLOUR ( '', #998 ) ;
#932 = CARTESIAN_POINT ( 'NONE',  ( 21.99999999999999645, -3.000000000000000000, 16.74999999999999645 ) ) ;
#933 = AXIS2_PLACEMENT_3D ( 'NONE', #393, #761, #76 ) ;
#934 = FACE_BOUND ( 'NONE', #575, .T. ) ;
#935 = ADVANCED_FACE ( 'NONE', ( #494 ), #409, .T. ) ;
#936 = EDGE_LOOP ( 'NONE', ( #14, #786, #334, #269 ) ) ;
#937 = CARTESIAN_POINT ( 'NONE',  ( 17.00000000000000000, 0.000000000000000000, 3.499999999999999556 ) ) ;
#938 = DIRECTION ( 'NONE',  ( -1.000000000000000000, -0.000000000000000000, -0.000000000000000000 ) ) ;
#939 = ORIENTED_EDGE ( 'NONE', *, *, #360, .F. ) ;
#940 = CARTESIAN_POINT ( 'NONE',  ( 0.000000000000000000, 10.00000000000000000, 9.999999999999998224 ) ) ;
#941 = ORIENTED_EDGE ( 'NONE', *, *, #37, .F. ) ;
#942 = VECTOR ( 'NONE', #465, 1000.000000000000000 ) ;
#943 = DIRECTION ( 'NONE',  ( 1.000000000000000000, -0.000000000000000000, -0.000000000000000000 ) ) ;
#944 = CARTESIAN_POINT ( 'NONE',  ( 22.00000000000000355, 0.000000000000000000, 0.000000000000000000 ) ) ;
#945 = VECTOR ( 'NONE', #985, 1000.000000000000000 ) ;
#946 = VECTOR ( 'NONE', #66, 1000.000000000000000 ) ;
#947 = AXIS2_PLACEMENT_3D ( 'NONE', #822, #440, #598 ) ;
#948 = VECTOR ( 'NONE', #1011, 1000.000000000000000 ) ;
#949 = CARTESIAN_POINT ( 'NONE',  ( 17.00000000000000000, 0.000000000000000000, 5.249999999999999112 ) ) ;
#950 = ORIENTED_EDGE ( 'NONE', *, *, #489, .T. ) ;
#951 = ORIENTED_EDGE ( 'NONE', *, *, #656, .T. ) ;
#952 = DIRECTION ( 'NONE',  ( 1.000000000000000000, -0.000000000000000000, -0.000000000000000000 ) ) ;
#953 = ADVANCED_FACE ( 'NONE', ( #810 ), #649, .F. ) ;
#954 = ORIENTED_EDGE ( 'NONE', *, *, #354, .T. ) ;
#955 = PLANE ( 'NONE',  #896 ) ;
#956 = VERTEX_POINT ( 'NONE', #102 ) ;
#957 = ORIENTED_EDGE ( 'NONE', *, *, #343, .F. ) ;
#958 = DIRECTION ( 'NONE',  ( 1.000000000000000000, -0.000000000000000000, -0.000000000000000000 ) ) ;
#959 = ORIENTED_EDGE ( 'NONE', *, *, #619, .T. ) ;
#960 = ORIENTED_EDGE ( 'NONE', *, *, #285, .F. ) ;
#961 = LINE ( 'NONE', #808, #844 ) ;
#962 = ORIENTED_EDGE ( 'NONE', *, *, #1001, .T. ) ;
#963 = ORIENTED_EDGE ( 'NONE', *, *, #681, .F. ) ;
#964 = ORIENTED_EDGE ( 'NONE', *, *, #147, .F. ) ;
#965 = CIRCLE ( 'NONE', #352, 1.249999999999999334 ) ;
#966 = DIRECTION ( 'NONE',  ( 1.000000000000000000, 0.000000000000000000, 0.000000000000000000 ) ) ;
#967 = EDGE_CURVE ( 'NONE', #878, #403, #331, .T. ) ;
#968 = ORIENTED_EDGE ( 'NONE', *, *, #282, .T. ) ;
#969 =( NAMED_UNIT ( * ) SI_UNIT ( $, .STERADIAN. ) SOLID_ANGLE_UNIT ( ) );
#970 = ORIENTED_EDGE ( 'NONE', *, *, #473, .T. ) ;
#971 = ORIENTED_EDGE ( 'NONE', *, *, #566, .T. ) ;
#972 = ADVANCED_FACE ( 'NONE', ( #276 ), #123, .F. ) ;
#973 = LINE ( 'NONE', #488, #799 ) ;
#974 = EDGE_LOOP ( 'NONE', ( #587, #567, #105, #110 ) ) ;
#975 = VERTEX_POINT ( 'NONE', #885 ) ;
#976 = LINE ( 'NONE', #301, #417 ) ;
#977 =( GEOMETRIC_REPRESENTATION_CONTEXT ( 3 ) GLOBAL_UNCERTAINTY_ASSIGNED_CONTEXT ( ( #104 ) ) GLOBAL_UNIT_ASSIGNED_CONTEXT ( ( #265, #654, #969 ) ) REPRESENTATION_CONTEXT ( 'NONE', 'WORKASPACE' ) );
#978 = VECTOR ( 'NONE', #107, 1000.000000000000000 ) ;
#979 = DIRECTION ( 'NONE',  ( 1.156482317317871331E-15, 1.000000000000000000, 0.000000000000000000 ) ) ;
#980 = VECTOR ( 'NONE', #363, 1000.000000000000000 ) ;
#981 = CARTESIAN_POINT ( 'NONE',  ( 17.00000000000000000, 0.000000000000000000, 20.25000000000000000 ) ) ;
#982 = ADVANCED_FACE ( 'NONE', ( #428 ), #873, .F. ) ;
#983 = CARTESIAN_POINT ( 'NONE',  ( -3.000000000000000000, -3.000000000000000000, 22.00000000000000000 ) ) ;
#984 = CIRCLE ( 'NONE', #468, 1.749999999999999778 ) ;
#985 = DIRECTION ( 'NONE',  ( -0.000000000000000000, -0.000000000000000000, 1.000000000000000000 ) ) ;
#986 = FACE_OUTER_BOUND ( 'NONE', #486, .T. ) ;
#987 = ADVANCED_BREP_SHAPE_REPRESENTATION ( 'limitlebrackettop', ( #75, #47 ), #977 ) ;
#988 = PLANE ( 'NONE',  #131 ) ;
#989 = FACE_OUTER_BOUND ( 'NONE', #782, .T. ) ;
#990 = CARTESIAN_POINT ( 'NONE',  ( 22.00000000000000000, 0.000000000000000000, 5.249999999999999112 ) ) ;
#991 = VECTOR ( 'NONE', #226, 1000.000000000000000 ) ;
#992 = CARTESIAN_POINT ( 'NONE',  ( 0.000000000000000000, 0.000000000000000000, 22.00000000000000000 ) ) ;
#993 = EDGE_CURVE ( 'NONE', #196, #798, #973, .T. ) ;
#994 = VECTOR ( 'NONE', #452, 1000.000000000000000 ) ;
#995 = AXIS2_PLACEMENT_3D ( 'NONE', #237, #848, #394 ) ;
#996 = DIRECTION ( 'NONE',  ( -0.000000000000000000, 0.000000000000000000, 1.000000000000000000 ) ) ;
#997 = LINE ( 'NONE', #78, #683 ) ;
#998 = COLOUR_RGB ( '',0.7921568627450980005, 0.8196078431372548767, 0.9333333333333333481 ) ;
#999 = CARTESIAN_POINT ( 'NONE',  ( -3.000000000000000000, 11.25000000000000000, 9.999999999999998224 ) ) ;
#1000 = DIRECTION ( 'NONE',  ( 0.000000000000000000, 0.000000000000000000, -1.000000000000000000 ) ) ;
#1001 = EDGE_CURVE ( 'NONE', #817, #474, #804, .T. ) ;
#1002 = CARTESIAN_POINT ( 'NONE',  ( 24.99999999999999645, -3.000000000000000000, 22.00000000000000000 ) ) ;
#1003 = CARTESIAN_POINT ( 'NONE',  ( 0.000000000000000000, 0.000000000000000000, 22.00000000000000000 ) ) ;
#1004 = CARTESIAN_POINT ( 'NONE',  ( -3.000000000000000000, 8.750000000000000000, 9.999999999999998224 ) ) ;
#1005 = PRODUCT_DEFINITION_SHAPE ( 'NONE', 'NONE',  #85 ) ;
#1006 = CARTESIAN_POINT ( 'NONE',  ( 21.99999999999999289, -3.000000000000000000, 22.00000000000000000 ) ) ;
#1007 = LINE ( 'NONE', #843, #304 ) ;
#1008 = DIRECTION ( 'NONE',  ( 1.000000000000000000, -1.156482317317871725E-15, 0.000000000000000000 ) ) ;
#1009 = CARTESIAN_POINT ( 'NONE',  ( 17.00000000000000000, 0.000000000000000000, 1.749999999999999556 ) ) ;
#1010 = ORIENTED_EDGE ( 'NONE', *, *, #893, .F. ) ;
#1011 = DIRECTION ( 'NONE',  ( -0.000000000000000000, 1.000000000000000000, -0.000000000000000000 ) ) ;
#1012 = LINE ( 'NONE', #932, #807 ) ;
#1013 = EDGE_CURVE ( 'NONE', #396, #45, #585, .T. ) ;
#1014 = EDGE_CURVE ( 'NONE', #956, #735, #660, .T. ) ;
ENDSEC;
END-ISO-10303-21;
