ISO-10303-21;
HEADER;
FILE_DESCRIPTION (( 'STEP AP214' ),
    '1' );
FILE_NAME ('input_small_motor.STEP',
    '2025-03-22T16:52:48',
    ( '' ),
    ( '' ),
    'SwSTEP 2.0',
    'SolidWorks 2025',
    '' );
FILE_SCHEMA (( 'AUTOMOTIVE_DESIGN' ));
ENDSEC;

DATA;
#1 = ORIENTED_EDGE ( 'NONE', *, *, #45, .F. ) ;
#2 = MECHANICAL_DESIGN_GEOMETRIC_PRESENTATION_REPRESENTATION (  '', ( #139 ), #709 ) ;
#3 = LINE ( 'NONE', #61, #100 ) ;
#4 = ORIENTED_EDGE ( 'NONE', *, *, #221, .F. ) ;
#5 = LINE ( 'NONE', #246, #183 ) ;
#6 = VECTOR ( 'NONE', #28, 1000.000000000000000 ) ;
#7 = CARTESIAN_POINT ( 'NONE',  ( 1.319090595827291601, 1.000000000000004441, 1.150000000000000355 ) ) ;
#8 = VERTEX_POINT ( 'NONE', #342 ) ;
#9 = FACE_BOUND ( 'NONE', #248, .T. ) ;
#10 = ADVANCED_FACE ( 'NONE', ( #96, #106 ), #687, .T. ) ;
#11 = EDGE_LOOP ( 'NONE', ( #371, #624, #108, #477 ) ) ;
#12 = DIRECTION ( 'NONE',  ( 0.000000000000000000, 0.000000000000000000, 1.000000000000000000 ) ) ;
#13 = CIRCLE ( 'NONE', #504, 10.00000000000000000 ) ;
#14 = EDGE_CURVE ( 'NONE', #655, #48, #377, .T. ) ;
#15 = ORIENTED_EDGE ( 'NONE', *, *, #532, .T. ) ;
#16 = EDGE_CURVE ( 'NONE', #385, #156, #764, .T. ) ;
#17 = FACE_OUTER_BOUND ( 'NONE', #705, .T. ) ;
#18 = DIRECTION ( 'NONE',  ( -1.000000000000000000, 0.000000000000000000, 0.000000000000000000 ) ) ;
#19 = ORIENTED_EDGE ( 'NONE', *, *, #471, .T. ) ;
#20 = DIRECTION ( 'NONE',  ( 0.000000000000000000, -0.000000000000000000, 1.000000000000000000 ) ) ;
#21 = AXIS2_PLACEMENT_3D ( 'NONE', #361, #173, #539 ) ;
#22 = CYLINDRICAL_SURFACE ( 'NONE', #698, 8.449999999999997513 ) ;
#23 = CARTESIAN_POINT ( 'NONE',  ( 4.500000000000000000, 17.50000000000000000, 3.000000000000000000 ) ) ;
#24 = CARTESIAN_POINT ( 'NONE',  ( 0.000000000000000000, 0.000000000000000000, -2.750000000000009326 ) ) ;
#25 = DIRECTION ( 'NONE',  ( -0.000000000000000000, -1.000000000000000000, -0.000000000000000000 ) ) ;
#26 = CARTESIAN_POINT ( 'NONE',  ( 0.000000000000000000, 12.50000000000000000, 0.000000000000000000 ) ) ;
#27 = VERTEX_POINT ( 'NONE', #23 ) ;
#28 = DIRECTION ( 'NONE',  ( 1.000000000000000000, 0.000000000000000000, 0.000000000000000000 ) ) ;
#29 = CARTESIAN_POINT ( 'NONE',  ( 0.000000000000000000, 7.000000000000000000, 0.000000000000000000 ) ) ;
#30 = EDGE_CURVE ( 'NONE', #53, #89, #155, .T. ) ;
#31 = ORIENTED_EDGE ( 'NONE', *, *, #175, .F. ) ;
#32 = ORIENTED_EDGE ( 'NONE', *, *, #216, .T. ) ;
#33 = CARTESIAN_POINT ( 'NONE',  ( 0.000000000000000000, 1.000000000000004441, -1.750000000000000000 ) ) ;
#34 = PRODUCT_DEFINITION_CONTEXT ( 'detailed design', #319, 'design' ) ;
#35 = CIRCLE ( 'NONE', #585, 8.449999999999997513 ) ;
#36 = VECTOR ( 'NONE', #634, 1000.000000000000000 ) ;
#37 = AXIS2_PLACEMENT_3D ( 'NONE', #490, #271, #393 ) ;
#38 = PLANE ( 'NONE',  #376 ) ;
#39 = ORIENTED_EDGE ( 'NONE', *, *, #433, .T. ) ;
#40 =( NAMED_UNIT ( * ) PLANE_ANGLE_UNIT ( ) SI_UNIT ( $, .RADIAN. ) );
#41 = DIRECTION ( 'NONE',  ( 0.000000000000000000, 1.000000000000000000, -0.000000000000000000 ) ) ;
#42 = PLANE ( 'NONE',  #364 ) ;
#43 = VECTOR ( 'NONE', #616, 1000.000000000000000 ) ;
#44 = VERTEX_POINT ( 'NONE', #394 ) ;
#45 = EDGE_CURVE ( 'NONE', #44, #494, #752, .T. ) ;
#46 = DIRECTION ( 'NONE',  ( 0.000000000000000000, 0.000000000000000000, -1.000000000000000000 ) ) ;
#47 = FACE_OUTER_BOUND ( 'NONE', #461, .T. ) ;
#48 = VERTEX_POINT ( 'NONE', #149 ) ;
#49 = APPLICATION_PROTOCOL_DEFINITION ( 'draft international standard', 'automotive_design', 1998, #552 ) ;
#50 = DIRECTION ( 'NONE',  ( -0.000000000000000000, -1.000000000000000000, 0.000000000000000000 ) ) ;
#51 = CIRCLE ( 'NONE', #637, 1.750000000000000000 ) ;
#52 = CYLINDRICAL_SURFACE ( 'NONE', #609, 1.750000000000000000 ) ;
#53 = VERTEX_POINT ( 'NONE', #103 ) ;
#54 =( NAMED_UNIT ( * ) PLANE_ANGLE_UNIT ( ) SI_UNIT ( $, .RADIAN. ) );
#55 = CARTESIAN_POINT ( 'NONE',  ( 1.714642819948227093, 0.000000000000000000, 2.150000000000009681 ) ) ;
#56 = ORIENTED_EDGE ( 'NONE', *, *, #631, .T. ) ;
#57 = DIRECTION ( 'NONE',  ( -0.000000000000000000, -0.000000000000000000, 1.000000000000000000 ) ) ;
#58 = ADVANCED_FACE ( 'NONE', ( #578, #683 ), #38, .T. ) ;
#59 = DIRECTION ( 'NONE',  ( 0.000000000000000000, 0.000000000000000000, 1.000000000000000000 ) ) ;
#60 = ORIENTED_EDGE ( 'NONE', *, *, #264, .F. ) ;
#61 = CARTESIAN_POINT ( 'NONE',  ( 4.500000000000000000, 21.50000000000000000, -3.000000000000000000 ) ) ;
#62 = CARTESIAN_POINT ( 'NONE',  ( 0.000000000000000000, 0.000000000000000000, 0.000000000000000000 ) ) ;
#63 = ORIENTED_EDGE ( 'NONE', *, *, #657, .F. ) ;
#64 = AXIS2_PLACEMENT_3D ( 'NONE', #368, #603, #422 ) ;
#65 = CYLINDRICAL_SURFACE ( 'NONE', #691, 1.500000000000000222 ) ;
#66 = CARTESIAN_POINT ( 'NONE',  ( 4.500000000000000000, 21.50000000000000000, -3.000000000000000000 ) ) ;
#67 = ORIENTED_EDGE ( 'NONE', *, *, #142, .T. ) ;
#68 = EDGE_CURVE ( 'NONE', #97, #347, #259, .T. ) ;
#69 = DIRECTION ( 'NONE',  ( -0.000000000000000000, -1.000000000000000000, -0.000000000000000000 ) ) ;
#70 = CARTESIAN_POINT ( 'NONE',  ( 4.500000000000000000, 21.50000000000000000, 3.000000000000000000 ) ) ;
#71 = VERTEX_POINT ( 'NONE', #744 ) ;
#72 = CARTESIAN_POINT ( 'NONE',  ( 4.500000000000000000, 21.50000000000000000, 3.000000000000000000 ) ) ;
#73 = EDGE_LOOP ( 'NONE', ( #316, #576, #151, #401 ) ) ;
#74 = AXIS2_PLACEMENT_3D ( 'NONE', #604, #507, #741 ) ;
#75 = DIRECTION ( 'NONE',  ( -1.000000000000000000, 0.000000000000000000, 0.000000000000000000 ) ) ;
#76 = CIRCLE ( 'NONE', #225, 8.450000000000002842 ) ;
#77 = EDGE_CURVE ( 'NONE', #650, #491, #323, .T. ) ;
#78 = ORIENTED_EDGE ( 'NONE', *, *, #196, .T. ) ;
#79 = CARTESIAN_POINT ( 'NONE',  ( -4.500000000000000000, 17.50000000000000000, 3.000000000000000000 ) ) ;
#80 = ORIENTED_EDGE ( 'NONE', *, *, #77, .F. ) ;
#81 = CARTESIAN_POINT ( 'NONE',  ( 0.000000000000000000, 13.50000000000000178, 0.000000000000000000 ) ) ;
#82 = DIRECTION ( 'NONE',  ( -0.000000000000000000, 1.000000000000000000, -0.000000000000000000 ) ) ;
#83 = ORIENTED_EDGE ( 'NONE', *, *, #692, .T. ) ;
#84 = FACE_OUTER_BOUND ( 'NONE', #582, .T. ) ;
#85 = AXIS2_PLACEMENT_3D ( 'NONE', #581, #226, #59 ) ;
#86 = LINE ( 'NONE', #640, #115 ) ;
#87 = AXIS2_PLACEMENT_3D ( 'NONE', #656, #121, #360 ) ;
#88 = LINE ( 'NONE', #282, #696 ) ;
#89 = VERTEX_POINT ( 'NONE', #336 ) ;
#90 = CARTESIAN_POINT ( 'NONE',  ( 9.971835337589565640, 11.50000000000000000, -0.7500000000000000000 ) ) ;
#91 = EDGE_CURVE ( 'NONE', #374, #195, #298, .T. ) ;
#92 = SURFACE_STYLE_FILL_AREA ( #327 ) ;
#93 = CARTESIAN_POINT ( 'NONE',  ( 0.000000000000000000, 7.000000000000000000, 0.000000000000000000 ) ) ;
#94 = ORIENTED_EDGE ( 'NONE', *, *, #205, .T. ) ;
#95 = PLANE ( 'NONE',  #130 ) ;
#96 = FACE_BOUND ( 'NONE', #714, .T. ) ;
#97 = VERTEX_POINT ( 'NONE', #694 ) ;
#98 = AXIS2_PLACEMENT_3D ( 'NONE', #93, #567, #570 ) ;
#99 = CIRCLE ( 'NONE', #403, 2.750000000000008882 ) ;
#100 = VECTOR ( 'NONE', #594, 1000.000000000000000 ) ;
#101 = CIRCLE ( 'NONE', #141, 1.500000000000000222 ) ;
#102 = ADVANCED_FACE ( 'NONE', ( #206 ), #42, .T. ) ;
#103 = CARTESIAN_POINT ( 'NONE',  ( 1.319090595827291601, 10.00000000000000000, 1.150000000000000355 ) ) ;
#104 = ORIENTED_EDGE ( 'NONE', *, *, #668, .T. ) ;
#105 = CARTESIAN_POINT ( 'NONE',  ( -4.500000000000000000, 21.50000000000000000, -3.000000000000000000 ) ) ;
#106 = FACE_OUTER_BOUND ( 'NONE', #720, .T. ) ;
#107 = AXIS2_PLACEMENT_3D ( 'NONE', #495, #725, #734 ) ;
#108 = ORIENTED_EDGE ( 'NONE', *, *, #723, .F. ) ;
#109 = CARTESIAN_POINT ( 'NONE',  ( -1.597016049708442464, 0.3361464950422498044, 1.813853504957757989 ) ) ;
#110 = DIRECTION ( 'NONE',  ( 0.000000000000000000, 0.000000000000000000, 1.000000000000000000 ) ) ;
#111 = ORIENTED_EDGE ( 'NONE', *, *, #466, .F. ) ;
#112 = CARTESIAN_POINT ( 'NONE',  ( 0.000000000000000000, 12.50000000000000000, -1.500000000000000000 ) ) ;
#113 = AXIS2_PLACEMENT_3D ( 'NONE', #739, #406, #219 ) ;
#114 = CARTESIAN_POINT ( 'NONE',  ( 0.000000000000000000, 11.50000000000000000, 0.000000000000000000 ) ) ;
#115 = VECTOR ( 'NONE', #519, 1000.000000000000000 ) ;
#116 = VERTEX_POINT ( 'NONE', #574 ) ;
#117 = CARTESIAN_POINT ( 'NONE',  ( -4.500000000000000000, 17.50000000000000000, -3.000000000000000000 ) ) ;
#118 = EDGE_CURVE ( 'NONE', #584, #540, #88, .T. ) ;
#119 = CARTESIAN_POINT ( 'NONE',  ( 0.000000000000000000, 12.50000000000000000, -9.950000000000002842 ) ) ;
#120 = EDGE_LOOP ( 'NONE', ( #426, #512, #382, #601 ) ) ;
#121 = DIRECTION ( 'NONE',  ( 0.000000000000000000, 1.000000000000000000, 0.000000000000000000 ) ) ;
#122 = EDGE_CURVE ( 'NONE', #8, #655, #611, .T. ) ;
#123 = DIRECTION ( 'NONE',  ( -1.000000000000000000, 0.000000000000000000, 0.000000000000000000 ) ) ;
#124 = EDGE_LOOP ( 'NONE', ( #313, #434, #254, #615 ) ) ;
#125 = CARTESIAN_POINT ( 'NONE',  ( 0.000000000000000000, 17.50000000000000000, -1.500000000000000000 ) ) ;
#126 = FACE_OUTER_BOUND ( 'NONE', #665, .T. ) ;
#127 = EDGE_CURVE ( 'NONE', #491, #650, #651, .T. ) ;
#128 = CIRCLE ( 'NONE', #85, 8.449999999999997513 ) ;
#129 = ORIENTED_EDGE ( 'NONE', *, *, #229, .F. ) ;
#130 = AXIS2_PLACEMENT_3D ( 'NONE', #281, #522, #334 ) ;
#131 = CYLINDRICAL_SURFACE ( 'NONE', #404, 8.450000000000002842 ) ;
#132 = FACE_OUTER_BOUND ( 'NONE', #679, .T. ) ;
#133 = ORIENTED_EDGE ( 'NONE', *, *, #30, .F. ) ;
#134 = CARTESIAN_POINT ( 'NONE',  ( 4.500000000000000000, 17.50000000000000000, 3.000000000000000000 ) ) ;
#135 = ORIENTED_EDGE ( 'NONE', *, *, #678, .T. ) ;
#136 = CARTESIAN_POINT ( 'NONE',  ( -4.500000000000000000, 17.50000000000000000, -3.000000000000000000 ) ) ;
#137 = ADVANCED_FACE ( 'NONE', ( #524 ), #486, .F. ) ;
#138 = ORIENTED_EDGE ( 'NONE', *, *, #657, .T. ) ;
#139 = STYLED_ITEM ( 'NONE', ( #751 ), #415 ) ;
#140 = PLANE ( 'NONE',  #448 ) ;
#141 = AXIS2_PLACEMENT_3D ( 'NONE', #297, #537, #242 ) ;
#142 = EDGE_CURVE ( 'NONE', #163, #116, #35, .T. ) ;
#143 = ORIENTED_EDGE ( 'NONE', *, *, #175, .T. ) ;
#144 = LINE ( 'NONE', #613, #6 ) ;
#145 = CARTESIAN_POINT ( 'NONE',  ( -1.319090595827291601, 10.00000000000000000, 1.150000000000000355 ) ) ;
#146 = ORIENTED_EDGE ( 'NONE', *, *, #753, .T. ) ;
#147 = CARTESIAN_POINT ( 'NONE',  ( 1.034826545279513264E-15, 7.000000000000000000, 8.449999999999997513 ) ) ;
#148 = CARTESIAN_POINT ( 'NONE',  ( 9.971835337589565640, 12.50000000000000000, -0.7500000000000000000 ) ) ;
#149 = CARTESIAN_POINT ( 'NONE',  ( -9.971835337589565640, 12.50000000000000000, -0.7500000000000002220 ) ) ;
#150 = EDGE_CURVE ( 'NONE', #554, #494, #551, .T. ) ;
#151 = ORIENTED_EDGE ( 'NONE', *, *, #547, .F. ) ;
#152 = CARTESIAN_POINT ( 'NONE',  ( 0.000000000000000000, 17.50000000000000000, -1.500000000000000000 ) ) ;
#153 = AXIS2_PLACEMENT_3D ( 'NONE', #707, #287, #661 ) ;
#154 = DIRECTION ( 'NONE',  ( 0.000000000000000000, 0.000000000000000000, -1.000000000000000000 ) ) ;
#155 = LINE ( 'NONE', #266, #36 ) ;
#156 = VERTEX_POINT ( 'NONE', #55 ) ;
#157 = SHAPE_DEFINITION_REPRESENTATION ( #397, #644 ) ;
#158 = LINE ( 'NONE', #168, #518 ) ;
#159 = CARTESIAN_POINT ( 'NONE',  ( 0.000000000000000000, 17.50000000000000000, -1.500000000000000000 ) ) ;
#160 = PLANE ( 'NONE',  #431 ) ;
#161 = ADVANCED_FACE ( 'NONE', ( #47 ), #52, .F. ) ;
#162 = DIRECTION ( 'NONE',  ( 0.000000000000000000, 0.000000000000000000, 1.000000000000000000 ) ) ;
#163 = VERTEX_POINT ( 'NONE', #186 ) ;
#164 = DIRECTION ( 'NONE',  ( 1.000000000000000000, 0.000000000000000000, 0.000000000000000000 ) ) ;
#165 = AXIS2_PLACEMENT_3D ( 'NONE', #544, #322, #369 ) ;
#166 = CARTESIAN_POINT ( 'NONE',  ( 1.469078574833695194, 0.6702537790091932512, 1.479746220990812988 ) ) ;
#167 = ORIENTED_EDGE ( 'NONE', *, *, #68, .T. ) ;
#168 = CARTESIAN_POINT ( 'NONE',  ( 0.000000000000000000, 1.000000000000004441, -1.750000000000000000 ) ) ;
#169 = DIRECTION ( 'NONE',  ( -0.000000000000000000, -1.000000000000000000, -0.000000000000000000 ) ) ;
#170 = ORIENTED_EDGE ( 'NONE', *, *, #572, .T. ) ;
#171 = CARTESIAN_POINT ( 'NONE',  ( 0.000000000000000000, 0.000000000000000000, 0.000000000000000000 ) ) ;
#172 = CARTESIAN_POINT ( 'NONE',  ( -1.714642819948227093, 0.000000000000000000, 2.150000000000009681 ) ) ;
#173 = DIRECTION ( 'NONE',  ( 0.000000000000000000, -1.000000000000000000, 0.000000000000000000 ) ) ;
#174 = ORIENTED_EDGE ( 'NONE', *, *, #264, .T. ) ;
#175 = EDGE_CURVE ( 'NONE', #385, #554, #595, .T. ) ;
#176 = CARTESIAN_POINT ( 'NONE',  ( 4.500000000000000000, 21.50000000000000000, 3.000000000000000000 ) ) ;
#177 = AXIS2_PLACEMENT_3D ( 'NONE', #523, #273, #736 ) ;
#178 = CARTESIAN_POINT ( 'NONE',  ( 0.000000000000000000, 1.000000000000004441, 0.000000000000000000 ) ) ;
#179 = ORIENTED_EDGE ( 'NONE', *, *, #412, .F. ) ;
#180 = CARTESIAN_POINT ( 'NONE',  ( 0.000000000000000000, 17.50000000000000000, -1.500000000000000000 ) ) ;
#181 = DIRECTION ( 'NONE',  ( 0.000000000000000000, 0.000000000000000000, -1.000000000000000000 ) ) ;
#182 = ORIENTED_EDGE ( 'NONE', *, *, #541, .F. ) ;
#183 = VECTOR ( 'NONE', #69, 1000.000000000000000 ) ;
#184 = PLANE ( 'NONE',  #64 ) ;
#185 = ADVANCED_FACE ( 'NONE', ( #126 ), #673, .F. ) ;
#186 = CARTESIAN_POINT ( 'NONE',  ( 1.034826545279513264E-15, 0.000000000000000000, 8.449999999999997513 ) ) ;
#187 = ORIENTED_EDGE ( 'NONE', *, *, #122, .T. ) ;
#188 = CARTESIAN_POINT ( 'NONE',  ( -4.500000000000000000, 21.50000000000000000, 3.000000000000000000 ) ) ;
#189 = DIRECTION ( 'NONE',  ( 0.000000000000000000, 0.000000000000000000, 1.000000000000000000 ) ) ;
#190 = VECTOR ( 'NONE', #765, 1000.000000000000000 ) ;
#191 = ORIENTED_EDGE ( 'NONE', *, *, #471, .F. ) ;
#192 = CYLINDRICAL_SURFACE ( 'NONE', #314, 8.450000000000002842 ) ;
#193 = ORIENTED_EDGE ( 'NONE', *, *, #77, .T. ) ;
#194 = CARTESIAN_POINT ( 'NONE',  ( 0.000000000000000000, 7.000000000000000000, -8.449999999999997513 ) ) ;
#195 = VERTEX_POINT ( 'NONE', #119 ) ;
#196 = EDGE_CURVE ( 'NONE', #116, #163, #128, .T. ) ;
#197 = DIRECTION ( 'NONE',  ( 0.000000000000000000, 1.000000000000000000, 0.000000000000000000 ) ) ;
#198 = VERTEX_POINT ( 'NONE', #420 ) ;
#199 = CIRCLE ( 'NONE', #639, 10.00000000000000000 ) ;
#200 = DIRECTION ( 'NONE',  ( 0.000000000000000000, 0.000000000000000000, -1.000000000000000000 ) ) ;
#201 = FACE_OUTER_BOUND ( 'NONE', #635, .T. ) ;
#202 = ORIENTED_EDGE ( 'NONE', *, *, #699, .F. ) ;
#203 = LINE ( 'NONE', #608, #345 ) ;
#204 = LINE ( 'NONE', #450, #277 ) ;
#205 = EDGE_CURVE ( 'NONE', #494, #385, #211, .T. ) ;
#206 = FACE_OUTER_BOUND ( 'NONE', #209, .T. ) ;
#207 = CARTESIAN_POINT ( 'NONE',  ( -4.500000000000000000, 21.50000000000000000, 3.000000000000000000 ) ) ;
#208 = CARTESIAN_POINT ( 'NONE',  ( 1.597016049708440022, 0.3361464950422494713, 1.813853504957758433 ) ) ;
#209 = EDGE_LOOP ( 'NONE', ( #174, #146, #354 ) ) ;
#210 = AXIS2_PLACEMENT_3D ( 'NONE', #463, #346, #460 ) ;
#211 = CIRCLE ( 'NONE', #237, 1.750000000000000000 ) ;
#212 = CARTESIAN_POINT ( 'NONE',  ( 4.500000000000000000, 21.50000000000000000, 3.000000000000000000 ) ) ;
#213 = AXIS2_PLACEMENT_3D ( 'NONE', #534, #706, #12 ) ;
#214 = CARTESIAN_POINT ( 'NONE',  ( 1.319090595827291601, 1.000000000000004441, 1.150000000000000355 ) ) ;
#215 = ORIENTED_EDGE ( 'NONE', *, *, #241, .T. ) ;
#216 = EDGE_CURVE ( 'NONE', #655, #464, #230, .T. ) ;
#217 = FACE_OUTER_BOUND ( 'NONE', #120, .T. ) ;
#218 = CIRCLE ( 'NONE', #291, 8.450000000000002842 ) ;
#219 = DIRECTION ( 'NONE',  ( 0.000000000000000000, 0.000000000000000000, 1.000000000000000000 ) ) ;
#220 = EDGE_LOOP ( 'NONE', ( #343, #407, #447, #292 ) ) ;
#221 = EDGE_CURVE ( 'NONE', #480, #195, #411, .T. ) ;
#222 = FACE_OUTER_BOUND ( 'NONE', #250, .T. ) ;
#223 = DIRECTION ( 'NONE',  ( 0.000000000000000000, 1.000000000000000000, -0.000000000000000000 ) ) ;
#224 = DIRECTION ( 'NONE',  ( 0.000000000000000000, -0.7071067811865457964, -0.7071067811865492381 ) ) ;
#225 = AXIS2_PLACEMENT_3D ( 'NONE', #352, #50, #462 ) ;
#226 = DIRECTION ( 'NONE',  ( 0.000000000000000000, 1.000000000000000000, 0.000000000000000000 ) ) ;
#227 = ORIENTED_EDGE ( 'NONE', *, *, #405, .F. ) ;
#228 = CARTESIAN_POINT ( 'NONE',  ( 1.034826545279513264E-15, 7.000000000000000000, 8.449999999999997513 ) ) ;
#229 = EDGE_CURVE ( 'NONE', #758, #497, #442, .T. ) ;
#230 = LINE ( 'NONE', #483, #598 ) ;
#231 = VECTOR ( 'NONE', #676, 1000.000000000000000 ) ;
#232 = ORIENTED_EDGE ( 'NONE', *, *, #489, .T. ) ;
#233 = CARTESIAN_POINT ( 'NONE',  ( -1.469078574833694750, 0.6702537790091932512, 1.479746220990812988 ) ) ;
#234 = CARTESIAN_POINT ( 'NONE',  ( 0.000000000000000000, 0.000000000000000000, 0.000000000000000000 ) ) ;
#235 = EDGE_LOOP ( 'NONE', ( #618, #500, #728, #31 ) ) ;
#236 = DIRECTION ( 'NONE',  ( -0.000000000000000000, -1.000000000000000000, -0.000000000000000000 ) ) ;
#237 = AXIS2_PLACEMENT_3D ( 'NONE', #654, #284, #479 ) ;
#238 = VECTOR ( 'NONE', #344, 1000.000000000000000 ) ;
#239 = CARTESIAN_POINT ( 'NONE',  ( 0.000000000000000000, 10.00000000000000000, 0.000000000000000000 ) ) ;
#240 = EDGE_LOOP ( 'NONE', ( #193, #521 ) ) ;
#241 = EDGE_CURVE ( 'NONE', #156, #758, #99, .T. ) ;
#242 = DIRECTION ( 'NONE',  ( 0.000000000000000000, 0.000000000000000000, 1.000000000000000000 ) ) ;
#243 = DIRECTION ( 'NONE',  ( -0.000000000000000000, -1.000000000000000000, -0.000000000000000000 ) ) ;
#244 = CONICAL_SURFACE ( 'NONE', #107, 1.750000000000000000, 0.7853981633974508325 ) ;
#245 = ORIENTED_EDGE ( 'NONE', *, *, #372, .F. ) ;
#246 = CARTESIAN_POINT ( 'NONE',  ( 1.224646799147353256E-15, 11.50000000000000000, 10.00000000000000000 ) ) ;
#247 = LINE ( 'NONE', #735, #469 ) ;
#248 = EDGE_LOOP ( 'NONE', ( #629, #740 ) ) ;
#249 = DIRECTION ( 'NONE',  ( -0.000000000000000000, -1.000000000000000000, -0.000000000000000000 ) ) ;
#250 = EDGE_LOOP ( 'NONE', ( #724, #517 ) ) ;
#251 = AXIS2_PLACEMENT_3D ( 'NONE', #112, #530, #580 ) ;
#252 = LINE ( 'NONE', #176, #443 ) ;
#253 = EDGE_CURVE ( 'NONE', #421, #374, #357, .T. ) ;
#254 = ORIENTED_EDGE ( 'NONE', *, *, #221, .T. ) ;
#255 = ORIENTED_EDGE ( 'NONE', *, *, #423, .F. ) ;
#256 = ADVANCED_FACE ( 'NONE', ( #592 ), #290, .F. ) ;
#257 = DIRECTION ( 'NONE',  ( 0.000000000000000000, 1.000000000000000000, 0.000000000000000000 ) ) ;
#258 = FACE_OUTER_BOUND ( 'NONE', #579, .T. ) ;
#259 = CIRCLE ( 'NONE', #337, 10.00000000000000000 ) ;
#260 = ORIENTED_EDGE ( 'NONE', *, *, #610, .F. ) ;
#261 = AXIS2_PLACEMENT_3D ( 'NONE', #207, #154, #308 ) ;
#262 = DIRECTION ( 'NONE',  ( -1.000000000000000000, -0.000000000000000000, -0.000000000000000000 ) ) ;
#263 = VECTOR ( 'NONE', #660, 1000.000000000000000 ) ;
#264 = EDGE_CURVE ( 'NONE', #89, #44, #51, .T. ) ;
#265 = CYLINDRICAL_SURFACE ( 'NONE', #74, 10.00000000000000000 ) ;
#266 = CARTESIAN_POINT ( 'NONE',  ( -1.319090595827291601, 10.00000000000000000, 1.150000000000000355 ) ) ;
#267 = DIRECTION ( 'NONE',  ( 0.000000000000000000, 0.000000000000000000, -1.000000000000000000 ) ) ;
#268 = CARTESIAN_POINT ( 'NONE',  ( 0.000000000000000000, 7.000000000000000000, 0.000000000000000000 ) ) ;
#269 = DIRECTION ( 'NONE',  ( 0.000000000000000000, 0.000000000000000000, 1.000000000000000000 ) ) ;
#270 = EDGE_LOOP ( 'NONE', ( #104, #670 ) ) ;
#271 = DIRECTION ( 'NONE',  ( 0.000000000000000000, 1.000000000000000000, 0.000000000000000000 ) ) ;
#272 = ADVANCED_FACE ( 'NONE', ( #658 ), #416, .T. ) ;
#273 = DIRECTION ( 'NONE',  ( -0.000000000000000000, -1.000000000000000000, 0.000000000000000000 ) ) ;
#274 = VECTOR ( 'NONE', #508, 1000.000000000000000 ) ;
#275 = ORIENTED_EDGE ( 'NONE', *, *, #216, .F. ) ;
#276 = DIRECTION ( 'NONE',  ( 0.000000000000000000, -0.000000000000000000, 1.000000000000000000 ) ) ;
#277 = VECTOR ( 'NONE', #617, 1000.000000000000000 ) ;
#278 = CARTESIAN_POINT ( 'NONE',  ( 0.000000000000000000, 10.00000000000000000, -1.750000000000000000 ) ) ;
#279 = EDGE_CURVE ( 'NONE', #198, #468, #686, .T. ) ;
#280 = EDGE_LOOP ( 'NONE', ( #755, #245 ) ) ;
#281 = CARTESIAN_POINT ( 'NONE',  ( -4.500000000000000000, 21.50000000000000000, 3.000000000000000000 ) ) ;
#282 = CARTESIAN_POINT ( 'NONE',  ( -4.500000000000000000, 21.50000000000000000, 3.000000000000000000 ) ) ;
#283 = SURFACE_STYLE_USAGE ( .BOTH. , #285 ) ;
#284 = DIRECTION ( 'NONE',  ( 0.000000000000000000, -1.000000000000000000, 0.000000000000000000 ) ) ;
#285 = SURFACE_SIDE_STYLE ('',( #92 ) ) ;
#286 = EDGE_CURVE ( 'NONE', #347, #662, #742, .T. ) ;
#287 = DIRECTION ( 'NONE',  ( 0.000000000000000000, 0.000000000000000000, 1.000000000000000000 ) ) ;
#288 = EDGE_LOOP ( 'NONE', ( #549, #260, #390, #338 ) ) ;
#289 = CARTESIAN_POINT ( 'NONE',  ( 0.000000000000000000, 11.50000000000000000, -1.500000000000000000 ) ) ;
#290 = CYLINDRICAL_SURFACE ( 'NONE', #721, 1.750000000000000000 ) ;
#291 = AXIS2_PLACEMENT_3D ( 'NONE', #152, #383, #727 ) ;
#292 = ORIENTED_EDGE ( 'NONE', *, *, #602, .T. ) ;
#293 = DIRECTION ( 'NONE',  ( 0.000000000000000000, 0.000000000000000000, 1.000000000000000000 ) ) ;
#294 = DIRECTION ( 'NONE',  ( 0.000000000000000000, 1.000000000000000000, 0.000000000000000000 ) ) ;
#295 = ADVANCED_FACE ( 'NONE', ( #569 ), #265, .T. ) ;
#296 = ORIENTED_EDGE ( 'NONE', *, *, #710, .T. ) ;
#297 = CARTESIAN_POINT ( 'NONE',  ( 0.000000000000000000, 21.50000000000000000, 0.000000000000000000 ) ) ;
#298 = CIRCLE ( 'NONE', #177, 8.450000000000002842 ) ;
#299 = AXIS2_PLACEMENT_3D ( 'NONE', #70, #18, #732 ) ;
#300 = AXIS2_PLACEMENT_3D ( 'NONE', #289, #41, #759 ) ;
#301 = DIRECTION ( 'NONE',  ( 0.000000000000000000, 1.000000000000000000, 0.000000000000000000 ) ) ;
#302 = VERTEX_POINT ( 'NONE', #212 ) ;
#303 = LINE ( 'NONE', #711, #526 ) ;
#304 = CARTESIAN_POINT ( 'NONE',  ( 1.034826545279513856E-15, 12.50000000000000000, 6.950000000000002842 ) ) ;
#305 = CIRCLE ( 'NONE', #701, 1.750000000000000000 ) ;
#306 = EDGE_LOOP ( 'NONE', ( #15, #675, #762, #138 ) ) ;
#307 = DIRECTION ( 'NONE',  ( 1.000000000000000000, 0.000000000000000000, 0.000000000000000000 ) ) ;
#308 = DIRECTION ( 'NONE',  ( -1.000000000000000000, 0.000000000000000000, -0.000000000000000000 ) ) ;
#309 = ORIENTED_EDGE ( 'NONE', *, *, #372, .T. ) ;
#310 = CARTESIAN_POINT ( 'NONE',  ( 0.000000000000000000, 7.000000000000000000, -8.449999999999997513 ) ) ;
#311 = ADVANCED_FACE ( 'NONE', ( #132 ), #664, .F. ) ;
#312 = AXIS2_PLACEMENT_3D ( 'NONE', #384, #738, #514 ) ;
#313 = ORIENTED_EDGE ( 'NONE', *, *, #253, .F. ) ;
#314 = AXIS2_PLACEMENT_3D ( 'NONE', #125, #236, #482 ) ;
#315 = CYLINDRICAL_SURFACE ( 'NONE', #531, 10.00000000000000000 ) ;
#316 = ORIENTED_EDGE ( 'NONE', *, *, #723, .T. ) ;
#317 = DIRECTION ( 'NONE',  ( -0.000000000000000000, -0.000000000000000000, 1.000000000000000000 ) ) ;
#318 = EDGE_LOOP ( 'NONE', ( #170, #487, #63, #597 ) ) ;
#319 = APPLICATION_CONTEXT ( 'automotive_design' ) ;
#320 = ADVANCED_FACE ( 'NONE', ( #258 ), #503, .F. ) ;
#321 = LINE ( 'NONE', #79, #331 ) ;
#322 = DIRECTION ( 'NONE',  ( 0.000000000000000000, 1.000000000000000000, 0.000000000000000000 ) ) ;
#323 = CIRCLE ( 'NONE', #98, 8.449999999999997513 ) ;
#324 = ORIENTED_EDGE ( 'NONE', *, *, #532, .F. ) ;
#325 = PRODUCT_DEFINITION ( 'UNKNOWN', '', #496, #34 ) ;
#326 = DIRECTION ( 'NONE',  ( 0.000000000000000000, 0.000000000000000000, 1.000000000000000000 ) ) ;
#327 = FILL_AREA_STYLE ('',( #432 ) ) ;
#328 = DIRECTION ( 'NONE',  ( 0.000000000000000000, -0.000000000000000000, 1.000000000000000000 ) ) ;
#329 = ORIENTED_EDGE ( 'NONE', *, *, #405, .T. ) ;
#330 = DIRECTION ( 'NONE',  ( -0.000000000000000000, -1.000000000000000000, -0.000000000000000000 ) ) ;
#331 = VECTOR ( 'NONE', #317, 1000.000000000000000 ) ;
#332 = FACE_OUTER_BOUND ( 'NONE', #318, .T. ) ;
#333 = DIRECTION ( 'NONE',  ( 0.000000000000000000, -1.000000000000000000, 0.000000000000000000 ) ) ;
#334 = DIRECTION ( 'NONE',  ( 0.000000000000000000, 0.000000000000000000, -1.000000000000000000 ) ) ;
#335 = ADVANCED_FACE ( 'NONE', ( #332 ), #677, .F. ) ;
#336 = CARTESIAN_POINT ( 'NONE',  ( -1.319090595827291601, 10.00000000000000000, 1.150000000000000355 ) ) ;
#337 = AXIS2_PLACEMENT_3D ( 'NONE', #748, #388, #162 ) ;
#338 = ORIENTED_EDGE ( 'NONE', *, *, #541, .T. ) ;
#339 = PRODUCT_CONTEXT ( 'NONE', #552, 'mechanical' ) ;
#340 = AXIS2_PLACEMENT_3D ( 'NONE', #26, #223, #269 ) ;
#341 = CYLINDRICAL_SURFACE ( 'NONE', #754, 8.449999999999997513 ) ;
#342 = CARTESIAN_POINT ( 'NONE',  ( 9.971835337589565640, 12.50000000000000000, -0.7500000000000000000 ) ) ;
#343 = ORIENTED_EDGE ( 'NONE', *, *, #356, .F. ) ;
#344 = DIRECTION ( 'NONE',  ( -1.000000000000000000, -0.000000000000000000, -0.000000000000000000 ) ) ;
#345 = VECTOR ( 'NONE', #620, 1000.000000000000000 ) ;
#346 = DIRECTION ( 'NONE',  ( 0.000000000000000000, 1.000000000000000000, -0.000000000000000000 ) ) ;
#347 = VERTEX_POINT ( 'NONE', #459 ) ;
#348 = ADVANCED_FACE ( 'NONE', ( #201 ), #22, .T. ) ;
#349 = CARTESIAN_POINT ( 'NONE',  ( 1.034826545279513856E-15, 17.50000000000000000, 6.950000000000002842 ) ) ;
#350 = CARTESIAN_POINT ( 'NONE',  ( 1.034826545279513856E-15, 17.50000000000000000, 6.950000000000002842 ) ) ;
#351 = ORIENTED_EDGE ( 'NONE', *, *, #647, .T. ) ;
#352 = CARTESIAN_POINT ( 'NONE',  ( 0.000000000000000000, 12.50000000000000000, -1.500000000000000000 ) ) ;
#353 = DIRECTION ( 'NONE',  ( 0.000000000000000000, 0.000000000000000000, 1.000000000000000000 ) ) ;
#354 = ORIENTED_EDGE ( 'NONE', *, *, #30, .T. ) ;
#355 = CARTESIAN_POINT ( 'NONE',  ( -4.500000000000000000, 17.50000000000000000, 3.000000000000000000 ) ) ;
#356 = EDGE_CURVE ( 'NONE', #468, #399, #247, .T. ) ;
#357 = LINE ( 'NONE', #350, #190 ) ;
#358 = CIRCLE ( 'NONE', #410, 1.500000000000000222 ) ;
#359 = ORIENTED_EDGE ( 'NONE', *, *, #253, .T. ) ;
#360 = DIRECTION ( 'NONE',  ( 0.000000000000000000, 0.000000000000000000, 1.000000000000000000 ) ) ;
#361 = CARTESIAN_POINT ( 'NONE',  ( 0.000000000000000000, 1.000000000000004441, 0.000000000000000000 ) ) ;
#362 = VERTEX_POINT ( 'NONE', #66 ) ;
#363 = FACE_OUTER_BOUND ( 'NONE', #220, .T. ) ;
#364 = AXIS2_PLACEMENT_3D ( 'NONE', #515, #333, #623 ) ;
#365 = CIRCLE ( 'NONE', #300, 10.00000000000000000 ) ;
#366 = DIRECTION ( 'NONE',  ( -0.000000000000000000, -1.000000000000000000, -0.000000000000000000 ) ) ;
#367 = ORIENTED_EDGE ( 'NONE', *, *, #45, .T. ) ;
#368 = CARTESIAN_POINT ( 'NONE',  ( 0.000000000000000000, 21.50000000000000000, 0.000000000000000000 ) ) ;
#369 = DIRECTION ( 'NONE',  ( 0.000000000000000000, 0.000000000000000000, 1.000000000000000000 ) ) ;
#370 = VECTOR ( 'NONE', #249, 1000.000000000000000 ) ;
#371 = ORIENTED_EDGE ( 'NONE', *, *, #647, .F. ) ;
#372 = EDGE_CURVE ( 'NONE', #700, #464, #13, .T. ) ;
#373 = DIRECTION ( 'NONE',  ( 0.000000000000000000, 0.000000000000000000, -1.000000000000000000 ) ) ;
#374 = VERTEX_POINT ( 'NONE', #304 ) ;
#375 = FACE_OUTER_BOUND ( 'NONE', #473, .T. ) ;
#376 = AXIS2_PLACEMENT_3D ( 'NONE', #159, #627, #328 ) ;
#377 = CIRCLE ( 'NONE', #210, 10.00000000000000000 ) ;
#378 = ORIENTED_EDGE ( 'NONE', *, *, #672, .T. ) ;
#379 = CIRCLE ( 'NONE', #251, 10.00000000000000000 ) ;
#380 = DIRECTION ( 'NONE',  ( 0.000000000000000000, -0.000000000000000000, 1.000000000000000000 ) ) ;
#381 = EDGE_CURVE ( 'NONE', #89, #554, #204, .T. ) ;
#382 = ORIENTED_EDGE ( 'NONE', *, *, #596, .T. ) ;
#383 = DIRECTION ( 'NONE',  ( 0.000000000000000000, 1.000000000000000000, 0.000000000000000000 ) ) ;
#384 = CARTESIAN_POINT ( 'NONE',  ( 0.000000000000000000, 13.50000000000000178, 0.000000000000000000 ) ) ;
#385 = VERTEX_POINT ( 'NONE', #7 ) ;
#386 = CARTESIAN_POINT ( 'NONE',  ( 0.000000000000000000, 13.50000000000000178, 0.000000000000000000 ) ) ;
#387 = CARTESIAN_POINT ( 'NONE',  ( 0.000000000000000000, 17.50000000000000000, -1.500000000000000000 ) ) ;
#388 = DIRECTION ( 'NONE',  ( 0.000000000000000000, 1.000000000000000000, 0.000000000000000000 ) ) ;
#389 = AXIS2_PLACEMENT_3D ( 'NONE', #398, #294, #110 ) ;
#390 = ORIENTED_EDGE ( 'NONE', *, *, #441, .F. ) ;
#391 = AXIS2_PLACEMENT_3D ( 'NONE', #387, #621, #189 ) ;
#392 = PLANE ( 'NONE',  #543 ) ;
#393 = DIRECTION ( 'NONE',  ( 0.000000000000000000, -0.000000000000000000, 1.000000000000000000 ) ) ;
#394 = CARTESIAN_POINT ( 'NONE',  ( 0.000000000000000000, 10.00000000000000000, -1.750000000000000000 ) ) ;
#395 = ADVANCED_FACE ( 'NONE', ( #562, #548 ), #681, .F. ) ;
#396 = CARTESIAN_POINT ( 'NONE',  ( -9.971835337589565640, 12.50000000000000000, -0.7500000000000002220 ) ) ;
#397 = PRODUCT_DEFINITION_SHAPE ( 'NONE', 'NONE',  #325 ) ;
#398 = CARTESIAN_POINT ( 'NONE',  ( 0.000000000000000000, 0.000000000000000000, 0.000000000000000000 ) ) ;
#399 = VERTEX_POINT ( 'NONE', #566 ) ;
#400 = CARTESIAN_POINT ( 'NONE',  ( -1.714642819948227093, 0.000000000000000000, 2.150000000000009681 ) ) ;
#401 = ORIENTED_EDGE ( 'NONE', *, *, #610, .T. ) ;
#402 = EDGE_LOOP ( 'NONE', ( #646, #227, #111, #19 ) ) ;
#403 = AXIS2_PLACEMENT_3D ( 'NONE', #62, #301, #353 ) ;
#404 = AXIS2_PLACEMENT_3D ( 'NONE', #180, #599, #663 ) ;
#405 = EDGE_CURVE ( 'NONE', #8, #662, #626, .T. ) ;
#406 = DIRECTION ( 'NONE',  ( 0.000000000000000000, 1.000000000000000000, -0.000000000000000000 ) ) ;
#407 = ORIENTED_EDGE ( 'NONE', *, *, #279, .F. ) ;
#408 =( NAMED_UNIT ( * ) SI_UNIT ( $, .STERADIAN. ) SOLID_ANGLE_UNIT ( ) );
#409 = FACE_OUTER_BOUND ( 'NONE', #667, .T. ) ;
#410 = AXIS2_PLACEMENT_3D ( 'NONE', #386, #559, #326 ) ;
#411 = LINE ( 'NONE', #535, #525 ) ;
#412 = EDGE_CURVE ( 'NONE', #421, #480, #652, .T. ) ;
#413 = ORIENTED_EDGE ( 'NONE', *, *, #91, .T. ) ;
#414 = APPLICATION_PROTOCOL_DEFINITION ( 'draft international standard', 'automotive_design', 1998, #319 ) ;
#415 = MANIFOLD_SOLID_BREP ( 'Chamfer1', #456 ) ;
#416 = CYLINDRICAL_SURFACE ( 'NONE', #622, 10.00000000000000000 ) ;
#417 = ORIENTED_EDGE ( 'NONE', *, *, #481, .F. ) ;
#418 = EDGE_CURVE ( 'NONE', #198, #684, #86, .T. ) ;
#419 = DIRECTION ( 'NONE',  ( 0.000000000000000000, 1.000000000000000000, 0.000000000000000000 ) ) ;
#420 = CARTESIAN_POINT ( 'NONE',  ( 0.000000000000000000, 13.50000000000000178, 1.500000000000000222 ) ) ;
#421 = VERTEX_POINT ( 'NONE', #349 ) ;
#422 = DIRECTION ( 'NONE',  ( 0.000000000000000000, -0.000000000000000000, -1.000000000000000000 ) ) ;
#423 = EDGE_CURVE ( 'NONE', #97, #662, #365, .T. ) ;
#424 = DIRECTION ( 'NONE',  ( 0.000000000000000000, -1.000000000000000000, 0.000000000000000000 ) ) ;
#425 = AXIS2_PLACEMENT_3D ( 'NONE', #171, #750, #164 ) ;
#426 = ORIENTED_EDGE ( 'NONE', *, *, #692, .F. ) ;
#427 = FACE_OUTER_BOUND ( 'NONE', #306, .T. ) ;
#428 = CARTESIAN_POINT ( 'NONE',  ( -1.319090595827291601, 1.000000000000004441, 1.150000000000000355 ) ) ;
#429 = ORIENTED_EDGE ( 'NONE', *, *, #14, .F. ) ;
#430 = FACE_OUTER_BOUND ( 'NONE', #124, .T. ) ;
#431 = AXIS2_PLACEMENT_3D ( 'NONE', #465, #747, #276 ) ;
#432 = FILL_AREA_STYLE_COLOUR ( '', #493 ) ;
#433 = EDGE_CURVE ( 'NONE', #494, #758, #158, .T. ) ;
#434 = ORIENTED_EDGE ( 'NONE', *, *, #668, .F. ) ;
#435 = DIRECTION ( 'NONE',  ( 0.000000000000000000, 0.000000000000000000, 1.000000000000000000 ) ) ;
#436 = VECTOR ( 'NONE', #262, 1000.000000000000000 ) ;
#437 = ORIENTED_EDGE ( 'NONE', *, *, #150, .F. ) ;
#438 = CARTESIAN_POINT ( 'NONE',  ( 1.224646799147353256E-15, 7.000000000000000000, 10.00000000000000000 ) ) ;
#439 = ORIENTED_EDGE ( 'NONE', *, *, #753, .F. ) ;
#440 = FACE_OUTER_BOUND ( 'NONE', #402, .T. ) ;
#441 = EDGE_CURVE ( 'NONE', #362, #529, #470, .T. ) ;
#442 = CIRCLE ( 'NONE', #389, 2.750000000000008882 ) ;
#443 = VECTOR ( 'NONE', #590, 1000.000000000000000 ) ;
#444 = ORIENTED_EDGE ( 'NONE', *, *, #489, .F. ) ;
#445 = LINE ( 'NONE', #737, #231 ) ;
#446 = DIRECTION ( 'NONE',  ( 0.000000000000000000, 0.000000000000000000, 1.000000000000000000 ) ) ;
#447 = ORIENTED_EDGE ( 'NONE', *, *, #418, .T. ) ;
#448 = AXIS2_PLACEMENT_3D ( 'NONE', #81, #257, #380 ) ;
#449 = LINE ( 'NONE', #194, #43 ) ;
#450 = CARTESIAN_POINT ( 'NONE',  ( -1.319090595827291601, 10.00000000000000000, 1.150000000000000355 ) ) ;
#451 = DIRECTION ( 'NONE',  ( -0.000000000000000000, -1.000000000000000000, -0.000000000000000000 ) ) ;
#452 =( LENGTH_UNIT ( ) NAMED_UNIT ( * ) SI_UNIT ( .MILLI., .METRE. ) );
#453 = DIRECTION ( 'NONE',  ( 0.000000000000000000, 1.000000000000000000, 0.000000000000000000 ) ) ;
#454 = EDGE_LOOP ( 'NONE', ( #612, #56, #309, #275, #560, #329 ) ) ;
#455 = ADVANCED_FACE ( 'NONE', ( #409 ), #341, .T. ) ;
#456 = CLOSED_SHELL ( 'NONE', ( #682, #256, #511, #565, #272, #348, #455, #501, #295, #730, #395, #761, #10, #58, #587, #320, #137, #498, #335, #591, #619, #704, #161, #311, #102, #185, #749 ) ) ;
#457 = ORIENTED_EDGE ( 'NONE', *, *, #466, .T. ) ;
#458 = VECTOR ( 'NONE', #719, 1000.000000000000000 ) ;
#459 = CARTESIAN_POINT ( 'NONE',  ( 1.224646799147353256E-15, 11.50000000000000000, 10.00000000000000000 ) ) ;
#460 = DIRECTION ( 'NONE',  ( 0.000000000000000000, 0.000000000000000000, 1.000000000000000000 ) ) ;
#461 = EDGE_LOOP ( 'NONE', ( #1, #60, #605, #593 ) ) ;
#462 = DIRECTION ( 'NONE',  ( 0.000000000000000000, 0.000000000000000000, 1.000000000000000000 ) ) ;
#463 = CARTESIAN_POINT ( 'NONE',  ( 0.000000000000000000, 12.50000000000000000, 0.000000000000000000 ) ) ;
#464 = VERTEX_POINT ( 'NONE', #756 ) ;
#465 = CARTESIAN_POINT ( 'NONE',  ( 0.000000000000000000, 0.000000000000000000, 0.000000000000000000 ) ) ;
#466 = EDGE_CURVE ( 'NONE', #48, #8, #379, .T. ) ;
#467 = CARTESIAN_POINT ( 'NONE',  ( 0.000000000000000000, 7.000000000000000000, 0.000000000000000000 ) ) ;
#468 = VERTEX_POINT ( 'NONE', #577 ) ;
#469 = VECTOR ( 'NONE', #82, 1000.000000000000000 ) ;
#470 = LINE ( 'NONE', #105, #238 ) ;
#471 = EDGE_CURVE ( 'NONE', #48, #97, #478, .T. ) ;
#472 = DIRECTION ( 'NONE',  ( 0.000000000000000000, -1.000000000000000000, 0.000000000000000000 ) ) ;
#473 = EDGE_LOOP ( 'NONE', ( #695, #83 ) ) ;
#474 =( NAMED_UNIT ( * ) SI_UNIT ( $, .STERADIAN. ) SOLID_ANGLE_UNIT ( ) );
#475 =( GEOMETRIC_REPRESENTATION_CONTEXT ( 3 ) GLOBAL_UNCERTAINTY_ASSIGNED_CONTEXT ( ( #632 ) ) GLOBAL_UNIT_ASSIGNED_CONTEXT ( ( #452, #40, #408 ) ) REPRESENTATION_CONTEXT ( 'NONE', 'WORKASPACE' ) );
#476 = DIRECTION ( 'NONE',  ( 0.000000000000000000, 0.000000000000000000, 1.000000000000000000 ) ) ;
#477 = ORIENTED_EDGE ( 'NONE', *, *, #745, .F. ) ;
#478 = LINE ( 'NONE', #396, #674 ) ;
#479 = DIRECTION ( 'NONE',  ( 0.000000000000000000, 0.000000000000000000, 1.000000000000000000 ) ) ;
#480 = VERTEX_POINT ( 'NONE', #702 ) ;
#481 = EDGE_CURVE ( 'NONE', #497, #554, #713, .T. ) ;
#482 = DIRECTION ( 'NONE',  ( 0.000000000000000000, 0.000000000000000000, -1.000000000000000000 ) ) ;
#483 = CARTESIAN_POINT ( 'NONE',  ( 0.000000000000000000, 11.50000000000000000, -10.00000000000000000 ) ) ;
#484 = ORIENTED_EDGE ( 'NONE', *, *, #433, .F. ) ;
#485 = LINE ( 'NONE', #722, #263 ) ;
#486 = PLANE ( 'NONE',  #153 ) ;
#487 = ORIENTED_EDGE ( 'NONE', *, *, #636, .F. ) ;
#488 = CARTESIAN_POINT ( 'NONE',  ( -4.500000000000000000, 21.50000000000000000, -3.000000000000000000 ) ) ;
#489 = EDGE_CURVE ( 'NONE', #195, #374, #76, .T. ) ;
#490 = CARTESIAN_POINT ( 'NONE',  ( 0.000000000000000000, 7.000000000000000000, 0.000000000000000000 ) ) ;
#491 = VERTEX_POINT ( 'NONE', #228 ) ;
#492 = LINE ( 'NONE', #134, #557 ) ;
#493 = COLOUR_RGB ( '',0.7921568627450980005, 0.8196078431372548767, 0.9333333333333333481 ) ;
#494 = VERTEX_POINT ( 'NONE', #33 ) ;
#495 = CARTESIAN_POINT ( 'NONE',  ( 0.000000000000000000, 1.000000000000004441, 0.000000000000000000 ) ) ;
#496 = PRODUCT_DEFINITION_FORMATION_WITH_SPECIFIED_SOURCE ( 'ANY', '', #633, .NOT_KNOWN. ) ;
#497 = VERTEX_POINT ( 'NONE', #172 ) ;
#498 = ADVANCED_FACE ( 'NONE', ( #630 ), #95, .F. ) ;
#499 = DIRECTION ( 'NONE',  ( 0.000000000000000000, -1.000000000000000000, 0.000000000000000000 ) ) ;
#500 = ORIENTED_EDGE ( 'NONE', *, *, #678, .F. ) ;
#501 = ADVANCED_FACE ( 'NONE', ( #571, #222 ), #160, .F. ) ;
#502 = FACE_OUTER_BOUND ( 'NONE', #235, .T. ) ;
#503 = PLANE ( 'NONE',  #299 ) ;
#504 = AXIS2_PLACEMENT_3D ( 'NONE', #29, #453, #685 ) ;
#505 = EDGE_LOOP ( 'NONE', ( #536, #589, #191, #429, #32, #563 ) ) ;
#506 = PLANE ( 'NONE',  #628 ) ;
#507 = DIRECTION ( 'NONE',  ( -0.000000000000000000, -1.000000000000000000, -0.000000000000000000 ) ) ;
#508 = DIRECTION ( 'NONE',  ( -0.000000000000000000, -1.000000000000000000, -0.000000000000000000 ) ) ;
#509 = DIRECTION ( 'NONE',  ( 1.000000000000000000, 0.000000000000000000, -0.000000000000000000 ) ) ;
#510 = UNCERTAINTY_MEASURE_WITH_UNIT (LENGTH_MEASURE( 1.000000000000000082E-05 ), #527, 'distance_accuracy_value', 'NONE');
#511 = ADVANCED_FACE ( 'NONE', ( #217 ), #693, .F. ) ;
#512 = ORIENTED_EDGE ( 'NONE', *, *, #356, .T. ) ;
#513 = ORIENTED_EDGE ( 'NONE', *, *, #672, .F. ) ;
#514 = DIRECTION ( 'NONE',  ( 0.000000000000000000, 0.000000000000000000, 1.000000000000000000 ) ) ;
#515 = CARTESIAN_POINT ( 'NONE',  ( 0.000000000000000000, 10.00000000000000000, 0.000000000000000000 ) ) ;
#516 = AXIS2_PLACEMENT_3D ( 'NONE', #145, #446, #509 ) ;
#517 = ORIENTED_EDGE ( 'NONE', *, *, #142, .F. ) ;
#518 = VECTOR ( 'NONE', #224, 1000.000000000000114 ) ;
#519 = DIRECTION ( 'NONE',  ( -0.000000000000000000, 1.000000000000000000, -0.000000000000000000 ) ) ;
#520 = VERTEX_POINT ( 'NONE', #117 ) ;
#521 = ORIENTED_EDGE ( 'NONE', *, *, #127, .T. ) ;
#522 = DIRECTION ( 'NONE',  ( 1.000000000000000000, -0.000000000000000000, 0.000000000000000000 ) ) ;
#523 = CARTESIAN_POINT ( 'NONE',  ( 0.000000000000000000, 12.50000000000000000, -1.500000000000000000 ) ) ;
#524 = FACE_OUTER_BOUND ( 'NONE', #288, .T. ) ;
#525 = VECTOR ( 'NONE', #645, 1000.000000000000000 ) ;
#526 = VECTOR ( 'NONE', #307, 1000.000000000000000 ) ;
#527 =( LENGTH_UNIT ( ) NAMED_UNIT ( * ) SI_UNIT ( .MILLI., .METRE. ) );
#528 = DIRECTION ( 'NONE',  ( -0.000000000000000000, -1.000000000000000000, -0.000000000000000000 ) ) ;
#529 = VERTEX_POINT ( 'NONE', #488 ) ;
#530 = DIRECTION ( 'NONE',  ( 0.000000000000000000, 1.000000000000000000, -0.000000000000000000 ) ) ;
#531 = AXIS2_PLACEMENT_3D ( 'NONE', #555, #671, #267 ) ;
#532 = EDGE_CURVE ( 'NONE', #302, #362, #252, .T. ) ;
#533 = EDGE_LOOP ( 'NONE', ( #215, #558, #135 ) ) ;
#534 = CARTESIAN_POINT ( 'NONE',  ( 0.000000000000000000, 13.50000000000000178, 0.000000000000000000 ) ) ;
#535 = CARTESIAN_POINT ( 'NONE',  ( 0.000000000000000000, 17.50000000000000000, -9.950000000000002842 ) ) ;
#536 = ORIENTED_EDGE ( 'NONE', *, *, #631, .F. ) ;
#537 = DIRECTION ( 'NONE',  ( 0.000000000000000000, 1.000000000000000000, 0.000000000000000000 ) ) ;
#538 = VECTOR ( 'NONE', #57, 1000.000000000000000 ) ;
#539 = DIRECTION ( 'NONE',  ( 8.881784197001252323E-16, 0.000000000000000000, 1.000000000000000000 ) ) ;
#540 = VERTEX_POINT ( 'NONE', #355 ) ;
#541 = EDGE_CURVE ( 'NONE', #362, #71, #3, .T. ) ;
#542 = DIRECTION ( 'NONE',  ( -0.000000000000000000, 1.000000000000000000, -0.000000000000000000 ) ) ;
#543 = AXIS2_PLACEMENT_3D ( 'NONE', #561, #197, #20 ) ;
#544 = CARTESIAN_POINT ( 'NONE',  ( 0.000000000000000000, 11.50000000000000000, 0.000000000000000000 ) ) ;
#545 = ORIENTED_EDGE ( 'NONE', *, *, #381, .F. ) ;
#546 = CARTESIAN_POINT ( 'NONE',  ( -4.500000000000000000, 21.50000000000000000, 3.000000000000000000 ) ) ;
#547 = EDGE_CURVE ( 'NONE', #529, #584, #715, .T. ) ;
#548 = FACE_OUTER_BOUND ( 'NONE', #280, .T. ) ;
#549 = ORIENTED_EDGE ( 'NONE', *, *, #745, .T. ) ;
#550 = CARTESIAN_POINT ( 'NONE',  ( 0.000000000000000000, 12.50000000000000000, -10.00000000000000000 ) ) ;
#551 = CIRCLE ( 'NONE', #21, 1.750000000000000000 ) ;
#552 = APPLICATION_CONTEXT ( 'automotive_design' ) ;
#553 = EDGE_CURVE ( 'NONE', #464, #700, #199, .T. ) ;
#554 = VERTEX_POINT ( 'NONE', #666 ) ;
#555 = CARTESIAN_POINT ( 'NONE',  ( 0.000000000000000000, 12.50000000000000000, -1.500000000000000000 ) ) ;
#556 = PRODUCT_RELATED_PRODUCT_CATEGORY ( 'part', '', ( #633 ) ) ;
#557 = VECTOR ( 'NONE', #373, 1000.000000000000000 ) ;
#558 = ORIENTED_EDGE ( 'NONE', *, *, #229, .T. ) ;
#559 = DIRECTION ( 'NONE',  ( 0.000000000000000000, 1.000000000000000000, 0.000000000000000000 ) ) ;
#560 = ORIENTED_EDGE ( 'NONE', *, *, #122, .F. ) ;
#561 = CARTESIAN_POINT ( 'NONE',  ( 0.000000000000000000, 11.50000000000000000, 0.000000000000000000 ) ) ;
#562 = FACE_BOUND ( 'NONE', #240, .T. ) ;
#563 = ORIENTED_EDGE ( 'NONE', *, *, #553, .T. ) ;
#564 = DIRECTION ( 'NONE',  ( 0.000000000000000000, 0.7071067811865492381, 0.7071067811865459074 ) ) ;
#565 = ADVANCED_FACE ( 'NONE', ( #763 ), #192, .T. ) ;
#566 = CARTESIAN_POINT ( 'NONE',  ( 1.836970198721030181E-16, 21.50000000000000000, -1.500000000000000222 ) ) ;
#567 = DIRECTION ( 'NONE',  ( 0.000000000000000000, 1.000000000000000000, 0.000000000000000000 ) ) ;
#568 = LINE ( 'NONE', #147, #614 ) ;
#569 = FACE_OUTER_BOUND ( 'NONE', #505, .T. ) ;
#570 = DIRECTION ( 'NONE',  ( 0.000000000000000000, 0.000000000000000000, 1.000000000000000000 ) ) ;
#571 = FACE_BOUND ( 'NONE', #533, .T. ) ;
#572 = EDGE_CURVE ( 'NONE', #540, #27, #303, .T. ) ;
#573 = VECTOR ( 'NONE', #123, 1000.000000000000000 ) ;
#574 = CARTESIAN_POINT ( 'NONE',  ( 0.000000000000000000, 0.000000000000000000, -8.449999999999997513 ) ) ;
#575 = PRESENTATION_LAYER_ASSIGNMENT (  '', '', ( #139 ) ) ;
#576 = ORIENTED_EDGE ( 'NONE', *, *, #118, .F. ) ;
#577 = CARTESIAN_POINT ( 'NONE',  ( 1.836970198721030181E-16, 13.50000000000000178, -1.500000000000000222 ) ) ;
#578 = FACE_BOUND ( 'NONE', #11, .T. ) ;
#579 = EDGE_LOOP ( 'NONE', ( #351, #182, #324, #733 ) ) ;
#580 = DIRECTION ( 'NONE',  ( 0.000000000000000000, 0.000000000000000000, 1.000000000000000000 ) ) ;
#581 = CARTESIAN_POINT ( 'NONE',  ( 0.000000000000000000, 0.000000000000000000, 0.000000000000000000 ) ) ;
#582 = EDGE_LOOP ( 'NONE', ( #746, #39, #642, #607 ) ) ;
#583 = CARTESIAN_POINT ( 'NONE',  ( -1.319090595827291601, 1.000000000000004441, 1.150000000000000355 ) ) ;
#584 = VERTEX_POINT ( 'NONE', #546 ) ;
#585 = AXIS2_PLACEMENT_3D ( 'NONE', #234, #716, #588 ) ;
#586 = DIRECTION ( 'NONE',  ( -0.000000000000000000, -1.000000000000000000, -0.000000000000000000 ) ) ;
#587 = ADVANCED_FACE ( 'NONE', ( #430 ), #131, .T. ) ;
#588 = DIRECTION ( 'NONE',  ( 0.000000000000000000, 0.000000000000000000, 1.000000000000000000 ) ) ;
#589 = ORIENTED_EDGE ( 'NONE', *, *, #68, .F. ) ;
#590 = DIRECTION ( 'NONE',  ( 0.000000000000000000, 0.000000000000000000, -1.000000000000000000 ) ) ;
#591 = ADVANCED_FACE ( 'NONE', ( #9, #427 ), #184, .F. ) ;
#592 = FACE_OUTER_BOUND ( 'NONE', #638, .T. ) ;
#593 = ORIENTED_EDGE ( 'NONE', *, *, #150, .T. ) ;
#594 = DIRECTION ( 'NONE',  ( -0.000000000000000000, -1.000000000000000000, -0.000000000000000000 ) ) ;
#595 = LINE ( 'NONE', #428, #573 ) ;
#596 = EDGE_CURVE ( 'NONE', #399, #684, #743, .T. ) ;
#597 = ORIENTED_EDGE ( 'NONE', *, *, #118, .T. ) ;
#598 = VECTOR ( 'NONE', #169, 1000.000000000000000 ) ;
#599 = DIRECTION ( 'NONE',  ( -0.000000000000000000, -1.000000000000000000, -0.000000000000000000 ) ) ;
#600 = DIRECTION ( 'NONE',  ( 0.000000000000000000, 0.000000000000000000, -1.000000000000000000 ) ) ;
#601 = ORIENTED_EDGE ( 'NONE', *, *, #418, .F. ) ;
#602 = EDGE_CURVE ( 'NONE', #684, #399, #101, .T. ) ;
#603 = DIRECTION ( 'NONE',  ( 0.000000000000000000, -1.000000000000000000, 0.000000000000000000 ) ) ;
#604 = CARTESIAN_POINT ( 'NONE',  ( 0.000000000000000000, 11.50000000000000000, 0.000000000000000000 ) ) ;
#605 = ORIENTED_EDGE ( 'NONE', *, *, #381, .T. ) ;
#606 = LINE ( 'NONE', #72, #370 ) ;
#607 = ORIENTED_EDGE ( 'NONE', *, *, #16, .F. ) ;
#608 = CARTESIAN_POINT ( 'NONE',  ( -4.500000000000000000, 21.50000000000000000, 3.000000000000000000 ) ) ;
#609 = AXIS2_PLACEMENT_3D ( 'NONE', #649, #243, #760 ) ;
#610 = EDGE_CURVE ( 'NONE', #529, #520, #485, .T. ) ;
#611 = CIRCLE ( 'NONE', #340, 10.00000000000000000 ) ;
#612 = ORIENTED_EDGE ( 'NONE', *, *, #286, .F. ) ;
#613 = CARTESIAN_POINT ( 'NONE',  ( 0.000000000000000000, 0.000000000000000000, 2.150000000000009681 ) ) ;
#614 = VECTOR ( 'NONE', #330, 1000.000000000000000 ) ;
#615 = ORIENTED_EDGE ( 'NONE', *, *, #91, .F. ) ;
#616 = DIRECTION ( 'NONE',  ( -0.000000000000000000, -1.000000000000000000, -0.000000000000000000 ) ) ;
#617 = DIRECTION ( 'NONE',  ( -0.000000000000000000, -1.000000000000000000, -0.000000000000000000 ) ) ;
#618 = ORIENTED_EDGE ( 'NONE', *, *, #16, .T. ) ;
#619 = ADVANCED_FACE ( 'NONE', ( #363 ), #65, .F. ) ;
#620 = DIRECTION ( 'NONE',  ( 1.000000000000000000, 0.000000000000000000, 0.000000000000000000 ) ) ;
#621 = DIRECTION ( 'NONE',  ( 0.000000000000000000, 1.000000000000000000, 0.000000000000000000 ) ) ;
#622 = AXIS2_PLACEMENT_3D ( 'NONE', #114, #25, #689 ) ;
#623 = DIRECTION ( 'NONE',  ( 0.000000000000000000, -0.000000000000000000, -1.000000000000000000 ) ) ;
#624 = ORIENTED_EDGE ( 'NONE', *, *, #572, .F. ) ;
#625 = LINE ( 'NONE', #136, #436 ) ;
#626 = LINE ( 'NONE', #148, #458 ) ;
#627 = DIRECTION ( 'NONE',  ( 0.000000000000000000, 1.000000000000000000, 0.000000000000000000 ) ) ;
#628 = AXIS2_PLACEMENT_3D ( 'NONE', #729, #564, #75 ) ;
#629 = ORIENTED_EDGE ( 'NONE', *, *, #602, .F. ) ;
#630 = FACE_OUTER_BOUND ( 'NONE', #73, .T. ) ;
#631 = EDGE_CURVE ( 'NONE', #347, #700, #5, .T. ) ;
#632 = UNCERTAINTY_MEASURE_WITH_UNIT (LENGTH_MEASURE( 1.000000000000000082E-05 ), #452, 'distance_accuracy_value', 'NONE');
#633 = PRODUCT ( 'input_small_motor', 'input_small_motor', '', ( #339 ) ) ;
#634 = DIRECTION ( 'NONE',  ( -1.000000000000000000, -0.000000000000000000, -0.000000000000000000 ) ) ;
#635 = EDGE_LOOP ( 'NONE', ( #659, #378, #67, #202 ) ) ;
#636 = EDGE_CURVE ( 'NONE', #302, #27, #606, .T. ) ;
#637 = AXIS2_PLACEMENT_3D ( 'NONE', #757, #424, #703 ) ;
#638 = EDGE_LOOP ( 'NONE', ( #439, #367, #94, #641 ) ) ;
#639 = AXIS2_PLACEMENT_3D ( 'NONE', #653, #419, #293 ) ;
#640 = CARTESIAN_POINT ( 'NONE',  ( 0.000000000000000000, 13.50000000000000178, 1.500000000000000222 ) ) ;
#641 = ORIENTED_EDGE ( 'NONE', *, *, #710, .F. ) ;
#642 = ORIENTED_EDGE ( 'NONE', *, *, #241, .F. ) ;
#643 = DIRECTION ( 'NONE',  ( -0.000000000000000000, -1.000000000000000000, -0.000000000000000000 ) ) ;
#644 = ADVANCED_BREP_SHAPE_REPRESENTATION ( 'input_small_motor', ( #415, #425 ), #475 ) ;
#645 = DIRECTION ( 'NONE',  ( -0.000000000000000000, -1.000000000000000000, -0.000000000000000000 ) ) ;
#646 = ORIENTED_EDGE ( 'NONE', *, *, #423, .T. ) ;
#647 = EDGE_CURVE ( 'NONE', #27, #71, #492, .T. ) ;
#648 = CARTESIAN_POINT ( 'NONE',  ( 0.000000000000000000, 7.000000000000000000, 0.000000000000000000 ) ) ;
#649 = CARTESIAN_POINT ( 'NONE',  ( 0.000000000000000000, 10.00000000000000000, 0.000000000000000000 ) ) ;
#650 = VERTEX_POINT ( 'NONE', #310 ) ;
#651 = CIRCLE ( 'NONE', #731, 8.449999999999997513 ) ;
#652 = CIRCLE ( 'NONE', #391, 8.450000000000002842 ) ;
#653 = CARTESIAN_POINT ( 'NONE',  ( 0.000000000000000000, 7.000000000000000000, 0.000000000000000000 ) ) ;
#654 = CARTESIAN_POINT ( 'NONE',  ( 0.000000000000000000, 1.000000000000004441, 0.000000000000000000 ) ) ;
#655 = VERTEX_POINT ( 'NONE', #550 ) ;
#656 = CARTESIAN_POINT ( 'NONE',  ( 0.000000000000000000, 21.50000000000000000, 0.000000000000000000 ) ) ;
#657 = EDGE_CURVE ( 'NONE', #584, #302, #203, .T. ) ;
#658 = FACE_OUTER_BOUND ( 'NONE', #454, .T. ) ;
#659 = ORIENTED_EDGE ( 'NONE', *, *, #127, .F. ) ;
#660 = DIRECTION ( 'NONE',  ( -0.000000000000000000, -1.000000000000000000, -0.000000000000000000 ) ) ;
#661 = DIRECTION ( 'NONE',  ( 1.000000000000000000, 0.000000000000000000, -0.000000000000000000 ) ) ;
#662 = VERTEX_POINT ( 'NONE', #90 ) ;
#663 = DIRECTION ( 'NONE',  ( 0.000000000000000000, 0.000000000000000000, -1.000000000000000000 ) ) ;
#664 = PLANE ( 'NONE',  #516 ) ;
#665 = EDGE_LOOP ( 'NONE', ( #484, #437, #417, #129 ) ) ;
#666 = CARTESIAN_POINT ( 'NONE',  ( -1.319090595827291601, 1.000000000000004441, 1.150000000000000355 ) ) ;
#667 = EDGE_LOOP ( 'NONE', ( #513, #80, #688, #78 ) ) ;
#668 = EDGE_CURVE ( 'NONE', #480, #421, #218, .T. ) ;
#669 = CARTESIAN_POINT ( 'NONE',  ( 0.000000000000000000, 21.50000000000000000, 1.500000000000000222 ) ) ;
#670 = ORIENTED_EDGE ( 'NONE', *, *, #412, .T. ) ;
#671 = DIRECTION ( 'NONE',  ( -0.000000000000000000, -1.000000000000000000, -0.000000000000000000 ) ) ;
#672 = EDGE_CURVE ( 'NONE', #491, #163, #568, .T. ) ;
#673 = CONICAL_SURFACE ( 'NONE', #766, 1.750000000000000000, 0.7853981633974508325 ) ;
#674 = VECTOR ( 'NONE', #643, 1000.000000000000000 ) ;
#675 = ORIENTED_EDGE ( 'NONE', *, *, #441, .T. ) ;
#676 = DIRECTION ( 'NONE',  ( -0.000000000000000000, -1.000000000000000000, -0.000000000000000000 ) ) ;
#677 = PLANE ( 'NONE',  #261 ) ;
#678 = EDGE_CURVE ( 'NONE', #497, #156, #144, .T. ) ;
#679 = EDGE_LOOP ( 'NONE', ( #296, #143, #545, #133 ) ) ;
#680 = CARTESIAN_POINT ( 'NONE',  ( 0.000000000000000000, 10.00000000000000000, 0.000000000000000000 ) ) ;
#681 = PLANE ( 'NONE',  #37 ) ;
#682 = ADVANCED_FACE ( 'NONE', ( #84 ), #244, .F. ) ;
#683 = FACE_OUTER_BOUND ( 'NONE', #270, .T. ) ;
#684 = VERTEX_POINT ( 'NONE', #669 ) ;
#685 = DIRECTION ( 'NONE',  ( 0.000000000000000000, 0.000000000000000000, 1.000000000000000000 ) ) ;
#686 = CIRCLE ( 'NONE', #312, 1.500000000000000222 ) ;
#687 = PLANE ( 'NONE',  #113 ) ;
#688 = ORIENTED_EDGE ( 'NONE', *, *, #699, .T. ) ;
#689 = DIRECTION ( 'NONE',  ( 0.000000000000000000, 0.000000000000000000, -1.000000000000000000 ) ) ;
#690 = CARTESIAN_POINT ( 'NONE',  ( 1.714642819948227093, 0.000000000000000000, 2.150000000000009681 ) ) ;
#691 = AXIS2_PLACEMENT_3D ( 'NONE', #718, #542, #435 ) ;
#692 = EDGE_CURVE ( 'NONE', #468, #198, #358, .T. ) ;
#693 = CYLINDRICAL_SURFACE ( 'NONE', #213, 1.500000000000000222 ) ;
#694 = CARTESIAN_POINT ( 'NONE',  ( -9.971835337589565640, 11.50000000000000000, -0.7500000000000000000 ) ) ;
#695 = ORIENTED_EDGE ( 'NONE', *, *, #279, .T. ) ;
#696 = VECTOR ( 'NONE', #451, 1000.000000000000000 ) ;
#697 = DIRECTION ( 'NONE',  ( 0.000000000000000000, 1.000000000000000000, 0.000000000000000000 ) ) ;
#698 = AXIS2_PLACEMENT_3D ( 'NONE', #268, #366, #600 ) ;
#699 = EDGE_CURVE ( 'NONE', #650, #116, #449, .T. ) ;
#700 = VERTEX_POINT ( 'NONE', #438 ) ;
#701 = AXIS2_PLACEMENT_3D ( 'NONE', #680, #499, #200 ) ;
#702 = CARTESIAN_POINT ( 'NONE',  ( 0.000000000000000000, 17.50000000000000000, -9.950000000000002842 ) ) ;
#703 = DIRECTION ( 'NONE',  ( 0.000000000000000000, 0.000000000000000000, -1.000000000000000000 ) ) ;
#704 = ADVANCED_FACE ( 'NONE', ( #375 ), #140, .T. ) ;
#705 = EDGE_LOOP ( 'NONE', ( #167, #708, #255 ) ) ;
#706 = DIRECTION ( 'NONE',  ( -0.000000000000000000, 1.000000000000000000, -0.000000000000000000 ) ) ;
#707 = CARTESIAN_POINT ( 'NONE',  ( -4.500000000000000000, 21.50000000000000000, -3.000000000000000000 ) ) ;
#708 = ORIENTED_EDGE ( 'NONE', *, *, #286, .T. ) ;
#709 =( GEOMETRIC_REPRESENTATION_CONTEXT ( 3 ) GLOBAL_UNCERTAINTY_ASSIGNED_CONTEXT ( ( #510 ) ) GLOBAL_UNIT_ASSIGNED_CONTEXT ( ( #527, #54, #474 ) ) REPRESENTATION_CONTEXT ( 'NONE', 'WORKASPACE' ) );
#710 = EDGE_CURVE ( 'NONE', #53, #385, #445, .T. ) ;
#711 = CARTESIAN_POINT ( 'NONE',  ( -4.500000000000000000, 17.50000000000000000, 3.000000000000000000 ) ) ;
#712 = DIRECTION ( 'NONE',  ( 0.000000000000000000, 0.000000000000000000, -1.000000000000000000 ) ) ;
#713 = B_SPLINE_CURVE_WITH_KNOTS ( 'NONE', 3,
 ( #400, #109, #233, #583 ),
 .UNSPECIFIED., .F., .F.,
 ( 4, 4 ),
 ( 0.000000000000000000, 0.001468489551207990832 ),
 .UNSPECIFIED. ) ;
#714 = EDGE_LOOP ( 'NONE', ( #232, #413 ) ) ;
#715 = LINE ( 'NONE', #188, #538 ) ;
#716 = DIRECTION ( 'NONE',  ( 0.000000000000000000, 1.000000000000000000, 0.000000000000000000 ) ) ;
#717 = EDGE_LOOP ( 'NONE', ( #179, #359, #444, #4 ) ) ;
#718 = CARTESIAN_POINT ( 'NONE',  ( 0.000000000000000000, 13.50000000000000178, 0.000000000000000000 ) ) ;
#719 = DIRECTION ( 'NONE',  ( -0.000000000000000000, -1.000000000000000000, -0.000000000000000000 ) ) ;
#720 = EDGE_LOOP ( 'NONE', ( #187, #726, #457 ) ) ;
#721 = AXIS2_PLACEMENT_3D ( 'NONE', #239, #528, #712 ) ;
#722 = CARTESIAN_POINT ( 'NONE',  ( -4.500000000000000000, 21.50000000000000000, -3.000000000000000000 ) ) ;
#723 = EDGE_CURVE ( 'NONE', #520, #540, #321, .T. ) ;
#724 = ORIENTED_EDGE ( 'NONE', *, *, #196, .F. ) ;
#725 = DIRECTION ( 'NONE',  ( 0.000000000000000000, -1.000000000000000000, 0.000000000000000000 ) ) ;
#726 = ORIENTED_EDGE ( 'NONE', *, *, #14, .T. ) ;
#727 = DIRECTION ( 'NONE',  ( 0.000000000000000000, 0.000000000000000000, 1.000000000000000000 ) ) ;
#728 = ORIENTED_EDGE ( 'NONE', *, *, #481, .T. ) ;
#729 = CARTESIAN_POINT ( 'NONE',  ( -1.319090595827291601, 1.000000000000004441, 1.150000000000000355 ) ) ;
#730 = ADVANCED_FACE ( 'NONE', ( #17 ), #392, .T. ) ;
#731 = AXIS2_PLACEMENT_3D ( 'NONE', #467, #697, #476 ) ;
#732 = DIRECTION ( 'NONE',  ( 0.000000000000000000, 0.000000000000000000, 1.000000000000000000 ) ) ;
#733 = ORIENTED_EDGE ( 'NONE', *, *, #636, .T. ) ;
#734 = DIRECTION ( 'NONE',  ( 0.000000000000000000, 0.000000000000000000, -1.000000000000000000 ) ) ;
#735 = CARTESIAN_POINT ( 'NONE',  ( 1.836970198721030181E-16, 13.50000000000000178, -1.500000000000000222 ) ) ;
#736 = DIRECTION ( 'NONE',  ( 0.000000000000000000, 0.000000000000000000, 1.000000000000000000 ) ) ;
#737 = CARTESIAN_POINT ( 'NONE',  ( 1.319090595827291601, 10.00000000000000000, 1.150000000000000355 ) ) ;
#738 = DIRECTION ( 'NONE',  ( 0.000000000000000000, 1.000000000000000000, 0.000000000000000000 ) ) ;
#739 = CARTESIAN_POINT ( 'NONE',  ( 0.000000000000000000, 12.50000000000000000, 0.000000000000000000 ) ) ;
#740 = ORIENTED_EDGE ( 'NONE', *, *, #596, .F. ) ;
#741 = DIRECTION ( 'NONE',  ( 0.000000000000000000, 0.000000000000000000, -1.000000000000000000 ) ) ;
#742 = CIRCLE ( 'NONE', #165, 10.00000000000000000 ) ;
#743 = CIRCLE ( 'NONE', #87, 1.500000000000000222 ) ;
#744 = CARTESIAN_POINT ( 'NONE',  ( 4.500000000000000000, 17.50000000000000000, -3.000000000000000000 ) ) ;
#745 = EDGE_CURVE ( 'NONE', #71, #520, #625, .T. ) ;
#746 = ORIENTED_EDGE ( 'NONE', *, *, #205, .F. ) ;
#747 = DIRECTION ( 'NONE',  ( 0.000000000000000000, 1.000000000000000000, 0.000000000000000000 ) ) ;
#748 = CARTESIAN_POINT ( 'NONE',  ( 0.000000000000000000, 11.50000000000000000, 0.000000000000000000 ) ) ;
#749 = ADVANCED_FACE ( 'NONE', ( #502 ), #506, .F. ) ;
#750 = DIRECTION ( 'NONE',  ( 0.000000000000000000, 0.000000000000000000, 1.000000000000000000 ) ) ;
#751 = PRESENTATION_STYLE_ASSIGNMENT (( #283 ) ) ;
#752 = LINE ( 'NONE', #278, #274 ) ;
#753 = EDGE_CURVE ( 'NONE', #44, #53, #305, .T. ) ;
#754 = AXIS2_PLACEMENT_3D ( 'NONE', #648, #586, #46 ) ;
#755 = ORIENTED_EDGE ( 'NONE', *, *, #553, .F. ) ;
#756 = CARTESIAN_POINT ( 'NONE',  ( 0.000000000000000000, 7.000000000000000000, -10.00000000000000000 ) ) ;
#757 = CARTESIAN_POINT ( 'NONE',  ( 0.000000000000000000, 10.00000000000000000, 0.000000000000000000 ) ) ;
#758 = VERTEX_POINT ( 'NONE', #24 ) ;
#759 = DIRECTION ( 'NONE',  ( 0.000000000000000000, 0.000000000000000000, 1.000000000000000000 ) ) ;
#760 = DIRECTION ( 'NONE',  ( 0.000000000000000000, 0.000000000000000000, -1.000000000000000000 ) ) ;
#761 = ADVANCED_FACE ( 'NONE', ( #440 ), #315, .T. ) ;
#762 = ORIENTED_EDGE ( 'NONE', *, *, #547, .T. ) ;
#763 = FACE_OUTER_BOUND ( 'NONE', #717, .T. ) ;
#764 = B_SPLINE_CURVE_WITH_KNOTS ( 'NONE', 3,
 ( #214, #166, #208, #690 ),
 .UNSPECIFIED., .F., .F.,
 ( 4, 4 ),
 ( 0.000000000000000000, 0.001468489551207990398 ),
 .UNSPECIFIED. ) ;
#765 = DIRECTION ( 'NONE',  ( -0.000000000000000000, -1.000000000000000000, -0.000000000000000000 ) ) ;
#766 = AXIS2_PLACEMENT_3D ( 'NONE', #178, #472, #181 ) ;
ENDSEC;
END-ISO-10303-21;
