ISO-10303-21;
HEADER;
FILE_DESCRIPTION (( 'STEP AP214' ),
    '1' );
FILE_NAME ('arrow.STEP',
    '2025-03-16T12:30:04',
    ( '' ),
    ( '' ),
    'SwSTEP 2.0',
    'SolidWorks 2025',
    '' );
FILE_SCHEMA (( 'AUTOMOTIVE_DESIGN' ));
ENDSEC;

DATA;
#1 = CARTESIAN_POINT ( 'NONE',  ( 0.000000000000000000, 0.000000000000000000, 0.000000000000000000 ) ) ;
#2 = LINE ( 'NONE', #272, #281 ) ;
#3 = FILL_AREA_STYLE_COLOUR ( '', #626 ) ;
#4 = EDGE_CURVE ( 'NONE', #447, #600, #207, .T. ) ;
#5 = DIRECTION ( 'NONE',  ( 1.000000000000000000, 0.000000000000000000, 0.000000000000000000 ) ) ;
#6 = CARTESIAN_POINT ( 'NONE',  ( 2.000000000000000000, 2.449293598294706414E-16, 5.000000000000000000 ) ) ;
#7 = DIRECTION ( 'NONE',  ( -0.000000000000000000, -0.000000000000000000, -1.000000000000000000 ) ) ;
#8 = VERTEX_POINT ( 'NONE', #188 ) ;
#9 = CIRCLE ( 'NONE', #583, 1.650000000000000133 ) ;
#10 = CARTESIAN_POINT ( 'NONE',  ( -2.000000000000000000, 0.000000000000000000, 5.000000000000000000 ) ) ;
#11 = DIRECTION ( 'NONE',  ( -0.000000000000000000, -0.000000000000000000, -1.000000000000000000 ) ) ;
#12 = CARTESIAN_POINT ( 'NONE',  ( -10.00000000000000178, 0.000000000000000000, 5.000000000000000000 ) ) ;
#13 = EDGE_LOOP ( 'NONE', ( #530, #604 ) ) ;
#14 = DIRECTION ( 'NONE',  ( -0.000000000000000000, -0.000000000000000000, -1.000000000000000000 ) ) ;
#15 = CARTESIAN_POINT ( 'NONE',  ( 7.650000000000001243, 5.815374822292400000E-16, 5.000000000000000000 ) ) ;
#16 = AXIS2_PLACEMENT_3D ( 'NONE', #313, #683, #107 ) ;
#17 = ADVANCED_FACE ( 'NONE', ( #287 ), #32, .F. ) ;
#18 = CYLINDRICAL_SURFACE ( 'NONE', #654, 1.650000000000001243 ) ;
#19 = ORIENTED_EDGE ( 'NONE', *, *, #264, .T. ) ;
#20 = DIRECTION ( 'NONE',  ( 0.000000000000000000, 0.000000000000000000, 1.000000000000000000 ) ) ;
#21 = ORIENTED_EDGE ( 'NONE', *, *, #214, .T. ) ;
#22 = PLANE ( 'NONE',  #29 ) ;
#23 = MECHANICAL_DESIGN_GEOMETRIC_PRESENTATION_REPRESENTATION (  '', ( #322 ), #265 ) ;
#24 = DIRECTION ( 'NONE',  ( -0.000000000000000000, -0.000000000000000000, -1.000000000000000000 ) ) ;
#25 = ORIENTED_EDGE ( 'NONE', *, *, #65, .T. ) ;
#26 = ORIENTED_EDGE ( 'NONE', *, *, #679, .T. ) ;
#27 = DIRECTION ( 'NONE',  ( 0.000000000000000000, 0.000000000000000000, 1.000000000000000000 ) ) ;
#28 = ORIENTED_EDGE ( 'NONE', *, *, #529, .F. ) ;
#29 = AXIS2_PLACEMENT_3D ( 'NONE', #608, #126, #665 ) ;
#30 = FACE_OUTER_BOUND ( 'NONE', #459, .T. ) ;
#31 = EDGE_LOOP ( 'NONE', ( #116, #145, #497, #123 ) ) ;
#32 = CYLINDRICAL_SURFACE ( 'NONE', #305, 1.650000000000001243 ) ;
#33 = EDGE_LOOP ( 'NONE', ( #362, #498 ) ) ;
#34 = EDGE_CURVE ( 'NONE', #559, #684, #520, .T. ) ;
#35 = AXIS2_PLACEMENT_3D ( 'NONE', #403, #399, #132 ) ;
#36 = DIRECTION ( 'NONE',  ( -0.000000000000000000, -0.000000000000000000, -1.000000000000000000 ) ) ;
#37 = EDGE_CURVE ( 'NONE', #310, #621, #400, .T. ) ;
#38 = VECTOR ( 'NONE', #104, 1000.000000000000000 ) ;
#39 = DIRECTION ( 'NONE',  ( 1.000000000000000000, 0.000000000000000000, 0.000000000000000000 ) ) ;
#40 = AXIS2_PLACEMENT_3D ( 'NONE', #127, #440, #72 ) ;
#41 = ORIENTED_EDGE ( 'NONE', *, *, #316, .F. ) ;
#42 = EDGE_LOOP ( 'NONE', ( #19, #183, #569, #458 ) ) ;
#43 = EDGE_LOOP ( 'NONE', ( #650, #199, #175, #577 ) ) ;
#44 = ORIENTED_EDGE ( 'NONE', *, *, #264, .F. ) ;
#45 = AXIS2_PLACEMENT_3D ( 'NONE', #203, #531, #209 ) ;
#46 = ADVANCED_FACE ( 'NONE', ( #129 ), #297, .F. ) ;
#47 = CARTESIAN_POINT ( 'NONE',  ( 0.000000000000000000, 0.000000000000000000, 0.000000000000000000 ) ) ;
#48 = LINE ( 'NONE', #591, #238 ) ;
#49 = PRESENTATION_LAYER_ASSIGNMENT (  '', '', ( #322 ) ) ;
#50 = CARTESIAN_POINT ( 'NONE',  ( 0.000000000000000000, 0.000000000000000000, 5.000000000000000000 ) ) ;
#51 = AXIS2_PLACEMENT_3D ( 'NONE', #602, #337, #343 ) ;
#52 = DIRECTION ( 'NONE',  ( 0.000000000000000000, 0.000000000000000000, 1.000000000000000000 ) ) ;
#53 = EDGE_CURVE ( 'NONE', #508, #314, #499, .T. ) ;
#54 = CARTESIAN_POINT ( 'NONE',  ( 0.000000000000000000, 5.999999999999998224, 0.000000000000000000 ) ) ;
#55 =( NAMED_UNIT ( * ) PLANE_ANGLE_UNIT ( ) SI_UNIT ( $, .RADIAN. ) );
#56 = FACE_BOUND ( 'NONE', #275, .T. ) ;
#57 = VECTOR ( 'NONE', #518, 1000.000000000000000 ) ;
#58 = DIRECTION ( 'NONE',  ( 1.000000000000000000, 0.000000000000000000, 0.000000000000000000 ) ) ;
#59 = LINE ( 'NONE', #649, #624 ) ;
#60 = ORIENTED_EDGE ( 'NONE', *, *, #357, .F. ) ;
#61 = DIRECTION ( 'NONE',  ( 0.000000000000000000, 0.000000000000000000, 1.000000000000000000 ) ) ;
#62 = DIRECTION ( 'NONE',  ( 1.000000000000000000, 0.000000000000000000, 0.000000000000000000 ) ) ;
#63 = VERTEX_POINT ( 'NONE', #443 ) ;
#64 = CARTESIAN_POINT ( 'NONE',  ( 24.53939201416945792, -3.000000000000000000, 5.000000000000000000 ) ) ;
#65 = EDGE_CURVE ( 'NONE', #616, #656, #652, .T. ) ;
#66 = FACE_OUTER_BOUND ( 'NONE', #94, .T. ) ;
#67 = CARTESIAN_POINT ( 'NONE',  ( 1.650000000000001243, -6.000000000000000000, 0.000000000000000000 ) ) ;
#68 = ORIENTED_EDGE ( 'NONE', *, *, #82, .F. ) ;
#69 = CARTESIAN_POINT ( 'NONE',  ( 0.000000000000000000, 0.000000000000000000, 5.000000000000000000 ) ) ;
#70 = DIRECTION ( 'NONE',  ( -0.000000000000000000, -0.000000000000000000, -1.000000000000000000 ) ) ;
#71 = EDGE_CURVE ( 'NONE', #310, #74, #336, .T. ) ;
#72 = DIRECTION ( 'NONE',  ( 1.000000000000000000, 0.000000000000000000, 0.000000000000000000 ) ) ;
#73 = DIRECTION ( 'NONE',  ( 1.000000000000000000, 0.000000000000000000, 0.000000000000000000 ) ) ;
#74 = VERTEX_POINT ( 'NONE', #231 ) ;
#75 = DIRECTION ( 'NONE',  ( 1.000000000000000000, 0.000000000000000000, 0.000000000000000000 ) ) ;
#76 = ORIENTED_EDGE ( 'NONE', *, *, #71, .T. ) ;
#77 = DIRECTION ( 'NONE',  ( 1.000000000000000000, 0.000000000000000000, 0.000000000000000000 ) ) ;
#78 = VERTEX_POINT ( 'NONE', #658 ) ;
#79 = CARTESIAN_POINT ( 'NONE',  ( 24.53939201416945792, -5.000000000000000000, 5.000000000000000000 ) ) ;
#80 = CARTESIAN_POINT ( 'NONE',  ( 24.53939201416945792, 3.000000000000000000, 0.000000000000000000 ) ) ;
#81 = ORIENTED_EDGE ( 'NONE', *, *, #523, .T. ) ;
#82 = EDGE_CURVE ( 'NONE', #472, #8, #124, .T. ) ;
#83 = AXIS2_PLACEMENT_3D ( 'NONE', #406, #396, #75 ) ;
#84 = CARTESIAN_POINT ( 'NONE',  ( 7.650000000000002132, 5.815374822292400000E-16, 5.000000000000000000 ) ) ;
#85 = ORIENTED_EDGE ( 'NONE', *, *, #411, .T. ) ;
#86 = VECTOR ( 'NONE', #14, 1000.000000000000000 ) ;
#87 = DIRECTION ( 'NONE',  ( 1.000000000000000000, 0.000000000000000000, 0.000000000000000000 ) ) ;
#88 = CIRCLE ( 'NONE', #574, 10.00000000000000178 ) ;
#89 = ORIENTED_EDGE ( 'NONE', *, *, #327, .T. ) ;
#90 = EDGE_CURVE ( 'NONE', #508, #296, #204, .T. ) ;
#91 = ORIENTED_EDGE ( 'NONE', *, *, #342, .T. ) ;
#92 = VECTOR ( 'NONE', #24, 1000.000000000000000 ) ;
#93 = ORIENTED_EDGE ( 'NONE', *, *, #201, .T. ) ;
#94 = EDGE_LOOP ( 'NONE', ( #85, #680, #205, #76 ) ) ;
#95 = PRODUCT_DEFINITION_CONTEXT ( 'detailed design', #149, 'design' ) ;
#96 = VECTOR ( 'NONE', #392, 1000.000000000000000 ) ;
#97 = PRODUCT_CONTEXT ( 'NONE', #545, 'mechanical' ) ;
#98 = ADVANCED_FACE ( 'NONE', ( #30 ), #415, .F. ) ;
#99 = ORIENTED_EDGE ( 'NONE', *, *, #586, .T. ) ;
#100 = FACE_BOUND ( 'NONE', #664, .T. ) ;
#101 = SURFACE_STYLE_FILL_AREA ( #425 ) ;
#102 = PRODUCT_DEFINITION_FORMATION_WITH_SPECIFIED_SOURCE ( 'ANY', '', #410, .NOT_KNOWN. ) ;
#103 = DIRECTION ( 'NONE',  ( 0.6246950475544241765, -0.7808688094430302762, 0.000000000000000000 ) ) ;
#104 = DIRECTION ( 'NONE',  ( -0.000000000000000000, -1.000000000000000000, -0.000000000000000000 ) ) ;
#105 = FACE_OUTER_BOUND ( 'NONE', #241, .T. ) ;
#106 = DIRECTION ( 'NONE',  ( 1.000000000000000000, 0.000000000000000000, 0.000000000000000000 ) ) ;
#107 = DIRECTION ( 'NONE',  ( 1.000000000000000000, 0.000000000000000000, 0.000000000000000000 ) ) ;
#108 = AXIS2_PLACEMENT_3D ( 'NONE', #402, #612, #556 ) ;
#109 = DIRECTION ( 'NONE',  ( 1.000000000000000000, 0.000000000000000000, -0.000000000000000000 ) ) ;
#110 = CARTESIAN_POINT ( 'NONE',  ( 28.53939201416945792, 0.000000000000000000, 5.000000000000000000 ) ) ;
#111 = LINE ( 'NONE', #329, #359 ) ;
#112 = ORIENTED_EDGE ( 'NONE', *, *, #198, .T. ) ;
#113 = FACE_OUTER_BOUND ( 'NONE', #509, .T. ) ;
#114 = FACE_OUTER_BOUND ( 'NONE', #409, .T. ) ;
#115 = ORIENTED_EDGE ( 'NONE', *, *, #378, .T. ) ;
#116 = ORIENTED_EDGE ( 'NONE', *, *, #550, .T. ) ;
#117 = VECTOR ( 'NONE', #667, 1000.000000000000000 ) ;
#118 = ADVANCED_FACE ( 'NONE', ( #182 ), #568, .F. ) ;
#119 = DIRECTION ( 'NONE',  ( -0.000000000000000000, -0.000000000000000000, -1.000000000000000000 ) ) ;
#120 = DIRECTION ( 'NONE',  ( -0.000000000000000000, -0.000000000000000000, -1.000000000000000000 ) ) ;
#121 = AXIS2_PLACEMENT_3D ( 'NONE', #290, #186, #614 ) ;
#122 = LINE ( 'NONE', #228, #552 ) ;
#123 = ORIENTED_EDGE ( 'NONE', *, *, #586, .F. ) ;
#124 = LINE ( 'NONE', #341, #365 ) ;
#125 = EDGE_CURVE ( 'NONE', #234, #63, #672, .T. ) ;
#126 = DIRECTION ( 'NONE',  ( -1.156482317317871478E-16, 1.000000000000000000, 0.000000000000000000 ) ) ;
#127 = CARTESIAN_POINT ( 'NONE',  ( 0.000000000000000000, 0.000000000000000000, 0.000000000000000000 ) ) ;
#128 = DIRECTION ( 'NONE',  ( 0.000000000000000000, 0.000000000000000000, 1.000000000000000000 ) ) ;
#129 = FACE_OUTER_BOUND ( 'NONE', #492, .T. ) ;
#130 = LINE ( 'NONE', #15, #516 ) ;
#131 = VERTEX_POINT ( 'NONE', #464 ) ;
#132 = DIRECTION ( 'NONE',  ( -1.000000000000000000, 0.000000000000000000, 0.000000000000000000 ) ) ;
#133 = ORIENTED_EDGE ( 'NONE', *, *, #90, .T. ) ;
#134 = DIRECTION ( 'NONE',  ( -0.000000000000000000, -0.000000000000000000, -1.000000000000000000 ) ) ;
#135 = ADVANCED_FACE ( 'NONE', ( #345 ), #673, .F. ) ;
#136 = CARTESIAN_POINT ( 'NONE',  ( 0.000000000000000000, 0.000000000000000000, 5.000000000000000000 ) ) ;
#137 = VERTEX_POINT ( 'NONE', #84 ) ;
#138 = LINE ( 'NONE', #610, #57 ) ;
#139 = ORIENTED_EDGE ( 'NONE', *, *, #501, .T. ) ;
#140 = LINE ( 'NONE', #358, #92 ) ;
#141 =( GEOMETRIC_REPRESENTATION_CONTEXT ( 3 ) GLOBAL_UNCERTAINTY_ASSIGNED_CONTEXT ( ( #154 ) ) GLOBAL_UNIT_ASSIGNED_CONTEXT ( ( #687, #55, #427 ) ) REPRESENTATION_CONTEXT ( 'NONE', 'WORKASPACE' ) );
#142 = EDGE_CURVE ( 'NONE', #404, #473, #138, .T. ) ;
#143 = EDGE_LOOP ( 'NONE', ( #467, #423, #364, #543, #81, #93, #190, #292 ) ) ;
#144 = CIRCLE ( 'NONE', #418, 10.00000000000000178 ) ;
#145 = ORIENTED_EDGE ( 'NONE', *, *, #572, .T. ) ;
#146 = EDGE_CURVE ( 'NONE', #131, #682, #466, .T. ) ;
#147 = AXIS2_PLACEMENT_3D ( 'NONE', #184, #242, #352 ) ;
#148 = ORIENTED_EDGE ( 'NONE', *, *, #125, .T. ) ;
#149 = APPLICATION_CONTEXT ( 'automotive_design' ) ;
#150 = ORIENTED_EDGE ( 'NONE', *, *, #82, .T. ) ;
#151 = ADVANCED_FACE ( 'NONE', ( #521 ), #677, .F. ) ;
#152 = APPLICATION_PROTOCOL_DEFINITION ( 'draft international standard', 'automotive_design', 1998, #545 ) ;
#153 = VERTEX_POINT ( 'NONE', #619 ) ;
#154 = UNCERTAINTY_MEASURE_WITH_UNIT (LENGTH_MEASURE( 1.000000000000000082E-05 ), #687, 'distance_accuracy_value', 'NONE');
#155 = CARTESIAN_POINT ( 'NONE',  ( 9.539392014169457923, 3.000000000000000000, 5.000000000000000000 ) ) ;
#156 = CIRCLE ( 'NONE', #495, 1.650000000000000133 ) ;
#157 = DIRECTION ( 'NONE',  ( -0.000000000000000000, -0.000000000000000000, -1.000000000000000000 ) ) ;
#158 = DIRECTION ( 'NONE',  ( -1.000000000000000000, -0.000000000000000000, -0.000000000000000000 ) ) ;
#159 = CARTESIAN_POINT ( 'NONE',  ( 24.53939201416945792, 3.000000000000000000, 0.000000000000000000 ) ) ;
#160 = CYLINDRICAL_SURFACE ( 'NONE', #460, 10.00000000000000178 ) ;
#161 = DIRECTION ( 'NONE',  ( 0.000000000000000000, 0.000000000000000000, 1.000000000000000000 ) ) ;
#162 = CARTESIAN_POINT ( 'NONE',  ( 24.53939201416945792, 5.000000000000000000, 5.000000000000000000 ) ) ;
#163 = FACE_BOUND ( 'NONE', #33, .T. ) ;
#164 = PLANE ( 'NONE',  #482 ) ;
#165 = DIRECTION ( 'NONE',  ( 1.000000000000000000, 0.000000000000000000, 0.000000000000000000 ) ) ;
#166 = CIRCLE ( 'NONE', #325, 1.649999999999999911 ) ;
#167 = CARTESIAN_POINT ( 'NONE',  ( 0.000000000000000000, 0.000000000000000000, 5.000000000000000000 ) ) ;
#168 = DIRECTION ( 'NONE',  ( 0.6246950475544241765, 0.7808688094430302762, -0.000000000000000000 ) ) ;
#169 = DIRECTION ( 'NONE',  ( 0.000000000000000000, 0.000000000000000000, 1.000000000000000000 ) ) ;
#170 = VERTEX_POINT ( 'NONE', #354 ) ;
#171 = DIRECTION ( 'NONE',  ( -0.000000000000000000, -1.000000000000000000, -0.000000000000000000 ) ) ;
#172 = VECTOR ( 'NONE', #222, 1000.000000000000000 ) ;
#173 = DIRECTION ( 'NONE',  ( 0.000000000000000000, 0.000000000000000000, 1.000000000000000000 ) ) ;
#174 = CARTESIAN_POINT ( 'NONE',  ( 0.000000000000000000, 5.999999999999998224, 5.000000000000000000 ) ) ;
#175 = ORIENTED_EDGE ( 'NONE', *, *, #686, .F. ) ;
#176 = EDGE_CURVE ( 'NONE', #393, #229, #140, .T. ) ;
#177 = ORIENTED_EDGE ( 'NONE', *, *, #65, .F. ) ;
#178 = AXIS2_PLACEMENT_3D ( 'NONE', #669, #283, #565 ) ;
#179 = CARTESIAN_POINT ( 'NONE',  ( 0.000000000000000000, 5.999999999999998224, 5.000000000000000000 ) ) ;
#180 = FACE_OUTER_BOUND ( 'NONE', #576, .T. ) ;
#181 = LINE ( 'NONE', #397, #386 ) ;
#182 = FACE_OUTER_BOUND ( 'NONE', #302, .T. ) ;
#183 = ORIENTED_EDGE ( 'NONE', *, *, #640, .F. ) ;
#184 = CARTESIAN_POINT ( 'NONE',  ( 6.000000000000000000, 3.794707603699265519E-16, 5.000000000000000000 ) ) ;
#185 = EDGE_CURVE ( 'NONE', #393, #476, #349, .T. ) ;
#186 = DIRECTION ( 'NONE',  ( 0.000000000000000000, 0.000000000000000000, 1.000000000000000000 ) ) ;
#187 = ORIENTED_EDGE ( 'NONE', *, *, #645, .F. ) ;
#188 = CARTESIAN_POINT ( 'NONE',  ( 28.53939201416945792, 0.000000000000000000, 0.000000000000000000 ) ) ;
#189 = FACE_BOUND ( 'NONE', #200, .T. ) ;
#190 = ORIENTED_EDGE ( 'NONE', *, *, #37, .T. ) ;
#191 = VECTOR ( 'NONE', #225, 1000.000000000000000 ) ;
#192 = CARTESIAN_POINT ( 'NONE',  ( -6.000000000000000000, 3.794707603699265519E-16, 0.000000000000000000 ) ) ;
#193 = ORIENTED_EDGE ( 'NONE', *, *, #34, .T. ) ;
#194 = ORIENTED_EDGE ( 'NONE', *, *, #463, .T. ) ;
#195 = DIRECTION ( 'NONE',  ( -1.000000000000000000, 0.000000000000000000, 0.000000000000000000 ) ) ;
#196 = AXIS2_PLACEMENT_3D ( 'NONE', #47, #61, #109 ) ;
#197 = EDGE_CURVE ( 'NONE', #656, #153, #330, .T. ) ;
#198 = EDGE_CURVE ( 'NONE', #63, #234, #422, .T. ) ;
#199 = ORIENTED_EDGE ( 'NONE', *, *, #176, .F. ) ;
#200 = EDGE_LOOP ( 'NONE', ( #260, #350 ) ) ;
#201 = EDGE_CURVE ( 'NONE', #170, #310, #286, .T. ) ;
#202 = ORIENTED_EDGE ( 'NONE', *, *, #512, .F. ) ;
#203 = CARTESIAN_POINT ( 'NONE',  ( -6.000000000000000000, 3.794707603699265519E-16, 5.000000000000000000 ) ) ;
#204 = CIRCLE ( 'NONE', #685, 2.000000000000000000 ) ;
#205 = ORIENTED_EDGE ( 'NONE', *, *, #37, .F. ) ;
#206 = PRODUCT_DEFINITION ( 'UNKNOWN', '', #102, #95 ) ;
#207 = CIRCLE ( 'NONE', #178, 10.00000000000000178 ) ;
#208 = LINE ( 'NONE', #377, #536 ) ;
#209 = DIRECTION ( 'NONE',  ( -1.000000000000000000, 0.000000000000000000, 0.000000000000000000 ) ) ;
#210 = AXIS2_PLACEMENT_3D ( 'NONE', #54, #436, #106 ) ;
#211 = DIRECTION ( 'NONE',  ( -0.7808688094430303872, -0.6246950475544242876, 0.000000000000000000 ) ) ;
#212 = AXIS2_PLACEMENT_3D ( 'NONE', #274, #169, #165 ) ;
#213 = CARTESIAN_POINT ( 'NONE',  ( 28.53939201416945792, 0.000000000000000000, 5.000000000000000000 ) ) ;
#214 = EDGE_CURVE ( 'NONE', #473, #308, #144, .T. ) ;
#215 = CARTESIAN_POINT ( 'NONE',  ( -1.650000000000000133, 5.999999999999998224, 5.000000000000000000 ) ) ;
#216 =( NAMED_UNIT ( * ) PLANE_ANGLE_UNIT ( ) SI_UNIT ( $, .RADIAN. ) );
#217 = DIRECTION ( 'NONE',  ( 1.000000000000000000, 0.000000000000000000, 0.000000000000000000 ) ) ;
#218 = DIRECTION ( 'NONE',  ( 0.000000000000000000, 0.000000000000000000, 1.000000000000000000 ) ) ;
#219 = CARTESIAN_POINT ( 'NONE',  ( 24.53939201416945792, 3.000000000000000000, 5.000000000000000000 ) ) ;
#220 = DIRECTION ( 'NONE',  ( -1.000000000000000000, 0.000000000000000000, 0.000000000000000000 ) ) ;
#221 = LINE ( 'NONE', #213, #661 ) ;
#222 = DIRECTION ( 'NONE',  ( -0.000000000000000000, -0.000000000000000000, -1.000000000000000000 ) ) ;
#223 = ORIENTED_EDGE ( 'NONE', *, *, #434, .T. ) ;
#224 = ORIENTED_EDGE ( 'NONE', *, *, #226, .F. ) ;
#225 = DIRECTION ( 'NONE',  ( -0.000000000000000000, -0.000000000000000000, -1.000000000000000000 ) ) ;
#226 = EDGE_CURVE ( 'NONE', #246, #78, #455, .T. ) ;
#227 = FACE_OUTER_BOUND ( 'NONE', #43, .T. ) ;
#228 = CARTESIAN_POINT ( 'NONE',  ( -7.650000000000000355, 3.794707603699265519E-16, 5.000000000000000000 ) ) ;
#229 = VERTEX_POINT ( 'NONE', #549 ) ;
#230 = ORIENTED_EDGE ( 'NONE', *, *, #357, .T. ) ;
#231 = CARTESIAN_POINT ( 'NONE',  ( 24.53939201416945792, -3.000000000000000000, 0.000000000000000000 ) ) ;
#232 = DIRECTION ( 'NONE',  ( -0.000000000000000000, -1.000000000000000000, -0.000000000000000000 ) ) ;
#233 = DIRECTION ( 'NONE',  ( -0.000000000000000000, -0.000000000000000000, -1.000000000000000000 ) ) ;
#234 = VERTEX_POINT ( 'NONE', #643 ) ;
#235 = CARTESIAN_POINT ( 'NONE',  ( 0.000000000000000000, 0.000000000000000000, 0.000000000000000000 ) ) ;
#236 = EDGE_LOOP ( 'NONE', ( #615, #413, #633, #564 ) ) ;
#237 = CYLINDRICAL_SURFACE ( 'NONE', #108, 10.00000000000000178 ) ;
#238 = VECTOR ( 'NONE', #157, 1000.000000000000000 ) ;
#239 = CARTESIAN_POINT ( 'NONE',  ( 24.53939201416945792, 3.000000000000000000, 5.000000000000000000 ) ) ;
#240 = EDGE_LOOP ( 'NONE', ( #471, #681 ) ) ;
#241 = EDGE_LOOP ( 'NONE', ( #419, #625, #674, #21 ) ) ;
#242 = DIRECTION ( 'NONE',  ( 0.000000000000000000, 0.000000000000000000, 1.000000000000000000 ) ) ;
#243 = CIRCLE ( 'NONE', #648, 1.650000000000001243 ) ;
#244 = ORIENTED_EDGE ( 'NONE', *, *, #342, .F. ) ;
#245 = CARTESIAN_POINT ( 'NONE',  ( 7.589415207398531038E-16, -6.000000000000000000, 5.000000000000000000 ) ) ;
#246 = VERTEX_POINT ( 'NONE', #647 ) ;
#247 = DIRECTION ( 'NONE',  ( -0.000000000000000000, -0.000000000000000000, -1.000000000000000000 ) ) ;
#248 = ORIENTED_EDGE ( 'NONE', *, *, #256, .F. ) ;
#249 = AXIS2_PLACEMENT_3D ( 'NONE', #622, #250, #301 ) ;
#250 = DIRECTION ( 'NONE',  ( -0.000000000000000000, -0.000000000000000000, -1.000000000000000000 ) ) ;
#251 = DIRECTION ( 'NONE',  ( 1.000000000000000000, 0.000000000000000000, 0.000000000000000000 ) ) ;
#252 = VECTOR ( 'NONE', #11, 1000.000000000000000 ) ;
#253 = EDGE_CURVE ( 'NONE', #621, #606, #481, .T. ) ;
#254 = ORIENTED_EDGE ( 'NONE', *, *, #623, .F. ) ;
#255 = ORIENTED_EDGE ( 'NONE', *, *, #146, .T. ) ;
#256 = EDGE_CURVE ( 'NONE', #684, #559, #361, .T. ) ;
#257 = ORIENTED_EDGE ( 'NONE', *, *, #411, .F. ) ;
#258 = CARTESIAN_POINT ( 'NONE',  ( -1.650000000000000133, 5.999999999999998224, 0.000000000000000000 ) ) ;
#259 = VECTOR ( 'NONE', #232, 1000.000000000000000 ) ;
#260 = ORIENTED_EDGE ( 'NONE', *, *, #501, .F. ) ;
#261 = DIRECTION ( 'NONE',  ( -0.000000000000000000, -0.000000000000000000, -1.000000000000000000 ) ) ;
#262 = VECTOR ( 'NONE', #630, 1000.000000000000114 ) ;
#263 = DIRECTION ( 'NONE',  ( 1.000000000000000000, 0.000000000000000000, 0.000000000000000000 ) ) ;
#264 = EDGE_CURVE ( 'NONE', #229, #404, #267, .T. ) ;
#265 =( GEOMETRIC_REPRESENTATION_CONTEXT ( 3 ) GLOBAL_UNCERTAINTY_ASSIGNED_CONTEXT ( ( #368 ) ) GLOBAL_UNIT_ASSIGNED_CONTEXT ( ( #535, #216, #432 ) ) REPRESENTATION_CONTEXT ( 'NONE', 'WORKASPACE' ) );
#266 = CYLINDRICAL_SURFACE ( 'NONE', #370, 2.000000000000000000 ) ;
#267 = LINE ( 'NONE', #159, #38 ) ;
#268 = EDGE_CURVE ( 'NONE', #170, #573, #485, .T. ) ;
#269 = FACE_OUTER_BOUND ( 'NONE', #31, .T. ) ;
#270 = CARTESIAN_POINT ( 'NONE',  ( -2.000000000000000000, 0.000000000000000000, 5.000000000000000000 ) ) ;
#271 = DIRECTION ( 'NONE',  ( 0.000000000000000000, 0.000000000000000000, -1.000000000000000000 ) ) ;
#272 = CARTESIAN_POINT ( 'NONE',  ( 9.539392014169457923, 3.000000000000000000, 5.000000000000000000 ) ) ;
#273 = CARTESIAN_POINT ( 'NONE',  ( -2.000000000000000000, 0.000000000000000000, 0.000000000000000000 ) ) ;
#274 = CARTESIAN_POINT ( 'NONE',  ( 7.589415207398531038E-16, -6.000000000000000000, 0.000000000000000000 ) ) ;
#275 = EDGE_LOOP ( 'NONE', ( #528, #193 ) ) ;
#276 = EDGE_CURVE ( 'NONE', #308, #573, #88, .T. ) ;
#277 = EDGE_CURVE ( 'NONE', #668, #559, #48, .T. ) ;
#278 = ORIENTED_EDGE ( 'NONE', *, *, #597, .F. ) ;
#279 = CARTESIAN_POINT ( 'NONE',  ( 1.650000000000000799, -6.000000000000000000, 5.000000000000000000 ) ) ;
#280 = LINE ( 'NONE', #12, #96 ) ;
#281 = VECTOR ( 'NONE', #158, 1000.000000000000000 ) ;
#282 = EDGE_LOOP ( 'NONE', ( #300, #255 ) ) ;
#283 = DIRECTION ( 'NONE',  ( 0.000000000000000000, 0.000000000000000000, 1.000000000000000000 ) ) ;
#284 = CARTESIAN_POINT ( 'NONE',  ( 24.53939201416945792, -5.000000000000000000, 5.000000000000000000 ) ) ;
#285 = EDGE_LOOP ( 'NONE', ( #355, #224 ) ) ;
#286 = LINE ( 'NONE', #504, #117 ) ;
#287 = FACE_OUTER_BOUND ( 'NONE', #348, .T. ) ;
#288 = LINE ( 'NONE', #670, #629 ) ;
#289 = ADVANCED_FACE ( 'NONE', ( #490 ), #164, .F. ) ;
#290 = CARTESIAN_POINT ( 'NONE',  ( -6.000000000000000000, 3.794707603699265519E-16, 5.000000000000000000 ) ) ;
#291 = ORIENTED_EDGE ( 'NONE', *, *, #226, .T. ) ;
#292 = ORIENTED_EDGE ( 'NONE', *, *, #253, .T. ) ;
#293 = FACE_BOUND ( 'NONE', #285, .T. ) ;
#294 = EDGE_LOOP ( 'NONE', ( #187, #68, #257, #525, #369, #334, #620, #44 ) ) ;
#295 = DIRECTION ( 'NONE',  ( 0.000000000000000000, 0.000000000000000000, 1.000000000000000000 ) ) ;
#296 = VERTEX_POINT ( 'NONE', #6 ) ;
#297 = CYLINDRICAL_SURFACE ( 'NONE', #599, 1.650000000000000133 ) ;
#298 = PLANE ( 'NONE',  #51 ) ;
#299 = AXIS2_PLACEMENT_3D ( 'NONE', #1, #326, #429 ) ;
#300 = ORIENTED_EDGE ( 'NONE', *, *, #306, .T. ) ;
#301 = DIRECTION ( 'NONE',  ( -1.000000000000000000, 0.000000000000000000, 0.000000000000000000 ) ) ;
#302 = EDGE_LOOP ( 'NONE', ( #148, #584, #567, #657 ) ) ;
#303 = AXIS2_PLACEMENT_3D ( 'NONE', #513, #36, #195 ) ;
#304 = DIRECTION ( 'NONE',  ( 1.000000000000000000, 0.000000000000000000, 0.000000000000000000 ) ) ;
#305 = AXIS2_PLACEMENT_3D ( 'NONE', #607, #134, #454 ) ;
#306 = EDGE_CURVE ( 'NONE', #682, #131, #689, .T. ) ;
#307 = AXIS2_PLACEMENT_3D ( 'NONE', #487, #218, #58 ) ;
#308 = VERTEX_POINT ( 'NONE', #321 ) ;
#309 = AXIS2_PLACEMENT_3D ( 'NONE', #588, #603, #62 ) ;
#310 = VERTEX_POINT ( 'NONE', #691 ) ;
#311 = EDGE_CURVE ( 'NONE', #606, #8, #221, .T. ) ;
#312 = ORIENTED_EDGE ( 'NONE', *, *, #316, .T. ) ;
#313 = CARTESIAN_POINT ( 'NONE',  ( 0.000000000000000000, 0.000000000000000000, 0.000000000000000000 ) ) ;
#314 = VERTEX_POINT ( 'NONE', #273 ) ;
#315 = CARTESIAN_POINT ( 'NONE',  ( -7.650000000000000355, 3.794707603699265519E-16, 0.000000000000000000 ) ) ;
#316 = EDGE_CURVE ( 'NONE', #462, #684, #208, .T. ) ;
#317 = CYLINDRICAL_SURFACE ( 'NONE', #356, 1.650000000000000133 ) ;
#318 = MANIFOLD_SOLID_BREP ( 'Boss-Extrude1', #391 ) ;
#319 = EDGE_CURVE ( 'NONE', #448, #611, #166, .T. ) ;
#320 = DIRECTION ( 'NONE',  ( -1.000000000000000000, 0.000000000000000000, 0.000000000000000000 ) ) ;
#321 = CARTESIAN_POINT ( 'NONE',  ( -10.00000000000000178, 0.000000000000000000, 0.000000000000000000 ) ) ;
#322 = STYLED_ITEM ( 'NONE', ( #372 ), #318 ) ;
#323 = CARTESIAN_POINT ( 'NONE',  ( 24.53939201416945792, 3.000000000000000000, 5.000000000000000000 ) ) ;
#324 = DIRECTION ( 'NONE',  ( 1.000000000000000000, 0.000000000000000000, 0.000000000000000000 ) ) ;
#325 = AXIS2_PLACEMENT_3D ( 'NONE', #500, #659, #444 ) ;
#326 = DIRECTION ( 'NONE',  ( 0.000000000000000000, 0.000000000000000000, 1.000000000000000000 ) ) ;
#327 = EDGE_CURVE ( 'NONE', #616, #137, #420, .T. ) ;
#328 = CARTESIAN_POINT ( 'NONE',  ( 24.53939201416945792, 3.000000000000000000, 5.000000000000000000 ) ) ;
#329 = CARTESIAN_POINT ( 'NONE',  ( 24.53939201416945792, 5.000000000000000000, 0.000000000000000000 ) ) ;
#330 = CIRCLE ( 'NONE', #488, 1.650000000000001243 ) ;
#331 = PLANE ( 'NONE',  #693 ) ;
#332 = PRODUCT_RELATED_PRODUCT_CATEGORY ( 'part', '', ( #410 ) ) ;
#333 = DIRECTION ( 'NONE',  ( -1.000000000000000000, 0.000000000000000000, 0.000000000000000000 ) ) ;
#334 = ORIENTED_EDGE ( 'NONE', *, *, #214, .F. ) ;
#335 = ORIENTED_EDGE ( 'NONE', *, *, #445, .F. ) ;
#336 = LINE ( 'NONE', #64, #86 ) ;
#337 = DIRECTION ( 'NONE',  ( 1.000000000000000000, 0.000000000000000000, 0.000000000000000000 ) ) ;
#338 = FACE_OUTER_BOUND ( 'NONE', #503, .T. ) ;
#339 = CIRCLE ( 'NONE', #40, 2.000000000000000000 ) ;
#340 = EDGE_LOOP ( 'NONE', ( #613, #631 ) ) ;
#341 = CARTESIAN_POINT ( 'NONE',  ( 28.53939201416945792, 0.000000000000000000, 0.000000000000000000 ) ) ;
#342 = EDGE_CURVE ( 'NONE', #153, #656, #243, .T. ) ;
#343 = DIRECTION ( 'NONE',  ( 0.000000000000000000, 0.000000000000000000, -1.000000000000000000 ) ) ;
#344 = DIRECTION ( 'NONE',  ( 1.000000000000000000, 1.156482317317871478E-16, -0.000000000000000000 ) ) ;
#345 = FACE_OUTER_BOUND ( 'NONE', #562, .T. ) ;
#346 = ORIENTED_EDGE ( 'NONE', *, *, #34, .F. ) ;
#347 = LINE ( 'NONE', #390, #259 ) ;
#348 = EDGE_LOOP ( 'NONE', ( #60, #387, #25, #244 ) ) ;
#349 = LINE ( 'NONE', #239, #632 ) ;
#350 = ORIENTED_EDGE ( 'NONE', *, *, #575, .F. ) ;
#351 = DIRECTION ( 'NONE',  ( 1.000000000000000000, 0.000000000000000000, 0.000000000000000000 ) ) ;
#352 = DIRECTION ( 'NONE',  ( 1.000000000000000000, 0.000000000000000000, 0.000000000000000000 ) ) ;
#353 = ORIENTED_EDGE ( 'NONE', *, *, #201, .F. ) ;
#354 = CARTESIAN_POINT ( 'NONE',  ( 9.539392014169457923, -3.000000000000003997, 5.000000000000000000 ) ) ;
#355 = ORIENTED_EDGE ( 'NONE', *, *, #550, .F. ) ;
#356 = AXIS2_PLACEMENT_3D ( 'NONE', #646, #638, #320 ) ;
#357 = EDGE_CURVE ( 'NONE', #137, #153, #130, .T. ) ;
#358 = CARTESIAN_POINT ( 'NONE',  ( 24.53939201416945792, 5.000000000000000000, 5.000000000000000000 ) ) ;
#359 = VECTOR ( 'NONE', #542, 1000.000000000000114 ) ;
#360 = EDGE_LOOP ( 'NONE', ( #527, #291, #99, #671 ) ) ;
#361 = CIRCLE ( 'NONE', #210, 1.650000000000000133 ) ;
#362 = ORIENTED_EDGE ( 'NONE', *, *, #319, .T. ) ;
#363 = AXIS2_PLACEMENT_3D ( 'NONE', #136, #27, #566 ) ;
#364 = ORIENTED_EDGE ( 'NONE', *, *, #512, .T. ) ;
#365 = VECTOR ( 'NONE', #555, 1000.000000000000114 ) ;
#366 = LINE ( 'NONE', #580, #571 ) ;
#367 = ORIENTED_EDGE ( 'NONE', *, *, #53, .F. ) ;
#368 = UNCERTAINTY_MEASURE_WITH_UNIT (LENGTH_MEASURE( 1.000000000000000082E-05 ), #535, 'distance_accuracy_value', 'NONE');
#369 = ORIENTED_EDGE ( 'NONE', *, *, #276, .F. ) ;
#370 = AXIS2_PLACEMENT_3D ( 'NONE', #590, #383, #484 ) ;
#371 = DIRECTION ( 'NONE',  ( -0.000000000000000000, -0.000000000000000000, -1.000000000000000000 ) ) ;
#372 = PRESENTATION_STYLE_ASSIGNMENT (( #430 ) ) ;
#373 = EDGE_CURVE ( 'NONE', #137, #616, #539, .T. ) ;
#374 = DIRECTION ( 'NONE',  ( -0.7808688094430303872, 0.6246950475544242876, 0.000000000000000000 ) ) ;
#375 = CARTESIAN_POINT ( 'NONE',  ( 0.000000000000000000, 0.000000000000000000, 0.000000000000000000 ) ) ;
#376 = FACE_OUTER_BOUND ( 'NONE', #675, .T. ) ;
#377 = CARTESIAN_POINT ( 'NONE',  ( -1.650000000000000133, 5.999999999999998224, 5.000000000000000000 ) ) ;
#378 = EDGE_CURVE ( 'NONE', #234, #448, #288, .T. ) ;
#379 = PLANE ( 'NONE',  #196 ) ;
#380 = DIRECTION ( 'NONE',  ( -0.000000000000000000, -0.000000000000000000, -1.000000000000000000 ) ) ;
#381 = DIRECTION ( 'NONE',  ( 0.000000000000000000, 0.000000000000000000, 1.000000000000000000 ) ) ;
#382 = CIRCLE ( 'NONE', #666, 2.000000000000000000 ) ;
#383 = DIRECTION ( 'NONE',  ( -0.000000000000000000, -0.000000000000000000, -1.000000000000000000 ) ) ;
#384 = CARTESIAN_POINT ( 'NONE',  ( -4.349999999999999645, 5.815374822292399013E-16, 5.000000000000000000 ) ) ;
#385 = EDGE_LOOP ( 'NONE', ( #548, #517 ) ) ;
#386 = VECTOR ( 'NONE', #344, 1000.000000000000000 ) ;
#387 = ORIENTED_EDGE ( 'NONE', *, *, #373, .T. ) ;
#388 = ORIENTED_EDGE ( 'NONE', *, *, #197, .F. ) ;
#389 = AXIS2_PLACEMENT_3D ( 'NONE', #245, #295, #77 ) ;
#390 = CARTESIAN_POINT ( 'NONE',  ( 24.53939201416945792, -5.000000000000000000, 0.000000000000000000 ) ) ;
#391 = CLOSED_SHELL ( 'NONE', ( #692, #118, #627, #452, #560, #401, #394, #477, #534, #289, #135, #426, #416, #412, #526, #470, #46, #17, #98, #151 ) ) ;
#392 = DIRECTION ( 'NONE',  ( -0.000000000000000000, -0.000000000000000000, -1.000000000000000000 ) ) ;
#393 = VERTEX_POINT ( 'NONE', #653 ) ;
#394 = ADVANCED_FACE ( 'NONE', ( #461, #189, #510, #551, #456, #293 ), #617, .T. ) ;
#395 = ORIENTED_EDGE ( 'NONE', *, *, #311, .F. ) ;
#396 = DIRECTION ( 'NONE',  ( 0.000000000000000000, 0.000000000000000000, 1.000000000000000000 ) ) ;
#397 = CARTESIAN_POINT ( 'NONE',  ( 24.53939201416945792, -3.000000000000000000, 0.000000000000000000 ) ) ;
#398 = AXIS2_PLACEMENT_3D ( 'NONE', #690, #211, #103 ) ;
#399 = DIRECTION ( 'NONE',  ( -0.000000000000000000, -0.000000000000000000, -1.000000000000000000 ) ) ;
#400 = LINE ( 'NONE', #79, #688 ) ;
#401 = ADVANCED_FACE ( 'NONE', ( #450 ), #237, .T. ) ;
#402 = CARTESIAN_POINT ( 'NONE',  ( 0.000000000000000000, 0.000000000000000000, 5.000000000000000000 ) ) ;
#403 = CARTESIAN_POINT ( 'NONE',  ( 7.589415207398531038E-16, -6.000000000000000000, 5.000000000000000000 ) ) ;
#404 = VERTEX_POINT ( 'NONE', #80 ) ;
#405 = CARTESIAN_POINT ( 'NONE',  ( 0.000000000000000000, 5.999999999999998224, 0.000000000000000000 ) ) ;
#406 = CARTESIAN_POINT ( 'NONE',  ( 6.000000000000000000, 3.794707603699265519E-16, 5.000000000000000000 ) ) ;
#407 = ORIENTED_EDGE ( 'NONE', *, *, #640, .T. ) ;
#408 = DIRECTION ( 'NONE',  ( 0.000000000000000000, 0.000000000000000000, 1.000000000000000000 ) ) ;
#409 = EDGE_LOOP ( 'NONE', ( #89, #230, #388, #177 ) ) ;
#410 = PRODUCT ( 'arrow', 'arrow', '', ( #97 ) ) ;
#411 = EDGE_CURVE ( 'NONE', #74, #472, #347, .T. ) ;
#412 = ADVANCED_FACE ( 'NONE', ( #66 ), #298, .F. ) ;
#413 = ORIENTED_EDGE ( 'NONE', *, *, #578, .T. ) ;
#414 = CIRCLE ( 'NONE', #309, 1.650000000000000355 ) ;
#415 = CYLINDRICAL_SURFACE ( 'NONE', #303, 1.650000000000000355 ) ;
#416 = ADVANCED_FACE ( 'NONE', ( #180 ), #22, .F. ) ;
#417 = ORIENTED_EDGE ( 'NONE', *, *, #277, .F. ) ;
#418 = AXIS2_PLACEMENT_3D ( 'NONE', #235, #558, #73 ) ;
#419 = ORIENTED_EDGE ( 'NONE', *, *, #578, .F. ) ;
#420 = CIRCLE ( 'NONE', #147, 1.650000000000001243 ) ;
#421 = ORIENTED_EDGE ( 'NONE', *, *, #575, .T. ) ;
#422 = CIRCLE ( 'NONE', #519, 1.649999999999999911 ) ;
#423 = ORIENTED_EDGE ( 'NONE', *, *, #185, .T. ) ;
#424 = AXIS2_PLACEMENT_3D ( 'NONE', #405, #505, #351 ) ;
#425 = FILL_AREA_STYLE ('',( #3 ) ) ;
#426 = ADVANCED_FACE ( 'NONE', ( #105 ), #160, .T. ) ;
#427 =( NAMED_UNIT ( * ) SI_UNIT ( $, .STERADIAN. ) SOLID_ANGLE_UNIT ( ) );
#428 = CIRCLE ( 'NONE', #212, 1.649999999999999911 ) ;
#429 = DIRECTION ( 'NONE',  ( 1.000000000000000000, 0.000000000000000000, 0.000000000000000000 ) ) ;
#430 = SURFACE_STYLE_USAGE ( .BOTH. , #635 ) ;
#431 = CARTESIAN_POINT ( 'NONE',  ( 0.000000000000000000, 0.000000000000000000, 5.000000000000000000 ) ) ;
#432 =( NAMED_UNIT ( * ) SI_UNIT ( $, .STERADIAN. ) SOLID_ANGLE_UNIT ( ) );
#433 = APPLICATION_PROTOCOL_DEFINITION ( 'draft international standard', 'automotive_design', 1998, #149 ) ;
#434 = EDGE_CURVE ( 'NONE', #296, #511, #587, .T. ) ;
#435 = CARTESIAN_POINT ( 'NONE',  ( 24.53939201416945792, -5.000000000000000000, 0.000000000000000000 ) ) ;
#436 = DIRECTION ( 'NONE',  ( 0.000000000000000000, 0.000000000000000000, 1.000000000000000000 ) ) ;
#437 = CARTESIAN_POINT ( 'NONE',  ( 9.539392014169457923, -3.000000000000003997, 0.000000000000000000 ) ) ;
#438 = CARTESIAN_POINT ( 'NONE',  ( -1.649999999999999467, -6.000000000000000000, 0.000000000000000000 ) ) ;
#439 = DIRECTION ( 'NONE',  ( -0.000000000000000000, -0.000000000000000000, -1.000000000000000000 ) ) ;
#440 = DIRECTION ( 'NONE',  ( 0.000000000000000000, 0.000000000000000000, 1.000000000000000000 ) ) ;
#441 = ORIENTED_EDGE ( 'NONE', *, *, #253, .F. ) ;
#442 = ORIENTED_EDGE ( 'NONE', *, *, #636, .T. ) ;
#443 = CARTESIAN_POINT ( 'NONE',  ( 1.650000000000001243, -6.000000000000000000, 5.000000000000000000 ) ) ;
#444 = DIRECTION ( 'NONE',  ( 1.000000000000000000, 0.000000000000000000, 0.000000000000000000 ) ) ;
#445 = EDGE_CURVE ( 'NONE', #511, #314, #594, .T. ) ;
#446 = CARTESIAN_POINT ( 'NONE',  ( 0.000000000000000000, 0.000000000000000000, 5.000000000000000000 ) ) ;
#447 = VERTEX_POINT ( 'NONE', #155 ) ;
#448 = VERTEX_POINT ( 'NONE', #438 ) ;
#449 = ORIENTED_EDGE ( 'NONE', *, *, #71, .F. ) ;
#450 = FACE_OUTER_BOUND ( 'NONE', #236, .T. ) ;
#451 = DIRECTION ( 'NONE',  ( 1.000000000000000000, 0.000000000000000000, 0.000000000000000000 ) ) ;
#452 = ADVANCED_FACE ( 'NONE', ( #376 ), #317, .F. ) ;
#453 = CARTESIAN_POINT ( 'NONE',  ( 9.539392014169457923, 3.000000000000000000, 5.000000000000000000 ) ) ;
#454 = DIRECTION ( 'NONE',  ( -1.000000000000000000, 0.000000000000000000, 0.000000000000000000 ) ) ;
#455 = CIRCLE ( 'NONE', #121, 1.650000000000000355 ) ;
#456 = FACE_BOUND ( 'NONE', #13, .T. ) ;
#457 = DIRECTION ( 'NONE',  ( -0.000000000000000000, -1.000000000000000000, -0.000000000000000000 ) ) ;
#458 = ORIENTED_EDGE ( 'NONE', *, *, #176, .T. ) ;
#459 = EDGE_LOOP ( 'NONE', ( #28, #112, #115, #254 ) ) ;
#460 = AXIS2_PLACEMENT_3D ( 'NONE', #431, #371, #220 ) ;
#461 = FACE_BOUND ( 'NONE', #240, .T. ) ;
#462 = VERTEX_POINT ( 'NONE', #215 ) ;
#463 = EDGE_CURVE ( 'NONE', #296, #508, #382, .T. ) ;
#464 = CARTESIAN_POINT ( 'NONE',  ( -4.349999999999999645, 5.815374822292400000E-16, 0.000000000000000000 ) ) ;
#465 = EDGE_LOOP ( 'NONE', ( #514, #194, #554, #335 ) ) ;
#466 = CIRCLE ( 'NONE', #478, 1.650000000000000355 ) ;
#467 = ORIENTED_EDGE ( 'NONE', *, *, #686, .T. ) ;
#468 = DIRECTION ( 'NONE',  ( 0.000000000000000000, -0.000000000000000000, -1.000000000000000000 ) ) ;
#469 = VECTOR ( 'NONE', #233, 1000.000000000000000 ) ;
#470 = ADVANCED_FACE ( 'NONE', ( #540 ), #266, .F. ) ;
#471 = ORIENTED_EDGE ( 'NONE', *, *, #125, .F. ) ;
#472 = VERTEX_POINT ( 'NONE', #435 ) ;
#473 = VERTEX_POINT ( 'NONE', #641 ) ;
#474 = VECTOR ( 'NONE', #634, 1000.000000000000000 ) ;
#475 = ADVANCED_BREP_SHAPE_REPRESENTATION ( 'arrow', ( #318, #16 ), #141 ) ;
#476 = VERTEX_POINT ( 'NONE', #323 ) ;
#477 = ADVANCED_FACE ( 'NONE', ( #538, #494, #56, #100, #163, #592 ), #379, .F. ) ;
#478 = AXIS2_PLACEMENT_3D ( 'NONE', #192, #408, #304 ) ;
#479 = DIRECTION ( 'NONE',  ( -0.000000000000000000, -0.000000000000000000, -1.000000000000000000 ) ) ;
#480 = CARTESIAN_POINT ( 'NONE',  ( 28.53939201416945792, 0.000000000000000000, 5.000000000000000000 ) ) ;
#481 = LINE ( 'NONE', #110, #522 ) ;
#482 = AXIS2_PLACEMENT_3D ( 'NONE', #328, #541, #271 ) ;
#483 = CARTESIAN_POINT ( 'NONE',  ( 1.650000000000000133, 5.999999999999998224, 5.000000000000000000 ) ) ;
#484 = DIRECTION ( 'NONE',  ( -1.000000000000000000, 0.000000000000000000, 0.000000000000000000 ) ) ;
#485 = LINE ( 'NONE', #639, #605 ) ;
#486 = CARTESIAN_POINT ( 'NONE',  ( 2.000000000000000000, 2.449293598294706414E-16, 0.000000000000000000 ) ) ;
#487 = CARTESIAN_POINT ( 'NONE',  ( -6.000000000000000000, 3.794707603699265519E-16, 0.000000000000000000 ) ) ;
#488 = AXIS2_PLACEMENT_3D ( 'NONE', #570, #563, #87 ) ;
#489 = DIRECTION ( 'NONE',  ( 0.000000000000000000, 0.000000000000000000, 1.000000000000000000 ) ) ;
#490 = FACE_OUTER_BOUND ( 'NONE', #42, .T. ) ;
#491 = DIRECTION ( 'NONE',  ( -1.000000000000000000, 0.000000000000000000, 0.000000000000000000 ) ) ;
#492 = EDGE_LOOP ( 'NONE', ( #417, #421, #312, #346 ) ) ;
#493 = DIRECTION ( 'NONE',  ( -1.000000000000000000, 0.000000000000000000, 0.000000000000000000 ) ) ;
#494 = FACE_BOUND ( 'NONE', #385, .T. ) ;
#495 = AXIS2_PLACEMENT_3D ( 'NONE', #174, #381, #451 ) ;
#496 = LINE ( 'NONE', #384, #469 ) ;
#497 = ORIENTED_EDGE ( 'NONE', *, *, #306, .F. ) ;
#498 = ORIENTED_EDGE ( 'NONE', *, *, #623, .T. ) ;
#499 = LINE ( 'NONE', #10, #191 ) ;
#500 = CARTESIAN_POINT ( 'NONE',  ( 7.589415207398531038E-16, -6.000000000000000000, 0.000000000000000000 ) ) ;
#501 = EDGE_CURVE ( 'NONE', #462, #668, #9, .T. ) ;
#502 = CYLINDRICAL_SURFACE ( 'NONE', #524, 2.000000000000000000 ) ;
#503 = EDGE_LOOP ( 'NONE', ( #133, #223, #278, #367 ) ) ;
#504 = CARTESIAN_POINT ( 'NONE',  ( 24.53939201416945792, -3.000000000000000000, 5.000000000000000000 ) ) ;
#505 = DIRECTION ( 'NONE',  ( 0.000000000000000000, 0.000000000000000000, 1.000000000000000000 ) ) ;
#506 = DIRECTION ( 'NONE',  ( 1.000000000000000000, 0.000000000000000000, 0.000000000000000000 ) ) ;
#507 = CARTESIAN_POINT ( 'NONE',  ( 7.589415207398531038E-16, -6.000000000000000000, 5.000000000000000000 ) ) ;
#508 = VERTEX_POINT ( 'NONE', #270 ) ;
#509 = EDGE_LOOP ( 'NONE', ( #150, #395, #441, #26 ) ) ;
#510 = FACE_OUTER_BOUND ( 'NONE', #143, .T. ) ;
#511 = VERTEX_POINT ( 'NONE', #486 ) ;
#512 = EDGE_CURVE ( 'NONE', #476, #447, #2, .T. ) ;
#513 = CARTESIAN_POINT ( 'NONE',  ( 7.589415207398531038E-16, -6.000000000000000000, 5.000000000000000000 ) ) ;
#514 = ORIENTED_EDGE ( 'NONE', *, *, #434, .F. ) ;
#515 = ORIENTED_EDGE ( 'NONE', *, *, #142, .T. ) ;
#516 = VECTOR ( 'NONE', #120, 1000.000000000000000 ) ;
#517 = ORIENTED_EDGE ( 'NONE', *, *, #445, .T. ) ;
#518 = DIRECTION ( 'NONE',  ( -1.000000000000000000, -0.000000000000000000, -0.000000000000000000 ) ) ;
#519 = AXIS2_PLACEMENT_3D ( 'NONE', #507, #20, #39 ) ;
#520 = CIRCLE ( 'NONE', #424, 1.650000000000000133 ) ;
#521 = FACE_OUTER_BOUND ( 'NONE', #360, .T. ) ;
#522 = VECTOR ( 'NONE', #168, 1000.000000000000114 ) ;
#523 = EDGE_CURVE ( 'NONE', #600, #170, #678, .T. ) ;
#524 = AXIS2_PLACEMENT_3D ( 'NONE', #446, #7, #491 ) ;
#525 = ORIENTED_EDGE ( 'NONE', *, *, #636, .F. ) ;
#526 = ADVANCED_FACE ( 'NONE', ( #113 ), #331, .F. ) ;
#527 = ORIENTED_EDGE ( 'NONE', *, *, #572, .F. ) ;
#528 = ORIENTED_EDGE ( 'NONE', *, *, #256, .T. ) ;
#529 = EDGE_CURVE ( 'NONE', #63, #611, #585, .T. ) ;
#530 = ORIENTED_EDGE ( 'NONE', *, *, #327, .F. ) ;
#531 = DIRECTION ( 'NONE',  ( -0.000000000000000000, -0.000000000000000000, -1.000000000000000000 ) ) ;
#532 = PLANE ( 'NONE',  #398 ) ;
#533 = DIRECTION ( 'NONE',  ( 0.000000000000000000, 0.000000000000000000, 1.000000000000000000 ) ) ;
#534 = ADVANCED_FACE ( 'NONE', ( #227 ), #532, .F. ) ;
#535 =( LENGTH_UNIT ( ) NAMED_UNIT ( * ) SI_UNIT ( .MILLI., .METRE. ) );
#536 = VECTOR ( 'NONE', #439, 1000.000000000000000 ) ;
#537 = LINE ( 'NONE', #162, #262 ) ;
#538 = FACE_OUTER_BOUND ( 'NONE', #294, .T. ) ;
#539 = CIRCLE ( 'NONE', #83, 1.650000000000001243 ) ;
#540 = FACE_OUTER_BOUND ( 'NONE', #465, .T. ) ;
#541 = DIRECTION ( 'NONE',  ( 1.000000000000000000, 0.000000000000000000, 0.000000000000000000 ) ) ;
#542 = DIRECTION ( 'NONE',  ( -0.6246950475544241765, 0.7808688094430302762, -0.000000000000000000 ) ) ;
#543 = ORIENTED_EDGE ( 'NONE', *, *, #4, .T. ) ;
#544 = AXIS2_PLACEMENT_3D ( 'NONE', #453, #663, #468 ) ;
#545 = APPLICATION_CONTEXT ( 'automotive_design' ) ;
#546 = DIRECTION ( 'NONE',  ( -0.6246950475544241765, -0.7808688094430302762, 0.000000000000000000 ) ) ;
#547 = CARTESIAN_POINT ( 'NONE',  ( 4.349999999999997868, 3.794707603699265519E-16, 0.000000000000000000 ) ) ;
#548 = ORIENTED_EDGE ( 'NONE', *, *, #597, .T. ) ;
#549 = CARTESIAN_POINT ( 'NONE',  ( 24.53939201416945792, 5.000000000000000000, 0.000000000000000000 ) ) ;
#550 = EDGE_CURVE ( 'NONE', #78, #246, #414, .T. ) ;
#551 = FACE_BOUND ( 'NONE', #340, .T. ) ;
#552 = VECTOR ( 'NONE', #655, 1000.000000000000000 ) ;
#553 = CARTESIAN_POINT ( 'NONE',  ( 28.53939201416945792, 0.000000000000000000, 5.000000000000000000 ) ) ;
#554 = ORIENTED_EDGE ( 'NONE', *, *, #53, .T. ) ;
#555 = DIRECTION ( 'NONE',  ( 0.6246950475544241765, 0.7808688094430302762, -0.000000000000000000 ) ) ;
#556 = DIRECTION ( 'NONE',  ( -1.000000000000000000, 0.000000000000000000, 0.000000000000000000 ) ) ;
#557 = LINE ( 'NONE', #219, #172 ) ;
#558 = DIRECTION ( 'NONE',  ( 0.000000000000000000, 0.000000000000000000, 1.000000000000000000 ) ) ;
#559 = VERTEX_POINT ( 'NONE', #609 ) ;
#560 = ADVANCED_FACE ( 'NONE', ( #338 ), #502, .F. ) ;
#561 = CARTESIAN_POINT ( 'NONE',  ( 6.000000000000000000, 3.794707603699265519E-16, 0.000000000000000000 ) ) ;
#562 = EDGE_LOOP ( 'NONE', ( #515, #651, #202, #407 ) ) ;
#563 = DIRECTION ( 'NONE',  ( 0.000000000000000000, 0.000000000000000000, 1.000000000000000000 ) ) ;
#564 = ORIENTED_EDGE ( 'NONE', *, *, #268, .F. ) ;
#565 = DIRECTION ( 'NONE',  ( 1.000000000000000000, 0.000000000000000000, 0.000000000000000000 ) ) ;
#566 = DIRECTION ( 'NONE',  ( 1.000000000000000000, 0.000000000000000000, -0.000000000000000000 ) ) ;
#567 = ORIENTED_EDGE ( 'NONE', *, *, #319, .F. ) ;
#568 = CYLINDRICAL_SURFACE ( 'NONE', #35, 1.650000000000000355 ) ;
#569 = ORIENTED_EDGE ( 'NONE', *, *, #185, .F. ) ;
#570 = CARTESIAN_POINT ( 'NONE',  ( 6.000000000000000000, 3.794707603699265519E-16, 0.000000000000000000 ) ) ;
#571 = VECTOR ( 'NONE', #479, 1000.000000000000000 ) ;
#572 = EDGE_CURVE ( 'NONE', #246, #131, #496, .T. ) ;
#573 = VERTEX_POINT ( 'NONE', #437 ) ;
#574 = AXIS2_PLACEMENT_3D ( 'NONE', #375, #161, #324 ) ;
#575 = EDGE_CURVE ( 'NONE', #668, #462, #156, .T. ) ;
#576 = EDGE_LOOP ( 'NONE', ( #442, #449, #353, #581 ) ) ;
#577 = ORIENTED_EDGE ( 'NONE', *, *, #311, .T. ) ;
#578 = EDGE_CURVE ( 'NONE', #600, #308, #280, .T. ) ;
#579 = VECTOR ( 'NONE', #119, 1000.000000000000000 ) ;
#580 = CARTESIAN_POINT ( 'NONE',  ( 24.53939201416945792, -5.000000000000000000, 5.000000000000000000 ) ) ;
#581 = ORIENTED_EDGE ( 'NONE', *, *, #268, .T. ) ;
#582 = SHAPE_DEFINITION_REPRESENTATION ( #676, #475 ) ;
#583 = AXIS2_PLACEMENT_3D ( 'NONE', #596, #52, #263 ) ;
#584 = ORIENTED_EDGE ( 'NONE', *, *, #529, .T. ) ;
#585 = LINE ( 'NONE', #279, #252 ) ;
#586 = EDGE_CURVE ( 'NONE', #78, #682, #122, .T. ) ;
#587 = LINE ( 'NONE', #642, #474 ) ;
#588 = CARTESIAN_POINT ( 'NONE',  ( -6.000000000000000000, 3.794707603699265519E-16, 5.000000000000000000 ) ) ;
#589 = CYLINDRICAL_SURFACE ( 'NONE', #45, 1.650000000000000355 ) ;
#590 = CARTESIAN_POINT ( 'NONE',  ( 0.000000000000000000, 0.000000000000000000, 5.000000000000000000 ) ) ;
#591 = CARTESIAN_POINT ( 'NONE',  ( 1.650000000000000133, 5.999999999999998224, 5.000000000000000000 ) ) ;
#592 = FACE_BOUND ( 'NONE', #282, .T. ) ;
#593 = DIRECTION ( 'NONE',  ( -0.000000000000000000, -0.000000000000000000, -1.000000000000000000 ) ) ;
#594 = CIRCLE ( 'NONE', #299, 2.000000000000000000 ) ;
#595 = CARTESIAN_POINT ( 'NONE',  ( 4.349999999999997868, 3.794707603699265519E-16, 5.000000000000000000 ) ) ;
#596 = CARTESIAN_POINT ( 'NONE',  ( 0.000000000000000000, 5.999999999999998224, 5.000000000000000000 ) ) ;
#597 = EDGE_CURVE ( 'NONE', #314, #511, #339, .T. ) ;
#598 = CARTESIAN_POINT ( 'NONE',  ( -10.00000000000000178, 0.000000000000000000, 5.000000000000000000 ) ) ;
#599 = AXIS2_PLACEMENT_3D ( 'NONE', #179, #247, #493 ) ;
#600 = VERTEX_POINT ( 'NONE', #598 ) ;
#601 = CARTESIAN_POINT ( 'NONE',  ( 4.349999999999998757, 3.794707603699265519E-16, 5.000000000000000000 ) ) ;
#602 = CARTESIAN_POINT ( 'NONE',  ( 24.53939201416945792, -5.000000000000000000, 5.000000000000000000 ) ) ;
#603 = DIRECTION ( 'NONE',  ( 0.000000000000000000, 0.000000000000000000, 1.000000000000000000 ) ) ;
#604 = ORIENTED_EDGE ( 'NONE', *, *, #373, .F. ) ;
#605 = VECTOR ( 'NONE', #593, 1000.000000000000000 ) ;
#606 = VERTEX_POINT ( 'NONE', #553 ) ;
#607 = CARTESIAN_POINT ( 'NONE',  ( 6.000000000000000000, 3.794707603699265519E-16, 5.000000000000000000 ) ) ;
#608 = CARTESIAN_POINT ( 'NONE',  ( 24.53939201416945792, -3.000000000000000000, 5.000000000000000000 ) ) ;
#609 = CARTESIAN_POINT ( 'NONE',  ( 1.650000000000000133, 5.999999999999998224, 0.000000000000000000 ) ) ;
#610 = CARTESIAN_POINT ( 'NONE',  ( 9.539392014169457923, 3.000000000000000000, 0.000000000000000000 ) ) ;
#611 = VERTEX_POINT ( 'NONE', #67 ) ;
#612 = DIRECTION ( 'NONE',  ( -0.000000000000000000, -0.000000000000000000, -1.000000000000000000 ) ) ;
#613 = ORIENTED_EDGE ( 'NONE', *, *, #90, .F. ) ;
#614 = DIRECTION ( 'NONE',  ( 1.000000000000000000, 0.000000000000000000, 0.000000000000000000 ) ) ;
#615 = ORIENTED_EDGE ( 'NONE', *, *, #523, .F. ) ;
#616 = VERTEX_POINT ( 'NONE', #595 ) ;
#617 = PLANE ( 'NONE',  #363 ) ;
#618 = ORIENTED_EDGE ( 'NONE', *, *, #197, .T. ) ;
#619 = CARTESIAN_POINT ( 'NONE',  ( 7.650000000000002132, 5.815374822292400000E-16, 0.000000000000000000 ) ) ;
#620 = ORIENTED_EDGE ( 'NONE', *, *, #142, .F. ) ;
#621 = VERTEX_POINT ( 'NONE', #284 ) ;
#622 = CARTESIAN_POINT ( 'NONE',  ( -6.000000000000000000, 3.794707603699265519E-16, 5.000000000000000000 ) ) ;
#623 = EDGE_CURVE ( 'NONE', #611, #448, #428, .T. ) ;
#624 = VECTOR ( 'NONE', #261, 1000.000000000000000 ) ;
#625 = ORIENTED_EDGE ( 'NONE', *, *, #4, .F. ) ;
#626 = COLOUR_RGB ( '',0.7921568627450980005, 0.8196078431372548767, 0.9333333333333333481 ) ;
#627 = ADVANCED_FACE ( 'NONE', ( #114 ), #18, .F. ) ;
#628 = ORIENTED_EDGE ( 'NONE', *, *, #277, .T. ) ;
#629 = VECTOR ( 'NONE', #70, 1000.000000000000000 ) ;
#630 = DIRECTION ( 'NONE',  ( -0.6246950475544241765, 0.7808688094430302762, -0.000000000000000000 ) ) ;
#631 = ORIENTED_EDGE ( 'NONE', *, *, #463, .F. ) ;
#632 = VECTOR ( 'NONE', #457, 1000.000000000000000 ) ;
#633 = ORIENTED_EDGE ( 'NONE', *, *, #276, .T. ) ;
#634 = DIRECTION ( 'NONE',  ( -0.000000000000000000, -0.000000000000000000, -1.000000000000000000 ) ) ;
#635 = SURFACE_SIDE_STYLE ('',( #101 ) ) ;
#636 = EDGE_CURVE ( 'NONE', #573, #74, #181, .T. ) ;
#637 = AXIS2_PLACEMENT_3D ( 'NONE', #50, #489, #5 ) ;
#638 = DIRECTION ( 'NONE',  ( -0.000000000000000000, -0.000000000000000000, -1.000000000000000000 ) ) ;
#639 = CARTESIAN_POINT ( 'NONE',  ( 9.539392014169457923, -3.000000000000003997, 5.000000000000000000 ) ) ;
#640 = EDGE_CURVE ( 'NONE', #476, #404, #557, .T. ) ;
#641 = CARTESIAN_POINT ( 'NONE',  ( 9.539392014169457923, 3.000000000000000000, 0.000000000000000000 ) ) ;
#642 = CARTESIAN_POINT ( 'NONE',  ( 2.000000000000000000, 2.449293598294706414E-16, 5.000000000000000000 ) ) ;
#643 = CARTESIAN_POINT ( 'NONE',  ( -1.649999999999999467, -6.000000000000000000, 5.000000000000000000 ) ) ;
#644 = DIRECTION ( 'NONE',  ( -0.000000000000000000, -0.000000000000000000, -1.000000000000000000 ) ) ;
#645 = EDGE_CURVE ( 'NONE', #8, #229, #111, .T. ) ;
#646 = CARTESIAN_POINT ( 'NONE',  ( 0.000000000000000000, 5.999999999999998224, 5.000000000000000000 ) ) ;
#647 = CARTESIAN_POINT ( 'NONE',  ( -4.349999999999999645, 5.815374822292400000E-16, 5.000000000000000000 ) ) ;
#648 = AXIS2_PLACEMENT_3D ( 'NONE', #561, #173, #506 ) ;
#649 = CARTESIAN_POINT ( 'NONE',  ( 9.539392014169457923, 3.000000000000000000, 5.000000000000000000 ) ) ;
#650 = ORIENTED_EDGE ( 'NONE', *, *, #645, .T. ) ;
#651 = ORIENTED_EDGE ( 'NONE', *, *, #662, .F. ) ;
#652 = LINE ( 'NONE', #601, #579 ) ;
#653 = CARTESIAN_POINT ( 'NONE',  ( 24.53939201416945792, 5.000000000000000000, 5.000000000000000000 ) ) ;
#654 = AXIS2_PLACEMENT_3D ( 'NONE', #660, #644, #333 ) ;
#655 = DIRECTION ( 'NONE',  ( -0.000000000000000000, -0.000000000000000000, -1.000000000000000000 ) ) ;
#656 = VERTEX_POINT ( 'NONE', #547 ) ;
#657 = ORIENTED_EDGE ( 'NONE', *, *, #378, .F. ) ;
#658 = CARTESIAN_POINT ( 'NONE',  ( -7.650000000000000355, 3.794707603699265519E-16, 5.000000000000000000 ) ) ;
#659 = DIRECTION ( 'NONE',  ( 0.000000000000000000, 0.000000000000000000, 1.000000000000000000 ) ) ;
#660 = CARTESIAN_POINT ( 'NONE',  ( 6.000000000000000000, 3.794707603699265519E-16, 5.000000000000000000 ) ) ;
#661 = VECTOR ( 'NONE', #380, 1000.000000000000000 ) ;
#662 = EDGE_CURVE ( 'NONE', #447, #473, #59, .T. ) ;
#663 = DIRECTION ( 'NONE',  ( 0.000000000000000000, -1.000000000000000000, 0.000000000000000000 ) ) ;
#664 = EDGE_LOOP ( 'NONE', ( #618, #91 ) ) ;
#665 = DIRECTION ( 'NONE',  ( -1.000000000000000000, -1.156482317317871478E-16, 0.000000000000000000 ) ) ;
#666 = AXIS2_PLACEMENT_3D ( 'NONE', #167, #533, #217 ) ;
#667 = DIRECTION ( 'NONE',  ( 1.000000000000000000, 1.156482317317871478E-16, -0.000000000000000000 ) ) ;
#668 = VERTEX_POINT ( 'NONE', #483 ) ;
#669 = CARTESIAN_POINT ( 'NONE',  ( 0.000000000000000000, 0.000000000000000000, 5.000000000000000000 ) ) ;
#670 = CARTESIAN_POINT ( 'NONE',  ( -1.649999999999999467, -6.000000000000000000, 5.000000000000000000 ) ) ;
#671 = ORIENTED_EDGE ( 'NONE', *, *, #146, .F. ) ;
#672 = CIRCLE ( 'NONE', #389, 1.649999999999999911 ) ;
#673 = PLANE ( 'NONE',  #544 ) ;
#674 = ORIENTED_EDGE ( 'NONE', *, *, #662, .T. ) ;
#675 = EDGE_LOOP ( 'NONE', ( #139, #628, #248, #41 ) ) ;
#676 = PRODUCT_DEFINITION_SHAPE ( 'NONE', 'NONE',  #206 ) ;
#677 = CYLINDRICAL_SURFACE ( 'NONE', #249, 1.650000000000000355 ) ;
#678 = CIRCLE ( 'NONE', #637, 10.00000000000000178 ) ;
#679 = EDGE_CURVE ( 'NONE', #621, #472, #366, .T. ) ;
#680 = ORIENTED_EDGE ( 'NONE', *, *, #679, .F. ) ;
#681 = ORIENTED_EDGE ( 'NONE', *, *, #198, .F. ) ;
#682 = VERTEX_POINT ( 'NONE', #315 ) ;
#683 = DIRECTION ( 'NONE',  ( 0.000000000000000000, 0.000000000000000000, 1.000000000000000000 ) ) ;
#684 = VERTEX_POINT ( 'NONE', #258 ) ;
#685 = AXIS2_PLACEMENT_3D ( 'NONE', #69, #128, #251 ) ;
#686 = EDGE_CURVE ( 'NONE', #606, #393, #537, .T. ) ;
#687 =( LENGTH_UNIT ( ) NAMED_UNIT ( * ) SI_UNIT ( .MILLI., .METRE. ) );
#688 = VECTOR ( 'NONE', #171, 1000.000000000000000 ) ;
#689 = CIRCLE ( 'NONE', #307, 1.650000000000000355 ) ;
#690 = CARTESIAN_POINT ( 'NONE',  ( 24.53939201416945792, 5.000000000000000000, 5.000000000000000000 ) ) ;
#691 = CARTESIAN_POINT ( 'NONE',  ( 24.53939201416945792, -3.000000000000000000, 5.000000000000000000 ) ) ;
#692 = ADVANCED_FACE ( 'NONE', ( #269 ), #589, .F. ) ;
#693 = AXIS2_PLACEMENT_3D ( 'NONE', #480, #374, #546 ) ;
ENDSEC;
END-ISO-10303-21;
